<?xml version="1.0" standalone="no"?><!DOCTYPE svg PUBLIC "-//W3C//DTD SVG 1.1//EN" "http://www.w3.org/Graphics/SVG/1.1/DTD/svg11.dtd" ><svg xmlns="http://www.w3.org/2000/svg"><metadata></metadata><defs><font id="Flexifont:?1รกรกS.Regular" horiz-adv-x="512"><font-face font-family="AZPPT_1_1436212_19" font-weight="400" font-stretch="normal" units-per-em="512" panose-1="2 1 6 0 1 1 1 1 1 1" ascent="440" descent="-72" x-height="1" bbox="-1 -67 480 431" underline-thickness="0" underline-position="0" unicode-range="U+0000-ff1a" /><missing-glyph horiz-adv-x="512"  /><glyph glyph-name="" unicode="!" d="M103 33 q8 -11 19 -22 q9 -7 22 -7 q4 3 7 7 q1 11 -7 16 q-20 9 -41 6 ZM100 370 q5 -109 9 -224 q-4 -26 -4 -55 q8 -9 19 -18 q9 -5 17 2 q1 144 5 283 q-8 9 -19 10 q-15 3 -27 2 Z" /><glyph glyph-name="" unicode="&quot;" d="M169 346 q-4 -25 -2 -52 q14 -16 33 -29 q10 -1 17 6 q1 30 3 59 q-5 8 -13 10 q-20 6 -38 6 ZM36 355 q1 -25 1 -54 q12 -12 27 -27 q8 -3 18 -3 q5 4 7 10 q0 29 -1 56 q-3 5 -6 9 q-23 10 -46 9 Z" /><glyph glyph-name="" unicode="#" d="M189 348 q-5 -57 -19 -112 q-14 1 -26 -1 q0 23 4 46 q-2 6 -5 10 q-14 9 -31 9 q-6 -30 -8 -62 q-47 1 -96 2 q2 -23 22 -38 q34 0 68 2 q-5 -39 -15 -79 q-33 4 -61 -3 q4 -16 15 -31 q15 -7 35 -4 q-6 -17 -8 -38 q6 -12 14 -24 q5 -1 12 -1 q6 36 19 67 q16 3 35 2 q-7 -26 -13 -54 q6 -11 14 -22 q5 -2 11 0 q10 38 16 78 q32 2 65 0 q6 6 5 15 q-9 14 -24 15 q-19 -1 -38 -2 q6 43 21 84 q3 -1 8 -1 q6 6 5 17 q-2 6 -7 8 q11 43 18 88 q1 14 -6 22 q-17 7 -30 7 ZM166 208 q-9 -41 -15 -84 q-17 -1 -33 2 q10 40 19 79 q15 3 29 3 Z" /><glyph glyph-name="" unicode="$" d="M94 388 q-2 -35 0 -72 q-16 0 -28 -9 q-26 -28 -41 -67 q-3 -13 -2 -28 q13 -23 36 -39 q18 -4 38 -4 q3 -29 2 -65 q-28 1 -57 1 q-14 -2 -27 -9 q-10 -4 -10 -15 q9 -15 24 -26 q12 2 20 15 q21 10 48 7 q0 -46 -5 -93 q7 -9 17 -20 q4 -2 11 -2 q4 4 5 9 q0 53 -1 105 q31 0 64 1 q10 3 21 6 q10 7 21 17 q9 21 5 43 q-7 26 -26 43 q-20 8 -40 11 q-21 -1 -43 -1 q-1 45 3 90 q23 -5 41 -26 q0 -7 2 -14 q10 -16 25 -27 q7 -1 13 3 q1 14 0 27 q-5 11 -12 20 q-23 20 -48 35 q-10 5 -19 6 q0 30 2 61 q-2 6 -6 10 q-18 7 -33 7 ZM191 169 q9 -12 8 -32 q-4 -8 -9 -17 q-14 -10 -30 -15 q-18 -2 -37 -2 q-2 33 1 65 q32 4 67 1 ZM94 278 q2 -39 4 -81 q-22 -4 -40 4 q-2 11 0 22 q10 32 36 55 Z" /><glyph glyph-name="" unicode="%" d="M164 160 q-25 -30 -42 -68 q-9 -22 -14 -46 q0 -7 2 -14 q8 -8 19 -20 q10 -4 24 -3 q23 10 39 30 q22 31 41 63 q3 10 6 21 q1 15 -3 27 q-8 7 -16 11 q-13 2 -24 4 q-15 -4 -32 -5 ZM207 132 q-4 -26 -21 -48 q-19 -23 -43 -42 q1 13 8 25 q18 30 38 55 q7 10 18 10 ZM68 323 q-14 -9 -23 -25 q-24 -40 -35 -86 q-2 -13 -2 -28 q7 -13 20 -23 q11 -4 24 -2 q14 8 26 16 q23 25 43 53 q13 22 20 46 l0 21 q-12 16 -30 25 q-21 10 -43 3 ZM111 291 q0 -20 -10 -38 q-11 -14 -20 -28 q-19 -21 -41 -33 q1 14 7 26 q17 38 43 67 q9 10 21 6 ZM193 321 q-78 -141 -159 -277 q6 -11 20 -13 q28 45 54 93 q59 85 119 169 q8 18 16 35 l0 14 q-6 7 -14 10 q-12 2 -23 2 q-8 -15 -13 -33 Z" /><glyph glyph-name="" unicode="&amp;" d="M98 341 q-10 -5 -19 -12 q-18 -16 -23 -40 q-1 -17 1 -35 q6 -23 15 -47 q-17 -12 -29 -31 q-20 -32 -28 -70 q-3 -21 0 -42 q10 -16 23 -33 q14 -12 33 -18 q19 -1 40 -1 q12 4 25 8 q26 19 46 47 q22 -25 47 -48 q11 -1 15 8 q1 11 -4 18 q-24 21 -45 43 q23 33 43 69 q0 11 -6 18 q-17 7 -32 9 q-14 -35 -35 -67 q-32 29 -49 64 q33 10 69 19 q10 10 20 21 q7 16 12 33 q1 21 0 41 q-4 17 -12 31 q-11 12 -23 17 q-17 3 -31 7 q-28 -1 -53 -9 ZM94 167 q26 -34 58 -68 q-18 -25 -42 -45 q-21 -11 -48 -10 q-8 4 -10 12 q-3 25 3 47 q7 19 16 37 q10 15 23 27 ZM175 317 q4 -15 4 -32 q-3 -14 -6 -28 q-13 -19 -32 -28 q-22 -4 -41 -7 q-7 24 -5 49 q2 11 8 20 q14 18 35 25 q18 3 37 1 Z" /><glyph glyph-name="" unicode="&#39;" d="M92 354 q1 -40 0 -81 q7 -9 19 -19 l20 0 q1 46 1 92 q-7 5 -13 7 q-15 2 -27 1 Z" /><glyph glyph-name="" unicode="(" d="M190 389 q-19 -10 -33 -27 q-17 -23 -30 -48 q-19 -44 -28 -91 q-8 -68 0 -137 q9 -19 20 -39 q20 -22 45 -44 q31 -21 68 -32 q9 3 14 11 q-3 4 -4 9 q-29 14 -59 25 q-16 13 -29 29 q-15 24 -22 51 q-5 48 1 94 q7 27 15 54 q18 42 46 79 q11 10 23 22 q24 10 46 22 q-1 11 -10 17 q-22 8 -48 8 q-8 -1 -15 -3 Z" /><glyph glyph-name="" unicode=")" d="M0 390 q23 -26 49 -49 q22 -29 40 -61 q14 -35 20 -75 q0 -29 0 -58 q-9 -39 -27 -73 q-29 -38 -55 -77 q13 -15 32 -26 q6 0 11 2 q38 63 69 130 q5 24 8 48 q0 41 -3 77 q-7 24 -15 47 q-19 37 -44 70 q-20 21 -40 38 q-21 9 -45 7 Z" /><glyph glyph-name="" unicode="*" d="M116 350 q1 -45 0 -88 q-21 19 -41 37 q-21 7 -41 7 q31 -32 63 -61 q-43 -26 -82 -58 q10 -14 25 -27 q7 -3 16 -3 q29 26 61 48 q1 -35 -3 -70 q10 -16 28 -25 q7 -1 12 5 q-2 44 3 84 q21 -12 42 -28 q9 -11 21 -23 q6 -5 15 -5 q3 3 7 6 q0 10 -6 17 q-37 30 -77 55 q-3 12 3 22 q35 18 68 35 q-1 5 -2 9 q-21 11 -42 11 q-11 -7 -23 -12 q-1 23 1 47 q-5 10 -14 13 q-18 3 -34 4 Z" /><glyph glyph-name="" unicode="+" d="M120 185 q-43 1 -87 1 q-6 -2 -4 -10 q10 -13 26 -22 q31 5 65 4 q2 -33 -6 -64 q9 -10 20 -18 q8 -1 16 0 q7 39 4 83 q34 0 67 3 q2 9 -2 16 q-15 6 -30 8 q-18 1 -34 -1 q0 50 3 100 q-4 5 -9 8 q-16 3 -31 4 q-6 -54 2 -112 Z" /><glyph glyph-name="" unicode="," d="M28 4 q-17 -13 -28 -23 q16 -22 40 -37 l9 0 q45 42 88 87 q0 11 -8 16 q-11 5 -20 9 q-18 2 -34 3 q-24 -28 -47 -55 Z" /><glyph glyph-name="" unicode="-" d="M6 191 q8 -10 20 -19 q85 7 172 5 q20 -3 42 -5 q4 9 1 17 q-15 7 -31 9 q-100 0 -198 2 q-8 0 -6 -9 Z" /><glyph glyph-name="" unicode="." d="M34 58 q-1 -10 3 -22 q11 -12 25 -23 q15 -5 28 4 q6 9 6 22 q-4 12 -15 16 q-24 6 -47 3 Z" /><glyph glyph-name="" unicode="/" d="M188 369 q-26 -81 -60 -161 q-35 -68 -73 -134 q-23 -30 -44 -60 q7 -7 15 -16 q7 -5 17 -4 q83 141 165 281 q15 36 30 71 q0 6 -2 11 q-9 5 -15 9 q-17 3 -33 3 Z" /><glyph glyph-name="" unicode="0" d="M109 353 q-24 -11 -37 -34 q-22 -38 -30 -81 q-9 -66 -3 -134 q5 -27 21 -51 q13 -14 28 -29 q12 -9 26 -15 q15 -5 33 -4 q10 3 19 9 q15 17 23 36 q4 18 9 36 q7 80 16 158 q1 28 0 54 q-16 22 -36 40 q-10 5 -20 9 q-25 6 -49 6 ZM154 322 q3 -10 6 -22 q6 -8 16 -18 q2 -72 -6 -144 q-6 -37 -21 -72 q-7 -10 -15 -21 q-10 -8 -21 -12 q-15 9 -24 23 q-15 26 -20 54 q-2 26 -1 52 q2 42 11 78 q10 31 31 58 q11 14 25 23 q9 6 19 1 Z" /><glyph glyph-name="" unicode="1" d="M56 345 q11 -17 31 -28 q5 1 10 0 q9 -80 10 -161 q-2 -57 -8 -113 q10 -11 21 -22 q11 -6 21 2 q1 144 2 288 q-3 16 -16 28 q-9 6 -18 9 q-22 5 -43 5 q-7 -2 -10 -8 Z" /><glyph glyph-name="" unicode="2" d="M91 353 q-15 -4 -28 -10 q-25 -12 -44 -33 q-10 -12 -14 -27 q-3 -28 6 -53 q13 -20 28 -39 q20 -20 41 -40 l10 0 q7 7 5 19 q-26 28 -52 57 q-4 12 -6 23 q0 11 3 21 q11 21 28 35 q15 11 32 18 q21 8 46 4 q3 -1 7 -5 q6 -17 11 -35 q4 -37 3 -78 q-4 -18 -13 -35 q-10 -9 -19 -18 q-39 -12 -74 -31 q-9 -9 -18 -21 q-9 -15 -13 -32 q-3 -13 -2 -28 q10 -18 28 -29 q45 17 92 30 q44 1 86 -8 q6 8 4 19 q-9 9 -17 11 q-48 10 -99 7 q-27 -2 -50 -12 q-1 12 9 23 q10 11 21 18 q31 13 63 25 q11 10 20 22 q7 15 11 31 q2 53 -3 103 q-6 22 -14 42 q-8 9 -14 16 q-16 9 -34 12 q-21 1 -40 -2 Z" /><glyph glyph-name="" unicode="3" d="M9 339 q8 -21 26 -35 q64 7 125 15 q-27 -43 -59 -82 q-25 -14 -37 -37 q7 -8 14 -20 q5 -4 14 -4 q21 24 50 38 q17 4 37 2 q13 -4 21 -15 q6 -20 10 -42 q-1 -16 0 -32 q-5 -17 -10 -34 q-14 -24 -36 -42 q-18 -10 -39 -13 l-27 0 q-16 6 -30 13 q-10 8 -16 18 q-13 5 -24 7 q-3 -1 -3 -5 q8 -14 19 -27 q17 -13 37 -22 q26 -9 58 -10 q20 4 41 10 q18 12 34 29 q11 18 20 37 q8 32 6 67 q-3 16 -6 30 q-11 26 -31 44 q-23 14 -50 18 q33 43 67 83 q1 10 -4 17 q-15 5 -28 8 q-90 -12 -179 -16 Z" /><glyph glyph-name="" unicode="4" d="M76 303 q-25 -38 -41 -82 q-18 -49 -26 -102 q8 -12 20 -24 q12 -5 27 -7 q44 2 87 4 q0 -23 -3 -46 q9 -11 20 -24 q5 -2 11 -4 q5 2 9 6 q-1 35 0 70 q27 5 56 9 q7 11 0 22 q-14 5 -28 7 q-13 -8 -28 -9 q3 68 5 136 q-6 11 -17 13 q-14 3 -25 3 q4 -79 1 -157 q-49 -3 -99 -2 q2 37 13 71 q15 38 38 71 q15 19 31 35 q23 20 47 26 l0 13 q-8 8 -15 13 q-16 5 -32 6 q-30 -18 -51 -48 Z" /><glyph glyph-name="" unicode="5" d="M22 345 q1 -91 -3 -184 q9 -11 17 -22 q7 -6 19 -5 q53 21 109 37 l29 0 q7 -30 1 -61 q-10 -24 -30 -45 q-17 -13 -36 -22 q-49 -7 -100 -3 q-13 4 -25 5 q2 -10 10 -21 q7 -7 16 -10 q54 -4 111 0 q16 6 34 12 q21 13 40 31 q10 16 17 32 q2 30 0 61 q-5 22 -22 36 q-18 9 -38 12 q-22 0 -41 -3 q-37 -9 -74 -20 q-3 60 5 117 q24 1 51 9 q54 4 109 6 q5 6 5 15 q-5 7 -11 11 q-12 1 -21 4 q-64 -3 -133 -5 q-7 8 -15 11 q-13 2 -24 2 Z" /><glyph glyph-name="" unicode="6" d="M157 349 q-39 -18 -68 -47 q-16 -18 -31 -40 q-26 -40 -38 -87 q-5 -29 -4 -62 q3 -21 13 -41 q12 -15 26 -32 q20 -18 47 -28 q21 -4 44 -5 q34 5 62 22 q17 13 31 29 q7 14 9 29 q-1 11 -2 20 q-8 17 -17 32 q-11 14 -25 28 q-15 8 -30 13 q-30 6 -60 5 q-14 -1 -25 -8 q-8 -5 -13 -12 q7 -14 20 -26 q6 -2 14 -2 q10 12 24 18 q21 3 43 0 q9 -4 18 -10 q15 -21 20 -47 q-4 -18 -16 -34 q-14 -10 -26 -20 q-17 -7 -35 -12 l-31 0 q-13 5 -24 11 q-13 11 -24 23 q-12 22 -16 46 q-2 38 8 72 q6 18 16 34 q18 30 45 55 q15 12 32 24 q22 13 46 21 q16 -2 31 0 q3 9 1 18 q-8 8 -16 10 q-25 8 -49 3 Z" /><glyph glyph-name="" unicode="7" d="M95 318 q-42 1 -82 -2 q9 -16 24 -31 q37 -3 75 1 q40 10 77 18 q-14 -34 -24 -71 q-18 -90 -26 -187 q11 -14 26 -27 q11 -2 15 7 q0 61 4 119 q10 53 27 103 q17 34 32 68 q3 13 -6 22 q-14 6 -29 8 q-56 -16 -113 -28 Z" /><glyph glyph-name="" unicode="8" d="M91 351 q-12 -3 -23 -8 q-29 -16 -49 -44 q-10 -15 -13 -33 q-3 -21 7 -39 q18 -26 41 -46 q-13 -16 -22 -34 q-9 -24 -11 -51 q-1 -19 8 -35 q11 -15 24 -30 q19 -17 46 -22 l33 0 q18 5 37 11 q23 11 45 25 q11 11 20 23 q8 22 6 48 q-5 16 -11 30 q-10 14 -20 25 q-20 15 -44 20 q22 12 41 30 q4 9 8 17 q1 14 0 27 q-15 30 -34 58 q-18 19 -40 25 q-24 6 -49 3 ZM106 168 q9 -6 22 -7 q9 5 20 6 q16 1 31 -2 q11 -3 21 -13 q11 -20 13 -46 q-4 -14 -10 -28 q-11 -12 -25 -23 q-22 -12 -44 -20 q-13 -1 -25 -4 q-16 0 -29 5 q-12 9 -21 21 q-4 10 -6 19 q1 20 6 37 q6 16 18 30 q14 14 29 25 ZM145 322 q6 -3 12 -9 q3 -9 7 -18 q0 -24 -3 -48 q5 -6 11 -15 q-22 -19 -50 -29 q-17 3 -34 2 q-10 -3 -18 -8 q-17 12 -27 27 q-4 9 -5 18 q0 16 5 30 q6 11 14 21 q20 22 50 31 q19 3 38 -2 Z" /><glyph glyph-name="" unicode="9" d="M88 351 q-19 -6 -35 -18 q-13 -12 -24 -26 q-18 -25 -26 -56 q-4 -24 0 -49 q13 -22 33 -40 q15 -8 30 -16 q22 -7 45 -12 l30 0 q-19 -51 -41 -102 q7 -9 17 -19 q5 -2 13 -2 q47 121 95 242 q5 3 9 8 q-3 25 -16 44 q-12 16 -26 28 q-10 7 -20 11 q-22 6 -43 9 q-21 1 -41 -2 ZM116 325 l30 0 q16 -2 29 -11 q8 -12 13 -27 q-5 -18 -8 -38 q-10 -23 -21 -46 q-10 -13 -20 -27 q-12 -10 -26 -16 l-19 0 q-25 8 -46 22 q-9 11 -13 23 q0 26 7 49 q13 26 31 48 q19 18 43 23 Z" /><glyph glyph-name="" unicode=":" d="M93 50 q11 -25 38 -41 q6 -1 13 -2 q8 3 10 11 q0 10 -3 17 q-14 11 -31 14 q-15 2 -27 1 ZM84 209 q3 -8 -1 -17 q13 -20 35 -29 q13 0 19 12 l0 13 q-4 8 -10 14 q-21 9 -43 7 Z" /><glyph glyph-name="" unicode=";" d="M123 66 q5 -11 9 -23 q-1 -13 -5 -25 q-16 -16 -33 -29 q-22 -9 -46 -13 q6 -10 17 -22 q8 -7 19 -12 q38 7 70 24 q11 10 24 20 q8 11 11 25 q-1 12 -2 23 q-5 12 -14 22 q-10 4 -18 8 q-22 3 -32 2 ZM120 206 q-5 -5 -8 -9 q16 -18 35 -34 q8 -2 18 -1 q8 10 17 17 q-1 12 -9 17 q-25 12 -53 10 Z" /><glyph glyph-name="" unicode="&lt;" d="M200 355 q-98 -77 -189 -154 q9 -18 21 -35 q59 -48 116 -103 q43 -26 84 -57 q6 0 9 5 l0 18 q-12 12 -23 21 q-48 21 -88 53 q-39 43 -80 80 q17 18 36 35 q55 40 112 78 q19 12 41 19 q3 11 2 22 q-4 7 -8 11 q-15 9 -33 7 Z" /><glyph glyph-name="" unicode="=" d="M13 151 q4 -21 25 -34 q45 -1 90 6 q53 2 106 -2 q7 6 6 15 q-3 6 -7 10 q-13 4 -26 6 q-96 -4 -194 -1 ZM8 255 q6 -19 25 -33 q59 5 118 10 q35 0 70 -3 q7 5 6 16 q-4 6 -8 9 q-12 3 -24 5 q-96 -1 -187 -4 Z" /><glyph glyph-name="" unicode="&gt;" d="M13 349 q7 -25 24 -45 q3 4 10 2 q76 -29 157 -54 q-37 -67 -85 -126 q-43 -35 -83 -75 q6 -26 20 -41 q81 88 161 183 q13 17 23 38 q0 14 -5 25 q-17 19 -37 28 q-40 12 -79 21 q-43 20 -83 42 q-15 6 -23 2 Z" /><glyph glyph-name="" unicode="?" d="M94 82 q-2 -24 -1 -49 q9 -12 22 -22 q9 -1 18 0 q4 29 5 58 q-2 4 -5 7 q-19 9 -39 6 ZM60 346 q-21 -8 -36 -26 q-8 -11 -12 -25 l0 -32 q5 -13 10 -25 q12 -13 26 -27 q8 -6 21 -5 q8 6 6 16 q-13 16 -21 32 q-2 11 -4 21 q3 21 19 35 q13 10 29 15 q25 4 53 4 q15 -2 30 -9 q9 -11 12 -26 q0 -18 -3 -36 q-7 -16 -18 -31 q-11 -10 -23 -19 q-23 -7 -45 -15 q-12 -11 -18 -25 l0 -33 q10 -18 27 -32 q6 -1 14 -2 q5 2 9 6 q-5 19 -6 38 q3 12 14 20 q31 11 59 29 q19 23 29 52 q1 19 1 38 q-2 18 -11 33 q-19 19 -45 29 q-16 3 -31 6 q-46 3 -86 -6 Z" /><glyph glyph-name="" unicode="@" d="M37 327 q-11 -16 -18 -35 q-8 -27 -11 -56 q-2 -35 -1 -72 q8 -37 21 -74 q13 -25 33 -49 q21 -18 47 -28 q26 -6 57 -5 q9 5 20 5 q5 8 4 17 q-2 6 -6 10 q-19 9 -40 6 q-11 -6 -25 -6 q-25 7 -42 26 q-22 42 -33 91 l0 54 q5 42 23 76 q11 16 27 28 q24 11 54 7 q14 -2 27 -9 q12 -7 23 -18 q11 -24 15 -54 q1 -49 -9 -93 q-7 -17 -16 -33 q-11 -15 -28 -22 q-4 16 -1 32 q12 39 32 73 q5 2 8 6 l0 15 q-6 10 -17 12 q0 12 -4 22 q-9 19 -26 30 q-16 6 -31 9 l-28 0 q-8 -4 -14 -10 q-11 -14 -18 -31 q-5 -19 -9 -38 q-4 -33 -2 -68 q6 -17 19 -32 q10 -12 27 -15 q14 1 27 0 q6 -18 22 -33 q6 -5 17 -7 q15 0 30 2 q13 9 24 20 q6 11 13 22 q10 27 16 56 l0 93 q-5 20 -11 39 q-9 15 -18 27 q-22 18 -45 29 q-43 10 -91 8 q-24 -7 -42 -27 ZM120 259 l15 0 q7 -20 13 -41 q-13 -35 -25 -68 q-7 -11 -18 -19 q-8 -1 -15 -3 q-8 9 -9 20 q-2 34 7 64 q6 19 16 34 q6 9 16 13 Z" /><glyph glyph-name="" unicode="A" d="M110 346 q-33 -80 -58 -164 q-22 -74 -43 -149 q7 -6 13 -16 q4 -4 12 -4 q15 51 30 104 q7 -5 19 -5 q28 11 59 13 q26 2 52 0 q10 -39 13 -82 q8 -10 15 -21 q6 -6 15 -5 q3 2 6 5 q-2 20 -4 38 q-35 142 -85 276 q-6 7 -12 10 q-18 7 -32 0 ZM136 292 q29 -65 49 -136 q-54 1 -108 -1 q27 69 59 137 Z" /><glyph glyph-name="" unicode="B" d="M65 341 q-15 -4 -28 -10 q-12 1 -22 1 q1 -120 5 -242 q-4 -25 -6 -52 q7 -9 16 -19 q4 -3 11 -3 q4 5 10 7 q67 10 135 17 q13 6 26 12 q10 10 20 21 q9 18 13 38 q0 20 -2 38 q-7 20 -17 37 q-16 18 -36 25 q16 15 24 33 q1 10 3 19 q-2 22 -9 40 q-7 11 -16 20 q-13 10 -29 16 q-20 4 -38 7 q-32 1 -60 -5 ZM131 318 q24 1 45 -7 q7 -16 7 -36 q-4 -15 -12 -30 q-15 -16 -33 -28 q-25 0 -45 -11 q-2 -4 -3 -8 q9 -11 21 -23 q24 -1 45 12 q22 4 42 -4 q7 -16 11 -35 l0 -28 q-5 -13 -10 -26 q-15 -18 -36 -28 q-60 -12 -116 -12 q1 120 7 238 q37 17 77 26 Z" /><glyph glyph-name="" unicode="C" d="M106 345 q-26 -14 -46 -36 q-20 -24 -33 -52 q-8 -23 -12 -49 q-4 -55 3 -108 q9 -29 28 -56 q9 -10 20 -20 q14 -6 29 -11 q27 -2 56 0 q25 6 51 12 q23 11 43 29 l0 12 q-11 13 -29 15 q-16 -14 -33 -27 q-25 -10 -52 -15 q-27 -1 -52 2 q-18 11 -28 30 q-8 21 -11 43 l0 62 q3 25 8 49 q8 22 20 42 q16 23 36 38 q14 8 30 13 q18 2 37 0 q18 -4 35 -15 q8 -21 25 -35 q8 -1 11 6 l0 14 q-9 25 -29 41 q-31 18 -66 22 q-21 -2 -41 -6 Z" /><glyph glyph-name="" unicode="D" d="M80 344 q-21 -4 -38 -15 q-17 5 -29 4 q6 -141 2 -284 q9 -19 27 -33 q53 15 108 29 q26 10 47 30 q19 27 32 56 q5 21 12 41 q2 27 2 55 q-5 35 -21 64 q-16 21 -33 35 q-24 12 -49 18 q-30 2 -60 0 ZM158 312 q11 -3 23 -7 q7 -6 15 -14 q5 -10 10 -22 q5 -29 5 -62 q-5 -24 -11 -49 q-10 -22 -24 -46 q-10 -9 -19 -20 q-13 -5 -24 -13 q-42 -9 -83 -18 q-4 105 2 210 q22 21 49 34 q26 8 57 7 Z" /><glyph glyph-name="" unicode="E" d="M27 335 q-7 -3 -14 -8 q2 -10 10 -20 q4 -128 0 -258 q9 -12 17 -26 q6 -4 14 -7 q58 3 113 15 q27 1 55 -1 q8 -5 19 -6 q7 11 1 23 q-16 12 -37 14 q-73 -3 -147 -9 q-5 53 -3 108 q5 -2 10 -10 q65 8 138 3 q8 6 6 19 q-8 11 -19 14 q-71 2 -134 2 q-1 57 5 112 q21 9 43 14 q29 3 57 7 q39 2 77 -3 q7 11 1 22 q-12 4 -22 7 q-63 -1 -118 0 q-37 -3 -72 -12 Z" /><glyph glyph-name="" unicode="F" d="M22 344 q-5 -3 -10 -7 q4 -18 19 -31 q4 -133 9 -267 q8 -15 23 -24 q9 -1 13 7 q-2 38 -9 72 q-4 44 0 87 q39 9 82 11 q46 4 89 -5 q3 2 6 4 q2 9 -1 16 q-15 11 -34 12 q-71 0 -140 -1 q0 48 3 94 q35 7 73 8 q41 1 82 -2 q9 7 5 19 q-14 10 -31 11 q-90 1 -179 -4 Z" /><glyph glyph-name="" unicode="G" d="M77 329 q-14 -12 -26 -26 q-16 -21 -29 -44 q-9 -22 -14 -47 q-3 -37 0 -76 q5 -21 10 -43 q12 -31 35 -57 q15 -11 34 -17 q18 -1 38 -1 q28 11 53 31 q7 -20 23 -37 q10 -2 14 6 q2 73 -3 142 q-13 11 -28 13 q-55 0 -103 -13 q-3 -3 -2 -8 q8 -19 23 -33 q37 13 78 18 l0 -32 q-20 -13 -39 -35 q-19 -15 -41 -21 q-14 0 -25 2 q-10 6 -18 14 q-8 13 -13 25 q-10 37 -10 77 q1 36 12 67 q11 23 27 43 q13 15 28 26 q16 9 35 15 q21 4 40 -3 q16 -12 29 -28 q4 -23 22 -41 l11 0 q3 4 4 8 q0 22 -7 39 q-25 32 -55 50 q-22 9 -47 10 q-31 -7 -56 -24 Z" /><glyph glyph-name="" unicode="H" d="M206 244 q-31 3 -64 -1 q-49 -5 -96 -14 q-1 43 0 88 q-4 9 -9 14 q-14 5 -29 6 q4 -122 5 -249 q5 -10 12 -21 q6 -5 15 -4 q4 60 4 124 q12 -3 28 0 q43 16 90 25 q21 2 44 0 q0 -85 -6 -170 q8 -15 21 -27 q10 -2 15 5 q-1 158 7 313 q-3 5 -5 8 q-15 7 -31 9 q-6 -51 -1 -106 Z" /><glyph glyph-name="" unicode="I" d="M94 342 q2 -3 6 -7 q7 -62 14 -128 q0 -84 -6 -164 q11 -14 25 -25 q6 -2 13 -3 q6 2 10 8 q-3 145 -3 288 q-2 15 -13 24 q-24 12 -46 7 Z" /><glyph glyph-name="" unicode="J" d="M136 347 q-1 -64 9 -126 q1 -65 -2 -134 q-4 -15 -8 -30 q-7 -9 -16 -12 q-11 16 -7 37 q-6 7 -13 9 q-16 2 -30 4 q-2 -9 -1 -20 q3 -16 11 -31 q11 -12 25 -26 q8 -4 18 -8 q19 0 36 4 q8 5 16 12 q7 16 10 34 q-5 143 -7 280 q-20 9 -41 7 Z" /><glyph glyph-name="" unicode="L" d="M13 343 q10 -103 18 -208 q0 -48 -3 -93 q8 -11 19 -23 q8 -3 19 -4 q83 16 169 25 q5 3 9 7 q0 7 -2 12 q-15 11 -34 12 q-71 -15 -143 -24 q-5 144 -10 287 q-7 7 -15 9 q-16 4 -27 0 Z" /><glyph glyph-name="" unicode="M" d="M8 84 l0 -32 q5 -18 17 -33 l12 0 q21 124 56 242 q17 -82 26 -169 q6 -21 20 -37 q5 0 11 1 q9 64 15 128 q4 31 13 57 q13 -95 32 -189 q7 -22 20 -40 l14 0 q1 19 1 39 q-13 41 -21 83 q-14 101 -31 199 q-12 12 -29 10 q-17 -71 -31 -144 q-10 70 -24 138 q-11 13 -27 12 q-42 -129 -74 -265 Z" /><glyph glyph-name="" unicode="N" d="M8 345 q4 -152 3 -303 q8 -16 22 -27 q4 0 9 1 q0 125 9 247 q21 -47 46 -97 q29 -42 53 -89 q18 -28 39 -50 q9 -4 22 -3 q7 4 12 11 q9 30 11 63 q0 60 -2 118 q3 57 8 112 q-3 4 -4 8 q-15 8 -32 10 q-6 -104 -9 -209 q-3 -30 -12 -57 q-30 45 -59 90 q-32 77 -61 153 q-12 9 -23 17 q-16 7 -32 5 Z" /><glyph glyph-name="" unicode="O" d="M114 347 q-21 -9 -37 -25 q-34 -36 -57 -82 q-8 -25 -11 -53 l0 -37 q4 -32 15 -62 q13 -22 28 -44 q14 -17 34 -26 q13 -3 29 -6 q26 -1 50 3 q17 10 30 24 q17 26 31 52 q10 33 15 68 q-1 27 0 55 q-6 41 -15 79 q-13 26 -30 45 q-17 8 -35 11 q-25 2 -47 -2 ZM140 312 l32 0 q7 -13 18 -23 l7 0 q11 -40 14 -86 q0 -34 -7 -68 q-8 -18 -15 -37 q-15 -25 -35 -46 q-11 -5 -22 -10 q-24 0 -47 1 q-11 7 -20 15 q-9 14 -16 25 q-5 19 -10 36 q-4 34 0 68 q6 28 18 53 q10 16 21 29 q18 21 40 35 q10 4 22 8 Z" /><glyph glyph-name="" unicode="P" d="M67 344 q-11 -3 -23 -8 q-12 3 -23 4 q3 -148 -5 -300 q7 -12 17 -22 q7 -4 12 2 q-2 75 9 142 q2 -4 7 -6 q23 3 47 7 q49 15 96 36 q10 8 22 16 q11 13 19 27 q2 15 2 31 q-4 17 -11 29 q-21 24 -47 34 q-29 8 -59 11 q-33 1 -63 -3 ZM173 318 q20 -3 37 -16 q8 -19 2 -41 q-13 -21 -31 -36 q-17 -8 -32 -18 q-28 -9 -55 -18 q-20 -3 -39 -4 q0 51 3 102 q15 14 34 22 q38 10 81 9 Z" /><glyph glyph-name="" unicode="Q" d="M73 337 q-22 -14 -36 -35 q-11 -19 -18 -40 q-8 -38 -10 -79 q0 -20 3 -44 q8 -41 24 -80 q16 -32 42 -54 q13 -6 27 -10 l25 0 q28 7 48 27 q17 -16 36 -32 q8 0 11 7 q0 8 -1 15 q-14 14 -28 25 q15 21 31 47 q6 17 11 34 q4 34 3 69 q-4 31 -10 61 q-7 18 -14 35 q-10 14 -22 24 q-1 19 -12 31 q-19 9 -39 12 l-31 0 q-22 -3 -40 -13 ZM147 313 q7 -16 20 -30 q15 2 27 -5 q12 -26 17 -56 q3 -45 -3 -89 q-7 -19 -14 -38 q-12 -17 -24 -31 q-13 16 -28 28 q-17 11 -36 11 q3 -13 13 -28 q16 -15 34 -28 q-12 -9 -25 -18 q-19 -5 -40 -5 q-21 12 -32 36 q-8 22 -14 44 q-3 28 -6 54 q0 29 3 54 q5 33 20 61 q7 9 15 17 q23 16 51 23 q11 2 22 0 Z" /><glyph glyph-name="" unicode="R" d="M15 337 q4 -96 10 -195 q-1 -53 -2 -106 q6 -9 14 -18 q5 -3 12 -3 q5 3 6 9 q-7 68 0 135 q3 -3 7 -6 q20 3 40 10 q63 -64 124 -132 q6 -4 15 -4 q4 2 6 6 q0 9 -2 15 q-63 61 -117 128 q25 17 47 39 q18 22 28 48 q3 26 -4 48 q-9 14 -20 22 q-23 12 -49 15 q-61 -3 -115 -11 ZM164 316 q3 -8 5 -17 q-1 -14 -3 -27 q-8 -15 -19 -31 q-16 -15 -30 -29 q-28 -18 -61 -24 q0 55 1 111 q22 9 47 15 q30 9 60 2 Z" /><glyph glyph-name="" unicode="S" d="M98 348 q-17 -5 -33 -13 q-14 -10 -27 -23 q-17 -22 -24 -49 q-2 -14 -1 -30 q14 -26 35 -44 q21 -10 44 -15 q50 -7 103 -8 q7 -17 6 -40 q-5 -27 -23 -50 q-12 -8 -24 -14 q-55 -3 -111 -4 q-20 -3 -33 -14 q10 -17 25 -31 q26 11 57 17 q46 -2 90 0 q12 4 22 9 q19 20 30 43 q6 27 5 57 q-5 24 -18 41 q-21 12 -44 16 l-64 0 q-33 3 -59 16 q-4 6 -6 12 q0 21 5 39 q10 21 25 37 q13 10 28 16 q43 6 87 -1 q13 -6 26 -15 q4 1 9 3 q1 7 1 14 q-6 10 -12 18 q-23 10 -48 13 q-36 2 -71 0 Z" /><glyph glyph-name="" unicode="T" d="M17 333 q-10 -2 -10 -12 q9 -16 21 -31 q50 6 101 14 q2 -63 2 -128 q-5 -65 -8 -132 q8 -16 20 -28 q8 -1 12 5 q4 146 11 290 q27 9 59 5 q3 -5 12 -4 q7 13 0 26 q-11 8 -25 10 q-100 -11 -195 -15 Z" /><glyph glyph-name="" unicode="U" d="M12 347 q-3 -117 5 -235 q3 -21 10 -41 q11 -15 22 -33 q15 -15 36 -22 q36 -4 76 -3 q25 10 52 17 q10 6 19 13 q10 17 11 37 q0 122 -11 237 q-15 11 -35 11 q5 -88 10 -177 q-3 -32 -7 -65 q-7 -7 -13 -13 q-26 -10 -49 -21 q-30 -2 -60 0 q-11 6 -19 16 q-12 40 -13 83 q0 89 5 176 q-4 10 -11 15 q-15 4 -28 5 Z" /><glyph glyph-name="" unicode="W" d="M208 346 l0 -59 q-11 -96 -31 -184 q-14 44 -22 88 q-4 47 -12 90 q-14 12 -32 14 q-7 -100 -20 -198 q-15 37 -26 80 q-16 65 -23 133 q-5 5 -8 10 q-14 5 -27 7 q-2 -40 9 -79 q24 -91 53 -183 q11 -28 28 -55 q6 -1 14 -1 q4 4 7 10 q11 62 15 127 q7 -24 15 -55 q12 -33 29 -64 q5 -5 11 -10 l13 0 q6 6 8 15 q15 112 33 222 q1 39 1 77 q-2 5 -5 8 q-15 10 -30 7 Z" /><glyph glyph-name="" unicode="X" d="M127 228 q-36 40 -68 84 q-12 10 -25 16 q-14 2 -24 3 q7 -26 25 -44 q10 1 17 -5 q30 -35 60 -72 q-46 -57 -92 -121 q7 -25 24 -44 l8 0 q41 69 83 133 q16 -15 30 -39 q28 -62 65 -120 q6 2 9 9 q0 7 -1 13 q-39 81 -90 153 q40 68 90 126 q0 8 -3 13 q-11 10 -25 11 q-39 -59 -83 -116 Z" /><glyph glyph-name="" unicode="Y" d="M167 281 q-24 -26 -48 -51 q-41 54 -77 106 q-16 7 -32 8 q-2 -3 -1 -7 q32 -41 63 -87 q24 -33 54 -59 q5 -73 1 -147 q8 -13 21 -26 q9 -5 17 3 q-2 96 0 191 q44 54 78 109 l0 15 q-6 8 -14 10 q-12 2 -23 3 q-17 -34 -39 -68 Z" /><glyph glyph-name="" unicode="Z" d="M67 340 q-27 -5 -53 -8 q-4 -3 -4 -8 q9 -21 25 -35 q32 11 66 19 q35 6 71 6 q-49 -49 -93 -103 q-22 -39 -38 -81 q-13 -38 -22 -78 q7 -20 24 -34 q47 25 99 40 q39 2 78 -2 q6 -6 16 -8 q5 8 4 18 q-5 9 -12 13 q-17 6 -34 10 q-34 1 -65 -2 q-35 -7 -70 -14 q7 29 16 56 q13 33 31 63 q14 18 29 36 q49 40 93 85 q2 13 -3 23 q-10 5 -18 8 q-69 -1 -140 -4 Z" /><glyph glyph-name="" unicode="[" d="M99 394 q3 -5 10 -13 q-4 -2 -8 -2 q6 -41 8 -83 q1 -143 -3 -293 q12 -12 25 -28 q8 -4 17 -8 q36 -3 71 1 q4 7 6 12 q-4 5 -7 11 q-27 11 -58 10 q-5 59 -8 114 q1 124 4 245 q29 7 64 5 q8 5 7 14 q-4 7 -9 11 q-24 6 -44 9 q-38 -1 -75 -5 Z" /><glyph glyph-name="" unicode="]" d="M63 389 q-28 -1 -55 -1 q8 -20 33 -34 q38 -1 73 6 q6 -170 0 -344 q-4 -7 -7 -16 q-34 -3 -66 3 q8 -14 24 -28 q14 -6 30 -10 l52 0 q6 3 11 8 q5 11 8 22 q-3 191 -1 381 q-3 8 -10 13 q-21 6 -41 9 q-26 -4 -51 -9 Z" /><glyph glyph-name="" unicode="_" d="M70 -57 q3 -5 9 -10 l105 0 l0 19 q-56 3 -113 2 q-2 -4 -1 -11 Z" /><glyph glyph-name="" unicode="a" d="M89 220 q-24 -17 -40 -41 q-8 -16 -13 -33 q-3 -23 -1 -48 q5 -27 21 -49 q18 -22 42 -35 q10 -2 23 -2 q13 3 25 11 q11 12 20 24 q8 -8 17 -19 q10 -8 24 -9 q4 3 7 7 q-12 27 -9 58 q1 48 6 96 q3 6 7 11 q1 10 -5 16 q-19 15 -41 21 q-23 4 -46 5 q-20 -3 -37 -13 ZM161 200 q1 -41 3 -84 q-8 -2 -15 0 q-12 -30 -32 -56 q-11 -9 -22 -17 q-13 14 -18 31 q-6 27 0 54 q3 12 9 23 q14 23 37 36 q17 10 38 13 Z" /><glyph glyph-name="" unicode="b" d="M57 120 q-6 -40 -9 -82 q8 -9 19 -19 q9 -3 17 2 q7 -7 17 -11 q24 0 46 8 q18 12 35 28 q16 21 19 47 q1 31 -7 57 q-5 8 -11 14 q-11 8 -23 11 q-39 5 -72 -3 q5 73 8 145 q-1 13 -7 23 q-19 8 -39 9 q2 -111 7 -229 ZM155 150 q8 -24 6 -53 q-5 -11 -11 -22 q-17 -22 -42 -34 q-13 -3 -23 0 q1 43 1 85 q6 -1 15 -1 q10 8 21 15 q15 8 33 10 Z" /><glyph glyph-name="" unicode="c" d="M98 231 q-13 -5 -27 -10 q-26 -16 -42 -43 q-4 -13 -8 -24 q-3 -27 -1 -55 q5 -11 10 -25 q15 -16 33 -35 q19 -15 43 -23 q34 -5 70 0 q22 8 46 17 q6 9 0 18 q-21 10 -43 11 q-17 -7 -32 -15 q-24 -6 -50 -5 q-16 10 -26 24 q-5 14 -9 25 q-2 18 0 35 q3 15 8 30 q7 11 16 21 q17 15 37 22 q13 2 27 2 q35 -3 68 -15 q10 7 6 19 q-14 12 -28 17 q-48 11 -98 9 Z" /><glyph glyph-name="" unicode="d" d="M158 337 q-3 -78 1 -158 q-39 7 -78 2 q-18 -8 -32 -23 q-11 -15 -16 -33 q-2 -16 -2 -32 q1 -11 7 -21 q14 -16 32 -31 q36 -16 76 -28 q17 -2 35 -3 q3 3 7 6 q2 59 1 120 q9 1 13 8 q0 10 -3 18 q-4 6 -9 9 q3 83 17 161 q-3 7 -8 10 q-18 5 -36 7 q-5 -4 -5 -12 ZM125 156 q19 1 35 -7 q0 -57 -9 -110 q-11 1 -21 1 q-22 9 -43 17 q-8 6 -13 13 q-6 18 -3 37 q4 12 10 23 q8 8 16 15 q13 8 28 11 Z" /><glyph glyph-name="" unicode="e" d="M63 225 q-14 -15 -24 -30 q-13 -22 -17 -48 l0 -32 q4 -14 12 -29 q18 -22 42 -45 q21 -18 48 -27 q19 -3 40 -2 q21 7 42 16 q5 5 4 13 q-9 10 -20 13 q-15 1 -28 3 q-13 -7 -26 -15 q-10 -2 -20 -2 q-18 10 -32 25 q-9 12 -14 23 q59 10 124 10 q16 5 27 19 q5 17 5 36 q-4 12 -9 23 q-13 18 -28 33 q-12 7 -23 13 q-41 12 -85 11 q-10 -2 -18 -8 ZM120 204 q23 1 44 -8 q9 -14 12 -33 q0 -18 -12 -31 q-47 -8 -98 -5 q0 17 7 32 q10 20 25 35 q9 8 22 10 Z" /><glyph glyph-name="" unicode="f" d="M109 352 q-7 -7 -9 -17 q-1 -71 2 -142 q-27 1 -53 -2 q-5 -2 -3 -8 q11 -13 26 -22 q14 3 29 5 q4 -65 2 -133 q7 -8 16 -17 q9 -4 18 0 q-5 75 -8 151 q25 2 53 1 q3 5 3 12 q-7 10 -18 11 q-19 2 -36 1 q2 55 6 110 q2 13 9 23 l14 0 q12 -8 23 -21 q7 -3 17 -3 q7 5 5 15 q-11 20 -31 28 q-32 11 -65 8 Z" /><glyph glyph-name="" unicode="g" d="M71 226 q-17 -13 -30 -31 q-10 -17 -18 -35 q-8 -24 -7 -52 q11 -26 35 -46 q9 -5 20 -11 q32 -7 69 -6 q26 8 50 24 q3 -35 -8 -66 q-6 -8 -11 -15 q-11 -8 -25 -10 q-2 6 -3 12 q-8 7 -17 10 q-17 2 -29 4 q-5 -10 2 -20 q11 -12 23 -27 q11 -8 23 -13 q24 -1 47 6 q15 10 25 25 q11 40 16 80 q3 69 10 134 q-10 12 -22 18 q-45 17 -92 26 l-38 0 q-10 -4 -20 -7 ZM150 202 q21 -3 40 -13 q0 -29 1 -60 q-12 -2 -21 0 q-11 -20 -26 -36 q-15 -11 -32 -17 q-18 -1 -35 -1 q-8 3 -14 9 q-5 18 -3 38 q5 29 22 52 q11 12 22 21 q20 10 46 7 Z" /><glyph glyph-name="" unicode="h" d="M40 336 q1 -98 8 -198 q0 -46 -5 -91 q10 -11 24 -20 q8 -1 13 5 q-3 61 -1 119 q10 -6 25 -7 q7 7 11 16 q20 15 45 21 q7 -43 6 -90 q-4 -23 -5 -48 q10 -12 23 -24 q7 -4 17 -4 q3 2 7 5 q3 54 4 107 q-2 31 -7 59 q-4 7 -8 13 q-21 12 -45 13 q-40 -3 -70 -15 q2 70 9 135 l-7 7 q-19 6 -38 8 q-5 -3 -6 -11 Z" /><glyph glyph-name="" unicode="i" d="M93 218 q2 -87 -2 -173 q11 -12 25 -25 q7 -4 17 -4 q5 3 8 7 q-3 90 2 178 q-6 9 -14 13 q-19 4 -36 4 ZM91 349 q-3 -21 -3 -45 q11 -14 27 -27 q6 -3 15 -3 q5 3 8 7 q0 26 2 51 q-3 5 -5 8 q-22 10 -44 9 Z" /><glyph glyph-name="" unicode="j" d="M107 236 q5 -59 12 -120 q1 -42 0 -87 q-4 -16 -10 -31 q-11 -17 -28 -26 q9 -12 23 -25 q7 -4 18 -4 q12 6 20 16 q14 23 18 50 q-2 103 -3 206 q-2 7 -6 12 q-22 10 -44 9 ZM105 309 q13 -12 27 -26 q10 -6 21 1 q5 28 -2 53 q-9 8 -20 10 q-14 1 -27 3 q0 -18 1 -41 Z" /><glyph glyph-name="" unicode="k" d="M42 347 q-3 -4 -5 -8 q6 -128 5 -259 q-5 -19 -7 -41 q10 -11 23 -21 q10 -3 18 3 q5 59 2 119 q65 -46 132 -100 q4 -1 10 -1 q9 4 9 15 q-6 9 -13 16 q-54 40 -106 77 q52 38 106 71 q4 5 4 11 q-5 8 -10 11 q-18 4 -36 6 q-43 -36 -93 -60 q-1 78 9 149 q-6 5 -12 8 q-18 5 -36 4 Z" /><glyph glyph-name="" unicode="l" d="M76 348 q3 -147 -2 -294 q18 -22 43 -36 q21 -3 39 5 q3 10 -4 17 q-17 7 -32 10 q-5 83 -4 167 q3 58 7 115 q-5 10 -15 12 q-17 4 -32 4 Z" /><glyph glyph-name="" unicode="m" d="M137 212 q-10 10 -22 14 q-21 5 -42 2 q-18 -7 -30 -23 q-16 12 -36 11 q4 -78 4 -159 q7 -12 19 -22 q9 -1 15 4 q0 50 2 101 q4 2 11 1 q13 28 34 49 q7 3 16 5 q9 -61 1 -126 q8 -14 20 -25 l14 0 q9 50 5 105 q5 2 11 2 q4 7 3 16 q13 18 31 27 q9 -24 14 -51 q4 -53 -4 -105 q8 -12 17 -24 q8 -3 19 -2 q6 60 4 124 q-7 46 -24 87 q-7 9 -17 11 q-14 3 -27 2 q-20 -10 -38 -24 Z" /><glyph glyph-name="" unicode="n" d="M29 232 q-2 -4 -4 -8 q0 -48 6 -97 q2 -42 -3 -82 q11 -12 25 -22 q11 -3 16 6 q0 58 1 116 q5 -1 13 -1 q9 11 17 24 q13 12 29 18 q22 4 45 1 q4 -14 6 -32 q-2 -55 -3 -113 q13 -16 32 -27 q7 0 13 3 q5 75 1 150 q-3 10 -8 18 q-9 8 -18 16 q-13 7 -26 10 q-41 6 -81 0 q-10 -5 -18 -7 q6 10 -2 19 q-20 10 -41 8 Z" /><glyph glyph-name="" unicode="o" d="M124 232 q-28 -12 -52 -29 q-16 -13 -28 -28 q-15 -23 -21 -52 q-5 -29 0 -58 q11 -13 23 -28 q19 -16 44 -23 q30 -4 64 -3 q24 8 45 22 q16 16 26 35 q3 12 6 23 q3 31 0 61 q-13 29 -31 54 q-14 7 -24 19 q-26 9 -52 7 ZM155 200 q10 -9 22 -15 q6 -13 12 -28 q1 -22 0 -47 q-5 -12 -8 -26 q-12 -15 -27 -29 q-16 -10 -33 -15 l-40 0 q-13 8 -18 21 q-2 21 0 43 q4 16 8 29 q7 15 18 28 q10 11 23 19 q21 11 43 20 Z" /><glyph glyph-name="" unicode="p" d="M12 231 q1 -88 7 -177 q0 -44 -5 -86 q10 -11 22 -23 q5 -2 11 -2 q5 5 7 10 q-2 48 0 95 q6 0 14 -5 q28 1 56 5 q39 14 76 36 q22 22 36 48 q3 20 0 40 q-6 15 -16 27 q-12 8 -23 15 q-24 5 -45 9 q-50 1 -99 -1 q-21 8 -41 9 ZM190 192 q2 -15 2 -33 q-6 -15 -15 -30 q-23 -24 -49 -40 q-18 -6 -35 -12 q-20 -1 -37 -4 q-1 50 3 100 q16 13 36 17 q47 7 95 2 Z" /><glyph glyph-name="" unicode="q" d="M56 215 q-17 -15 -30 -33 q-7 -15 -14 -29 q-7 -22 -5 -48 q2 -7 6 -14 q19 -24 44 -46 q26 -17 54 -31 q30 -7 65 -5 q1 -19 -7 -36 q11 -12 24 -26 q6 -4 15 -4 q11 14 12 34 q-2 42 -2 82 q5 68 15 135 q-14 20 -36 29 q-44 7 -93 8 q-28 -2 -48 -16 ZM124 197 q29 1 55 -4 q-1 -64 0 -133 q-17 -8 -34 -18 q-20 -1 -39 -1 q-20 12 -38 26 q-9 10 -15 19 q-5 24 1 47 q6 14 14 28 q12 17 29 29 q12 5 27 7 Z" /><glyph glyph-name="" unicode="r" d="M31 229 q7 -52 16 -106 q3 -37 1 -78 q12 -10 24 -24 q7 -3 15 -4 q5 4 9 9 q-7 41 -6 86 q8 2 15 5 q19 26 47 41 q31 19 68 27 q2 6 2 12 q-7 8 -14 11 q-17 3 -34 5 q-45 -15 -84 -40 q-6 14 -3 32 q-5 9 -12 17 q-21 10 -44 7 Z" /><glyph glyph-name="" unicode="s" d="M74 229 q-11 -8 -19 -19 q-7 -12 -9 -26 q-2 -21 0 -42 q13 -13 26 -25 q16 -8 35 -14 q21 1 41 -4 q4 -9 3 -22 q-3 -8 -7 -16 q-11 -12 -24 -20 q-43 -4 -87 -3 l0 -6 q11 -15 29 -24 q40 2 81 0 q12 3 24 8 q19 14 28 36 q0 20 -1 39 q-5 8 -8 16 q-9 11 -20 15 q-32 8 -66 9 q-7 3 -11 8 q-3 20 2 38 q4 8 9 15 q8 9 21 13 q23 0 41 -13 q12 -17 32 -36 q7 -2 17 -2 q8 4 7 14 q-13 21 -32 37 q-24 16 -50 24 q-32 8 -62 0 Z" /><glyph glyph-name="" unicode="t" d="M87 307 q4 -56 10 -112 q-26 1 -53 1 q-3 -2 -2 -6 q11 -14 28 -24 q15 2 28 -2 q0 -59 -1 -118 q13 -17 34 -29 q25 -7 54 -7 q4 4 7 8 q0 9 -6 14 q-23 9 -47 7 q-4 3 -5 7 q-5 59 -2 117 q26 1 55 -1 q5 4 7 9 q-1 12 -12 16 q-23 5 -48 4 q-1 50 -1 101 q-3 4 -5 8 q-20 8 -41 7 Z" /><glyph glyph-name="" unicode="u" d="M28 55 q11 -13 26 -25 q23 -12 51 -17 q49 -5 97 2 q13 8 21 19 q8 86 4 174 q-19 14 -42 13 q2 -43 3 -91 q-2 -39 -12 -76 q-11 -10 -24 -14 q-30 -1 -59 0 q-13 4 -24 8 q-5 10 -6 20 q0 74 3 148 q-3 4 -6 7 q-19 7 -39 9 q0 -86 7 -177 Z" /><glyph glyph-name="" unicode="v" d="M11 228 q6 -25 14 -51 q30 -71 70 -137 q14 -15 32 -28 l13 0 q5 4 9 8 q47 91 89 181 q-5 9 -14 11 q-16 3 -31 5 q-16 -36 -31 -75 q-23 -36 -46 -72 q-26 36 -40 78 q-9 33 -16 66 q-7 9 -17 11 q-17 4 -32 3 Z" /><glyph glyph-name="" unicode="w" d="M207 231 q-11 -78 -33 -148 q-10 19 -17 38 q-7 42 -19 80 q-14 8 -31 7 q-15 -65 -34 -125 q-20 62 -32 125 q-16 11 -35 10 q1 -28 9 -56 q18 -60 39 -121 q8 -19 24 -32 l13 0 q7 8 11 18 q13 49 23 93 q10 -32 27 -62 q12 -22 33 -39 l13 0 q6 5 10 12 q14 84 34 165 l0 26 q-5 5 -9 7 q-14 3 -26 2 Z" /><glyph glyph-name="" unicode="x" d="M10 225 q39 -41 78 -85 q-36 -29 -67 -64 q9 -16 25 -31 q5 -3 13 -3 q30 34 61 67 q21 -14 42 -34 q16 -27 38 -52 q7 -6 17 -6 q7 5 7 14 q-16 22 -34 43 q-28 26 -53 50 q52 37 102 77 q0 7 -2 12 q-16 10 -36 11 q-13 -15 -28 -28 q-34 -22 -67 -42 q-23 32 -48 59 q-9 5 -16 9 q-20 5 -32 3 Z" /><glyph glyph-name="" unicode="y" d="M187 226 q-10 -26 -17 -54 q-20 -47 -47 -86 q-16 21 -30 42 q-17 38 -34 74 q-9 9 -18 11 q-15 2 -30 3 q31 -66 71 -128 q13 -15 29 -30 q-24 -44 -57 -87 q9 -11 20 -23 q6 -3 13 -5 q69 106 134 213 q11 25 17 51 q-3 5 -6 9 q-21 11 -45 10 Z" /><glyph glyph-name="" unicode="z" d="M18 219 q-5 -3 -8 -9 q10 -17 26 -32 q4 -1 10 -2 q9 7 20 10 q44 9 88 7 q-66 -68 -137 -131 q4 -8 9 -17 q13 -16 32 -22 q88 0 174 -6 q8 6 7 18 q-6 8 -14 12 q-76 8 -156 5 q44 53 102 92 q27 25 49 56 q0 8 -3 14 q-6 6 -12 9 q-14 2 -26 4 q-84 0 -161 -8 Z" /><glyph glyph-name="" unicode="{" d="M166 397 q-17 -11 -28 -28 q-7 -14 -11 -29 q-6 -28 -7 -62 q5 -39 6 -79 q-8 -10 -18 -15 q-12 2 -21 -2 q14 -19 35 -32 l0 -95 q5 -12 11 -24 q22 -28 50 -52 q21 -12 46 -16 q4 2 8 4 q4 11 -3 19 q-17 7 -33 12 q-13 13 -23 25 q-4 11 -8 20 l0 93 q-2 14 -8 25 q9 7 12 18 q-5 51 -8 101 q4 27 12 52 q8 18 25 32 q5 4 12 3 q10 -9 25 -8 q7 6 5 16 q-12 15 -29 19 q-25 5 -50 3 Z" /><glyph glyph-name="" unicode="|" d="M102 417 q0 -67 4 -135 q-12 -144 -12 -294 q16 -18 37 -32 q12 -2 19 8 q-3 111 -5 221 q7 107 14 213 q-5 7 -10 12 q-23 9 -47 7 Z" /><glyph glyph-name="" unicode="}" d="M19 397 q6 -21 31 -32 q7 0 13 1 q4 -43 3 -85 q-6 -37 -7 -76 q10 -13 24 -25 q-9 -7 -11 -17 q14 -23 16 -53 l0 -83 q-7 -16 -23 -23 q-20 -2 -35 -13 q9 -12 22 -24 q8 -5 19 -5 q20 9 41 14 q17 11 24 30 l0 92 q-3 26 -13 48 q9 13 24 25 l0 12 q-17 15 -40 19 q6 72 5 146 q-4 14 -8 25 q-6 8 -13 13 q-23 11 -49 13 q-13 2 -23 -2 Z" /><glyph glyph-name="" unicode="~" d="M201 405 q-11 -11 -27 -12 q-25 13 -48 27 q-16 5 -32 8 q-16 1 -29 -3 q-27 -11 -46 -31 q-6 -8 -6 -19 q8 -18 24 -31 q8 -1 13 5 l0 13 q7 13 19 21 q10 7 22 11 q12 3 26 1 q27 -15 56 -30 q17 -6 38 -5 q14 8 26 19 q10 17 11 37 q-3 5 -7 9 q-13 6 -27 6 q-5 -12 -13 -26 Z" /><glyph glyph-name="" unicode="&#x3002;" d="M92 109 q-16 -14 -19 -36 l0 -28 q2 -9 7 -18 q13 -16 30 -28 q17 -6 37 -4 q12 6 23 17 q11 15 14 33 q0 17 -1 32 q-5 12 -14 20 q-17 11 -36 16 q-22 4 -41 -4 ZM145 79 q3 -19 -5 -36 q-10 -12 -23 -19 q-3 6 -5 11 q-2 16 4 28 q4 9 12 16 q8 7 17 0 Z" /><glyph glyph-name="" unicode="&#x4e00;" d="M77 217 q13 -17 31 -26 q125 8 253 5 q33 -4 68 -7 q8 3 7 12 q-6 8 -14 10 q-171 9 -342 10 q-4 0 -3 -4 Z" /><glyph glyph-name="" unicode="&#x4e09;" d="M70 118 q-8 0 -8 -7 q12 -17 30 -26 q74 8 150 13 q100 1 199 -5 q9 4 9 14 q-3 6 -7 9 q-19 6 -38 8 q-167 -5 -335 -6 ZM91 241 q11 -19 32 -29 q94 6 188 15 q39 3 74 -6 q3 2 5 5 q0 8 -6 13 q-18 9 -37 10 q-131 -3 -256 -8 ZM80 320 q10 -17 29 -27 q86 3 171 10 q51 2 100 -4 q4 3 6 7 q0 8 -6 12 q-17 5 -34 7 q-136 -1 -266 -5 Z" /><glyph glyph-name="" unicode="&#x4e0a;" d="M193 347 q9 -98 15 -195 q-2 -29 -4 -59 q-72 -1 -143 0 q9 -20 30 -30 q103 5 207 10 q73 -3 147 -5 q3 2 7 5 l0 11 q-4 6 -10 8 q-16 4 -32 6 q-86 -2 -170 -5 q-6 49 -1 99 q6 -2 14 -6 q81 8 165 6 q7 4 6 12 q-3 5 -7 8 q-87 8 -176 6 q-1 58 -2 114 q-3 5 -6 8 q-20 7 -40 7 Z" /><glyph glyph-name="" unicode="&#x4e0d;" d="M67 345 q-8 -1 -9 -7 q10 -11 24 -24 q6 -3 14 -3 q67 14 137 18 q-12 -21 -25 -43 q-25 -32 -55 -65 q-33 -23 -59 -52 q9 -11 21 -19 q6 -1 13 0 q33 38 70 65 q10 -57 12 -117 q-2 -11 -4 -22 q8 -10 22 -21 l13 0 q4 82 0 166 q76 -24 152 -57 q5 -8 14 -13 q5 -1 12 -1 q6 5 4 12 q-3 7 -9 11 q-83 40 -168 73 q1 9 -4 14 q29 37 53 75 q77 1 152 -4 q8 9 0 17 q-15 4 -30 7 q-86 -3 -169 0 q-90 -6 -181 -10 Z" /><glyph glyph-name="" unicode="&#x4e1a;" d="M325 337 q9 -41 8 -88 q-7 -74 -21 -145 l-117 0 q-10 104 -14 208 q-7 6 -14 8 q-16 4 -30 2 q8 -82 18 -168 q-14 7 -19 23 q-8 34 -19 65 q-20 9 -40 7 q2 -23 10 -45 q9 -20 21 -40 q12 -13 27 -27 q9 -5 20 -9 l0 -11 q5 -5 11 -12 q-55 2 -107 -2 q9 -19 29 -29 q176 3 357 3 q8 5 6 15 q-4 5 -8 8 q-43 9 -90 5 q-3 11 2 21 q6 -1 13 -1 q17 7 33 17 q15 13 28 28 q10 18 15 37 l0 30 q-3 8 -10 14 q-20 8 -40 7 q7 -16 6 -37 q-5 -24 -20 -44 q-11 -13 -24 -19 q8 39 16 77 q6 44 0 87 q-5 6 -11 10 q-19 4 -36 5 Z" /><glyph glyph-name="" unicode="&#x4e2a;" d="M232 343 q-34 -7 -64 -25 q-19 -14 -36 -29 q-34 -32 -64 -68 q-11 -14 -10 -34 q8 -9 19 -20 q8 -6 20 -6 q3 2 7 5 q-1 19 8 33 q25 37 54 71 q14 15 28 27 q23 18 51 25 q8 -86 8 -180 q-6 -27 -6 -56 q10 -12 22 -20 q8 -3 15 4 q5 133 6 258 q18 -1 37 -6 q14 -5 27 -14 q17 -19 30 -41 q12 -24 23 -50 q6 -18 8 -38 q7 -8 17 -18 q7 -5 18 -5 l5 5 q-2 24 -11 45 q-19 42 -43 80 q-13 16 -29 31 q-16 12 -33 19 q-24 7 -48 10 q-30 2 -59 -3 Z" /><glyph glyph-name="" unicode="&#x4e2d;" d="M221 381 q-2 -16 0 -34 q-27 -7 -49 -23 q-14 -12 -26 -24 q-14 -17 -23 -37 q-10 -32 -6 -68 q5 -21 15 -41 q15 -18 35 -35 q29 -17 64 -23 q-2 -21 -2 -44 q10 -11 25 -21 q7 -1 12 5 q-2 30 -3 58 q38 5 73 17 q14 8 28 18 q12 12 23 25 q9 19 12 41 l0 43 q-4 24 -13 44 q-10 14 -23 25 q-11 6 -23 12 q-26 8 -53 11 q-9 9 -21 13 q0 12 1 23 q-3 6 -7 9 q-20 6 -39 6 ZM222 307 q7 -53 11 -113 q0 -39 0 -80 q-10 -1 -20 0 q-18 6 -33 14 q-10 8 -17 16 q-13 19 -18 40 q-2 28 5 51 q7 18 20 33 q24 24 52 39 ZM266 309 q31 1 60 -5 q11 -4 23 -10 q16 -20 20 -47 q2 -37 -7 -70 q-8 -13 -16 -25 q-22 -20 -47 -31 q-18 -4 -36 -8 q-4 99 3 196 Z" /><glyph glyph-name="" unicode="&#x4e3a;" d="M119 340 q12 -17 31 -26 q34 3 70 2 l5 5 q2 10 -6 16 q-18 5 -35 7 q-37 3 -65 -4 ZM285 364 q-17 -36 -30 -74 q-40 -1 -82 -5 q-51 -9 -101 -18 q7 -20 30 -31 q69 20 143 30 q-20 -59 -50 -116 q-21 -28 -41 -56 q9 -12 24 -19 q42 54 76 114 q14 -17 33 -27 q33 6 67 0 q7 4 6 12 q-2 5 -6 8 q-16 5 -31 8 q-34 8 -67 2 q19 39 40 77 q26 2 53 -2 q22 -4 42 -17 q13 -16 17 -37 q1 -20 -2 -40 q-10 -23 -22 -45 q-20 -24 -42 -46 q-9 -6 -19 -10 q-10 3 -19 2 q-3 -2 -2 -7 q9 -11 23 -20 q23 -2 41 13 q28 29 51 61 q8 16 16 32 q7 25 6 50 q-5 18 -13 34 q-14 17 -31 28 q-42 18 -89 23 q10 27 25 54 q1 10 -6 15 q-20 8 -40 7 Z" /><glyph glyph-name="" unicode="&#x4e3b;" d="M228 292 q-75 -7 -149 -15 q-4 -1 -3 -5 q12 -15 29 -26 q67 10 134 20 q2 -30 6 -60 q-65 -1 -130 -1 q-7 -2 -12 -6 q8 -12 22 -25 q59 2 122 6 q4 -37 1 -79 q5 -3 11 -11 q-82 2 -161 -3 q8 -19 29 -30 q86 11 177 10 q64 0 126 -8 q8 4 7 14 q-7 10 -18 12 q-64 7 -130 4 q-4 46 -3 92 q39 4 80 1 q20 -2 41 -6 q4 2 7 6 q1 8 -4 12 q-15 6 -31 8 q-48 1 -93 4 q-2 28 2 54 q-5 8 -12 11 q43 5 90 3 q28 0 52 -12 q6 1 11 6 q1 9 -6 13 q-30 11 -63 13 q-68 1 -132 -2 ZM203 344 q9 -12 23 -24 q50 4 107 1 q6 5 4 14 q-5 6 -11 9 q-54 10 -112 7 q-7 -2 -11 -7 Z" /><glyph glyph-name="" unicode="&#x4e48;" d="M258 261 q-37 -39 -71 -80 q-23 -29 -37 -63 q-1 -10 2 -18 q10 -11 23 -21 q13 -4 28 -8 q47 -1 95 0 q25 5 50 10 q20 9 40 20 q11 10 16 22 q2 13 2 27 q-4 16 -12 28 q-10 9 -19 18 q-18 11 -40 11 q6 -18 27 -30 q5 -10 9 -22 q0 -15 -6 -27 q-18 -18 -42 -29 q-21 -5 -41 -10 q-34 -1 -68 0 q-17 2 -31 7 q-4 6 -2 12 q8 25 25 46 q18 20 38 39 q58 53 119 98 l0 11 q-7 9 -17 11 q-14 0 -26 3 q-34 -22 -62 -55 ZM213 335 q-47 -51 -101 -104 q-5 -5 -5 -12 q9 -9 19 -19 q8 -5 17 -1 q3 9 9 16 q55 58 120 99 q5 10 -3 18 q-19 8 -40 8 q-8 -3 -16 -5 Z" /><glyph glyph-name="" unicode="&#x4e86;" d="M104 353 q2 -17 24 -30 q121 11 244 16 q-6 -9 -16 -19 q-35 -27 -72 -53 q-21 -9 -41 -18 q3 -11 16 -21 q7 -3 14 -7 q9 -16 15 -37 q2 -29 2 -61 q-3 -12 -10 -23 q-11 -12 -26 -19 q-14 -3 -28 -4 q-18 8 -37 9 q2 -10 17 -23 q10 -6 22 -10 q23 -2 46 0 q11 4 23 8 q18 13 26 34 q4 29 3 62 q-3 18 -5 36 q-7 24 -26 41 q42 27 83 55 q20 16 30 37 l0 15 q-4 6 -8 10 q-17 6 -34 8 q-131 -3 -262 -6 Z" /><glyph glyph-name="" unicode="&#x4e8b;" d="M225 396 q5 -12 8 -26 q-82 -4 -162 -8 q10 -19 31 -30 q66 7 132 13 q2 -4 2 -10 q-41 3 -77 -8 q-23 -9 -44 -21 q-13 -6 -21 -19 l0 -7 q10 -11 22 -22 q26 -12 58 -16 q33 -1 68 -2 q1 -11 1 -25 q-76 -1 -146 -9 q-4 -3 -4 -9 q10 -11 22 -22 q7 -4 18 -3 q52 16 111 18 q1 -12 1 -27 q-85 1 -171 -5 q3 -12 18 -24 q5 -3 12 -6 q68 7 140 10 q1 -12 -1 -26 q-72 -3 -145 0 q1 -10 15 -20 q61 -2 127 0 q-2 -23 -10 -47 q-4 -4 -8 -9 q-8 -3 -15 -1 q4 -15 23 -24 q7 -1 15 0 q8 4 13 10 q12 33 12 71 q39 6 79 14 q27 10 53 24 q9 10 18 18 q7 -1 15 -2 q7 4 5 13 q-8 7 -16 9 q-4 9 -7 17 q-14 14 -31 19 q-57 9 -112 12 q-1 14 3 25 q44 1 88 6 q15 4 28 16 q4 13 -1 24 q-9 9 -18 15 q-24 10 -47 18 q-25 5 -49 9 q-1 10 -1 20 q40 2 82 1 q26 -2 52 -7 q5 6 3 12 q-28 16 -62 16 q-39 0 -76 0 q-3 8 -5 15 q-9 9 -19 10 q-16 4 -27 0 ZM361 148 q-11 -10 -28 -18 q-30 -10 -61 -16 q-2 12 -1 25 q43 9 90 9 ZM355 194 q18 -1 34 -10 q1 -8 -3 -14 q-57 -2 -114 -7 q0 14 1 28 q39 5 82 3 ZM213 305 q11 -4 25 -4 q3 -20 3 -40 q-18 -1 -36 -1 q-37 3 -70 11 q2 7 10 11 q31 18 68 23 ZM284 308 q26 -1 51 -9 q15 -5 27 -15 q-7 -11 -20 -16 q-31 -7 -64 -8 q-2 20 -1 42 l7 6 Z" /><glyph glyph-name="" unicode="&#x4e8c;" d="M69 156 q7 -20 30 -30 q171 9 341 11 q3 6 1 12 q-15 8 -31 9 q-171 -6 -341 -2 ZM123 272 q9 -11 21 -22 q7 -4 18 -4 q7 5 16 8 q105 9 213 5 q5 7 1 15 q-15 7 -32 8 q-112 1 -218 3 q-13 -3 -19 -13 Z" /><glyph glyph-name="" unicode="&#x4e8e;" d="M134 333 q-31 -3 -59 -12 q8 -19 29 -29 q59 13 120 22 q43 3 88 4 q12 -40 21 -85 q-128 -6 -258 -4 q9 -19 30 -30 q114 7 230 13 q5 -32 4 -69 q-3 -10 -6 -21 q-7 -9 -16 -18 q-9 -4 -18 -7 q-34 0 -62 0 q9 -8 19 -19 q8 -4 18 -7 q21 -1 44 0 q12 3 24 8 q9 7 17 16 q7 14 10 29 q4 44 3 87 q23 2 49 0 q7 5 4 13 q-15 9 -31 10 q-11 0 -22 -1 q-4 41 -19 76 q-20 7 -36 9 q57 4 113 -3 q4 2 6 6 q1 7 -4 11 q-17 5 -34 8 q-132 -1 -264 -7 Z" /><glyph glyph-name="" unicode="&#x4e92;" d="M224 374 q-72 -5 -142 -14 q-12 0 -15 -10 q12 -15 28 -25 q49 12 100 19 q-15 -17 -31 -38 q-16 -25 -22 -53 q-3 -28 -2 -58 q2 -10 9 -20 q17 -19 40 -29 q65 -9 135 -9 q-31 -41 -72 -70 q-79 -1 -154 -10 q11 -17 30 -27 q62 7 124 12 q7 -8 20 -7 q5 5 11 10 q77 7 153 -3 q9 4 7 14 q-17 12 -37 13 q-51 -1 -100 -3 q41 40 75 85 q9 19 13 39 q2 25 -7 45 q-16 19 -37 26 q-39 9 -78 12 q-27 2 -51 -3 q-7 -1 -7 -8 q12 -17 31 -26 q22 7 46 9 q31 3 59 -6 q6 -19 5 -42 q-5 -20 -15 -39 q-69 2 -143 5 q-12 5 -19 13 q-8 17 -6 36 q4 31 19 57 q15 22 36 40 q17 15 37 21 q5 5 4 12 q-6 7 -7 11 q36 4 73 7 q49 3 96 -4 q3 3 6 6 q0 8 -6 12 q-15 4 -29 7 q-88 -4 -177 -7 Z" /><glyph glyph-name="" unicode="&#x4eba;" d="M236 339 q-77 -129 -162 -255 q3 -9 14 -18 q7 -3 15 0 q9 21 20 40 q32 48 69 93 q119 -72 241 -140 q6 3 6 10 q-5 9 -13 15 q-52 28 -103 56 q-57 44 -116 78 q26 39 56 77 q15 20 34 34 q1 10 -6 15 q-19 6 -38 8 q-10 -3 -17 -13 Z" /><glyph glyph-name="" unicode="&#x4ec0;" d="M51 264 q5 -14 22 -27 q8 -4 20 -3 q22 8 46 14 q6 -34 5 -75 q-3 -49 -3 -99 q6 -9 17 -19 q7 -5 17 -5 q3 2 6 4 q1 9 -6 14 q3 77 12 152 q1 24 -11 40 q18 8 38 14 q22 5 46 3 q4 2 7 6 q0 7 -4 11 q-16 6 -32 8 q-92 -15 -180 -38 ZM328 239 q-63 -8 -127 -11 q7 -20 30 -30 q49 2 95 12 q-1 -67 0 -139 q13 -15 30 -26 q11 -2 16 6 q-1 83 -4 164 q42 6 87 5 q6 4 6 11 q-14 13 -33 13 q-29 -3 -59 -4 q-1 56 2 112 q-3 6 -7 9 q-19 6 -38 7 q-2 -65 2 -129 Z" /><glyph glyph-name="" unicode="&#x4ef6;" d="M55 273 q-7 -2 -8 -9 q12 -15 28 -25 q18 1 35 7 q11 -82 18 -170 q7 -8 18 -18 q5 -3 13 -3 q3 3 6 6 q-6 24 -8 46 q2 77 -2 152 q38 8 74 14 q1 8 -4 12 q-22 9 -46 8 q-63 -8 -124 -20 ZM310 376 q0 -44 3 -87 q-19 -4 -38 -4 q2 28 9 55 l-5 6 q-19 7 -40 8 q-11 -25 -8 -56 q12 -22 36 -37 q22 -4 46 0 q3 -20 2 -43 q-60 -2 -119 -3 q-10 -1 -17 -6 q11 -18 31 -28 q51 6 104 11 q-4 -67 -2 -138 q8 -9 18 -18 q5 -3 13 -3 q3 2 5 5 q-9 46 -7 96 q3 30 5 60 q57 5 114 -2 q6 3 6 10 q-2 4 -5 7 q-14 7 -30 7 q-43 0 -83 3 q3 23 3 47 q31 6 64 1 q8 7 3 15 q-16 9 -34 10 q-15 1 -30 -1 q0 36 2 72 q-6 8 -15 10 q-16 4 -31 3 Z" /><glyph glyph-name="" unicode="&#x4f4d;" d="M208 276 q10 -18 31 -29 q7 0 13 2 q3 -36 5 -71 q3 -22 11 -44 q5 -4 11 -11 q-41 1 -83 3 q-11 -1 -20 -5 q9 -19 31 -30 q14 3 29 6 q113 0 226 1 q5 5 5 12 q-2 6 -7 10 q-33 9 -64 8 q15 19 18 43 q-3 35 4 65 q-2 4 -5 7 q-20 8 -41 8 q-3 -44 -3 -87 q-7 -12 -16 -22 q4 -10 7 -19 q-23 0 -45 -1 q-11 6 -14 15 q-5 53 -1 106 q-3 6 -7 8 q78 8 157 13 q1 8 -4 13 q-16 6 -33 8 q-105 -2 -205 -9 ZM142 285 q-50 -10 -97 -22 q8 -19 28 -29 q14 1 27 5 q13 -71 8 -148 q10 -13 25 -21 q8 -1 13 4 q-4 89 4 177 q20 10 45 8 q7 3 8 11 q-5 11 -16 13 q-22 4 -45 2 ZM276 335 q3 -14 19 -26 q8 -5 19 -5 q24 9 53 5 q8 5 6 15 q-7 8 -16 10 q-41 7 -81 1 Z" /><glyph glyph-name="" unicode="&#x4f53;" d="M35 251 q9 -18 29 -29 q16 1 31 5 q10 -67 10 -137 q11 -15 29 -22 q4 2 8 4 q0 79 0 159 q-3 5 -7 9 q21 10 41 18 q1 11 -7 16 q-17 6 -35 6 q-49 -17 -99 -29 ZM308 258 q-50 -1 -100 -2 q-5 -1 -4 -6 q13 -17 31 -26 q20 2 41 4 q-12 -7 -28 -15 q-26 -18 -49 -42 q-15 -16 -25 -36 q-3 -9 -5 -19 q10 -10 22 -22 q7 -4 17 -4 q11 20 23 40 q39 3 80 4 q0 -30 -2 -62 q7 -8 16 -16 q10 -8 20 0 q-1 41 -3 78 q22 2 46 1 q19 -1 37 -9 q7 -21 9 -45 q8 -8 17 -18 q8 -6 20 -6 q7 8 5 20 q-14 48 -37 92 q-15 21 -31 40 q-27 20 -54 25 q57 7 117 4 q7 6 2 14 q-16 8 -34 10 q-49 -3 -92 -3 q1 45 6 88 q-3 5 -6 8 q-19 7 -38 8 q-7 -51 -1 -105 ZM311 202 q2 -21 -1 -42 q-28 2 -57 1 q14 21 37 34 q10 6 21 7 ZM346 209 q20 2 37 -7 q18 -22 29 -48 q-33 4 -68 5 q-4 26 2 50 Z" /><glyph glyph-name="" unicode="&#x4f5c;" d="M56 258 q-4 -2 -3 -6 q10 -10 22 -22 q7 -4 18 -4 q7 7 15 8 q6 -72 6 -145 q9 -7 17 -17 q6 -4 16 -4 q3 3 5 5 q-3 83 2 165 q-8 10 -14 13 q25 13 55 17 q8 9 2 18 q-19 9 -42 8 q-52 -14 -99 -36 ZM222 369 l0 -54 q7 -16 23 -29 q7 -74 10 -149 q-2 -39 -9 -83 q11 -14 27 -20 q6 1 10 6 q2 44 4 87 q4 0 10 -5 q78 7 157 6 q7 4 6 13 q-4 5 -8 9 q-16 3 -32 5 q-66 -3 -130 -3 q-1 16 0 32 q15 3 30 8 q49 4 100 2 q3 2 6 5 q1 9 -5 14 q-17 6 -34 7 q-47 0 -94 1 q-4 27 -2 52 q39 3 79 6 q35 1 69 -3 q5 3 7 8 q-2 5 -4 8 q-18 9 -38 10 q-69 -4 -137 -2 q-4 31 4 60 q-3 5 -6 8 q-19 6 -38 8 q-4 -2 -5 -7 Z" /><glyph glyph-name="" unicode="&#x4f60;" d="M377 183 q19 -28 52 -52 q18 -15 41 -21 q4 4 7 7 q0 8 -4 12 q-29 20 -54 45 q-21 9 -42 9 ZM196 163 q-7 -5 -9 -11 q10 -11 24 -24 q6 -3 15 -3 q37 32 84 47 q3 6 2 12 q-6 8 -14 10 q-15 2 -28 4 q-38 -16 -74 -35 ZM223 305 q-7 -17 -16 -33 q-4 4 -6 7 q-17 6 -35 8 q-42 0 -80 -8 q-25 -5 -47 -14 q-4 -1 -3 -6 q11 -11 24 -23 q6 -3 15 -3 q13 9 28 13 q7 -88 11 -176 q9 -8 19 -18 q6 -4 14 -4 q3 3 6 6 q-2 11 -7 21 q2 83 3 165 q-4 10 -12 14 q14 5 30 7 q18 1 34 -3 q-8 -11 -11 -25 q13 -16 32 -24 q13 21 26 46 q8 -7 21 -7 q20 14 45 20 q10 -31 15 -67 q2 -32 2 -65 q-3 -12 -9 -24 q-8 -8 -16 -15 q-14 -1 -28 0 q4 -11 18 -22 q7 -4 16 -7 q10 0 20 1 q12 5 22 16 q10 23 13 48 q1 45 0 89 q-4 25 -10 47 q-7 5 -8 7 q18 5 38 6 q21 2 39 -6 q3 -12 0 -25 q-4 -8 -8 -16 q4 -12 14 -23 l20 0 q10 12 15 27 l0 21 q-5 14 -17 24 q-9 6 -18 10 q-26 8 -53 11 q-60 1 -111 -12 q4 17 8 33 q2 17 -6 28 q-18 8 -38 9 q-4 -27 -9 -58 Z" /><glyph glyph-name="" unicode="&#x50cf;" d="M50 306 q11 -18 31 -29 q7 1 13 0 q7 -82 4 -170 q8 -11 20 -19 q11 -3 17 6 q1 97 3 188 q30 4 61 8 q2 5 2 10 q-7 9 -16 11 q-19 4 -38 3 q-49 -4 -97 -8 ZM301 390 q-19 -3 -35 -13 q-19 -12 -35 -30 q-14 -13 -17 -33 q13 -16 27 -28 q-13 0 -25 -3 q-22 -6 -38 -23 q-4 -6 -7 -14 q-2 -10 2 -21 q13 -17 31 -31 q-16 -26 -36 -51 q10 -13 26 -24 l9 0 q15 26 35 50 q8 -9 19 -13 q9 1 19 -1 q-34 -9 -65 -34 q25 -25 48 -53 q9 -7 22 -6 q32 13 65 27 q2 -23 -1 -48 q7 -8 17 -18 q7 -5 18 -5 q4 2 6 6 q1 33 -2 63 q24 -11 53 -17 l18 0 q7 9 1 18 q-19 8 -39 10 q-18 8 -31 21 q19 13 42 19 q16 0 30 6 q3 10 -3 16 q-18 7 -37 9 q-40 -5 -75 -22 q-22 15 -39 25 q44 2 85 13 q23 7 38 27 q3 10 3 21 q-7 20 -24 30 q-14 7 -27 13 q20 16 30 36 q2 15 2 30 q-3 17 -15 29 q-14 10 -28 14 q-33 8 -67 5 ZM333 129 q4 -4 6 -10 q-7 -1 -13 2 q-35 -10 -68 -24 q8 10 22 17 q23 14 53 15 ZM238 252 q-11 -19 -23 -38 q-3 4 -4 8 q0 14 9 23 q9 9 18 7 ZM305 259 q29 -1 57 -5 l6 4 q12 -4 23 -12 q2 -11 -2 -21 q-13 -12 -27 -19 q-30 -10 -63 -13 q-23 0 -42 4 q24 31 48 62 ZM367 363 q5 -15 2 -31 q-7 -16 -20 -29 q-13 -9 -27 -15 q-32 0 -64 0 q2 15 11 29 q8 12 20 25 q13 13 28 20 q25 7 50 1 Z" /><glyph glyph-name="" unicode="&#x5165;" d="M111 326 q6 -12 19 -23 q31 -21 63 -45 q-7 -2 -13 0 q-43 -74 -94 -145 q11 -15 27 -22 q4 1 9 4 q49 71 104 139 q61 -59 125 -114 q27 -16 54 -34 q5 -2 13 -2 q9 4 7 15 q-54 38 -108 78 q-49 50 -99 91 q-36 27 -71 53 q-19 5 -36 5 Z" /><glyph glyph-name="" unicode="&#x516c;" d="M220 260 q-18 -23 -34 -48 q-14 -26 -27 -53 q-8 -20 -7 -44 q8 -16 23 -30 q19 -15 42 -22 q30 -5 63 -5 q23 4 48 7 q26 8 51 19 q14 11 17 27 q-1 10 -4 17 q-12 19 -29 36 q-15 8 -32 7 q17 -21 30 -48 q-1 -11 -10 -19 q-14 -8 -28 -15 q-24 -6 -47 -11 q-25 -1 -49 0 q-19 5 -33 16 q-11 12 -9 26 q6 17 15 32 q19 30 42 58 q15 19 33 31 q0 13 -10 17 q-17 4 -34 6 q-6 -1 -11 -4 ZM183 344 q-20 -9 -38 -23 q-40 -34 -75 -71 q-6 -8 -7 -19 q12 -16 30 -26 q7 0 13 2 q4 9 8 18 q30 40 67 77 q12 9 24 17 q20 8 45 8 q24 -3 47 -10 q40 -14 77 -39 q27 -31 54 -63 q9 -7 20 -3 q2 4 2 9 q-13 21 -30 41 q-22 23 -46 38 q-42 25 -88 40 q-26 6 -52 10 q-28 2 -51 -6 Z" /><glyph glyph-name="" unicode="&#x5173;" d="M141 337 q4 -17 11 -35 q12 -12 18 -21 q-41 -1 -80 -7 q-8 -1 -9 -8 q11 -14 27 -25 q50 9 104 16 q6 -42 5 -82 q-46 -4 -93 -5 q-19 -1 -34 -9 q12 -18 31 -28 q43 10 89 15 q-4 -11 -12 -22 q-11 -10 -22 -19 q-35 -20 -74 -27 q3 -11 17 -22 q11 -4 25 0 q36 14 70 34 q12 12 23 22 q8 14 14 27 q25 -31 56 -56 q17 -9 36 -18 q40 -12 85 -16 q4 5 4 11 q-5 9 -13 12 q-24 4 -47 6 q-21 5 -39 14 q-32 29 -57 59 q18 5 39 6 q45 4 89 -3 q3 3 6 6 q0 8 -5 12 q-13 5 -26 6 q-61 -1 -121 -4 q4 38 -1 75 q-5 5 -10 8 q32 6 67 6 q49 3 95 -6 q7 3 7 10 q-3 6 -8 10 q-28 9 -57 8 q11 22 11 48 q-3 9 -9 15 q-19 7 -39 8 q2 -12 2 -27 q-7 -25 -20 -46 q-49 -1 -99 -2 q-4 15 -9 28 q0 18 2 34 l-7 7 q-18 4 -36 7 q-8 -8 -6 -22 Z" /><glyph glyph-name="" unicode="&#x5185;" d="M251 375 q-3 -27 -6 -54 q-27 -7 -52 -17 q-26 -13 -49 -30 q-13 -12 -25 -25 q-16 -20 -25 -43 q-4 -16 -7 -35 q-4 -40 -2 -81 q8 -15 23 -29 q9 -7 23 -6 q2 2 4 5 q-2 18 -7 33 q-3 39 -2 77 q4 33 20 59 q18 26 47 44 q20 12 42 20 q-5 -17 -12 -36 q-25 -46 -51 -91 q9 -9 20 -18 l11 0 q22 45 52 85 q28 -33 63 -56 q22 -10 44 -22 q7 0 13 5 q1 8 -3 13 q-27 13 -52 29 q-21 19 -35 40 q-12 5 -21 8 q13 28 25 56 q18 3 38 2 q25 -1 47 -14 q11 -18 19 -38 q4 -23 7 -47 q0 -34 -2 -68 q-7 -33 -25 -61 q-10 -12 -23 -20 q-9 -1 -16 -2 q4 -15 22 -23 q17 -1 31 8 q10 11 18 23 q9 20 16 39 q9 54 7 112 q-3 25 -10 48 q-9 22 -27 38 q-13 8 -25 14 q-33 11 -71 9 q0 17 2 34 q-2 5 -6 8 q-20 9 -40 7 Z" /><glyph glyph-name="" unicode="&#x518d;" d="M111 355 q-5 -1 -4 -6 q13 -16 32 -26 q44 7 89 15 q3 -15 3 -33 q-22 -8 -42 -20 q-23 -19 -42 -42 q-21 -32 -25 -71 q-25 0 -50 0 q6 -19 28 -30 l19 0 q0 -28 3 -56 q9 -9 20 -21 q8 -7 21 -6 q4 3 6 7 q-7 37 -7 76 q47 4 94 9 q7 -5 18 -5 q4 5 7 9 q27 3 55 5 q2 -45 -2 -94 q11 -14 29 -24 q8 0 12 7 q-3 55 -4 109 q31 2 65 0 q5 7 1 14 q-15 7 -30 9 q-17 -1 -35 -1 q-5 31 -8 62 q-7 19 -16 35 l-15 15 q-28 13 -57 19 q1 19 -4 32 q54 7 108 -1 q4 2 8 5 q1 8 -4 13 q-16 5 -32 8 q-123 0 -241 -13 ZM274 208 l59 0 q3 -14 4 -29 q-31 -1 -61 -3 q-4 16 -2 32 ZM175 217 q9 -11 21 -16 q18 3 38 5 q2 -16 2 -33 q-37 -1 -72 -3 q-1 25 11 47 ZM231 273 q5 -15 4 -37 q-23 -1 -47 -1 q15 23 43 38 ZM311 281 q15 -22 19 -50 q-26 6 -55 4 q-2 24 -1 48 q19 6 37 -2 Z" /><glyph glyph-name="" unicode="&#x51fa;" d="M221 362 q5 -68 12 -137 q-43 3 -84 12 q-2 41 7 81 q-19 15 -44 15 q-7 -38 -6 -74 q1 -8 4 -15 q11 -13 26 -25 q47 -12 99 -15 q4 -60 1 -124 q4 -3 9 -9 q-27 -1 -54 -1 q-15 2 -28 8 q-9 9 -11 19 q0 31 6 59 q-3 5 -6 8 q-18 8 -39 7 q-3 -4 -5 -8 q-2 -32 5 -64 q11 -15 27 -30 q21 -15 47 -19 q61 -3 124 0 q36 3 72 7 q16 5 23 19 q2 24 2 48 q-3 6 -7 10 q-20 8 -40 8 q4 -21 4 -45 q-5 -7 -12 -13 q-40 -9 -82 -13 q-8 65 -4 132 q32 -1 67 -2 q16 3 32 6 q17 7 29 20 q4 11 5 22 q-2 10 -5 18 q-9 14 -20 26 q-19 13 -42 14 q14 -20 32 -47 q-1 -9 -4 -18 q-13 -13 -30 -19 q-33 -8 -64 0 l0 125 q-3 4 -6 7 q-20 8 -40 7 Z" /><glyph glyph-name="" unicode="&#x51fb;" d="M250 356 q1 -28 3 -59 q-86 1 -168 -4 q11 -18 32 -29 q69 6 137 9 q1 -28 3 -58 q-88 -4 -177 0 q5 -18 28 -31 q75 1 149 7 q0 -52 -7 -104 q6 -3 12 -11 q-35 -1 -70 0 q-21 2 -38 9 q-10 7 -12 16 q-2 23 7 43 q-2 6 -7 9 q-19 8 -39 8 q-9 -16 -7 -36 q2 -13 9 -25 q14 -15 30 -29 q12 -6 25 -11 q28 -4 58 -7 q69 1 140 1 q20 3 41 6 q10 5 20 10 q6 6 8 13 q2 23 -7 41 q-9 9 -20 11 q-12 0 -21 2 q3 -17 7 -36 q-10 -12 -25 -18 q-35 -7 -72 -7 q-3 60 3 118 q67 1 134 0 q6 3 6 11 q-4 7 -10 10 q-63 4 -130 0 q0 30 2 60 q61 7 124 2 q4 2 7 6 q0 6 -3 10 q-11 6 -23 7 q-51 2 -102 -3 q-2 24 -1 46 q-3 5 -7 7 q-20 7 -39 6 Z" /><glyph glyph-name="" unicode="&#x51fd;" d="M134 348 q10 -18 29 -28 q88 9 180 12 q-15 -12 -34 -23 q-40 -19 -78 -34 q20 -23 27 -53 q-5 2 -12 6 q-60 12 -122 13 q9 -18 29 -29 q51 1 99 -8 q5 4 9 5 q2 -10 2 -20 q-16 8 -34 7 q-52 -27 -107 -49 q3 -12 16 -23 q9 -8 22 -8 q53 29 106 55 q0 -21 0 -42 q-3 -8 -6 -16 q-11 -12 -24 -17 q-12 -2 -24 -1 q0 -7 9 -15 q-35 -1 -67 7 q-20 8 -34 23 q-10 18 -13 37 q-3 30 4 57 q-5 9 -14 12 q-17 2 -32 4 q-6 -23 -2 -50 q4 -18 10 -36 q15 -24 41 -47 q25 -16 56 -23 q76 -9 158 -7 q31 4 64 7 q20 5 39 16 q7 7 15 14 q4 9 7 18 q1 21 0 41 q-8 7 -16 9 q-14 2 -28 3 q-2 -18 0 -37 q-5 -13 -17 -24 q-11 -6 -22 -12 q-41 -11 -83 -12 q11 14 15 30 q1 28 1 56 q23 -23 52 -42 q13 -7 28 -13 q12 0 13 12 q-13 14 -31 20 q-23 18 -41 41 q-11 4 -22 7 q3 4 17 1 q21 13 45 21 q37 8 71 19 l0 8 q-6 6 -13 9 q-17 3 -33 3 q-49 -8 -94 -22 q-5 17 -12 30 q47 20 92 46 q9 8 14 17 q3 13 -6 21 q-17 8 -35 10 q-110 2 -214 -6 Z" /><glyph glyph-name="" unicode="&#x5206;" d="M212 249 q-29 -6 -55 -19 q-4 -2 -3 -7 q8 -8 18 -19 q8 -7 21 -7 q10 9 23 13 q-33 -54 -75 -107 q6 -9 17 -19 q6 -4 16 -4 q57 74 115 149 q27 6 57 4 q9 -2 18 -5 q8 -14 9 -31 q1 -19 -3 -41 q-6 -13 -14 -26 q-23 -25 -49 -46 q-21 -12 -43 -18 q6 -13 22 -22 q18 1 33 9 q44 31 76 73 q7 21 11 42 q0 19 -1 36 q-5 12 -10 22 q-17 17 -37 23 q-22 3 -42 6 q-54 2 -104 -6 ZM200 359 q-33 -6 -61 -22 q-16 -10 -31 -23 q-21 -19 -39 -42 q-5 -8 -7 -18 q11 -11 24 -23 q6 -3 15 -3 q23 42 61 79 q11 9 23 16 q21 10 45 16 q47 9 94 0 q34 -19 66 -46 q10 -16 17 -34 q9 -9 20 -20 q6 -3 14 -4 q10 3 8 15 q-15 26 -34 49 q-42 35 -87 58 q-23 6 -45 9 q-42 -1 -83 -7 Z" /><glyph glyph-name="" unicode="&#x5207;" d="M299 323 q-41 -5 -79 -16 q6 -20 29 -31 q29 9 59 15 q-7 -32 -23 -63 q-28 -40 -53 -83 q9 -14 25 -21 q4 1 9 1 q5 12 11 24 q22 31 47 62 q23 36 35 75 q0 7 -1 12 q11 4 24 1 q11 -2 20 -11 q9 -18 16 -38 q6 -44 4 -91 q-4 -17 -12 -33 q-6 -7 -13 -15 q-14 -8 -27 -13 q7 -15 24 -24 q11 0 21 5 q22 16 33 40 q9 53 7 109 q-4 27 -16 50 q-11 15 -25 27 q-27 15 -58 18 q-29 2 -57 0 ZM108 335 q2 -41 -1 -82 q-29 -2 -52 -11 q9 -11 22 -23 q11 -4 25 -2 q-1 -40 -1 -84 q2 -9 6 -18 q12 -13 27 -24 q22 -8 48 -5 q16 4 30 13 q-1 8 -1 14 q-16 8 -35 5 q-17 -7 -35 -9 q-7 7 -8 15 q-3 23 0 45 q5 29 11 56 q21 8 43 13 q21 3 45 2 q3 3 5 5 q0 9 -6 14 q-17 4 -34 7 q-23 0 -44 -5 q0 28 1 61 q-6 8 -15 10 q-16 4 -31 3 Z" /><glyph glyph-name="" unicode="&#x521a;" d="M313 290 q5 -46 6 -91 q11 -13 26 -23 q9 -1 15 4 q0 48 0 97 q-6 10 -16 12 q-18 5 -31 1 ZM392 352 q0 -87 12 -171 q0 -40 -10 -78 q-9 -11 -20 -17 q-22 16 -45 10 q11 -18 28 -33 q10 -6 22 -10 l20 0 q13 4 26 10 q15 15 19 33 q4 34 3 70 q-6 31 -10 61 q0 56 1 110 q-5 9 -14 12 q-17 4 -32 3 ZM129 346 q-15 -11 -25 -26 q-13 -22 -24 -47 q-9 -24 -13 -50 q-2 -22 -2 -45 q1 -33 9 -64 q11 -11 24 -24 q6 -3 15 -3 q4 3 7 6 q-12 51 -17 103 q0 18 2 34 q3 19 11 34 q6 -7 14 -15 q19 -7 37 -20 q-20 -30 -39 -60 q7 -10 18 -20 q8 -5 18 -3 q14 30 37 54 q31 -26 64 -48 q-2 -35 -10 -71 q8 -10 19 -20 q11 -5 21 3 q4 33 8 65 q1 51 -2 99 q-8 44 -26 83 q-8 11 -17 19 q-18 14 -37 21 q-25 5 -50 7 q-23 -1 -42 -12 ZM255 268 q11 -43 10 -91 q-26 16 -50 41 q20 24 40 50 ZM216 330 q12 -3 20 -14 q9 -17 16 -37 q-20 8 -44 10 q-15 -20 -28 -40 q-18 14 -39 20 q-11 3 -23 2 q4 13 13 25 q17 24 42 33 q21 4 43 1 Z" /><glyph glyph-name="" unicode="&#x521b;" d="M158 239 q-21 -4 -38 -15 q3 -10 14 -19 q-4 -39 -2 -82 q1 -18 8 -34 q12 -13 26 -25 q9 -5 21 -8 q23 -1 45 3 q18 5 35 15 q1 11 -8 16 q-15 3 -29 5 q-24 -13 -52 -14 q-5 6 -6 12 q-1 60 13 114 q27 11 58 12 q4 -25 1 -52 q-12 -21 -31 -34 q7 -7 16 -17 q7 -5 18 -5 q10 6 20 15 q6 11 12 22 q7 32 3 64 q-4 13 -15 22 q-26 12 -56 11 q-28 -1 -53 -6 ZM343 275 q0 -42 3 -86 q10 -12 25 -25 q11 -4 18 5 q-5 45 0 91 q-5 9 -14 12 q-17 2 -32 3 ZM156 356 q-17 -8 -31 -19 q-24 -23 -39 -49 q-13 -25 -25 -50 q-7 -15 -8 -33 q9 -12 22 -23 q7 -3 16 -3 q5 2 8 7 q9 55 35 103 q11 16 26 30 q17 13 37 18 q15 3 33 2 q9 -1 16 -8 q24 -48 39 -102 q8 -8 19 -19 q10 -6 19 2 q-16 55 -37 105 q-10 17 -24 29 q-26 16 -57 16 q-27 1 -49 -6 ZM421 209 q-6 -46 -15 -91 q-10 -20 -25 -37 q-6 -3 -12 -7 q-20 4 -38 8 q2 -13 20 -26 q9 -4 20 -9 q15 -3 31 -1 q14 5 24 17 q8 14 15 28 q7 33 11 67 q4 70 7 140 q-5 26 -5 53 q-3 6 -7 9 q-19 6 -38 7 q10 -74 12 -158 Z" /><glyph glyph-name="" unicode="&#x521d;" d="M68 304 q-9 -2 -11 -9 q9 -11 21 -22 q7 -4 17 -4 q48 13 97 20 q1 -16 0 -34 q-7 -17 -18 -34 q-22 -23 -46 -39 q-34 -17 -71 -25 q7 -15 24 -23 q39 8 73 26 l0 -70 q-3 -13 -6 -27 q11 -14 26 -23 l11 0 q11 39 13 80 q24 -12 49 -29 l11 0 q7 5 6 15 q-22 20 -48 31 q-10 0 -17 4 q-1 10 3 17 q28 3 57 5 q5 4 7 9 q0 8 -6 12 q-19 8 -40 9 q-12 -3 -25 -3 q21 22 33 50 q6 27 -2 54 q-8 10 -18 15 q-15 3 -29 6 q-58 -3 -111 -11 ZM308 322 q-31 -5 -58 -13 q-7 -3 -6 -11 q11 -14 27 -25 q27 7 53 18 q5 -27 2 -58 q-9 -42 -24 -80 q-12 -16 -22 -33 q11 -16 29 -21 q25 29 39 65 q13 35 21 69 q2 29 5 58 q-3 4 -6 7 q12 3 24 -2 q7 -10 13 -23 q8 -25 12 -53 q0 -18 -2 -36 q-13 -40 -26 -80 q8 -8 18 -18 q7 -5 17 -4 q19 48 29 101 q2 38 -6 73 q-8 19 -19 36 q-13 15 -28 23 q-24 6 -48 9 q-23 0 -44 -2 ZM130 341 q24 -6 48 0 q5 10 -3 18 q-33 11 -69 10 q5 -16 24 -28 Z" /><glyph glyph-name="" unicode="&#x522b;" d="M301 260 q-3 -37 2 -74 q11 -11 23 -22 q6 -3 14 -3 q6 5 7 11 q-7 35 -1 72 q-3 5 -6 8 q-20 9 -39 8 ZM387 232 q-4 -65 -7 -133 q-8 -14 -19 -28 q-6 13 -11 24 q-19 9 -39 8 q0 -15 10 -27 q11 -16 30 -33 q9 -6 20 -9 q19 -1 33 9 q10 13 18 26 q4 22 7 45 q-2 50 -5 99 q-2 70 5 136 q-6 10 -16 12 q-15 3 -29 4 q-4 -64 3 -133 ZM125 366 q-14 -12 -24 -27 q-7 -11 -11 -24 q-3 -17 -2 -37 q5 -21 24 -37 q28 -18 55 -27 q-41 -7 -77 -23 q-7 -2 -7 -9 q12 -15 29 -26 q23 8 42 15 q-12 -25 -28 -50 q11 -17 31 -23 q34 41 54 91 q15 5 29 -2 q2 -8 5 -16 q3 -26 -2 -53 q-5 -10 -11 -20 q-13 -15 -29 -24 q-9 5 -20 7 q-9 -2 -18 -3 q-5 -4 -4 -12 q11 -13 27 -25 l21 0 q30 9 53 31 q15 22 20 48 q1 24 -2 46 q-5 14 -12 26 q-14 13 -30 18 q-10 1 -19 2 q-4 5 -5 11 q21 10 40 29 q7 12 11 24 l0 23 q-6 21 -23 37 q-14 10 -30 13 q-1 5 0 11 q-5 9 -13 11 q-23 4 -45 6 q-16 -2 -29 -11 ZM187 347 q7 -8 17 -18 q7 -3 16 -5 q8 -13 9 -31 q-3 -12 -8 -24 q-10 -8 -18 -16 q-18 -10 -39 -13 q-14 -1 -24 3 q-13 9 -16 22 l0 19 q4 17 14 31 q13 17 30 26 q9 4 19 6 Z" /><glyph glyph-name="" unicode="&#x5230;" d="M326 292 q13 -48 11 -102 q9 -9 20 -20 q7 -5 17 -5 l5 5 q1 55 -6 108 q-8 8 -16 10 q-16 4 -31 4 ZM60 332 q9 -18 29 -29 q22 4 43 7 q-13 -20 -25 -45 q-7 -17 -6 -35 q14 -23 40 -37 q26 -6 55 -6 q1 -12 1 -26 q-47 1 -90 -1 q9 -14 23 -25 q32 -5 68 -2 q1 -11 1 -24 l12 -13 q-50 0 -105 0 q-13 0 -23 -6 q5 -15 23 -28 q61 6 129 10 q46 0 93 -2 l6 5 q0 7 -2 11 q-7 5 -14 7 q-37 5 -74 2 q-2 19 -1 39 q24 6 51 4 q8 5 5 15 q-6 5 -11 7 q-23 5 -44 2 q-1 10 1 21 q-5 5 -6 8 q36 5 70 16 q11 10 8 23 q-14 18 -32 28 q-14 3 -27 4 q6 -15 24 -27 q-1 -4 -4 -7 q-37 -14 -77 -18 q-27 0 -51 2 q-9 3 -10 11 q2 15 10 27 q20 29 41 55 l0 10 q28 6 59 8 q30 1 59 -2 q8 7 3 16 q-21 9 -43 10 q-105 -3 -209 -15 ZM407 363 q9 -95 11 -192 q-2 -35 -3 -74 q-2 -8 -9 -15 q-22 -6 -43 -9 q10 -15 27 -26 q17 0 35 2 q14 4 25 14 q2 140 3 285 q-3 6 -7 9 q-19 7 -39 6 Z" /><glyph glyph-name="" unicode="&#x5236;" d="M330 296 q-1 -42 6 -85 q10 -16 27 -27 q9 -2 15 5 q-5 35 -4 75 q3 11 5 21 q-3 5 -6 8 q-19 7 -39 8 q-3 -1 -4 -5 ZM86 353 q-15 -30 -12 -66 q13 -16 32 -27 q33 -4 67 3 q1 -9 1 -19 q-36 -5 -70 -11 q9 -19 29 -28 q21 1 42 5 q1 -8 2 -18 q-38 -9 -72 -26 q-24 -14 -40 -37 q-5 -10 -7 -22 q-1 -11 5 -20 q13 -17 32 -28 q10 -1 16 6 q-5 16 -7 32 q4 14 13 26 q17 18 37 29 q10 7 23 9 q2 -50 9 -98 q9 -14 25 -21 q6 0 11 5 q-7 36 -13 71 q-1 27 0 52 q15 5 34 4 q11 -1 22 -7 q3 -8 6 -18 q2 -20 -1 -40 q10 -14 26 -24 q9 -3 16 4 q1 21 0 41 q-4 17 -12 31 q-15 19 -34 26 q-26 9 -55 8 q-2 13 3 24 q26 7 53 2 q3 2 7 5 q0 7 -2 12 q-28 14 -59 10 q0 12 2 23 q38 6 80 2 q5 4 4 11 q-9 11 -24 12 q-29 1 -58 0 q-2 20 2 39 q-18 17 -44 16 q-8 -27 -3 -58 q-27 -4 -55 -7 q6 24 14 51 q-2 4 -5 7 q-19 10 -40 9 ZM400 369 q10 -58 15 -117 q0 -71 -3 -141 q-4 -9 -9 -20 q-18 -17 -34 -24 q8 -10 20 -21 q7 -4 16 -5 q12 4 24 8 q8 6 16 14 q7 13 11 26 q-7 130 -7 260 q-4 8 -10 14 q-20 7 -39 6 Z" /><glyph glyph-name="" unicode="&#x524d;" d="M281 222 q-1 -31 9 -63 q11 -16 28 -26 q9 -1 15 6 q-9 33 -6 66 q3 10 5 20 q-2 6 -7 9 q-18 8 -38 7 q-5 -8 -6 -19 ZM140 248 q-28 -9 -49 -34 q-12 -16 -21 -34 q-9 -39 -8 -81 q9 -20 29 -36 q10 -6 21 1 q-1 18 -4 36 q53 5 111 6 q1 -30 -8 -58 q9 -12 23 -20 q7 -1 12 3 q7 66 4 137 q-3 19 -5 38 q-7 18 -21 31 q-22 11 -47 14 q-20 1 -37 -3 ZM217 156 q2 -12 3 -26 q-54 3 -112 2 q-2 8 -1 17 q51 10 110 7 ZM204 222 q8 -19 11 -42 q-47 4 -95 4 q1 7 8 14 q15 18 36 25 q20 7 40 -1 ZM370 275 q8 -42 14 -87 q0 -30 0 -60 q-4 -13 -10 -27 q-16 -21 -39 -30 q-12 -1 -24 -2 q5 -16 26 -26 q19 -1 36 6 q11 6 21 15 q12 14 19 31 q4 15 7 30 q3 43 3 87 q-4 26 -8 50 q-7 7 -15 10 q-16 3 -30 3 ZM127 371 q3 -23 11 -46 q6 -5 11 -12 q-43 -2 -85 -3 q0 -12 13 -23 q8 -7 19 -11 q82 13 168 19 l102 0 q39 -5 80 -8 q6 4 6 11 q-2 4 -5 7 q-38 10 -79 10 q-95 1 -186 -1 q-5 26 -15 49 q-20 9 -40 8 ZM320 382 q0 -20 -6 -39 q7 -12 17 -22 q13 -4 25 2 q11 21 10 46 q-6 8 -15 10 q-16 4 -31 3 Z" /><glyph glyph-name="" unicode="&#x529f;" d="M47 264 q10 -19 31 -30 q16 5 34 6 q4 -63 2 -126 q-30 -13 -52 -33 q12 -15 29 -26 l12 0 q45 34 96 59 q14 6 31 7 q7 3 9 10 q-2 6 -6 10 q-18 6 -37 6 q-22 -8 -43 -16 q5 48 7 99 q-2 8 -8 13 q27 1 51 8 q1 10 -5 15 q-17 6 -35 8 q-60 -1 -116 -10 ZM315 272 q-45 -12 -89 -23 q10 -20 31 -30 q21 5 42 11 q-13 -40 -29 -82 q-25 -49 -60 -93 q8 -11 21 -18 q4 0 8 2 q15 21 28 42 q41 83 81 165 q13 4 27 7 q17 3 33 -1 q8 -21 12 -45 q1 -15 1 -32 q-4 -25 -15 -47 q-18 -23 -37 -33 q10 -10 20 -20 q6 -5 15 -5 q16 7 28 20 q21 31 30 65 q3 26 0 51 q-8 27 -22 50 q-16 16 -36 19 q-21 4 -42 2 q8 40 18 81 q-2 5 -6 8 q-19 7 -39 8 q-10 -50 -20 -102 Z" /><glyph glyph-name="" unicode="&#x52a0;" d="M361 324 q-11 -3 -19 -11 q-15 2 -29 4 q-10 -12 -13 -29 q-6 -29 -8 -62 q1 -22 3 -48 q3 -15 10 -29 q14 -15 30 -28 q19 -11 45 -10 q15 4 30 10 q14 10 26 22 q11 16 20 33 q4 19 8 38 q2 37 -7 68 q-8 17 -24 30 q-24 11 -50 13 q-12 1 -22 -1 ZM400 299 q12 2 20 -4 q10 -17 14 -38 q1 -29 -6 -56 q-11 -26 -33 -48 q-20 -14 -44 -18 q-12 6 -18 18 q-8 29 -3 60 q6 31 16 60 q6 -3 14 0 q17 21 40 26 ZM189 376 q-4 -29 -12 -57 q-26 1 -51 -3 q-35 -7 -65 -24 q-10 -5 -14 -13 q9 -11 21 -22 q7 -5 17 -5 q22 16 45 29 q17 7 35 11 q-20 -46 -47 -91 q-28 -33 -47 -70 q8 -10 20 -18 q5 -1 11 1 q55 88 112 176 q5 -1 10 -5 q10 -12 16 -27 q7 -20 9 -41 q0 -16 -1 -32 q-8 -29 -26 -56 q-28 -35 -61 -70 q7 -15 25 -25 l10 0 q47 56 81 117 q4 18 7 35 q0 32 -7 60 q-11 27 -30 47 q-12 9 -25 15 q11 26 13 56 q-9 9 -20 11 q-16 2 -26 1 Z" /><glyph glyph-name="" unicode="&#x5316;" d="M137 275 q-41 -15 -77 -39 q7 -11 19 -22 q8 -7 20 -7 q14 13 31 18 q4 -81 2 -162 q8 -9 17 -18 q9 -6 20 -2 q0 94 8 190 q-8 8 -16 11 q33 18 68 26 q1 9 -6 14 q-16 6 -32 7 q-28 -5 -54 -16 ZM278 326 q-2 -46 -1 -94 q-45 -12 -88 -25 q4 -14 20 -26 q8 -5 20 -4 q24 9 48 18 q3 -37 4 -76 q2 -18 13 -35 q14 -16 32 -28 q10 -4 21 -8 q32 -3 66 0 q20 6 39 14 q1 6 1 11 q-15 10 -33 11 q-15 -6 -30 -13 q-25 -4 -50 -2 q-10 4 -17 11 q-14 20 -16 43 q-1 42 3 83 q32 14 66 24 q25 6 54 5 q3 3 6 6 q0 7 -4 11 q-14 5 -28 7 q-49 -5 -92 -17 q8 63 16 120 q-20 10 -42 10 q-7 -21 -8 -46 Z" /><glyph glyph-name="" unicode="&#x533a;" d="M295 222 q-31 27 -63 47 q-16 3 -31 5 q-3 -1 -2 -5 q36 -31 75 -59 q-37 -23 -74 -49 q6 -11 19 -23 q8 -6 20 -6 q36 26 71 53 q31 -22 58 -49 q5 -4 14 -3 q7 4 6 12 q-30 29 -62 52 q23 20 48 37 q19 11 40 18 q6 9 -2 16 q-15 6 -31 7 q-46 -22 -86 -53 ZM226 346 q-35 -17 -66 -43 q-20 -17 -36 -38 q-12 -19 -21 -40 q-11 -33 -7 -70 q3 -15 13 -28 q17 -18 37 -35 q38 -23 82 -34 q73 -7 150 -7 q15 4 26 15 q1 9 -5 13 q-16 6 -33 7 q-9 -9 -20 -12 q-53 -1 -105 0 q-24 4 -45 10 q-21 10 -40 22 q-10 9 -18 18 q-11 17 -14 36 q-1 25 5 47 q7 21 19 39 q15 20 34 37 q27 22 59 35 q17 7 35 10 q60 2 120 -3 q9 4 8 13 q-5 9 -14 12 q-55 9 -114 6 q-26 -3 -50 -10 Z" /><glyph glyph-name="" unicode="&#x534a;" d="M225 381 q10 -49 8 -104 q-22 -2 -43 0 q-6 17 -5 36 q-3 6 -7 9 q-20 10 -40 6 q2 -20 6 -40 q3 -4 8 -9 q-38 -1 -77 1 q6 -19 28 -30 q64 0 129 3 q2 -29 -2 -58 q-78 1 -153 -2 l0 -7 q11 -14 28 -26 q60 10 124 12 q2 -58 -5 -115 q12 -16 30 -27 q10 -1 16 7 q7 67 6 136 q47 2 95 0 q25 -4 48 -14 q9 4 7 14 q-10 12 -24 15 q-22 4 -43 7 l-81 0 q-5 30 0 60 q36 1 72 -2 q41 -5 81 -13 q6 4 5 12 q-4 9 -13 11 q-30 8 -61 8 q8 19 10 42 q-8 10 -18 12 q-14 2 -27 3 q-3 -24 -17 -44 q-1 -4 4 -8 q-17 -1 -37 -1 q-3 41 -2 81 q-3 11 -11 19 q-20 7 -39 6 Z" /><glyph glyph-name="" unicode="&#x534f;" d="M99 300 q2 -31 6 -64 q-30 -6 -59 -10 q10 -18 30 -28 q15 1 30 3 q7 -46 2 -95 q8 -8 18 -18 q6 -5 15 -5 q4 2 7 5 q-3 60 -2 121 q21 5 43 11 l0 10 q-5 7 -11 9 q-19 1 -32 7 q1 23 -3 43 q-5 6 -11 8 q-17 3 -33 3 ZM322 290 q-50 2 -96 -5 q-4 -2 -7 -6 q5 -12 19 -24 q8 -6 19 -6 q20 13 46 13 q-13 -23 -29 -47 q-42 -1 -83 -10 q-15 -2 -27 -11 q10 -18 30 -29 q25 8 51 15 q-26 -30 -50 -61 q10 -16 28 -18 q66 81 135 163 q14 4 26 -7 q12 -34 11 -74 q-4 -12 -4 -30 q-8 -20 -23 -38 q-15 -14 -31 -23 q-17 -5 -34 -2 q-3 -1 -2 -5 q11 -12 26 -21 q21 -3 42 6 q23 15 39 37 q9 20 17 39 q14 -13 32 -18 q5 2 9 7 q0 7 -2 12 q-18 16 -37 27 q-2 25 -1 51 q-4 19 -13 34 q-18 19 -40 24 q14 23 33 42 q2 11 -7 17 q-19 5 -37 7 q-23 -28 -40 -59 Z" /><glyph glyph-name="" unicode="&#x5355;" d="M311 334 q-39 10 -82 9 q-16 -1 -30 -5 q-6 11 -14 20 q-19 10 -40 8 q9 -24 28 -45 q-24 -20 -34 -47 q-5 -20 -2 -45 q4 -10 11 -21 q21 -26 50 -45 q23 -10 48 -18 q-2 -7 -1 -16 q-87 5 -169 -1 q9 -13 22 -24 q71 -3 145 2 q1 -26 -3 -53 q9 -13 24 -23 q5 -1 12 -1 q5 3 7 8 q2 35 -1 69 q75 6 151 -2 q4 4 3 10 q-5 9 -14 11 q-68 5 -140 2 q-2 7 -1 14 q30 1 57 9 q21 11 41 26 q8 9 15 18 q8 14 11 30 l0 26 q-4 10 -8 19 q-21 28 -47 45 q13 25 33 45 q1 11 -7 16 q-19 6 -38 7 q-23 -21 -27 -48 ZM243 236 q2 -34 3 -71 q-17 2 -33 10 q-17 10 -30 25 q-10 14 -9 31 q32 7 69 5 ZM365 234 q-1 -11 -5 -21 q-12 -18 -31 -32 q-22 -12 -47 -17 q-2 38 2 73 q41 4 81 -3 ZM241 308 q2 -21 2 -45 q-30 -1 -59 0 q2 11 14 20 q21 16 43 25 ZM287 318 q21 -2 41 -12 q15 -10 30 -25 q6 -11 9 -24 q-39 7 -81 4 q0 29 1 57 Z" /><glyph glyph-name="" unicode="&#x535a;" d="M357 124 q-83 -3 -165 -1 q-5 -3 -4 -7 q12 -15 29 -26 q69 7 141 9 q3 -10 3 -23 q-1 -10 -7 -19 q-23 -11 -50 -8 q4 7 4 16 q-6 7 -13 9 q-16 3 -30 5 q-22 2 -43 -4 q11 -17 30 -27 q22 2 45 2 q8 -16 26 -28 q20 -1 42 0 q11 3 22 8 q10 10 13 21 q1 26 1 51 q33 6 68 6 q7 4 6 12 q-15 12 -33 12 q-21 -1 -41 -5 q-2 15 -10 26 q-19 7 -39 8 q0 -17 5 -37 ZM283 342 q-54 -5 -108 -4 q6 -14 22 -26 q43 -5 88 1 q3 -5 3 -12 q-26 -4 -52 -9 q-31 -11 -55 -37 q-21 14 -46 14 q0 13 1 25 q-2 12 -7 21 q-22 11 -42 6 q2 -28 5 -57 q-29 -4 -56 -12 q5 -12 16 -22 q6 -4 14 -8 q14 3 28 6 q5 -45 5 -95 q-3 -15 -5 -31 q7 -8 17 -18 q5 -3 13 -3 q3 2 6 5 q2 76 5 151 q16 5 36 3 q-3 -27 1 -57 q12 -16 29 -27 l12 0 q8 6 6 17 q35 6 72 7 q1 -8 1 -19 q8 -9 18 -19 q6 -3 14 -3 q4 3 6 7 q-1 18 -2 35 q29 6 64 3 q0 -5 0 -13 q8 -9 18 -19 q6 -4 15 -5 q5 2 8 7 q-1 43 -4 84 q-4 19 -16 33 q-11 9 -23 14 q-32 9 -63 14 l0 18 q14 4 29 5 q31 1 62 -3 q7 5 6 14 q-6 8 -15 9 q-41 6 -82 2 q-2 13 -1 26 q-10 10 -23 12 q-11 1 -22 1 q-3 -20 2 -41 ZM389 232 q6 -9 4 -25 q-31 1 -65 -1 q-4 11 -1 22 q30 4 62 4 ZM225 241 q9 -11 22 -17 q22 1 45 2 q2 -9 2 -19 q-40 -2 -80 -2 q-2 8 -1 16 q3 11 12 20 ZM290 272 q0 -9 0 -17 l-46 0 q13 13 35 18 q7 1 11 -1 ZM328 276 q30 1 56 -10 q0 -5 3 -11 q-29 2 -59 1 q-3 11 0 20 ZM354 388 q9 -20 30 -29 q16 -1 34 -1 q8 7 5 17 q-6 6 -12 8 q-29 6 -57 5 Z" /><glyph glyph-name="" unicode="&#x5374;" d="M335 352 q-26 -2 -48 -13 q-3 -2 -4 -6 q6 -8 14 -16 q2 -84 6 -169 q-6 -40 -9 -80 q8 -8 18 -18 q5 -3 13 -3 q4 2 6 6 q5 134 13 265 q36 11 75 9 q7 -18 9 -38 q1 -30 -2 -61 q-6 -21 -10 -41 q-5 -16 -16 -28 q-13 14 -29 20 q-9 2 -15 -1 q6 -16 24 -30 q14 -11 31 -16 q8 0 17 2 q8 8 13 17 q6 23 11 45 q9 55 7 112 q-3 12 -8 21 q-9 9 -19 15 q-23 6 -46 9 q-26 1 -51 -1 ZM146 362 q1 -34 4 -69 q-46 -1 -86 -9 q12 -17 30 -27 q29 2 57 6 q0 -30 4 -59 q-52 -3 -104 -4 q9 -19 30 -30 q20 2 42 2 q-7 -15 -15 -32 q-5 -17 -5 -36 q2 -6 5 -13 q19 -24 47 -37 q19 -4 40 -5 q13 3 28 5 q27 10 49 32 q6 11 5 25 q-2 4 -5 7 q-16 7 -33 8 q1 -17 -12 -32 q-12 -8 -24 -15 q-20 -6 -42 -6 q-12 5 -17 16 l0 18 q4 13 11 24 q21 26 39 49 q48 4 95 5 q1 5 1 9 q-6 7 -13 9 q-42 4 -87 2 q-2 30 0 61 q42 8 89 4 q4 5 3 12 q-15 13 -35 12 q-27 0 -54 -1 q-3 26 -1 54 q-3 5 -6 8 q-20 8 -40 7 Z" /><glyph glyph-name="" unicode="&#x53bb;" d="M250 299 q-63 -6 -128 -5 q-7 0 -9 -5 q11 -14 26 -25 q56 0 111 7 q2 -17 1 -35 q6 -8 14 -16 q-98 2 -195 -6 q9 -15 26 -27 q44 2 90 6 q-22 -22 -43 -48 q-12 -17 -18 -39 q-2 -9 3 -17 q15 -18 37 -31 q14 -4 30 -7 q36 -2 74 -2 q59 2 114 17 q13 6 25 17 q7 16 3 33 q-6 12 -15 22 q-12 9 -25 15 q-23 9 -44 6 q6 -10 19 -20 q13 -3 26 -9 q5 -10 5 -24 q-4 -6 -9 -12 q-31 -17 -66 -23 q-33 -3 -68 -3 q-28 3 -55 6 q-14 4 -17 16 q3 20 17 34 q21 24 46 40 q23 10 43 22 q0 7 -2 11 q85 7 170 -1 q6 3 5 10 q-3 5 -6 7 q-17 5 -34 6 q-56 -1 -111 0 q-2 29 1 57 q47 7 98 3 q5 5 4 12 q-15 12 -35 12 q-33 0 -65 -3 q-1 24 6 46 q-4 5 -7 8 q-19 8 -39 8 q-9 -29 -3 -63 Z" /><glyph glyph-name="" unicode="&#x53c2;" d="M298 67 q-33 -6 -65 -11 q-38 -1 -75 0 q8 -14 23 -26 q25 -6 54 -4 q25 5 52 8 q41 12 82 25 q11 5 21 13 q1 8 -4 13 q-16 6 -32 8 q-26 -16 -56 -26 ZM202 108 q9 -17 27 -28 q30 3 60 7 q27 9 56 16 q4 6 3 14 q-5 4 -10 8 q-15 2 -29 4 q-53 -15 -107 -21 ZM187 161 q12 -19 31 -29 q63 11 122 30 q7 4 6 12 q-4 5 -8 9 q-16 5 -33 6 q-58 -18 -118 -28 ZM184 376 q-18 -16 -26 -39 q-4 -15 0 -30 q7 -9 16 -18 q16 -13 35 -19 q-4 -12 -11 -23 q-53 -5 -107 -6 q-4 0 -3 -5 q12 -16 30 -26 q30 2 58 5 q-23 -21 -41 -39 q10 -13 25 -22 q21 6 38 24 q23 23 44 47 q32 3 66 5 q14 -14 29 -29 q36 -25 74 -46 q6 0 11 3 q3 5 3 10 q-3 5 -6 9 q-18 10 -36 18 q-15 12 -30 26 q-5 6 -1 9 q28 0 57 -1 q8 8 0 16 q-14 5 -28 7 q-61 -3 -125 -3 q-1 12 6 21 q49 5 96 19 q14 6 22 19 q2 14 -9 22 q-21 11 -43 11 q2 -8 13 -18 q-7 -7 -16 -12 q-39 -14 -81 -18 q-21 1 -41 2 q-5 3 -6 7 q1 14 8 25 q21 22 48 37 q1 10 -6 15 q-19 7 -39 8 q-12 -6 -24 -11 Z" /><glyph glyph-name="" unicode="&#x53cb;" d="M215 382 q-12 -40 -19 -82 q-50 -2 -98 -10 q-10 -1 -12 -8 q10 -12 21 -22 q7 -4 18 -4 q30 11 64 14 q-4 -21 -9 -45 q-23 -66 -46 -132 q8 -12 23 -19 q6 -1 10 3 q6 27 13 54 q12 30 24 59 q9 -9 21 -15 q44 23 93 34 q16 2 34 3 q2 -14 0 -30 q-8 -30 -22 -59 q-7 -9 -14 -18 q-40 19 -78 37 q-16 3 -31 5 q0 -12 16 -24 q37 -17 75 -34 q-16 -11 -33 -19 q-49 -14 -98 -19 q10 -15 27 -23 q52 5 99 21 q23 10 43 26 q39 -14 75 -39 l11 0 q5 5 5 12 q-2 5 -5 8 q-34 19 -69 32 q12 21 24 43 q12 28 17 58 q0 15 -4 27 q-6 8 -14 13 q-20 5 -39 8 q-35 -1 -68 -5 q-28 -6 -53 -15 q7 29 18 58 q33 7 70 8 q60 1 120 -2 q3 4 3 9 q-4 6 -9 9 q-86 6 -174 3 q7 33 17 66 q-2 4 -5 7 q-20 8 -41 7 Z" /><glyph glyph-name="" unicode="&#x53cc;" d="M114 318 q-27 -8 -51 -21 q3 -11 17 -23 q8 -7 20 -7 q29 17 62 27 q24 7 51 7 q8 -25 1 -52 q-11 -33 -33 -60 q-16 17 -33 26 q-18 5 -35 4 q22 -27 54 -50 q-17 -20 -38 -38 q-15 -9 -30 -16 q-18 5 -31 2 q9 -13 22 -23 q15 -3 31 0 q14 7 28 16 q20 21 39 41 q24 -23 54 -34 q7 4 7 13 q-22 21 -46 39 q23 32 40 64 q8 25 7 52 q-3 15 -13 25 q-10 7 -19 10 q-26 7 -54 6 q-26 -3 -50 -8 ZM291 326 q-16 -4 -28 -16 q7 -13 22 -26 q8 -3 18 -3 q11 10 24 16 q24 11 53 9 q8 -20 6 -46 q-4 -21 -10 -42 q-9 -20 -22 -40 q-20 17 -40 32 q-17 11 -35 15 q-14 2 -27 3 q5 -12 18 -23 q38 -16 71 -45 q-18 -20 -37 -39 q-18 -16 -40 -21 q1 -9 13 -18 q7 -5 17 -5 q8 4 16 7 q31 28 56 59 q33 -23 67 -49 q8 -3 15 4 q1 9 -4 14 q-35 21 -66 47 q22 30 36 63 q9 29 8 62 q-3 13 -8 24 q-12 13 -25 18 q-18 2 -34 6 q-34 2 -64 -6 Z" /><glyph glyph-name="" unicode="&#x53d1;" d="M289 306 q4 -17 21 -29 q8 -5 19 -4 q3 3 7 6 q36 4 71 12 q1 10 -5 15 q-18 6 -34 8 q-41 -1 -79 -8 ZM212 285 q-4 -27 -10 -53 q-31 0 -60 1 q-6 2 -10 5 q-4 8 -2 18 q6 27 19 51 q0 9 -6 14 q-18 7 -38 8 q-13 -19 -16 -45 q-3 -20 4 -38 q16 -18 36 -30 q29 -8 64 -6 q-5 -16 -15 -33 q-18 -25 -39 -44 q-22 -16 -42 -31 q6 -8 15 -16 q5 -3 13 -3 q23 17 44 37 q22 25 41 50 q7 -8 18 -12 q27 7 54 15 q32 7 66 8 q3 -9 2 -20 q-5 -13 -10 -26 q-12 -18 -28 -32 q-21 11 -40 21 q-22 7 -43 3 q8 -10 19 -21 q20 -8 41 -17 q-23 -17 -54 -24 q-24 -1 -46 4 q4 -11 18 -22 q7 -3 16 -6 q18 0 37 1 q31 11 60 28 q26 -13 56 -25 q22 -6 45 -11 q3 2 6 5 q0 7 -3 11 q-23 12 -49 15 q-19 8 -34 19 q15 14 30 29 q13 20 17 44 q-1 14 -6 24 q-7 7 -14 13 q-19 7 -38 10 q-21 2 -41 1 q-32 -2 -62 -9 q-1 8 5 16 q85 16 174 22 q9 5 4 13 q-13 7 -27 8 q-70 -11 -140 -20 q12 60 12 126 q-3 5 -6 8 q-19 7 -39 8 q1 -44 2 -92 Z" /><glyph glyph-name="" unicode="&#x53d8;" d="M80 328 q-4 -1 -4 -5 q12 -16 29 -26 q28 2 57 5 q2 -5 5 -11 q-9 -1 -21 1 q-36 -16 -63 -42 q-2 -4 -2 -9 q12 -18 31 -26 q7 0 13 3 q2 5 4 10 q19 22 44 33 q1 -8 3 -16 q16 -20 36 -28 q-43 -8 -81 -24 q-6 -3 -8 -10 q10 -10 22 -22 q7 -4 17 -4 q40 24 85 37 q21 4 44 7 q18 2 34 -3 q1 -5 1 -12 q-6 -21 -17 -40 q-10 -12 -22 -24 q-17 -14 -35 -21 q-15 10 -28 22 q-24 12 -41 4 q20 -22 45 -39 q-29 -13 -62 -17 q-21 0 -42 -1 q-14 10 -33 10 q-6 -1 -6 -8 q12 -16 31 -25 q55 -1 106 10 q19 7 39 14 q62 -20 122 -46 q10 2 9 13 q-50 28 -103 45 q20 12 39 25 q12 12 23 25 q8 16 13 32 q2 20 -5 35 q-7 10 -17 14 q-1 27 1 52 q31 -21 66 -41 q8 -1 14 6 q1 4 1 7 q-20 18 -43 33 q-18 9 -38 12 q1 20 -4 34 q49 0 93 0 q4 8 -2 14 q-8 2 -15 4 q-168 1 -335 -7 ZM296 313 q4 -46 8 -91 q-43 4 -86 -3 q2 7 2 15 q-8 37 -16 71 q45 5 92 8 ZM210 383 q8 -20 30 -29 q27 1 56 1 q4 3 7 6 q1 9 -4 14 q-18 7 -36 9 q-28 1 -53 -1 Z" /><glyph glyph-name="" unicode="&#x53ef;" d="M136 266 q-13 -8 -24 -22 q-10 -17 -15 -37 q-2 -12 -1 -25 q2 -17 11 -33 q19 -26 46 -42 q20 -8 42 -12 q24 -1 46 3 q14 6 28 13 q17 13 32 30 q19 27 25 58 q0 14 -3 26 q-6 11 -14 19 q-20 15 -43 23 q-38 11 -76 13 q-28 -3 -54 -14 ZM236 256 q27 -4 51 -18 q10 -15 8 -36 q-7 -27 -23 -50 q-12 -12 -25 -22 q-18 -9 -37 -15 q-17 -1 -33 0 q-20 7 -34 22 q-7 11 -10 23 l0 21 q4 15 11 28 q7 12 18 20 q24 12 46 25 q13 3 28 2 ZM362 349 q-153 -14 -300 -39 q11 -18 31 -28 q129 28 262 46 q12 -85 9 -178 q-6 -17 -15 -36 q-9 -11 -20 -22 q-18 -9 -34 -11 q6 -8 16 -18 q10 -7 24 -6 q11 3 22 9 q10 9 18 19 q10 20 18 41 q10 102 8 205 l44 0 q5 4 4 11 q-4 6 -9 7 q-39 6 -78 0 Z" /><glyph glyph-name="" unicode="&#x53f0;" d="M223 172 q-30 -9 -57 -25 q-18 -12 -33 -29 q-7 -9 -10 -19 q-2 -13 0 -26 q15 -21 37 -36 q25 -12 55 -16 q42 -2 86 -2 q23 3 47 7 q14 6 28 13 q17 12 31 28 q7 14 11 29 l0 26 q-4 10 -9 18 q-10 11 -21 17 q-37 12 -74 20 q-23 3 -45 3 q-24 -3 -46 -8 ZM283 149 q39 -1 78 -3 q10 -2 20 -10 q3 -11 3 -25 q-4 -15 -10 -29 q-18 -23 -43 -34 q-29 -8 -59 -10 q-32 1 -63 3 q-21 4 -38 13 q-7 6 -10 13 q-3 20 8 36 q10 12 23 19 q18 10 39 17 q25 6 52 10 ZM176 387 q-44 -48 -75 -103 q-6 -16 -6 -35 q2 -10 7 -19 q19 -23 45 -37 q18 -6 39 -9 l67 0 q57 5 112 14 q14 5 28 12 q8 8 13 16 l0 13 q-6 11 -15 19 q-29 25 -59 44 q-14 3 -28 4 q24 -29 61 -55 q3 -4 2 -11 q-12 -13 -28 -19 q-36 -10 -73 -15 q-53 -3 -104 0 q-16 5 -27 19 q-6 10 -5 20 q2 22 16 39 q40 48 87 84 q1 10 -5 15 q-19 8 -39 9 q-7 -3 -13 -5 Z" /><glyph glyph-name="" unicode="&#x53f7;" d="M82 226 q9 -14 24 -25 q31 -5 65 -2 q0 -11 -4 -23 q-10 -21 -21 -43 q10 -11 23 -22 q5 -2 12 -2 q54 21 113 30 l49 0 q5 -20 -6 -40 q-12 -15 -25 -27 q-25 -13 -51 -23 q-21 -3 -40 -9 q-2 -9 6 -15 q7 -2 15 -5 q49 8 95 26 q19 11 36 29 q7 13 12 27 l0 22 q-3 10 -8 18 q-9 9 -19 13 q-19 5 -38 7 q-58 2 -111 -9 q7 24 13 49 q55 4 111 9 q44 1 89 -2 q8 8 0 16 q-12 3 -24 5 q-162 -3 -316 -4 ZM213 385 q-27 -8 -51 -24 q-12 -10 -21 -22 q-6 -10 -8 -23 q-1 -12 3 -24 q12 -21 34 -38 q16 -8 34 -15 q34 -5 70 -3 q32 7 61 24 q13 12 21 26 q5 16 5 33 q-5 19 -14 34 q-9 9 -17 17 q-35 18 -75 21 q-21 -3 -42 -6 ZM292 360 q10 -3 21 -5 q4 -7 9 -16 q3 -15 1 -32 q-8 -19 -25 -34 q-21 -10 -43 -16 q-24 -2 -47 0 q-19 5 -32 20 q-6 11 -5 23 q1 19 17 32 q28 19 62 25 q20 4 42 3 Z" /><glyph glyph-name="" unicode="&#x540e;" d="M243 227 q-22 -5 -43 -10 q-15 -11 -26 -26 q-12 -22 -13 -46 q1 -20 13 -36 q17 -18 39 -35 q24 -12 52 -16 q31 -2 63 0 q33 6 61 24 q18 15 26 34 q4 15 5 31 q-3 21 -14 38 q-13 16 -31 27 q-36 15 -76 18 q-29 0 -56 -3 ZM327 207 q21 -3 40 -12 q14 -15 18 -35 q1 -25 -11 -45 q-14 -17 -32 -27 q-22 -8 -46 -12 q-20 0 -38 1 q-19 3 -35 12 q-15 11 -21 26 q-2 7 -2 14 q3 19 13 35 q22 23 47 38 q31 7 67 5 ZM308 353 q-104 -8 -205 -19 q5 -39 15 -82 q3 -36 2 -74 q-4 -22 -10 -43 q-9 -20 -22 -38 q-7 -6 -13 -11 q5 -11 15 -19 q6 -4 16 -3 q9 7 16 15 q8 19 17 38 q10 33 17 68 q2 29 1 57 q109 7 217 17 q29 2 57 -2 q6 3 5 11 q-3 5 -7 8 q-14 4 -28 6 q-122 -9 -246 -8 q-4 16 -4 32 q83 13 167 26 q51 3 101 -2 q4 2 8 6 q0 8 -5 12 q-14 5 -29 7 q-43 -1 -85 -2 Z" /><glyph glyph-name="" unicode="&#x544a;" d="M197 200 q-25 -18 -45 -47 q-10 -16 -16 -35 q-2 -10 -2 -21 q2 -10 9 -19 q14 -16 31 -29 q16 -8 34 -15 q40 -8 84 -7 q20 3 41 7 q19 7 38 18 q8 9 16 16 q12 19 16 40 q0 19 -2 35 q-8 14 -19 26 q-24 16 -50 25 q-55 14 -115 15 q-11 -3 -20 -9 ZM299 183 q31 -5 60 -21 q12 -16 11 -38 q-3 -15 -7 -30 q-8 -12 -19 -24 q-12 -7 -24 -14 q-19 -5 -39 -9 l-44 0 q-20 3 -38 9 q-19 10 -27 28 q-2 15 3 28 q8 15 20 28 q23 25 52 37 q25 5 52 6 ZM242 382 q1 -36 4 -72 q-30 -2 -60 0 q-4 18 -2 37 q-9 11 -22 13 q-14 1 -24 2 q-3 -24 5 -45 q16 -19 38 -31 q32 -3 65 -1 q1 -16 1 -35 q7 -3 7 -10 q-92 1 -183 4 q4 -12 20 -25 q6 -3 14 -5 q83 2 166 5 q84 2 166 -5 q5 4 4 12 q-6 7 -13 10 q-71 8 -141 3 q-7 24 0 47 q51 2 104 0 q9 3 10 13 q-2 4 -5 7 q-14 4 -28 6 q-38 -6 -80 -4 q-1 32 0 61 q-21 15 -46 13 Z" /><glyph glyph-name="" unicode="&#x548c;" d="M66 340 q-3 -1 -2 -5 q12 -17 31 -26 q29 2 56 5 q3 -29 7 -59 q-62 2 -120 -3 q9 -20 30 -30 q32 5 66 6 q-15 -13 -31 -31 q-38 -45 -65 -93 q9 -11 21 -22 q8 -5 19 -4 q30 50 60 100 q11 13 25 22 q5 -11 6 -29 q0 -44 -1 -87 q10 -13 26 -21 q7 0 11 6 q-8 67 -3 133 q19 -8 37 -24 q23 -37 50 -72 q7 -4 17 -4 q7 7 4 18 q-22 35 -49 66 q-28 26 -61 39 q-2 3 -1 6 q52 6 103 5 q1 -27 8 -53 q10 -24 33 -44 q18 -14 42 -19 q14 0 27 2 q18 8 34 24 q8 12 16 25 q12 43 10 91 q-3 20 -12 37 q-11 13 -23 20 q-25 10 -52 13 q-40 0 -75 -8 q-5 -9 -15 -16 q1 -7 6 -12 q-2 -21 0 -42 q-14 4 -30 6 q-36 -3 -71 -5 q-3 26 -3 52 q-4 8 -12 11 q29 6 62 4 q6 6 4 14 q-18 11 -38 12 q-73 -4 -147 -8 ZM405 309 q12 -2 23 -7 q12 -17 14 -39 q0 -33 -8 -63 q-7 -16 -17 -32 q-13 -12 -28 -21 q-10 -2 -19 -4 q-9 5 -16 13 q-10 14 -13 31 q-3 49 5 95 q4 11 9 21 q22 9 50 6 Z" /><glyph glyph-name="" unicode="&#x54c8;" d="M255 222 q-2 -4 1 -9 q-27 -23 -44 -53 q-7 -15 -11 -32 q-3 -21 5 -39 q12 -16 29 -31 q20 -13 46 -15 q23 1 45 7 q26 12 49 35 q16 20 21 43 q1 16 0 31 q-5 11 -10 20 q-11 12 -22 19 q-28 12 -55 22 q-28 6 -54 2 ZM320 194 q19 -4 36 -15 q4 -8 7 -17 q1 -24 -8 -45 q-7 -7 -12 -16 q-18 -17 -39 -28 q-20 -5 -40 -7 q-14 4 -22 16 q-5 12 -5 25 q3 13 8 25 q15 23 38 43 q16 16 37 19 ZM259 359 q-21 -9 -37 -28 q-26 -40 -48 -77 q-2 20 -11 35 q-12 12 -26 15 q-36 4 -70 6 q-7 -13 -13 -26 q-8 -62 -7 -127 q2 -17 7 -34 q11 -13 26 -24 q13 -5 29 -4 q18 6 32 21 q10 16 19 32 q14 44 15 92 q11 -12 28 -21 l9 0 q12 17 21 34 q12 -19 33 -26 q64 1 124 6 q4 10 -2 16 q-17 7 -34 9 q-60 -4 -119 0 q8 28 25 53 l14 15 q12 9 28 12 q29 6 57 -3 q15 -22 30 -45 q15 -28 28 -59 q10 -13 24 -26 q7 -4 18 -3 q8 7 4 18 q-19 33 -34 66 q-16 25 -33 47 q-19 18 -40 26 q-19 3 -36 6 q-33 2 -61 -6 ZM138 282 q9 -26 7 -58 q-3 -16 -5 -33 q-8 -22 -20 -43 q-15 -20 -35 -26 q-5 50 6 98 q5 17 9 34 q4 2 10 0 q11 16 28 28 Z" /><glyph glyph-name="" unicode="&#x54e6;" d="M373 294 q-10 -1 -9 -12 q13 -16 30 -27 l12 0 q4 5 7 10 l29 0 q9 4 9 13 q-3 6 -8 9 q-34 11 -70 7 ZM72 298 q-16 -36 -19 -79 q-2 -41 7 -78 q11 -13 26 -27 q6 -3 14 -6 q11 0 21 3 q13 11 21 26 q5 16 10 31 q5 50 7 100 q-1 16 -13 25 q-19 7 -39 8 q-18 -7 -35 -3 ZM126 266 q1 -32 -4 -67 q-8 -33 -29 -58 q-7 26 -2 54 q5 36 21 67 q8 1 14 4 ZM312 354 q-1 -30 3 -60 q-16 4 -33 7 q-58 -3 -113 -11 q7 -19 29 -30 q11 2 23 2 q3 -11 5 -24 q-32 -3 -64 -4 q9 -19 30 -30 q18 2 38 2 q2 -13 5 -28 q-29 -2 -52 -12 q13 -16 31 -27 q13 1 25 5 q3 -21 1 -42 q-4 -8 -12 -12 q-22 2 -44 6 q-2 -3 -1 -8 q15 -18 37 -28 q22 0 42 4 q11 7 16 19 q-1 34 -4 65 q20 8 44 9 q8 4 7 14 q-4 7 -10 9 q-21 7 -42 3 q-3 15 -2 28 q25 7 51 6 q5 -35 18 -69 q-25 -6 -45 -22 l-2 -6 q10 -10 22 -22 q7 -6 19 -5 q12 16 30 23 q39 -37 85 -59 q7 0 12 5 l0 10 q-29 20 -59 37 q-10 8 -16 17 q20 8 37 18 q1 10 -7 15 q-18 6 -36 7 q-8 -4 -14 -6 q-9 27 -9 57 q25 3 51 -2 q5 5 4 13 q-7 7 -14 9 q-20 4 -41 4 q-1 49 1 98 q-3 5 -6 8 q-21 7 -40 7 ZM316 271 q1 -14 3 -30 q-24 -1 -48 -2 q-2 16 -10 29 q25 10 55 3 Z" /><glyph glyph-name="" unicode="&#x54e8;" d="M91 304 q-3 -58 -6 -117 q1 -6 5 -13 q11 -12 25 -24 q11 -6 27 -5 q13 5 24 17 q6 12 12 24 q7 27 10 56 q0 14 -2 25 q-5 11 -11 21 q-10 8 -19 13 q-29 11 -59 15 q-5 -3 -6 -12 ZM147 273 q4 -11 4 -24 q-2 -19 -8 -40 q-7 -15 -19 -28 q1 44 11 89 q5 3 12 3 ZM294 386 q-4 -47 -8 -95 q-16 1 -29 -3 q-4 21 -1 43 q-19 15 -45 14 q-4 -18 -2 -39 q7 -14 21 -26 q-20 -8 -30 -28 q-13 -49 -19 -102 l0 -43 q5 -16 22 -30 q8 -6 20 -6 q4 3 7 6 q-6 32 -6 64 q59 -1 124 0 q7 5 6 14 q-18 14 -41 13 q-44 0 -86 1 q0 15 7 29 q51 -5 108 -2 q11 -4 23 -6 q8 4 8 13 q-10 14 -28 16 q-51 6 -103 5 q2 13 16 21 q19 11 41 16 q8 -6 18 -9 q8 2 12 10 l22 0 q13 -6 26 -13 q9 -87 4 -179 q-6 -10 -12 -20 q11 -15 28 -26 l12 0 q13 11 18 26 q-2 77 0 153 q-2 18 -5 35 q-4 10 -11 18 q-16 13 -29 19 q7 -1 15 0 q13 24 17 53 q-3 5 -6 8 q-19 6 -38 8 q-9 -21 -11 -45 q10 -11 16 -22 q-22 11 -46 12 q3 40 11 82 q-3 5 -6 8 q-21 8 -40 7 Z" /><glyph glyph-name="" unicode="&#x5546;" d="M339 167 q8 -6 20 -5 q8 5 6 15 q-24 24 -44 49 q-19 6 -38 8 q20 -34 56 -67 ZM151 339 q-45 -3 -86 -11 q8 -15 24 -27 q6 -3 15 -3 q26 7 54 11 q8 -28 26 -53 q-16 -7 -30 -19 q-24 -21 -34 -48 q-12 -45 -20 -93 q-3 -16 2 -31 q10 -12 24 -24 q6 -3 15 -3 q5 2 8 7 q-5 16 -5 33 q3 38 7 76 q5 25 18 46 q10 11 20 20 q18 14 39 19 q-25 -34 -53 -71 q14 -17 34 -26 q-9 -11 -11 -26 q0 -7 4 -14 q13 -14 28 -27 q18 -9 40 -11 q16 0 32 1 q13 4 25 10 q8 7 15 14 q5 12 8 25 q1 20 -4 38 q-16 19 -38 23 q-25 4 -50 4 q-15 -4 -26 -12 q21 28 46 50 q0 9 -6 14 q-17 9 -37 8 q32 10 74 6 q22 -4 41 -18 q13 -24 18 -54 q2 -44 2 -90 q-2 -19 -5 -39 q7 -8 17 -17 q6 -4 14 -4 q4 2 7 6 q1 70 0 140 q-3 28 -15 51 q-15 19 -34 29 q12 17 16 38 l0 17 q-7 13 -17 17 q43 1 86 -3 q4 2 7 6 q1 9 -6 13 q-14 2 -27 5 q-130 -3 -262 -3 ZM311 151 q2 -9 3 -18 q-3 -16 -13 -30 q-9 -7 -19 -12 q-15 -3 -30 -3 q-9 4 -12 11 q0 8 4 14 q19 22 44 34 q10 4 23 4 ZM321 321 q6 -22 -3 -44 q3 -8 12 -16 q-21 3 -42 7 q-39 2 -74 -3 q-11 25 -16 50 q60 6 123 6 ZM240 362 q38 -9 77 -18 q8 4 7 14 q-7 11 -19 15 q-41 9 -83 14 q2 -11 18 -25 Z" /><glyph glyph-name="" unicode="&#x554a;" d="M96 328 q-11 0 -20 3 q-8 -8 -16 -16 q-9 -36 -13 -77 q-2 -47 10 -92 q10 -17 27 -32 q14 -12 34 -11 q14 6 24 19 q18 33 24 70 q2 31 3 63 q-3 22 -7 41 q-6 15 -17 27 q-18 10 -38 11 q-7 0 -11 -6 ZM130 305 q6 -13 10 -30 q2 -26 0 -54 q-8 -37 -26 -71 q-9 -11 -18 -19 q-13 18 -13 39 q0 45 10 84 q8 21 16 41 q8 12 21 10 ZM201 365 q-14 -6 -24 -19 q6 -98 12 -202 q2 -45 -3 -88 q8 -11 21 -19 q5 0 10 1 q1 78 3 159 q14 -14 34 -25 q16 -1 27 12 q19 39 30 76 q-13 -61 -25 -124 q-1 -20 -1 -41 q7 -13 21 -25 q7 -4 16 -7 q15 -1 27 7 q11 10 21 22 q12 21 23 41 q8 25 14 52 q1 24 0 46 q-4 15 -10 27 q-8 11 -20 16 q-18 4 -36 5 q-5 -2 -8 -6 q-9 2 -18 1 q0 11 2 23 q5 -2 13 -7 q43 11 91 12 q12 -90 12 -186 q-5 -26 -20 -47 q-15 -7 -30 -5 q6 -11 18 -21 q11 -4 25 -3 q10 3 19 9 q13 21 16 45 q2 67 7 133 q0 47 -3 90 q-17 12 -38 12 q-55 2 -108 -5 q-3 8 -2 16 q-5 13 -15 21 q-26 11 -55 12 q-24 -2 -46 -8 ZM371 250 q8 -27 5 -58 q-4 -15 -7 -30 q-12 -24 -29 -47 q-10 -10 -21 -18 q1 28 7 52 q20 47 32 96 q7 3 13 5 ZM277 344 q4 -25 2 -53 q-5 -19 -8 -38 q-7 -23 -20 -43 q-7 12 -20 18 l-9 0 q1 48 2 95 q4 7 11 11 q18 11 42 10 Z" /><glyph glyph-name="" unicode="&#x5584;" d="M163 388 q-1 -19 3 -37 q4 -1 7 -7 q-45 -1 -88 -1 q7 -14 22 -26 q62 -3 127 1 q2 -5 2 -11 q-66 -3 -131 -12 q9 -18 28 -29 q55 7 108 14 q1 -10 4 -21 q-84 -6 -166 -16 q11 -18 31 -28 q21 1 42 4 q1 -8 3 -17 q8 -9 17 -18 q8 -6 20 -5 q3 3 6 6 q1 22 -2 41 q25 5 51 7 q5 -30 3 -61 q-78 -1 -153 1 q-9 -1 -16 -5 q10 -20 31 -29 q48 6 98 7 q-16 -7 -33 -19 q-15 -13 -28 -29 q-9 -11 -14 -26 q-2 -6 0 -14 q11 -11 23 -24 q20 -11 45 -13 q54 -1 105 7 q34 9 67 25 q10 10 17 20 q2 11 -1 21 q-7 9 -15 17 q-23 15 -48 22 q-49 7 -92 15 q25 2 48 -4 q3 3 6 6 q69 3 138 -2 q6 4 6 11 q-5 9 -14 10 q-34 3 -64 2 q8 22 20 42 q-1 15 -12 20 q24 -4 51 -5 q4 5 3 12 q-6 7 -13 9 q-59 8 -120 8 q-2 14 -3 26 q52 4 106 -2 q9 4 7 14 q-8 8 -17 10 q-46 5 -93 2 q-1 9 -6 15 q58 7 119 3 q7 -6 18 -5 q6 6 5 13 q-8 9 -18 12 q-21 5 -42 5 q-2 10 -1 20 q-3 5 -7 9 q-18 6 -36 7 q-5 -10 -4 -24 q5 -4 12 -12 q-55 -7 -114 -8 q-4 15 -1 31 q-3 6 -7 9 q-20 8 -40 6 ZM317 117 q22 -4 42 -19 l0 -10 q-5 -8 -13 -16 q-24 -15 -51 -23 q-21 -2 -40 -6 q-43 -3 -80 6 q-2 5 -1 9 q9 22 30 37 q16 11 34 19 q38 5 79 3 ZM286 237 q21 1 43 -1 q-6 -20 -16 -42 q8 -12 21 -23 q-21 -1 -43 -1 q-6 34 -5 67 Z" /><glyph glyph-name="" unicode="&#x55bd;" d="M69 317 q-7 -65 -6 -134 q1 -16 8 -30 q14 -19 37 -30 q13 -2 27 0 q15 8 28 20 q12 16 21 32 q5 19 10 37 q1 22 0 43 q-5 21 -15 38 q-14 18 -32 26 q-21 5 -42 7 q-18 -6 -36 -9 ZM135 300 q6 1 11 -3 q7 -10 13 -22 q3 -14 6 -30 q-2 -16 -4 -35 q-10 -28 -33 -50 q-12 -8 -24 -11 q-8 20 -5 43 q6 48 16 94 q12 3 20 14 ZM287 393 q5 -20 13 -42 q3 -23 4 -45 q-15 17 -30 36 q-21 9 -42 9 q13 -23 37 -44 q-28 0 -50 -11 q8 -10 19 -21 q9 -5 18 -8 q-21 -16 -40 -32 q10 -18 30 -29 q-8 -20 -8 -45 q-28 -1 -56 -1 q9 -19 28 -29 l25 0 q3 -11 5 -24 q12 -16 28 -30 q28 -16 62 -21 q-9 -9 -20 -13 q6 -13 21 -24 q7 -2 16 -1 q10 7 19 16 q5 10 11 20 q25 -3 48 3 q2 5 2 10 q-4 7 -10 9 q-13 3 -25 4 q6 30 11 60 q20 -1 41 -2 q7 9 -2 17 q-18 7 -38 7 q2 15 -6 26 q-20 8 -40 7 q-1 -15 0 -33 q-38 -3 -73 0 q4 15 7 32 q-14 12 -33 13 q22 23 47 45 q2 -26 -1 -54 q12 -16 31 -21 q5 2 8 7 q-3 36 -1 70 q39 -25 79 -54 l9 0 q7 4 8 11 q-43 36 -90 69 q43 4 89 1 q7 4 6 13 q-3 6 -9 8 q-19 5 -39 4 q9 12 20 27 q2 10 4 20 q-3 6 -7 9 q-19 7 -39 7 q-3 -10 -6 -20 q-10 -17 -24 -25 q-2 35 -17 62 q-20 7 -40 7 ZM358 138 q0 -31 -12 -60 q-24 -2 -46 4 q-16 6 -23 21 q-2 16 3 29 q37 6 78 6 Z" /><glyph glyph-name="" unicode="&#x5668;" d="M184 260 q0 -16 -5 -32 q-60 -5 -115 1 q9 -21 33 -32 q32 -2 64 2 q-4 -7 -14 -16 q-12 -8 -26 -12 q0 -5 6 -9 q-26 -5 -47 -23 q-10 -8 -15 -20 q-2 -9 -3 -18 q1 -11 7 -20 q18 -23 44 -36 q30 -9 66 -7 q13 4 27 7 q19 11 35 27 q8 15 10 32 q-3 19 -19 31 q-26 14 -55 20 q18 14 34 31 q6 12 13 21 q19 2 39 4 q32 -34 70 -59 q-11 -4 -23 -1 q-17 -5 -29 -18 q-9 -12 -12 -27 l0 -20 q12 -17 30 -33 q8 -4 18 -8 q20 -2 42 -2 q17 3 35 7 q22 9 44 20 q11 9 16 20 q2 8 2 17 q-4 17 -19 26 q-18 10 -37 12 q-3 6 -8 10 q-28 5 -52 18 q-22 22 -44 39 q44 2 90 -1 q9 5 5 14 q-14 8 -30 9 q-66 -2 -131 -2 q1 8 1 15 q-5 9 -14 11 q-19 6 -33 2 ZM404 125 q8 -1 15 -7 q-1 -6 -1 -13 q-8 -11 -18 -19 q-13 -6 -26 -12 q-27 -7 -56 -7 q-6 3 -7 8 q-1 15 7 26 q16 17 37 24 q24 4 49 0 ZM165 133 q23 1 44 -8 q4 -4 6 -11 q-2 -13 -7 -25 q-17 -18 -38 -26 q-18 -4 -37 -4 q-18 3 -28 18 q-4 8 -2 14 q4 13 16 22 q22 12 46 20 ZM266 264 q11 -18 30 -28 q18 2 37 0 q5 3 8 7 q1 10 -6 15 q-21 8 -43 9 q-16 2 -26 -3 ZM271 365 q-8 -6 -15 -14 q-7 -11 -10 -25 q-1 -10 3 -19 q12 -12 26 -25 q17 -9 39 -12 q34 0 67 4 q18 5 35 15 q14 12 19 26 q1 10 -1 18 q-13 19 -34 25 q-19 4 -37 7 q-47 1 -92 0 ZM345 343 q28 2 52 -7 q0 -9 -5 -17 q-8 -5 -14 -13 q-16 -8 -33 -11 q-25 -2 -48 0 q-4 2 -7 5 q-2 13 6 23 q7 8 16 13 q16 3 33 7 ZM96 366 q-17 -14 -29 -31 q-10 -14 -8 -32 q9 -10 20 -22 q16 -11 37 -15 q45 -3 88 3 q10 4 20 8 q8 6 10 15 q0 11 -3 19 q-5 8 -12 14 q-40 27 -83 44 q-22 5 -40 -3 ZM139 340 q32 -9 58 -29 q0 -7 -5 -12 q-15 -7 -30 -10 l-48 0 q-9 1 -15 7 q2 6 4 11 q14 20 36 33 Z" /><glyph glyph-name="" unicode="&#x56de;" d="M198 270 q-21 -16 -28 -40 q-6 -27 3 -52 q14 -21 35 -37 q12 -6 27 -10 q28 -1 52 7 q32 16 60 45 q5 11 11 22 l0 24 q-4 9 -8 16 q-26 22 -48 39 q-22 10 -46 9 q-31 -6 -58 -23 ZM280 259 q17 -5 36 -10 q4 -5 7 -12 q1 -10 0 -22 q-10 -20 -28 -36 q-18 -12 -37 -20 q-16 -4 -33 -5 q-14 9 -18 24 q-2 15 0 29 q4 12 10 23 q14 15 32 21 q14 6 31 8 ZM214 339 q-26 -10 -49 -28 q-16 -13 -30 -28 q-22 -25 -36 -53 q-9 -32 -5 -71 q4 -18 15 -35 q12 -14 28 -29 q17 -12 36 -22 q18 -5 38 -9 q33 -2 66 0 q19 5 38 10 q19 10 38 20 q18 15 35 32 q15 22 27 44 q3 17 7 32 q1 24 0 47 q-4 14 -8 27 q-11 21 -29 37 q-24 18 -51 26 q-42 9 -86 7 q-18 -2 -34 -7 ZM274 318 q29 0 55 -9 q5 3 8 7 q13 -3 26 -11 q13 -11 20 -25 q5 -13 9 -27 q3 -35 -5 -67 q-9 -18 -19 -36 q-13 -16 -29 -31 q-22 -16 -45 -27 q-22 -5 -43 -10 q-33 -2 -62 3 q-12 5 -22 10 q-17 12 -27 26 q-10 16 -13 33 q-2 23 0 45 q5 30 25 53 q19 22 43 38 q21 12 43 21 q17 4 36 7 Z" /><glyph glyph-name="" unicode="&#x5728;" d="M236 385 q-6 -25 -12 -50 q-9 -24 -21 -48 q-66 0 -129 -6 q6 -20 29 -31 q42 6 86 9 q-11 -27 -27 -55 q-17 3 -34 3 q3 -23 9 -47 q-22 -26 -37 -56 q8 -8 16 -16 q4 -2 11 -2 q11 19 23 34 q11 -32 15 -69 q6 -10 16 -19 q10 -9 23 -3 q-11 54 -19 105 q8 -10 18 -20 q8 -6 20 -6 q38 19 85 18 q0 -22 -1 -40 q-51 0 -98 2 q-6 -2 -5 -8 q11 -16 29 -25 q95 7 193 4 q4 2 6 6 q1 9 -5 13 q-38 10 -79 5 q-2 23 -1 46 q35 6 73 3 q5 5 4 12 q-6 6 -12 8 q-33 5 -65 3 l0 44 q-3 7 -8 11 q-18 8 -37 8 q-2 -31 4 -64 q-61 -3 -117 -10 q-2 -4 -5 -7 q-6 15 -7 32 q31 49 63 96 q51 6 103 11 q44 0 88 -3 q7 6 3 13 q-13 8 -29 9 q-78 -3 -151 -3 q14 27 24 54 q2 12 4 25 q-2 4 -5 7 q-20 9 -41 7 Z" /><glyph glyph-name="" unicode="&#x5730;" d="M309 367 q-1 -33 1 -68 q-6 -4 -13 -6 q0 10 2 21 q-5 9 -14 11 q-17 4 -32 4 q-5 -28 -2 -57 q-25 -14 -47 -31 q-2 7 -6 11 q-29 10 -57 5 q-2 22 -1 44 q-3 6 -7 9 q-18 8 -37 8 q-4 -34 5 -69 q-30 -10 -61 -15 q2 -13 17 -24 q5 -3 12 -6 q19 2 37 8 q8 -41 5 -87 q5 -3 7 -9 q-29 -15 -57 -31 q9 -18 29 -29 l12 0 q45 30 90 60 q1 9 -5 14 q-21 9 -40 6 q-2 45 -4 88 q24 9 52 9 q7 -12 19 -23 q8 -7 21 -6 q8 7 17 16 q3 -51 4 -103 q1 -19 10 -37 q11 -13 26 -25 q19 -11 43 -8 q8 4 18 6 q22 15 33 37 q-1 11 -7 18 q-14 7 -28 1 q-10 -15 -24 -30 q-11 -6 -25 -9 q-9 8 -13 18 q-3 13 -4 24 q1 69 7 137 q8 7 17 11 q5 -31 2 -74 q9 -8 20 -19 q9 -5 17 3 q-3 55 2 108 q20 9 44 11 q21 3 38 -6 q8 -21 6 -48 q-6 -24 -17 -46 q-15 -21 -37 -33 q-7 6 -17 6 q-6 0 -9 -4 q10 -18 31 -28 l16 0 q13 6 25 16 q20 24 33 50 q7 21 10 44 q-1 21 -7 38 q-6 8 -12 14 q-25 14 -54 17 q-25 1 -47 -2 q-2 23 2 45 q-4 5 -8 9 q-20 6 -38 6 Z" /><glyph glyph-name="" unicode="&#x5747;" d="M251 130 q-2 -2 -1 -6 q10 -12 23 -23 q7 -3 17 -3 q41 32 86 56 q2 11 -6 17 q-18 5 -35 7 q-42 -26 -84 -48 ZM231 218 q8 -19 28 -29 q28 4 59 3 q12 -6 26 -9 q6 2 8 8 q0 9 -6 13 q-13 7 -26 11 q-29 4 -57 6 q-16 1 -32 -3 ZM262 360 q-20 -57 -51 -110 q4 -6 11 -12 q-22 3 -44 4 q1 26 6 50 q-5 9 -14 12 q-17 3 -33 4 q-3 -35 0 -67 q-33 -4 -63 -15 q6 -19 28 -30 q19 3 37 10 q8 -35 6 -77 q4 -5 10 -11 q-39 -19 -79 -33 q5 -14 20 -25 q8 -5 20 -4 q49 19 94 49 q14 10 20 24 q-1 7 -7 11 q-17 6 -34 8 q-2 -6 -7 -11 q-6 37 -4 76 q21 5 45 3 q9 6 7 15 q3 -2 8 -4 q28 17 54 39 q18 12 41 15 q18 2 34 -3 q17 -20 24 -46 q1 -32 2 -61 q-3 -15 -6 -30 q-10 -19 -23 -37 q-25 -24 -54 -36 q-30 -8 -63 -9 q3 -11 16 -22 q5 -3 12 -6 q30 4 60 9 q23 9 44 22 q26 19 43 45 q8 19 13 39 q4 46 -5 88 q-10 23 -26 43 q-10 9 -19 17 q-14 8 -29 11 q-33 4 -64 1 q13 26 30 50 q1 10 -6 15 q-18 7 -38 8 q-9 -8 -16 -19 Z" /><glyph glyph-name="" unicode="&#x58f0;" d="M225 235 q-53 -3 -105 -9 q-2 -9 9 -17 q1 -39 -4 -77 q-6 -2 -12 0 q-1 -8 9 -15 q-4 -17 -8 -34 q-11 -20 -22 -40 q7 -13 23 -23 q6 -1 12 0 q22 43 37 89 q57 5 115 8 q45 8 89 22 q21 9 40 23 q8 9 11 19 q0 11 -2 19 q-7 11 -16 17 q-33 15 -70 18 q-53 1 -106 0 ZM224 206 q3 -27 6 -56 q5 -6 13 -13 q-36 -6 -73 -6 q4 32 5 67 q23 6 49 8 ZM355 215 q14 -2 28 -8 q3 -5 1 -12 q-16 -19 -38 -31 q-36 -17 -74 -24 q-2 31 -1 62 q-3 5 -6 8 q43 7 90 5 ZM227 391 q2 -19 3 -39 q-73 -2 -143 -7 q6 -19 28 -29 q59 4 117 10 q2 -22 2 -46 q-54 -1 -102 -1 q7 -19 30 -29 q83 2 164 11 q29 1 57 -2 q8 4 6 14 q-15 11 -34 11 q-42 0 -82 -3 q0 24 1 47 q71 5 145 0 q6 4 5 12 q-5 6 -11 8 q-71 3 -139 5 l0 23 q-3 5 -7 9 q-20 7 -40 6 Z" /><glyph glyph-name="" unicode="&#x5904;" d="M293 354 q3 -70 8 -139 q1 -54 -4 -109 q-23 4 -44 13 q-22 10 -40 25 q15 25 27 50 q6 23 12 44 q4 32 0 63 q-5 13 -13 24 q-10 7 -19 11 q-17 3 -33 6 q-33 -2 -59 -18 q-24 -16 -41 -38 q-8 -12 -15 -26 q-4 -16 -2 -34 q10 -10 22 -22 q7 -4 17 -4 q4 3 7 6 l0 29 q5 17 15 34 q12 16 27 30 q15 12 34 18 q10 3 21 1 q5 -13 8 -28 l0 -36 q-4 -22 -10 -44 q-9 -25 -23 -43 q-17 23 -37 34 q-16 4 -30 3 q20 -31 53 -58 q-12 -14 -27 -26 q-28 -19 -57 -34 q-16 -6 -33 -9 q3 -12 18 -22 q26 1 50 16 q39 24 74 56 q18 -12 38 -22 q37 -12 76 -22 q38 -6 77 -13 l42 0 q12 3 23 10 l0 9 q-16 12 -35 12 q-8 -4 -16 -7 q-36 -4 -69 2 q-3 61 -1 121 q47 3 96 -5 q5 5 5 11 q-3 6 -7 9 q-45 10 -91 15 q0 47 2 95 q-9 9 -22 11 q-13 2 -24 1 Z" /><glyph glyph-name="" unicode="&#x5907;" d="M202 167 q-26 -13 -44 -37 q-9 -15 -13 -32 l0 -16 q10 -18 29 -34 q12 -8 26 -14 q31 -7 65 -9 q33 0 66 2 q24 4 46 15 q15 11 25 26 q4 16 4 33 q-4 15 -12 27 q-10 10 -22 19 q-15 8 -30 13 q-56 10 -114 13 q-14 -2 -26 -6 ZM256 90 l0 -36 q7 -2 7 -9 q-21 1 -40 2 q-21 4 -37 19 q-8 13 1 23 q4 -1 8 -4 q30 5 61 5 ZM368 93 q-2 -11 -9 -22 q-11 -9 -23 -17 q-18 -5 -37 -8 q-5 22 -3 45 q34 4 72 2 ZM250 141 q4 -11 3 -23 l-43 0 q15 18 40 23 ZM295 147 q25 -2 49 -7 q8 -4 16 -9 q4 -7 7 -16 q-34 3 -70 2 q-2 16 -2 30 ZM205 385 q-33 -48 -68 -94 q-13 -12 -26 -25 q7 -15 23 -24 l11 0 q24 27 51 53 q8 -1 17 -1 q22 15 47 22 q33 9 71 9 q4 -2 6 -9 q-1 -21 -12 -39 q-11 -13 -23 -25 q-20 -15 -40 -27 q-25 13 -49 27 q-19 5 -33 2 q9 -10 22 -23 q16 -10 33 -19 q-33 -13 -66 -24 q-44 -10 -91 -12 q2 -9 16 -20 q4 -1 10 -3 q44 6 86 17 q38 13 75 28 q81 -25 164 -48 q5 6 4 13 l-7 7 q-66 19 -131 39 q31 20 63 50 q10 14 16 30 l0 22 q-4 10 -9 18 q-11 9 -23 13 q-21 5 -42 7 q-32 0 -60 -3 q10 11 11 24 q-3 8 -9 10 q-19 6 -37 5 Z" /><glyph glyph-name="" unicode="&#x590d;" d="M180 331 q-15 -5 -27 -14 q-16 -16 -22 -37 q-3 -12 -4 -25 q0 -14 5 -28 q11 -15 27 -30 q12 -9 26 -15 q-42 -33 -82 -70 q-4 -5 -6 -12 q12 -17 30 -26 q7 0 14 3 q16 24 37 42 q9 -11 25 -11 q8 8 18 14 q33 10 70 13 q17 3 32 -3 q1 -12 -1 -24 q-8 -16 -20 -31 q-11 -12 -23 -19 q-23 13 -43 28 q-23 8 -46 8 q8 -15 24 -27 q22 -8 43 -23 q-13 -7 -26 -12 q-43 -9 -83 -8 q8 -15 28 -22 q36 -1 69 7 q24 8 47 20 q37 -12 79 -20 q18 -1 38 -3 q4 2 7 6 q0 8 -6 13 q-52 6 -94 19 q25 17 41 43 q6 14 6 30 q-4 11 -9 20 q-12 11 -26 15 q-15 3 -29 6 q-36 3 -71 0 q6 3 9 13 q37 1 72 8 q26 8 51 20 q11 10 22 20 q6 12 11 24 l0 19 q-9 22 -29 35 q-22 12 -45 21 q-23 5 -45 10 q-48 5 -94 3 ZM357 252 q-2 -18 -21 -33 q-26 -15 -54 -23 q-40 -5 -79 -2 q-18 6 -31 20 q-4 7 -5 14 q65 16 135 23 q29 -1 55 1 ZM288 308 q30 -5 58 -21 q8 -6 12 -15 q1 -6 1 -13 q-3 5 -6 7 q-17 6 -34 8 q-75 -1 -144 -8 q2 12 14 21 q23 11 46 21 q26 2 53 0 ZM117 378 q16 -25 43 -39 q10 -2 21 -4 q106 9 215 5 q7 4 5 13 q-15 9 -32 10 q-103 -4 -206 2 q0 13 5 27 q-3 5 -7 9 q-19 7 -38 8 q-9 -13 -6 -31 Z" /><glyph glyph-name="" unicode="&#x5916;" d="M180 329 q-29 -8 -56 -22 q-24 -15 -44 -39 q-11 -12 -13 -29 q12 -15 29 -26 q8 -1 15 3 q4 16 14 31 q9 13 21 25 q16 14 34 23 q29 16 65 18 q14 -2 23 -15 q7 -18 10 -39 q-1 -12 -2 -24 q-9 -27 -23 -53 q-9 -13 -19 -24 q-26 40 -47 79 q-7 10 -16 13 q-17 2 -32 4 q34 -61 80 -117 q-31 -30 -65 -51 q-40 -18 -81 -25 q8 -11 21 -18 q26 1 49 9 q37 19 72 44 q23 21 44 44 q24 31 42 65 q9 29 7 61 q-4 14 -7 26 q-8 12 -18 22 q-11 7 -22 12 q-23 7 -47 8 q-18 -2 -34 -5 ZM314 346 q7 -109 14 -221 q0 -31 -2 -63 q8 -11 21 -18 q8 -1 13 5 q-8 81 -5 164 q37 -17 76 -37 q8 -1 13 5 q2 8 -3 14 q-41 25 -84 41 q3 56 0 109 q-5 12 -16 16 q-17 4 -34 6 q0 -8 7 -21 Z" /><glyph glyph-name="" unicode="&#x5929;" d="M122 335 q-8 -1 -9 -8 q12 -15 30 -26 q30 5 62 5 q0 -33 -7 -66 q-62 2 -125 1 q7 -15 23 -27 q45 -4 94 1 q-3 -21 -12 -40 q-10 -16 -20 -32 q-19 -18 -37 -35 q-14 -8 -28 -15 q5 -9 15 -18 q6 -4 15 -4 q9 5 19 11 q32 30 59 63 q22 34 33 70 q6 2 13 2 q28 -39 68 -76 q35 -31 73 -57 q12 -5 26 -11 q9 -3 19 0 q6 10 -2 17 q-21 8 -41 16 q-35 25 -66 59 q-23 32 -46 53 q50 4 101 0 q10 -4 22 -6 q6 4 5 12 q-6 7 -13 9 q-16 4 -31 6 q-59 0 -119 -1 q6 36 13 72 q66 11 134 5 q3 2 6 5 q1 10 -6 15 q-15 3 -29 6 q-118 -9 -239 -6 Z" /><glyph glyph-name="" unicode="&#x5934;" d="M97 230 q7 -20 30 -31 q40 8 84 8 q7 7 3 15 q-17 10 -37 11 q-42 2 -80 -3 ZM117 301 q13 -16 32 -26 q33 6 70 5 q6 5 5 13 q-3 5 -7 8 q-44 10 -93 6 q-7 0 -7 -6 ZM245 357 q8 -49 10 -99 q-3 -37 -14 -72 q-89 -6 -179 -9 q5 -13 21 -26 q34 -4 72 -1 q35 6 72 10 q-3 -8 -9 -17 q-17 -19 -37 -33 q-24 -12 -49 -10 q2 -12 16 -21 q7 -4 18 -4 q15 3 30 8 q22 13 42 34 q17 23 31 48 q24 -26 53 -53 q18 -14 38 -27 q38 -22 82 -32 q8 4 6 14 q-34 17 -68 30 q-49 38 -82 71 q60 3 122 0 q6 4 5 11 q-13 12 -33 12 q-56 -1 -111 -4 q7 28 13 58 q2 44 0 87 q-3 9 -7 16 q-20 10 -42 9 Z" /><glyph glyph-name="" unicode="&#x597d;" d="M311 350 q-30 -3 -58 -11 q5 -20 28 -32 q44 15 94 20 q18 3 31 -4 q-10 -10 -21 -19 q-25 -13 -52 -25 q-20 5 -39 3 q8 -11 21 -23 q7 -12 9 -26 q-49 -1 -96 -1 q5 -19 27 -30 q39 3 78 4 q6 -35 5 -76 q-3 -18 -17 -32 q-14 2 -32 3 q-2 -2 -1 -5 q13 -17 33 -28 l19 0 q9 4 18 10 q11 16 13 35 q4 49 -1 95 q43 1 88 -1 q4 2 6 6 q1 10 -5 15 q-18 7 -38 9 q-29 0 -56 -2 q-5 8 -8 16 q44 19 85 48 q4 9 4 19 q-7 15 -21 22 q-24 7 -47 10 q-33 3 -67 0 ZM111 368 q-7 -51 -15 -100 q-25 -1 -49 -2 q9 -19 30 -30 q8 0 16 1 q-3 -26 -2 -56 q3 -10 9 -20 q21 -23 47 -39 q14 -6 29 -10 q0 -22 -1 -46 q6 -11 18 -21 q6 -3 14 -3 q3 2 5 5 q-4 28 -2 56 q18 -2 40 -2 q3 3 6 6 q0 8 -2 14 q-16 8 -34 9 q-2 -6 -9 -5 q1 62 6 124 q18 -1 32 6 q1 9 -5 13 q-13 5 -25 7 q0 14 2 26 q-9 13 -23 14 q-13 2 -23 1 q-5 -20 -2 -42 q-16 -4 -33 -3 q8 41 17 82 q-2 6 -7 9 q-20 7 -39 6 ZM173 245 q5 -59 4 -116 q-16 6 -30 14 q-12 10 -20 21 q-6 14 -5 30 q3 24 10 46 q20 4 41 5 Z" /><glyph glyph-name="" unicode="&#x5982;" d="M82 354 q-8 -44 -7 -94 q-14 -3 -29 -4 q5 -19 27 -30 q1 -24 5 -48 q4 -12 11 -24 l25 -25 q19 -12 40 -22 q17 -3 36 -7 q-1 -11 -8 -23 q8 -10 19 -19 q5 -1 11 -2 q16 17 17 41 q24 0 42 12 q1 8 -4 13 q-19 7 -35 8 q0 53 -1 103 q18 2 38 0 q-1 -23 -1 -47 q1 -22 11 -42 q12 -13 27 -27 q14 -9 31 -13 q33 -3 64 5 q27 11 50 33 q12 19 15 41 l0 27 q-5 28 -18 51 q-10 10 -19 20 q-30 19 -65 24 q-26 3 -51 4 q-15 -7 -27 -12 q-11 -21 -13 -46 q-20 7 -44 7 q-2 20 -8 36 q-20 11 -42 10 q3 -22 8 -46 q-39 -1 -70 -1 q4 42 10 84 l-7 7 q-19 6 -38 6 ZM190 233 q10 -46 10 -96 q-1 -8 -3 -17 q-17 0 -31 2 q-23 8 -42 24 q-12 16 -15 34 q-1 25 3 48 q38 3 78 5 ZM372 284 q23 -4 43 -16 q11 -17 18 -37 q2 -16 2 -33 q-3 -18 -12 -35 q-16 -19 -37 -30 q-25 -9 -54 -9 q-12 4 -20 14 q-6 12 -7 24 q0 37 10 70 q8 28 22 52 q17 2 35 0 Z" /><glyph glyph-name="" unicode="&#x59cb;" d="M300 194 q-20 -4 -36 -15 q-8 -10 -13 -22 q-6 -17 -5 -38 q2 -11 9 -21 q13 -13 29 -28 q12 -8 26 -15 q31 -8 67 -7 q22 4 44 12 q12 9 25 18 q10 12 15 25 q1 11 2 22 q-4 20 -19 33 q-22 16 -46 25 q-32 8 -65 12 q-17 1 -33 -1 ZM397 163 q10 -4 20 -11 q8 -10 8 -26 q-3 -11 -8 -22 q-9 -10 -19 -19 q-16 -9 -32 -14 q-20 -2 -38 -1 q-12 3 -21 8 q-15 11 -20 26 q-1 19 8 33 q13 16 32 24 l0 8 q35 6 70 -6 ZM84 361 q9 -41 7 -87 q-21 -2 -42 -4 q6 -18 28 -30 l11 0 q1 -34 1 -71 q2 -8 7 -16 q14 -15 30 -29 q18 -7 35 -14 q-11 -19 -22 -39 q6 -7 13 -15 q7 -5 17 -6 q18 22 26 51 q12 -3 27 -3 q6 4 5 12 q-10 12 -26 11 q11 62 13 130 l5 5 q7 -19 27 -35 q10 -7 22 -12 q35 -5 73 -5 q41 2 82 7 q11 4 22 8 q8 7 9 17 q-7 17 -14 32 q-10 9 -21 12 q-9 1 -17 1 q5 -16 14 -37 q-22 -14 -47 -17 q-46 -3 -92 0 q-15 4 -19 17 q1 8 3 15 q10 24 29 44 q15 16 32 31 q0 15 -14 19 q-16 4 -32 4 q-20 -18 -33 -39 q-16 -25 -23 -54 q-3 22 -9 41 q-18 8 -38 9 q-4 -17 -2 -36 q-20 1 -38 -1 q-1 25 1 50 q0 17 -10 28 q-21 8 -40 6 ZM172 252 q4 -55 -1 -111 q-2 -7 -5 -12 q-16 5 -30 12 q-13 10 -15 25 q0 42 7 80 q21 5 44 6 Z" /><glyph glyph-name="" unicode="&#x5b57;" d="M208 272 q-12 -4 -21 -10 q11 -18 31 -28 q35 10 76 10 q1 -6 -4 -12 q-15 -16 -32 -27 q-1 -8 0 -18 q-90 4 -177 -9 q11 -18 30 -28 q74 13 151 14 q4 -32 -4 -62 q-7 -12 -18 -23 q-17 -10 -36 -13 q12 -18 32 -27 q23 -1 42 9 q13 12 23 26 q3 10 6 19 q2 36 0 71 q36 2 74 -1 q35 -2 67 -13 q3 4 6 7 q0 7 -3 11 q-13 9 -28 11 q-55 8 -112 7 q15 15 29 33 q1 9 1 18 q-2 13 -12 21 q-25 13 -54 14 q-36 1 -67 0 ZM167 318 q-22 -5 -43 -11 q-31 -9 -56 -32 q-10 -19 -7 -43 q7 -11 20 -23 q8 -6 21 -5 q4 3 6 7 q-5 22 1 41 q21 23 48 32 q17 6 36 10 q71 4 145 2 q29 -5 54 -20 q7 -13 7 -30 q11 -16 28 -26 q12 -2 19 7 q-1 20 -6 36 q-9 18 -25 29 q-35 17 -72 26 q-88 8 -176 0 ZM217 364 q8 -17 27 -29 q26 6 55 6 q7 4 6 13 q-3 7 -9 10 q-19 4 -35 5 q-24 3 -44 -5 Z" /><glyph glyph-name="" unicode="&#x5b9a;" d="M178 243 q-25 -1 -45 -9 q11 -16 29 -27 q33 5 67 10 q5 -47 -2 -95 q-35 8 -66 23 q9 17 13 35 q-3 5 -6 8 q-19 8 -40 8 q-8 -19 -13 -40 q-21 -44 -51 -80 q11 -13 26 -22 l9 0 q26 32 50 66 q146 -39 297 -68 q3 2 6 4 q0 7 -2 12 q-92 18 -180 42 q-1 19 2 35 q44 -4 92 1 q8 5 6 14 q-5 6 -11 9 q-41 5 -84 4 q2 23 -1 46 q50 6 102 3 q3 2 5 5 q1 8 -3 12 q-16 7 -33 9 q-83 -4 -167 -5 ZM182 297 q-31 -5 -60 -13 q-24 -8 -44 -23 q-14 -11 -19 -29 q0 -8 1 -16 q12 -17 30 -26 q7 0 13 2 q4 11 3 24 q5 15 18 25 q14 11 31 18 q47 17 99 23 q42 5 85 2 q20 -3 39 -11 q11 -7 24 -15 q10 -14 11 -32 q8 -7 16 -17 q7 -5 17 -7 q4 3 8 6 q-1 17 -7 31 q-9 13 -21 25 q-21 15 -42 25 q-30 11 -62 14 q-72 1 -140 -6 ZM200 348 q10 -17 29 -28 q41 10 87 10 q4 4 7 7 q0 8 -5 13 q-17 7 -35 8 q-44 1 -83 -10 Z" /><glyph glyph-name="" unicode="&#x5b9e;" d="M165 204 q7 -14 22 -25 q38 -3 79 -2 q8 5 7 15 q-6 8 -15 10 q-49 9 -93 2 ZM181 262 q-3 -2 -2 -6 q13 -16 32 -26 q21 5 46 3 q6 -5 16 -5 q4 2 7 6 q2 11 -7 17 q-22 8 -44 11 q-25 2 -48 0 ZM285 273 q3 -31 3 -67 q-4 -24 -14 -47 q-97 -5 -194 -7 q-7 -1 -4 -6 q12 -16 30 -26 q74 6 148 15 q-16 -23 -45 -41 q-23 -12 -46 -20 q8 -12 23 -21 q11 0 21 4 q48 27 90 65 q33 -28 67 -55 q30 -19 67 -26 q8 4 6 14 q-3 5 -8 9 q-24 5 -44 15 q-28 23 -53 46 q-11 8 -24 8 q-2 3 2 5 q62 -2 126 -2 q4 4 4 11 q-2 5 -5 8 q-17 6 -34 8 q-39 -3 -78 -4 q11 43 11 90 q-4 9 -9 16 q-20 9 -40 8 ZM157 308 q-22 -6 -43 -14 q-18 -10 -31 -25 q-10 -13 -8 -31 q10 -16 28 -28 q11 -3 19 5 q0 9 -1 17 q6 19 24 32 q26 16 56 23 q19 3 38 6 q43 3 86 0 q38 -4 71 -23 q3 -11 1 -23 q8 -10 18 -21 q7 -4 17 -4 q6 4 7 13 q-1 17 -7 30 q-16 19 -37 28 q-40 14 -82 20 q-81 5 -156 -5 ZM217 358 q10 -11 22 -22 q7 -4 18 -4 q13 8 30 6 q7 -5 18 -4 q3 2 6 5 q2 11 -6 17 q-33 13 -70 11 q-13 -1 -18 -9 Z" /><glyph glyph-name="" unicode="&#x5ba2;" d="M219 292 q-25 -10 -48 -23 q-25 -14 -38 -38 q-2 -13 0 -28 q8 -10 18 -20 q9 -7 22 -6 q3 2 6 5 l0 30 q8 16 24 29 q22 16 47 28 q21 9 47 8 q6 -18 1 -39 q-10 -19 -25 -36 q-21 10 -40 21 q-15 4 -30 4 q14 -27 48 -41 q-14 -11 -29 -20 q-22 -8 -43 -15 q-33 -6 -68 -5 q2 -10 16 -21 q29 -5 58 0 q-10 -22 -6 -47 q2 -9 8 -18 q13 -15 29 -29 q15 -7 32 -11 l45 0 q36 5 70 15 q18 8 33 23 q5 8 9 16 l0 21 q-6 16 -19 27 q-14 9 -28 15 q-44 15 -90 21 q9 6 19 11 q57 -17 119 -30 q3 3 7 6 q1 6 -2 10 q-54 14 -101 31 q19 19 28 42 q3 20 1 38 q-5 15 -17 25 q-26 12 -57 11 q-24 -4 -46 -10 ZM270 133 q21 1 41 -2 q28 -6 54 -19 q2 -8 4 -18 q-3 -14 -13 -25 q-16 -11 -32 -18 q-41 -9 -86 -8 q-6 3 -10 7 q-7 11 -6 23 q3 13 6 26 q9 13 22 24 q9 7 20 10 ZM163 328 q-33 -12 -63 -28 q-15 -9 -28 -21 q-7 -7 -6 -18 q11 -12 24 -24 q7 -3 16 -3 q9 19 27 35 q23 17 49 28 q35 13 74 19 q41 2 83 0 q33 -7 64 -24 q6 -9 15 -18 q9 -7 22 -7 q8 5 6 15 q-7 16 -21 27 q-31 16 -64 25 q-28 5 -54 9 l-77 0 q-35 -5 -67 -15 ZM187 384 q10 -18 30 -28 q44 6 91 5 q6 5 5 12 q-3 6 -8 9 q-17 4 -33 6 q-44 3 -85 -4 Z" /><glyph glyph-name="" unicode="&#x5ba4;" d="M290 281 q-83 -7 -163 -18 q-3 -1 -2 -5 q12 -15 29 -26 q12 1 23 3 q-10 -19 -8 -45 q9 -12 21 -25 q11 -8 25 -15 q14 -4 31 -5 q1 -17 6 -33 q-69 3 -134 -4 q9 -18 30 -29 q53 7 110 7 q3 -19 22 -34 q-78 0 -151 -2 q12 -17 31 -27 q63 2 127 4 q66 6 129 15 q0 7 -2 11 q-19 9 -40 8 q-36 -7 -72 -9 q0 20 -4 37 q42 7 87 7 q4 2 7 6 q0 7 -5 11 q-13 3 -25 5 q-34 -4 -68 -6 q0 15 0 27 q-4 5 -8 7 q36 6 69 22 q7 6 15 13 q8 13 7 29 q-3 7 -9 12 q-23 10 -48 13 q4 -14 20 -28 q-6 -12 -18 -21 q-19 -9 -40 -15 q-32 -5 -63 0 q-5 4 -8 8 l0 14 q7 19 25 33 q9 -1 13 6 q1 10 -6 15 q34 6 70 11 q31 1 61 -2 q7 4 6 14 q-6 5 -11 8 q-39 7 -79 3 ZM156 325 q-24 -5 -46 -12 q-19 -6 -34 -22 q-9 -16 -6 -37 q2 -12 10 -22 q10 -10 20 -19 q12 -5 21 3 q-3 22 -7 42 q1 7 4 12 q8 9 17 14 q21 10 45 17 q44 9 91 13 l75 0 q23 -4 46 -12 q3 -3 6 -7 q1 -15 1 -31 q13 -16 30 -27 q11 -1 16 7 l0 34 q-4 9 -8 17 q-14 12 -27 24 q-26 10 -52 16 q-39 7 -80 5 q-61 -8 -122 -15 ZM240 381 q-9 -2 -11 -10 q9 -10 21 -22 q7 -4 18 -4 q14 10 33 11 q5 6 4 15 q-7 9 -16 10 q-26 6 -49 0 Z" /><glyph glyph-name="" unicode="&#x5bb9;" d="M214 150 q-19 -11 -36 -28 q-6 -7 -10 -16 q-3 -9 -1 -19 q9 -16 26 -30 q14 -10 30 -17 q29 -8 63 -7 q15 3 31 7 q20 9 38 24 q9 12 12 28 q0 16 -6 28 q-10 12 -22 19 q-16 7 -32 11 q-33 4 -64 9 q-15 -4 -29 -9 ZM309 129 q12 -2 18 -11 q2 -15 -3 -30 q-9 -9 -18 -18 q-19 -11 -41 -15 l-25 0 q-12 4 -22 9 q-8 7 -11 14 q-2 15 10 23 q22 17 48 26 q22 0 44 2 ZM215 209 q-62 -43 -116 -90 q9 -12 23 -23 q7 -3 16 -3 q38 28 74 67 q25 20 54 31 q14 2 30 1 q15 -2 29 -10 q14 -9 28 -20 q24 -24 45 -52 q10 -10 25 -9 q7 6 6 14 q-25 35 -60 63 q-25 19 -52 31 q-25 8 -50 10 q-29 2 -52 -10 ZM203 276 q-36 -23 -69 -52 q-5 -6 -6 -14 q12 -15 28 -25 q7 -2 15 1 q19 30 49 51 q12 8 26 13 q4 5 3 12 q-6 8 -15 11 q-16 4 -31 3 ZM289 277 q5 -12 18 -23 q18 -8 37 -17 q15 -14 33 -25 q8 -1 14 5 l0 9 q-27 30 -60 44 q-21 7 -42 7 ZM180 319 q-35 -9 -69 -20 q-25 -9 -38 -31 q-5 -13 0 -28 q9 -11 21 -22 q7 -4 17 -4 q5 3 8 8 q-4 17 3 30 q9 11 21 18 q40 20 85 29 q24 4 49 7 q36 2 72 -2 q23 -5 45 -15 q4 -12 3 -25 q11 -13 25 -25 q6 -2 14 -2 q4 2 7 6 q1 24 -11 44 q-19 19 -41 26 q-29 9 -59 14 q-34 3 -69 2 q-42 -2 -83 -10 ZM207 376 q9 -20 30 -29 q30 3 59 -1 q4 2 8 5 q2 11 -6 17 q-19 7 -38 9 q-27 1 -53 -1 Z" /><glyph glyph-name="" unicode="&#x5bf9;" d="M293 195 q9 -19 29 -29 q35 4 69 -1 q7 4 6 13 q-3 6 -8 10 q-48 13 -96 7 ZM393 353 q10 -48 15 -98 q-86 2 -158 -1 q-4 11 -7 21 q-9 13 -23 18 q-20 6 -41 8 q-30 0 -59 -5 q-35 -7 -67 -22 q-9 -6 -9 -17 q11 -15 27 -26 q6 -1 13 -1 q8 4 7 13 q13 12 29 17 q35 13 73 18 q9 2 17 -2 q2 -6 5 -14 q2 -26 -4 -52 q-12 -25 -34 -46 q-25 14 -49 24 q-19 5 -38 5 q5 -12 16 -21 q26 -11 48 -24 q-12 -6 -24 -12 q-27 -8 -53 -8 q10 -13 25 -23 q25 0 47 8 q20 10 39 21 q37 -18 78 -29 q4 3 6 7 q1 9 -6 13 q-31 9 -58 22 q18 24 33 50 q9 27 10 54 q11 -17 29 -26 q64 5 130 6 q6 -48 4 -100 q-4 -12 -8 -24 q-15 -17 -34 -22 q-30 -4 -61 -5 q5 -17 25 -26 q33 1 64 7 q10 4 21 10 q12 11 18 24 q6 66 7 134 q7 2 17 1 q5 4 6 10 q-8 13 -23 14 q-1 45 -7 86 q-21 16 -46 13 Z" /><glyph glyph-name="" unicode="&#x5c0f;" d="M294 236 q11 -16 29 -27 q17 1 32 -5 q41 -22 81 -48 q9 -3 16 5 q1 11 -7 17 q-48 27 -96 53 q-29 10 -55 5 ZM60 173 q10 -11 22 -23 q8 -3 18 -3 q62 41 127 75 q-1 5 0 8 q-5 7 -12 9 q-13 2 -25 4 q-70 -32 -130 -70 ZM236 357 q14 -115 20 -226 q-3 -18 -11 -34 q-9 -9 -19 -15 q-11 -2 -21 -4 q7 -18 27 -25 q15 1 28 8 q12 11 21 24 q2 10 5 19 q-1 119 -3 235 q-2 7 -6 11 q-20 8 -41 7 Z" /><glyph glyph-name="" unicode="&#x5c1a;" d="M219 218 q-7 -2 -12 -6 q-13 -11 -20 -27 q-7 -19 -5 -43 q16 -23 41 -36 q23 -4 49 -4 q19 3 38 6 q21 8 34 25 q6 17 2 35 q-8 17 -22 29 q-12 9 -24 13 q-20 5 -39 8 q-22 1 -42 0 ZM279 190 q11 1 21 -3 q9 -12 7 -27 q-3 -12 -15 -22 q-15 -6 -31 -10 l-33 0 q-3 2 -5 5 q-2 18 6 32 q7 12 19 19 q7 -2 17 -2 q5 7 14 8 ZM141 298 q11 -14 27 -26 l13 0 q3 3 6 7 q-5 25 -3 51 q-2 5 -6 8 q-19 8 -39 8 q-3 -23 2 -48 ZM323 305 q9 -9 20 -21 q7 -3 16 -4 q5 3 8 7 q4 25 6 50 q-3 5 -6 8 q-19 7 -38 9 q-5 -22 -6 -49 ZM227 388 q5 -49 4 -104 q7 -5 8 -12 q-29 1 -55 -5 q-26 -9 -47 -27 q-13 -12 -21 -25 q-12 -23 -13 -51 l0 -79 q8 -20 27 -37 q8 -7 21 -7 q4 2 7 6 q-2 14 -9 24 q-7 49 -5 97 q4 18 14 32 q14 15 27 26 q26 16 58 20 l66 0 q24 -4 44 -19 q11 -29 14 -62 q1 -29 0 -58 q-5 -19 -13 -38 q-6 -4 -11 -11 q-18 -9 -40 -8 q8 -19 31 -30 q22 1 42 8 q8 6 16 14 q12 23 16 48 q2 34 2 68 q-3 25 -7 48 q-9 21 -26 36 q-29 16 -59 25 q-24 3 -45 8 q0 46 2 91 q-2 7 -5 13 q-20 12 -43 9 Z" /><glyph glyph-name="" unicode="&#x5c1d;" d="M94 162 q-8 0 -10 -7 q12 -17 30 -26 q34 5 69 9 q-15 -20 -22 -46 q-2 -12 3 -25 q13 -16 30 -30 q11 -5 24 -10 q27 -3 57 -2 q27 5 56 7 q28 6 54 17 q6 6 7 13 q-2 7 -5 13 q-17 14 -33 26 q-17 7 -35 8 q13 -20 33 -37 q-20 -11 -41 -17 q-45 -7 -88 -6 q-7 2 -13 4 q-7 6 -8 13 q1 15 8 27 q17 24 43 35 q4 9 -1 16 q47 3 96 1 q30 -3 61 -10 q9 4 7 14 q-4 7 -11 10 q-31 5 -62 9 q-127 2 -249 -6 ZM126 228 q12 -17 31 -26 q80 10 165 10 q23 -1 45 -6 q4 3 7 6 q2 9 -6 15 q-21 7 -43 9 q-87 0 -174 0 q-17 0 -25 -8 ZM245 298 q2 -1 5 -5 q-25 -2 -49 -4 q3 4 5 12 q-4 23 -10 43 q-19 7 -39 9 q-6 -18 4 -37 q15 -16 30 -28 q-44 -3 -83 -17 q-26 -8 -47 -27 q-8 -11 -5 -27 q9 -11 21 -22 q8 -5 19 -4 q8 8 6 22 q5 9 13 15 q19 15 41 22 q48 13 100 16 q47 2 95 0 q28 -6 57 -14 q5 -18 21 -33 q8 -7 20 -9 q7 2 10 9 q-1 18 -9 31 q-8 9 -16 16 q-24 12 -50 16 q0 27 5 53 q-2 4 -5 7 q-20 9 -41 7 q-3 -25 -5 -51 q3 -3 8 -8 q-28 5 -57 2 q2 37 3 77 q-3 6 -8 10 q-19 6 -38 7 q2 -44 -1 -88 Z" /><glyph glyph-name="" unicode="&#x5c5e;" d="M170 242 q7 -20 30 -30 q25 2 49 5 q1 -2 -1 -6 q-27 0 -52 -5 q-23 -6 -38 -24 q-4 -7 0 -15 q12 -13 26 -26 q15 -7 33 -13 q-28 -7 -53 -22 q-14 -9 -16 -24 q2 -14 7 -28 q12 -14 27 -28 q7 -5 18 -4 q3 3 6 6 q-8 20 -11 41 q6 11 17 17 q13 9 28 13 q14 -19 36 -29 q13 -3 28 -3 q25 2 45 13 q1 9 -4 14 q-17 6 -35 8 q-16 -7 -33 -8 q-5 7 -3 15 q15 6 32 7 q39 3 76 -3 q5 -15 5 -34 q-3 -8 -5 -16 q7 -10 17 -22 q10 -2 20 -2 q4 4 6 9 q3 24 0 47 q-4 9 -7 16 q-11 13 -24 19 q-20 5 -33 9 q11 3 22 10 q7 7 11 15 q1 13 -8 20 q-24 11 -49 14 q-20 2 -39 2 q2 11 5 23 q27 6 56 2 q4 2 7 6 q0 8 -5 12 q-8 5 -16 6 q-89 3 -175 -7 ZM290 177 q33 2 64 -4 q-9 -8 -19 -13 q-25 -9 -52 -10 q2 14 7 27 ZM242 180 q0 -14 -4 -29 q-22 -2 -38 8 q1 6 7 10 q16 9 35 11 ZM189 375 q-43 -10 -84 -26 q13 -19 18 -48 q1 -23 2 -48 q-5 -64 -20 -124 q-10 -24 -21 -47 q8 -9 18 -18 q10 -5 18 4 q15 51 30 104 q11 48 15 98 q7 -3 16 -9 q67 3 135 6 q15 5 31 10 q9 7 18 16 q7 11 11 24 q0 18 -1 34 q-6 14 -17 25 q-21 12 -45 14 q-66 0 -124 -15 ZM313 370 q13 2 25 -4 q3 -14 3 -30 q-4 -11 -10 -22 q-12 -12 -27 -19 q-24 -6 -49 -10 q-46 -2 -89 -3 q0 24 -8 43 q51 22 106 37 q24 4 49 8 Z" /><glyph glyph-name="" unicode="&#x5df2;" d="M245 364 q-62 -10 -120 -27 q-7 -6 -8 -15 q11 -15 27 -25 l13 0 q4 4 8 9 q53 22 110 35 q32 7 67 8 q-3 -28 -19 -54 q-27 -33 -49 -63 q-46 -4 -90 -11 q-1 6 0 13 q-8 9 -19 11 q-13 2 -25 3 q-19 -46 -25 -99 q-1 -19 0 -40 q3 -12 10 -24 q13 -14 29 -27 q24 -12 54 -16 q34 -1 70 0 q29 5 59 10 q25 8 47 25 q8 13 12 27 q2 22 3 44 q-6 8 -15 10 q-11 2 -21 2 q0 -20 0 -44 q-3 -11 -8 -21 q-16 -15 -35 -24 q-24 -6 -48 -11 q-36 -1 -72 0 q-24 3 -42 19 q-5 8 -8 16 q-1 11 0 24 q6 27 14 52 q22 12 46 20 q56 16 118 20 q3 5 4 11 q-6 8 -13 11 q26 32 47 64 q5 13 11 25 q-1 11 0 22 q-4 9 -11 16 q-18 8 -38 10 q-42 -2 -83 -6 Z" /><glyph glyph-name="" unicode="&#x5e93;" d="M236 285 q-8 -18 -16 -37 q-26 -1 -52 -1 q-9 -1 -13 -8 q12 -14 28 -26 q13 1 26 3 q-7 -32 -4 -69 q9 -17 27 -33 q9 -6 20 -12 q19 -5 42 -4 q1 -5 1 -12 q-66 1 -126 -4 q12 -19 32 -28 q44 3 89 5 q0 -4 -1 -10 q10 -13 26 -23 q9 -3 16 4 q0 16 2 31 q47 2 94 -4 q8 5 6 15 q-6 8 -15 10 q-41 7 -83 3 q-2 10 2 18 q32 11 66 20 q7 4 7 12 q-14 13 -35 14 q-20 -8 -39 -14 l0 34 q-2 9 -8 15 q-19 7 -38 8 q0 -33 5 -68 q-19 -3 -38 -2 q-8 4 -13 11 q-5 16 -3 34 q5 30 19 54 q94 6 187 2 q5 5 4 12 q-6 7 -13 9 q-81 4 -163 3 q10 15 16 32 q-5 9 -14 11 q-15 4 -30 4 q-6 -4 -11 -9 ZM158 329 q-35 -4 -68 -12 q1 -6 8 -13 q7 -57 7 -121 q-3 -35 -18 -66 q-11 -17 -26 -30 q8 -12 23 -23 q4 -1 10 -1 q19 16 29 38 q11 34 18 69 q2 29 5 60 q2 33 -4 62 q33 9 69 13 q53 4 108 6 q44 0 88 -3 q17 -4 36 -8 q6 4 5 12 q-5 6 -11 8 q-25 6 -49 9 q-116 2 -230 0 ZM220 382 q8 -19 29 -29 q41 4 82 12 q1 6 0 10 q-10 10 -22 10 q-35 3 -69 3 q-11 -2 -20 -6 Z" /><glyph glyph-name="" unicode="&#x5efa;" d="M245 390 q-5 -17 0 -35 q-37 -5 -72 -15 q-5 -5 -6 -13 q10 -10 22 -22 q7 -5 17 -4 q4 4 8 9 q15 9 34 11 q4 -19 5 -38 q-52 -2 -100 -11 q3 -15 22 -28 q6 -3 15 -3 q30 12 64 13 q2 -17 3 -36 q-41 -3 -81 -5 q-6 11 -15 18 q-29 13 -62 13 q-16 -1 -26 -10 q6 -11 18 -22 q8 -6 20 -6 q12 8 28 9 q8 -24 6 -53 q-3 -20 -12 -39 q-11 7 -21 13 q-17 2 -32 4 q3 -11 17 -23 q12 -6 24 -15 q-21 -22 -43 -39 q8 -11 20 -19 q4 -1 10 -1 q26 16 43 41 q39 -22 84 -34 q86 -13 172 -30 q9 7 3 16 q-89 18 -177 33 q-38 11 -70 33 q13 29 18 62 q9 -9 23 -18 q26 3 53 4 q1 -7 1 -17 q-43 3 -81 -6 q-4 -3 -4 -8 q12 -16 30 -26 q25 9 54 12 q1 -5 1 -13 q10 -10 23 -20 q8 -1 14 5 q-2 14 -3 28 q41 5 85 5 q6 4 5 12 q-5 6 -11 8 q-41 5 -81 2 q-2 11 -1 20 q51 9 105 4 q4 3 6 7 q0 7 -5 11 q-15 6 -31 8 q-38 0 -75 -2 q-3 10 0 19 q21 5 44 8 q18 8 37 17 q10 7 19 16 q9 14 13 29 q16 0 32 -2 q5 4 4 11 q-6 8 -14 9 q-12 2 -23 3 q-7 14 -15 27 q-15 16 -33 23 q-31 10 -63 12 q-2 12 0 23 q-2 6 -7 9 q-19 7 -38 6 ZM178 211 q8 -13 22 -18 q28 1 57 3 q1 -7 1 -16 q-39 -3 -77 1 q-1 17 -3 30 ZM360 267 q-3 -6 -9 -14 q-17 -13 -34 -22 q-15 -5 -28 -7 q1 17 2 34 q33 7 69 9 ZM325 328 q19 -1 34 -13 q8 -12 5 -26 q-37 -2 -73 -4 q-3 21 -2 41 q17 4 36 2 Z" /><glyph glyph-name="" unicode="&#x5f00;" d="M252 335 q-70 -6 -139 -12 q9 -19 30 -30 q15 0 31 2 q2 -39 3 -82 q-56 -5 -111 -4 q5 -18 28 -30 q40 0 79 4 q-2 -20 -8 -41 q-9 -19 -18 -38 q6 -8 15 -17 q6 -5 16 -6 q27 52 37 108 q50 8 103 10 q0 -51 6 -105 q10 -10 23 -20 l11 0 q4 4 5 8 q-9 22 -11 45 q-1 38 2 73 q43 2 86 -4 q6 4 5 11 q-3 5 -7 8 q-42 9 -83 7 q1 48 -4 92 q27 -3 52 1 q2 7 -2 13 q-18 7 -37 9 q-56 -1 -112 -2 ZM306 314 q10 -44 11 -94 q-50 -3 -99 -5 q1 34 3 69 q-5 12 -16 15 q48 13 101 15 Z" /><glyph glyph-name="" unicode="&#x5f0f;" d="M354 347 q11 -18 31 -28 l29 0 q4 3 9 7 q1 9 -4 14 q-12 6 -24 8 q-23 5 -41 -1 ZM277 365 q12 -33 20 -68 q-99 -4 -195 -13 q-22 -3 -42 -8 q9 -21 31 -30 q103 22 211 32 q9 -24 16 -50 q-73 0 -144 -6 q-45 -5 -85 -18 q8 -19 30 -29 q37 9 75 19 q5 -36 5 -78 q7 -7 15 -16 q-29 -5 -59 -8 q-42 -7 -80 -22 q6 -11 18 -22 q8 -7 21 -7 q45 19 94 30 q48 11 100 9 q4 3 9 7 q1 9 -5 13 q-16 6 -31 6 q-19 -3 -39 -5 q-3 42 1 85 q-3 8 -9 13 q43 10 90 6 q15 -44 39 -86 q17 -21 40 -37 q19 -8 42 -8 q8 4 7 14 q-2 4 -5 6 q-18 7 -37 5 q-16 12 -26 26 q-18 37 -27 75 q-10 42 -16 81 q28 2 55 -2 q4 -3 9 -6 q7 -1 11 4 q1 9 -5 14 q-15 6 -29 8 q-22 2 -44 0 q-5 34 -22 62 q-22 8 -39 4 Z" /><glyph glyph-name="" unicode="&#x5f52;" d="M73 271 q-4 -37 -1 -74 q11 -14 27 -24 q10 -2 16 6 q0 39 3 76 q-2 6 -7 9 q-19 8 -38 7 ZM215 294 l-8 -7 q11 -17 30 -29 q33 13 67 25 q26 8 55 7 q11 -2 21 -8 q10 -12 17 -26 q8 -23 10 -51 q-56 4 -114 1 q-37 -3 -71 -10 q-6 -2 -6 -8 q12 -14 29 -26 q34 8 69 16 q46 8 93 3 q-2 -21 -16 -37 q-12 -10 -24 -21 q-22 -12 -44 -20 q-56 -9 -115 -7 q4 -13 19 -24 q16 -3 35 -2 q54 5 106 15 q16 8 32 16 q14 11 28 25 q11 18 15 38 q1 42 -7 78 q-6 13 -12 24 q-11 17 -26 28 q-28 17 -61 20 l-37 0 q-45 -6 -85 -20 ZM150 319 q10 -63 8 -133 q-5 -40 -20 -76 q-11 -18 -22 -36 q-9 -8 -18 -12 q8 -17 27 -22 q11 5 19 15 q19 35 32 71 q7 28 13 56 q3 53 5 107 q-3 18 -5 35 q-7 22 -21 39 q-19 7 -39 7 q11 -22 21 -51 Z" /><glyph glyph-name="" unicode="&#x5f55;" d="M190 366 q-49 -14 -99 -25 q4 -14 20 -26 q7 -5 17 -5 q50 16 100 34 q34 9 72 8 q9 -1 19 -4 q5 -11 8 -25 q0 -19 0 -40 q-16 7 -35 9 q-88 -3 -174 -10 q-7 -1 -11 -6 q12 -17 30 -27 q63 10 127 17 l58 0 q-2 -14 -8 -28 q2 -3 6 -6 q-130 -1 -252 -9 q12 -16 30 -27 q73 3 144 11 q2 -31 5 -66 q-5 0 -10 1 q0 11 -7 16 q-18 8 -38 9 q-47 4 -90 -2 q11 -16 29 -28 q31 1 62 3 q-55 -17 -106 -44 q12 -15 29 -26 q54 19 106 44 q12 3 26 5 q2 -13 0 -28 q-5 -12 -16 -21 q-14 -4 -28 -4 q8 -17 27 -28 q14 -2 29 2 q9 5 18 13 q4 8 8 16 q1 20 1 40 q68 -25 139 -54 q5 4 6 9 q-1 6 -5 9 q-60 28 -120 55 q37 11 83 17 q18 1 36 -2 q3 3 5 5 q1 8 -4 13 q-7 5 -14 7 q-23 4 -47 3 q-40 -6 -77 -10 l0 33 q-6 11 -13 15 q81 1 163 -2 q6 4 5 12 q-3 5 -7 8 q-38 8 -78 4 q1 16 5 33 q2 35 -3 65 q-5 11 -11 20 q-11 11 -24 16 q-21 5 -41 8 q-50 2 -95 -7 Z" /><glyph glyph-name="" unicode="&#x5f85;" d="M206 126 q10 -17 30 -28 q43 3 87 6 q8 6 5 15 q-7 7 -15 9 q-54 5 -107 -2 ZM54 316 q10 -18 31 -29 q49 11 101 15 q9 8 3 17 q-17 10 -37 10 q-52 -1 -98 -13 ZM292 324 q-40 -2 -77 -9 q10 -17 29 -29 q24 2 49 6 q2 -15 -1 -30 q4 -1 6 -6 q-49 -4 -96 -10 q-4 4 -6 7 q-16 7 -34 8 q-56 0 -105 -10 q11 -19 32 -29 q10 2 20 4 q9 -80 9 -162 q12 -16 30 -21 q3 2 7 5 q0 93 -3 181 q19 6 42 4 q5 3 8 8 q11 -13 26 -24 q58 6 113 14 q2 -15 5 -31 q-64 -8 -128 -16 q-11 -1 -16 -10 q10 -11 22 -23 q7 -4 18 -4 q12 8 27 11 q39 8 79 14 q3 -20 1 -42 q-7 -22 -20 -42 q-9 -7 -17 -16 q-23 -9 -47 -12 q8 -12 20 -22 q6 -3 14 -4 q18 2 36 7 q16 9 29 24 q9 15 18 31 q8 39 7 81 q30 8 62 2 q3 3 7 6 q0 7 -2 11 q-15 6 -31 8 q-19 0 -36 -2 q-2 11 -2 21 q-7 9 -12 13 q30 2 58 -3 q3 3 7 6 q0 7 -3 12 q-16 8 -34 9 q-35 0 -68 -3 q-2 20 0 39 q42 10 91 6 q9 6 4 15 q-8 8 -18 9 q-41 1 -76 1 l0 33 q-3 6 -7 9 q-18 8 -38 8 q-1 -25 1 -53 Z" /><glyph glyph-name="" unicode="&#x5f97;" d="M219 92 q8 -19 29 -29 q21 2 43 5 q13 -2 27 -5 q5 2 8 6 q1 10 -5 15 q-28 8 -56 11 q-25 2 -46 -3 ZM209 193 q-10 -2 -11 -10 q9 -10 21 -22 q7 -3 18 -3 q55 14 115 16 q2 -16 4 -34 q-86 1 -168 -5 q-7 -2 -11 -7 q9 -18 29 -29 q27 8 56 13 q47 3 95 6 q4 -22 3 -46 q-2 -13 -14 -23 q-9 -3 -18 -7 q-24 -2 -46 0 q3 -12 18 -23 q7 -3 15 -5 q31 0 59 9 q17 12 24 31 q3 31 3 63 q28 2 56 -3 q6 4 5 13 q-5 6 -11 8 q-25 4 -50 5 q-2 18 -6 34 q22 3 45 -1 q4 2 7 6 q1 9 -5 12 q-16 5 -31 8 q-101 1 -202 -6 ZM44 214 q10 -13 23 -25 q6 -4 16 -4 q13 9 28 16 q6 -54 10 -111 q8 -8 18 -19 q6 -3 15 -3 q3 3 5 5 q-6 67 0 137 q-3 6 -5 10 q19 11 39 22 q0 9 -7 13 q-15 6 -31 7 q-57 -22 -111 -48 ZM35 294 q9 -18 29 -29 l11 0 q46 26 94 47 q14 4 29 4 q5 5 4 12 q-3 4 -6 7 q-17 6 -35 6 q-66 -16 -126 -47 ZM259 389 q-21 -10 -35 -30 q-13 -22 -19 -47 q-3 -16 -2 -34 q2 -13 9 -25 q12 -14 26 -26 q20 -12 45 -16 q45 -2 90 3 q32 8 62 23 q19 13 34 31 q8 17 9 37 q-3 17 -10 32 q-14 19 -31 34 q-17 12 -35 18 q-21 4 -40 7 q-53 0 -103 -7 ZM374 376 q28 -2 52 -19 q12 -17 19 -38 q1 -23 -9 -41 q-11 -14 -28 -26 q-21 -11 -43 -18 q-40 -7 -82 -5 q-12 3 -22 5 q-10 6 -16 13 q-4 9 -6 18 q0 12 3 23 q5 0 12 -4 q87 9 177 9 q6 4 5 11 q-5 7 -12 9 q-84 4 -169 4 q6 17 23 30 q17 11 33 21 q29 10 63 8 Z" /><glyph glyph-name="" unicode="&#x5ff5;" d="M73 120 q11 -17 29 -28 q40 1 75 14 q1 10 -6 15 q-18 6 -37 8 q-31 -4 -61 -9 ZM246 135 q12 -18 31 -27 q19 3 39 6 q4 5 3 12 q-5 9 -13 11 q-22 4 -45 4 q-9 -1 -15 -6 ZM355 163 q9 -19 29 -29 q31 6 64 3 q6 5 5 13 q-3 6 -8 9 q-35 8 -68 8 q-12 0 -22 -4 ZM186 179 q-3 -7 -6 -14 q1 -21 2 -44 q5 -12 11 -25 q12 -14 27 -29 q23 -18 53 -23 q27 -1 54 0 q28 6 56 15 q13 7 17 20 q-2 5 -5 8 q-14 5 -29 6 q-13 -14 -31 -21 q-34 -9 -71 -7 q-8 4 -16 7 q-13 10 -20 25 q-5 34 3 68 l-7 7 q-19 7 -38 7 ZM182 250 q-11 -2 -18 -8 q10 -13 24 -25 q7 -3 16 -3 q34 13 73 17 q-10 -16 -26 -33 q2 -15 15 -22 q7 1 16 0 q19 15 36 34 q8 12 7 27 q-3 8 -8 13 q-19 8 -38 10 q-49 -2 -97 -10 ZM200 305 q10 -18 30 -30 q28 7 59 3 q6 4 7 11 q-1 5 -4 9 q-22 9 -45 11 q-25 3 -47 -4 ZM186 360 q-25 -11 -48 -25 q-41 -33 -69 -74 q-8 -12 -10 -27 q7 -11 19 -22 q8 -7 21 -6 q14 35 37 68 q8 10 19 21 q28 24 60 37 q14 5 29 8 l53 0 q23 -11 46 -23 q41 -31 80 -73 q7 -4 16 -5 q5 3 8 7 q0 8 -2 13 q-23 20 -44 42 q-41 33 -87 56 q-22 7 -45 10 l-49 0 q-18 -3 -34 -7 Z" /><glyph glyph-name="" unicode="&#x601d;" d="M182 149 q-3 -3 -5 -7 q-2 -22 -1 -47 q2 -13 10 -24 q15 -16 33 -30 q13 -5 28 -8 q33 -2 63 7 q21 11 41 26 q6 8 5 17 q-5 7 -11 12 q-23 10 -48 11 q3 -11 14 -20 q-18 -16 -40 -25 q-20 -3 -39 -2 q-12 7 -13 20 q2 29 8 56 q-7 9 -17 11 q-15 4 -28 3 ZM244 149 q-3 -3 -2 -8 q12 -16 29 -26 q20 2 36 12 q1 9 -4 14 q-10 7 -20 8 q-21 4 -39 0 ZM103 155 q-3 -31 -12 -61 q11 -18 32 -28 q5 1 10 3 q6 18 12 36 q2 18 3 35 q-2 4 -5 7 q-20 8 -40 8 ZM318 157 q10 -17 29 -28 q36 4 71 2 q7 9 0 18 q-22 10 -46 12 q-30 3 -54 -4 ZM251 378 q-27 -3 -51 -11 q-24 -10 -46 -24 q-28 -20 -49 -49 q-10 2 -17 -5 q1 -6 8 -11 q-4 -13 -3 -29 q1 -12 9 -23 l26 -26 q13 -8 28 -16 q18 -6 38 -10 q45 -3 89 2 q26 9 51 23 q9 8 18 17 q13 21 17 44 l0 58 q-4 11 -8 21 q-14 13 -25 27 q-8 5 -16 8 q-33 6 -69 4 ZM220 272 q2 -33 -1 -67 q6 -4 12 -12 q-28 -2 -55 2 q-12 5 -22 10 q-17 11 -24 27 q-5 16 1 31 q44 5 89 9 ZM333 274 q0 -10 -3 -22 q-7 -14 -16 -27 q-24 -21 -54 -29 q-3 39 3 78 q34 4 70 0 ZM218 337 q1 -18 2 -38 q-35 -4 -66 0 q19 18 42 30 q11 4 22 8 ZM291 349 q15 -8 35 -8 q11 -19 10 -45 q-35 4 -72 2 q1 16 3 32 q-11 12 -21 15 q21 5 45 4 Z" /><glyph glyph-name="" unicode="&#x6027;" d="M124 347 q-2 -59 3 -121 q-15 -4 -31 -2 q3 38 17 75 q-2 4 -5 7 q-19 8 -39 9 q-5 -4 -7 -10 q-7 -33 -9 -68 q10 -18 30 -32 q19 -8 44 -7 q3 -51 2 -104 q-2 -19 -5 -39 q8 -10 21 -20 q9 -3 15 3 q-1 82 3 163 q26 3 50 12 q5 12 -5 19 q-16 6 -33 7 q-2 -6 -9 -7 q0 49 3 99 q-2 6 -7 9 q-19 8 -38 7 ZM322 251 q-32 -3 -65 -1 q-5 4 -7 9 q-2 37 12 67 q0 8 -5 13 q-19 9 -39 10 q-5 -6 -10 -13 q-2 -32 1 -65 q10 -19 30 -35 q15 -8 34 -10 q25 0 50 2 q2 -23 4 -47 q-47 1 -98 1 q9 -19 30 -30 q34 1 68 2 q-1 -19 -2 -41 q-4 -16 -11 -32 q-66 2 -132 -3 q8 -15 24 -27 q119 5 245 -1 q4 2 7 6 q1 11 -7 17 q-18 6 -37 7 l-60 0 q3 36 2 74 q37 6 73 -5 q4 4 4 10 q-3 6 -7 10 q-32 13 -69 11 q1 24 1 49 q43 4 84 13 l0 7 q-6 8 -15 10 q-34 3 -67 -5 q-1 51 -2 103 q-4 10 -12 15 q-18 4 -36 6 q9 -62 12 -127 Z" /><glyph glyph-name="" unicode="&#x603b;" d="M106 85 q10 -11 22 -22 q6 -4 16 -4 q4 2 7 6 q5 28 8 55 q-2 4 -5 7 q-19 8 -40 8 q-4 -24 -8 -50 ZM257 138 q-7 -2 -10 -6 q12 -17 30 -28 q20 0 32 12 q0 8 -4 13 q-23 11 -48 9 ZM188 144 q-2 -27 0 -56 q2 -11 8 -23 q12 -13 27 -27 q13 -7 29 -10 l27 0 q14 4 28 9 q13 8 25 20 q7 13 5 28 q-18 14 -40 12 q-2 -6 -1 -14 q-10 -16 -27 -25 q-14 -4 -29 -5 q-5 4 -6 9 q-4 33 0 66 q-4 6 -9 10 q-19 6 -37 6 ZM325 144 q13 -14 30 -26 q23 4 47 1 q6 7 4 16 q-6 5 -11 8 q-33 7 -65 7 q-6 -1 -5 -6 ZM121 352 q2 -14 9 -29 q9 -10 20 -20 q-21 -9 -38 -27 q-6 -10 -8 -22 l0 -29 q4 -17 14 -33 q20 -24 46 -39 q14 -3 29 -7 q28 -1 58 0 q28 4 54 12 q21 11 41 25 q12 13 19 28 q5 21 3 43 q-8 26 -29 45 q-12 9 -25 13 q-46 9 -95 8 q-24 -3 -44 -7 q-5 14 -10 27 q-6 6 -12 8 q-17 5 -32 4 ZM315 285 q14 -7 18 -22 q2 -17 1 -36 q-4 -11 -10 -22 q-20 -20 -44 -31 q-24 -6 -47 -10 l-43 0 q-15 3 -27 10 q-13 12 -19 26 q-5 16 -4 33 q2 16 11 28 q16 17 37 24 q16 4 33 7 q48 4 94 -7 ZM286 344 q5 -17 20 -28 q10 2 21 4 q9 20 19 40 q1 10 -6 15 q-19 6 -39 7 q-9 -17 -15 -38 Z" /><glyph glyph-name="" unicode="&#x60a8;" d="M78 105 q12 -16 30 -26 q27 0 54 4 q8 5 6 15 q-4 5 -10 8 q-17 4 -33 6 q-27 0 -47 -7 ZM240 126 q11 -15 29 -27 q19 0 38 1 q7 5 5 15 q-5 7 -13 9 q-31 9 -59 2 ZM189 143 q-4 -30 0 -63 q3 -8 8 -16 q13 -14 30 -27 q15 -6 33 -10 q35 0 71 0 q29 3 54 15 q8 8 12 17 q1 12 -4 21 q-17 17 -38 21 q-12 2 -19 -1 q11 -13 24 -24 q-5 -11 -16 -18 q-22 -7 -45 -10 q-25 1 -51 2 q-10 4 -15 13 q-1 33 0 67 q-6 8 -16 10 q-15 3 -28 3 ZM361 149 q8 -19 28 -29 q23 3 46 -1 q9 4 7 14 q-10 13 -24 14 q-30 5 -57 2 ZM281 383 q-22 -40 -36 -49 q-6 8 -15 10 q-13 2 -25 3 q-26 -7 -50 -16 q-54 -24 -106 -52 q9 -18 29 -29 l11 0 q22 13 45 27 q10 -40 7 -85 q8 -10 18 -19 q7 -4 16 -4 q3 3 7 6 q-3 45 -3 90 q-3 18 -7 34 q15 10 32 16 q17 6 37 8 q-8 -12 -18 -27 q11 -14 28 -25 l10 0 q24 18 49 31 q3 -26 6 -55 q-7 5 -15 9 q-16 3 -31 5 q-32 -14 -55 -42 q10 -10 22 -22 q8 -5 19 -4 q14 15 31 29 q14 7 28 15 q4 3 3 -34 q-3 -13 -10 -25 q10 -11 22 -21 q5 -2 13 -2 q10 9 12 23 q1 24 1 47 q27 -20 60 -39 l11 0 q5 4 7 9 q-3 11 -13 17 q-17 11 -34 18 q-16 3 -31 6 q0 39 -3 74 q-3 5 -7 9 q16 9 38 9 q16 1 30 -5 q5 -6 8 -15 q1 -11 0 -23 q-6 -13 -14 -26 q4 -9 12 -17 q9 -6 22 -6 q16 15 21 35 l0 23 q-4 14 -10 25 q-11 12 -22 19 q-31 14 -67 14 q-27 -3 -48 -7 q5 8 10 15 q1 10 -5 15 q-20 8 -40 8 Z" /><glyph glyph-name="" unicode="&#x60f3;" d="M71 115 q10 -19 31 -29 q29 5 58 11 q5 10 -2 17 q-18 7 -38 9 q-26 0 -49 -8 ZM368 145 q11 -16 29 -27 q13 2 28 3 q7 -5 17 -6 q9 4 9 14 q-7 11 -18 14 q-27 8 -55 9 q-8 -1 -10 -7 ZM166 166 q-2 -5 -5 -10 q-1 -27 3 -53 q5 -23 18 -42 q14 -15 33 -30 q22 -12 48 -15 q29 -1 54 7 q22 12 42 30 q9 13 14 26 q1 15 -1 28 q-7 16 -20 27 q-17 6 -34 7 q3 -10 16 -21 q5 -19 0 -39 q-16 -23 -40 -36 q-24 -8 -49 -7 q-14 5 -24 14 q-7 9 -11 18 q-8 29 -1 55 q12 -16 30 -26 q26 4 54 4 q7 5 7 12 q-8 13 -22 14 q-37 6 -70 0 q2 12 4 23 q-2 4 -5 7 q-20 8 -41 7 ZM137 333 q-36 -4 -72 -9 q-4 -2 -3 -6 q9 -11 21 -22 q7 -4 18 -4 q-19 -17 -36 -39 q-3 -7 -4 -15 q12 -15 30 -26 l9 0 q15 28 40 54 q3 -30 1 -65 q10 -12 25 -20 q6 -1 11 3 q-2 50 2 98 q23 -26 51 -58 q7 -4 16 -4 q7 4 7 12 q-24 34 -52 66 q-8 4 -14 9 q19 5 41 4 q7 4 7 12 q-2 4 -5 7 q-23 10 -49 7 q-2 14 0 28 q-3 9 -7 16 q-19 10 -41 9 q2 -26 4 -57 ZM307 388 q-20 -11 -39 -22 q-6 -14 -9 -30 q-2 -31 0 -64 q3 -16 8 -32 q12 -17 30 -33 q10 -7 23 -12 q25 -6 52 0 q17 8 33 18 q19 18 29 40 q8 33 8 69 q-3 22 -12 40 q-14 18 -32 24 q-20 4 -38 7 q-29 2 -53 -5 ZM392 252 q-9 -17 -28 -28 q-21 -10 -43 -10 q-9 5 -16 13 q-6 10 -5 20 q45 5 92 5 ZM408 308 q2 -18 -5 -35 q-52 7 -104 5 q-1 11 1 22 q53 10 108 8 ZM355 368 q21 1 42 -3 q12 -18 12 -43 q-21 10 -46 12 q-26 3 -51 2 q6 9 11 20 q14 11 32 12 Z" /><glyph glyph-name="" unicode="&#x6210;" d="M209 285 q-67 -4 -130 -10 q6 -13 21 -24 q2 -24 1 -47 q-6 -25 -12 -51 q-10 -20 -18 -41 q-14 -15 -27 -29 q8 -14 23 -23 l8 0 q20 21 34 45 q17 32 29 66 q30 5 65 12 q6 -20 2 -42 q-9 -17 -25 -30 q-26 -10 -47 -20 q9 -14 25 -21 q25 4 47 16 q13 10 26 23 q8 14 12 28 q1 18 0 34 q-3 17 -16 28 q-22 10 -45 12 q-19 1 -36 -2 q0 21 -1 40 q41 6 81 10 q29 -58 70 -113 q-31 -17 -59 -42 q9 -11 20 -22 q8 -6 20 -6 q22 21 47 39 q22 -18 47 -35 q41 -23 91 -30 q6 6 2 13 q-27 10 -54 16 q-26 12 -50 26 q-13 9 -21 21 q29 22 58 42 q0 9 -6 13 q-16 6 -32 7 q-23 -17 -46 -32 q-33 52 -56 108 q22 6 46 7 q33 1 64 -5 l5 5 q1 9 -5 13 q-19 7 -39 9 q-44 -1 -84 -4 q-10 22 -28 39 q-19 6 -38 7 q16 -23 31 -50 ZM264 354 q8 -11 21 -23 q8 -5 19 -5 q8 6 20 4 q22 -7 45 -12 q4 2 6 6 q1 9 -5 13 q-22 11 -45 17 q-24 3 -47 6 q-9 0 -14 -6 Z" /><glyph glyph-name="" unicode="&#x6240;" d="M293 323 q-6 -5 -9 -9 q-2 8 -8 13 q-14 4 -27 6 q-73 -1 -144 -8 q-27 -5 -53 -11 q0 -10 12 -18 q9 -68 10 -137 q-3 -16 -7 -33 q-9 -18 -19 -35 q7 -14 23 -22 l8 0 q12 19 19 39 q7 28 11 57 q5 -3 14 -8 q27 1 54 5 q33 7 64 23 q7 8 13 16 q1 12 1 24 q-5 20 -22 33 q-20 10 -41 13 q-17 2 -34 2 q-26 -2 -48 -8 q0 13 -1 24 q59 17 124 21 q18 1 37 -1 q12 -27 15 -59 q1 -45 -7 -85 q-10 -19 -19 -40 q10 -10 24 -20 l10 0 q18 38 28 78 q3 29 5 59 q25 2 51 3 q2 -62 6 -124 q-3 -15 -4 -31 q9 -12 23 -21 q6 -1 13 0 q7 91 8 179 q18 2 36 1 q5 5 4 12 q-3 5 -6 7 q-18 6 -36 8 q-47 -2 -96 -3 q-4 8 -5 16 q48 15 99 26 l37 0 q6 5 5 13 q-4 6 -9 8 q-17 4 -33 6 q-66 -4 -126 -19 ZM212 246 q4 -8 4 -20 q-4 -11 -15 -21 q-20 -11 -40 -18 q-24 -5 -50 -5 q-1 24 0 48 q9 -4 22 -4 q22 16 49 20 q15 2 30 0 Z" /><glyph glyph-name="" unicode="&#x624d;" d="M339 274 q-128 2 -250 -7 q2 -14 20 -27 q7 -4 18 -4 q51 12 106 15 q84 4 94 1 q-100 -42 -199 -86 q9 -14 24 -26 q6 -2 15 -2 q87 47 176 85 q6 -44 3 -91 q-4 -15 -8 -30 q-7 -12 -16 -23 q-10 -7 -22 -9 q-7 14 -21 18 q-11 1 -21 1 q-3 -5 2 -11 q18 -21 42 -33 l25 0 q15 4 27 15 q7 11 13 22 q4 21 7 41 q2 65 3 129 q19 2 40 0 q3 2 6 5 q1 9 -5 13 q-20 6 -40 5 q-4 38 -7 75 q-3 6 -7 9 q-19 6 -38 7 q6 -45 13 -92 Z" /><glyph glyph-name="" unicode="&#x627e;" d="M276 352 q-4 -2 -3 -7 q12 -13 28 -25 q21 2 42 4 q5 6 5 13 q-5 9 -15 12 q-28 6 -57 3 ZM113 362 q3 -45 5 -95 q-29 0 -54 -4 q5 -13 21 -26 q16 -5 34 -3 q-1 -17 2 -35 q-30 -5 -58 -11 q9 -16 27 -28 q15 0 29 2 q0 -24 -1 -49 q-3 -8 -8 -16 q-17 5 -35 5 q5 -15 18 -27 q12 -11 26 -18 l16 0 q10 5 19 14 q5 10 9 19 q-1 41 -3 80 q14 7 32 6 q8 4 7 14 q-20 14 -42 16 q-1 15 -1 30 q22 0 42 5 q2 8 -2 14 q-19 9 -39 12 q2 42 2 83 q-6 9 -16 11 q-17 5 -30 1 ZM218 370 q2 -45 13 -88 q-17 -1 -35 -1 q-5 -2 -4 -7 q12 -16 30 -25 q9 1 18 2 q15 -47 32 -96 q-27 -14 -50 -34 q6 -13 21 -25 q7 -5 17 -5 q17 14 36 26 q24 -25 52 -46 q25 -15 53 -28 q20 -5 43 -5 q6 4 5 13 q-4 6 -9 9 q-20 5 -41 5 q-27 15 -52 31 q-19 17 -32 35 q18 13 39 22 l0 10 q-18 13 -41 12 q-8 -4 -15 -7 q-16 41 -23 84 q48 6 98 8 q5 6 4 15 q-6 7 -13 8 q-47 3 -95 -1 q-4 40 -8 79 q-21 11 -43 9 Z" /><glyph glyph-name="" unicode="&#x6301;" d="M207 132 q11 -17 29 -27 q50 5 100 0 q4 2 7 5 q1 10 -5 15 q-25 8 -51 10 q-42 4 -80 -3 ZM116 264 q-33 1 -61 -9 q11 -17 30 -28 q18 3 34 6 q1 -22 1 -44 q-28 -7 -57 -12 q11 -14 25 -26 q14 -2 30 0 q-2 -29 -1 -62 q-3 -5 -5 -10 q-20 9 -44 9 q11 -29 40 -47 q12 -3 26 -2 q10 3 19 11 q6 10 10 19 q0 46 -2 89 q17 2 32 9 q1 9 -5 14 q-14 6 -28 8 q-1 24 -2 46 q12 0 23 5 l0 10 q-10 11 -23 13 q0 40 2 80 q-2 5 -6 8 q-19 8 -39 8 q-2 -48 1 -95 ZM275 376 q2 -24 4 -48 q-43 0 -82 -5 q9 -20 30 -29 q26 2 52 5 q7 -16 20 -27 q-50 -3 -98 0 q8 -13 23 -26 q5 -3 12 -5 q63 3 126 2 q1 -23 2 -45 q-81 -3 -157 0 q9 -15 25 -26 q63 -4 130 -1 q2 -43 -9 -83 q-10 -13 -23 -21 q-18 7 -38 7 q-2 -3 -1 -7 q11 -12 25 -26 q8 -4 18 -7 q24 0 45 9 q18 15 24 35 q7 45 4 90 q20 3 44 1 q7 5 5 15 q-5 7 -11 9 q-18 4 -36 5 q-2 22 -1 44 q16 3 34 2 q11 5 9 17 q-7 9 -17 11 q-56 5 -113 0 q1 13 1 28 q27 4 57 3 q26 -4 52 -10 q10 3 9 14 q-5 7 -11 9 q-28 6 -56 10 q-26 1 -50 1 q-2 14 -1 29 q-2 8 -7 13 q-20 7 -40 7 Z" /><glyph glyph-name="" unicode="&#x6309;" d="M266 336 q-27 -3 -52 -12 q-14 -5 -25 -15 q-4 -23 7 -47 q13 -18 33 -29 q-5 0 -4 -5 q11 -14 27 -25 q-6 -15 -8 -33 q-2 -29 -2 -59 q11 -17 29 -31 q12 -5 25 -11 q29 -5 61 -4 q1 -5 1 -13 q9 -11 21 -22 q7 -5 18 -5 q3 2 6 4 q0 18 1 36 q20 3 36 16 q-1 4 0 8 q-17 14 -37 16 q-1 50 1 99 q13 -1 26 2 q2 4 2 10 q-10 12 -25 11 q0 19 -4 36 q-21 13 -44 11 q0 -21 3 -44 q-24 1 -48 1 q7 16 10 35 q-6 8 -15 11 q-15 3 -29 4 q-11 -23 -20 -48 l-23 0 q0 3 6 6 q-4 23 -10 44 q18 16 41 23 q18 4 38 7 l61 0 q18 -2 36 -8 q4 -16 0 -32 q9 -9 19 -21 q9 -6 20 -5 l6 6 q3 18 1 36 q-5 9 -8 18 q-11 11 -24 17 q-36 10 -73 14 q-43 0 -84 -2 ZM362 205 q4 -55 0 -113 q-34 -4 -68 0 q-8 4 -14 9 q-3 17 -2 34 q6 37 22 68 q30 3 62 2 ZM261 373 q9 -18 29 -29 q23 5 48 5 q9 5 6 15 q-4 5 -9 8 q-30 8 -62 6 q-7 -1 -12 -5 ZM108 382 q10 -55 17 -110 q-32 0 -67 0 q7 -19 30 -31 q19 1 39 2 q3 -15 3 -33 q-38 -7 -75 -17 q9 -19 30 -29 q23 4 45 9 q1 -33 -3 -65 q-7 -8 -15 -17 q-4 9 -6 17 q-19 11 -41 10 q-2 -13 7 -25 q13 -16 29 -30 q9 -6 22 -9 q9 1 19 2 q15 13 25 29 q3 49 -3 97 q12 5 27 3 q3 3 5 6 q0 8 -5 12 q-13 7 -28 7 q-2 16 -1 33 q13 2 28 0 q7 5 6 14 q-15 13 -34 14 q-4 51 -8 100 l-7 7 q-22 8 -39 4 Z" /><glyph glyph-name="" unicode="&#x6362;" d="M266 365 q-27 -11 -46 -35 q-13 -16 -17 -36 q8 -10 19 -21 q-20 -7 -33 -24 q-11 -24 -7 -51 q6 -19 19 -34 q-15 2 -22 -3 q-8 13 -24 13 q-2 20 -2 39 q14 1 25 8 l0 10 q-13 10 -27 13 q-2 37 -7 72 q-20 11 -43 9 q2 -43 11 -84 q-28 -4 -56 -8 q2 -14 18 -26 q8 -6 20 -5 q9 6 21 5 q7 -14 6 -34 q-33 2 -59 -7 q11 -20 32 -29 q13 3 27 4 q0 -21 -12 -40 q-20 -18 -37 -27 q9 -9 20 -20 q9 -4 20 -1 q18 8 30 25 q7 14 11 29 q0 17 1 35 q9 2 19 4 q6 6 8 13 q13 -14 32 -25 q25 3 48 1 q-10 -18 -27 -35 q-32 -21 -65 -34 q8 -12 20 -21 q8 -1 18 0 q22 13 45 26 q17 14 33 31 q9 15 17 30 q33 -39 76 -73 q24 -13 51 -22 q9 -1 15 6 q1 11 -8 16 q-23 7 -44 16 q-35 32 -59 67 q49 4 100 0 q3 3 6 6 q1 8 -4 12 q-7 3 -12 5 q19 16 30 36 q3 18 0 36 q-6 17 -20 28 q-29 14 -55 20 q11 17 11 39 q-2 13 -5 24 q-5 7 -10 12 q-22 11 -47 13 q-33 1 -61 -8 ZM271 253 q5 -42 0 -86 q-16 -1 -32 -2 q-9 10 -12 21 q-3 15 -2 29 q4 17 20 27 q12 8 26 11 ZM391 262 q9 -2 19 -7 q6 -16 2 -36 q-12 -19 -30 -31 q4 -11 15 -20 q-43 -4 -85 0 q2 45 11 85 q-4 6 -9 8 q37 6 77 1 ZM345 348 q5 -12 1 -26 q-6 -6 -8 -14 q13 -13 20 -23 q-55 3 -105 -5 q1 17 15 34 q13 15 29 25 q21 10 48 9 Z" /><glyph glyph-name="" unicode="&#x636e;" d="M182 371 q10 -80 13 -174 q-5 -30 -20 -57 q-18 -27 -41 -55 q7 -9 16 -19 q7 -4 18 -3 q22 33 42 67 q11 27 19 56 q4 -3 10 -6 q27 1 52 3 q-1 -4 -1 -9 q-15 -3 -28 1 q-16 -5 -25 -18 q-10 -16 -13 -35 q-2 -19 5 -35 q14 -18 33 -35 q21 -13 47 -17 q29 -2 55 7 q17 11 31 26 q5 10 10 20 q4 17 4 34 q-4 14 -12 25 q-30 21 -64 27 q0 9 1 16 q40 9 86 6 q5 5 4 13 q-15 13 -36 12 q-27 -1 -51 -2 q0 11 2 20 q-9 11 -17 14 q32 4 64 9 q19 7 39 14 q16 9 32 21 q6 11 8 22 q-2 15 -8 26 q-12 13 -25 18 q-15 5 -30 8 q-109 6 -220 0 ZM331 150 q18 0 35 -7 q7 -23 0 -46 q-13 -21 -35 -34 q-17 -4 -35 -5 q-16 5 -26 19 q-5 9 -5 19 q4 25 24 44 q21 7 42 10 ZM290 250 q0 -16 0 -34 q-30 -4 -58 -5 q-2 16 0 33 q28 5 58 6 ZM424 348 q4 -6 4 -16 q-7 -13 -20 -25 q-17 -10 -34 -19 q-19 -5 -38 -10 q-51 -7 -103 -9 q-3 36 -4 71 q41 5 82 10 q57 6 113 -2 ZM88 295 q-19 -2 -36 -6 q5 -13 19 -24 q9 -4 20 -7 q1 -21 2 -44 q-22 -7 -45 -8 q6 -20 29 -31 q7 0 15 1 q2 -22 -2 -43 q-7 -9 -16 -14 q-9 -1 -18 -1 q5 -13 22 -26 q13 -4 28 -1 q16 7 23 23 q2 36 -3 70 q17 6 34 13 q2 8 -2 13 q-15 9 -32 10 q0 23 1 45 q22 5 48 3 q8 6 5 16 q-9 8 -20 10 q-15 2 -30 2 q-1 33 3 65 q-3 5 -6 8 q-19 7 -38 8 q-5 -36 -1 -82 Z" /><glyph glyph-name="" unicode="&#x6388;" d="M220 313 q4 -21 12 -42 q7 -6 14 -15 q-15 -4 -29 -14 q-5 -5 -8 -14 l0 -34 q11 -15 25 -27 q9 -7 23 -6 q7 4 6 13 q10 -8 22 -20 q6 -3 15 -3 q20 14 46 16 q1 -13 -4 -27 q-12 -22 -29 -43 q-32 13 -63 23 q-14 3 -28 4 q7 -19 30 -32 q21 -3 42 -12 q-11 -8 -22 -13 q-31 -4 -54 -7 q11 -15 28 -24 q28 1 54 8 q19 10 37 23 q34 -12 71 -21 q4 3 6 7 q0 9 -6 13 q-28 8 -54 16 q18 22 32 48 q7 20 3 40 q-6 13 -18 18 q-33 10 -69 7 q-23 -3 -40 -15 q-6 1 -7 5 l0 24 q6 12 18 17 q43 11 92 9 q19 -2 37 -8 q0 -14 -8 -30 q7 -13 18 -23 q9 -2 20 -2 q10 11 15 24 q2 19 -7 33 q-14 12 -29 18 q-35 10 -71 12 q-2 19 1 38 q-3 5 -7 8 q-18 7 -37 8 q-7 -12 -4 -31 q10 -11 22 -22 q-18 -1 -37 -1 q-8 21 -13 42 q-9 8 -18 10 q-15 3 -27 2 ZM371 290 q3 -14 15 -25 q10 -3 23 -3 q9 9 18 17 q6 9 6 20 q-3 5 -6 8 q-18 8 -38 9 q-7 -13 -18 -26 ZM113 363 q10 -42 18 -86 q-35 -5 -68 -11 q10 -17 29 -28 q22 1 43 4 q5 -20 4 -42 q-40 -6 -76 -17 q10 -19 31 -29 q24 6 47 10 q0 -35 -6 -68 q-4 -9 -10 -16 q-7 9 -12 18 q-19 8 -39 9 q-1 -7 4 -14 q22 -26 51 -42 q12 -3 25 0 q7 8 14 17 q8 50 5 104 q13 3 26 7 q1 10 -4 15 q-11 5 -22 7 q0 26 -2 50 q13 4 29 3 q4 5 6 10 q-2 7 -7 11 q-14 5 -29 5 q-4 38 -13 72 q-6 6 -12 8 q-17 4 -32 3 ZM223 359 q-11 -1 -20 -7 q13 -17 32 -28 q71 13 143 25 q26 1 50 -4 q5 5 4 14 q-17 15 -39 15 q-87 -5 -170 -15 Z" /><glyph glyph-name="" unicode="&#x63a5;" d="M278 367 q12 -17 31 -26 q23 2 45 -2 q-27 -3 -54 -6 q-61 0 -121 1 q5 -13 21 -26 q18 -7 39 -3 q4 -19 17 -37 q-27 1 -50 -9 q-2 8 -7 13 q-24 9 -46 4 q-8 34 -13 68 q-3 6 -8 10 q-21 9 -39 5 q10 -40 21 -82 q-38 -2 -72 -7 q11 -17 30 -28 q22 3 45 4 q4 -19 5 -41 q-32 -4 -63 -9 q6 -18 28 -30 q18 1 36 4 q2 -26 -6 -50 q-9 -18 -24 -30 q-8 0 -15 1 q1 -12 16 -23 q9 -7 22 -6 q11 5 21 16 q15 28 18 60 l0 38 q17 7 38 6 q6 5 5 13 q-3 4 -6 7 q-19 4 -36 8 q-1 19 -1 38 q24 0 47 6 q12 -14 29 -26 q14 0 25 7 q2 -20 -4 -38 q-21 0 -40 1 q5 -14 20 -26 q9 -3 18 -7 q-3 -20 0 -39 q16 -21 40 -34 q30 -6 65 -5 q-9 -14 -20 -27 q10 -12 24 -22 l11 0 q21 23 32 49 q11 -1 23 0 q6 4 5 11 q-9 11 -23 13 q2 33 5 66 q23 2 48 -2 q7 8 2 16 q-23 10 -49 9 q0 13 -7 21 q-19 8 -40 8 l0 -28 q-32 -1 -64 -3 q4 23 1 43 q39 8 80 12 q41 3 81 -2 q6 4 5 12 q-3 4 -6 7 q-28 8 -60 6 q3 16 6 33 q-2 5 -6 8 q23 2 48 1 q6 4 5 12 q-5 7 -12 9 q-39 6 -77 1 q3 5 3 13 q-5 9 -14 11 q-37 8 -76 7 q-3 0 -2 -4 ZM367 176 q5 -34 -2 -66 q-36 -2 -72 3 q-4 3 -5 6 q-2 26 6 49 q35 6 73 8 ZM360 314 q0 -11 -5 -24 q8 -6 10 -15 q-37 -1 -74 -5 q-4 20 -10 36 q40 2 79 8 Z" /><glyph glyph-name="" unicode="&#x641c;" d="M105 387 q1 -56 4 -111 q-28 -3 -54 -7 q11 -17 29 -28 q14 1 28 1 q1 -25 4 -50 q-28 -4 -54 -9 q10 -17 29 -28 q14 1 27 2 q0 -27 -2 -53 q-3 -13 -13 -23 q-13 -1 -20 -7 l17 -17 q9 -2 20 -2 q8 4 16 9 q5 8 9 16 q1 40 -1 81 q18 6 38 10 q5 10 -3 17 q-17 5 -34 8 q0 27 1 53 q17 3 34 6 q16 -25 43 -46 q13 -7 28 -13 q19 -4 40 -5 q-1 -11 -1 -21 q-38 -2 -74 -11 q10 -19 31 -30 q60 18 126 16 q1 -6 0 -13 q-9 -17 -26 -31 q-16 -10 -33 -17 q-13 12 -25 22 q-23 10 -40 4 q17 -20 40 -36 q-51 -14 -103 -21 q8 -12 22 -20 q56 7 109 21 q16 -10 34 -18 q27 -11 59 -14 q5 6 4 14 q-36 13 -70 28 q18 8 36 17 q21 15 32 37 q0 11 -1 20 q-8 16 -23 23 q-28 7 -57 9 q0 9 1 20 q18 2 38 3 q27 6 52 18 q12 10 23 22 q9 19 12 39 q1 16 1 31 q-5 28 -20 49 q-7 7 -14 10 q-17 5 -30 1 q9 -9 17 -21 q10 -21 10 -45 q-35 0 -76 1 q-1 15 0 32 l-7 7 q-22 8 -39 4 q3 -65 -2 -129 q-20 -1 -39 2 q-19 6 -32 21 q-10 16 -10 33 q36 3 74 7 q1 7 0 13 q-5 5 -10 7 q-26 6 -54 6 q3 9 14 16 q22 11 41 25 q1 10 -5 16 q-19 7 -39 8 q-27 -11 -47 -34 q-8 -11 -13 -23 q-2 -16 -1 -33 q-13 2 -28 3 q0 47 3 94 q-3 5 -7 8 q-20 8 -39 6 ZM344 283 q8 -10 19 -15 q25 2 52 2 q-3 -16 -17 -31 q-18 -14 -40 -22 q-12 -4 -22 -1 q5 34 8 67 Z" /><glyph glyph-name="" unicode="&#x652f;" d="M239 318 q-72 -6 -144 -11 q-7 -1 -7 -7 q11 -14 28 -25 q61 7 124 16 q4 -31 1 -64 q-54 -15 -104 -35 q11 -16 29 -27 q60 17 118 41 q24 7 53 5 q3 -8 5 -17 q0 -14 -3 -28 q-7 -14 -16 -29 q-20 -20 -44 -36 q-26 11 -48 26 q-21 7 -42 8 q3 -14 21 -27 q20 -7 40 -19 q-23 -12 -50 -18 q-29 -4 -58 -6 q3 -14 22 -23 q27 2 54 7 q34 10 68 23 q37 -11 77 -17 q23 -1 48 -2 q4 2 6 6 q1 9 -5 13 q-49 6 -97 13 q28 19 53 47 q7 15 12 30 q1 16 0 30 q-5 20 -22 32 q-19 7 -38 10 q-21 2 -39 0 q-4 32 3 62 q66 3 134 2 q6 4 5 12 q-3 4 -6 7 q-15 3 -29 5 q-52 -2 -103 -5 q-4 15 -1 31 q-2 8 -7 13 q-19 6 -39 7 q-1 -24 1 -50 Z" /><glyph glyph-name="" unicode="&#x6539;" d="M226 366 q-15 -37 -14 -80 q-5 13 -19 24 q-20 9 -42 10 q-31 0 -60 -3 q-26 -5 -47 -20 q6 -13 20 -24 q7 -5 18 -5 q19 12 40 20 q22 6 46 7 q2 -15 -4 -30 q-12 -14 -24 -27 q2 -2 4 -6 q-45 2 -85 -4 q0 -6 7 -13 q-3 -43 0 -87 q3 -14 8 -29 q9 -13 24 -26 q10 -6 22 -11 l23 0 q14 5 28 12 q15 12 31 24 q0 13 -9 19 q-13 2 -25 1 q-12 -10 -25 -19 q-15 -7 -30 -11 q-11 18 -9 42 q2 39 12 72 q30 3 62 1 q5 2 9 7 q-1 7 -1 10 q16 15 24 31 q2 11 2 23 q9 -12 26 -28 q12 -7 26 -10 q43 3 83 16 q2 -25 3 -50 q-2 -20 -6 -40 q-9 -19 -21 -37 q-31 27 -59 55 q-17 4 -33 4 q0 -5 4 -10 q33 -36 71 -66 q-20 -16 -43 -28 q-27 -11 -57 -13 q-12 5 -23 4 q6 -16 25 -25 q29 -2 57 6 q36 14 69 37 q41 -24 86 -43 q9 -1 14 6 q0 8 -6 12 q-41 15 -78 38 q10 11 19 21 q10 18 18 36 q8 41 7 85 q-5 12 -15 18 q20 8 43 11 q19 3 40 2 q6 4 7 10 q-2 5 -5 8 q-15 5 -28 7 q-90 -20 -181 -38 q-3 17 1 34 q5 26 16 49 q0 7 -3 11 q-21 11 -43 10 Z" /><glyph glyph-name="" unicode="&#x6548;" d="M45 281 q12 -17 30 -28 l31 0 q-15 -28 -30 -58 q8 -10 20 -21 q7 -4 18 -4 q20 29 39 59 l0 11 q-18 13 -35 15 q55 6 110 14 q29 2 57 -2 q6 4 5 11 q-3 5 -7 8 q-16 5 -33 7 q-109 -5 -205 -12 ZM106 313 q7 -5 16 -8 q35 0 68 1 q3 5 3 12 q-4 8 -12 10 q-45 9 -92 8 q2 -11 17 -23 ZM305 367 q-12 -46 -9 -96 q8 -18 28 -33 q11 -5 24 -8 l28 0 q3 -10 5 -21 q-3 -33 -14 -64 q-5 -8 -10 -16 q-19 17 -35 38 q-19 8 -39 9 q-3 -1 -2 -5 q28 -32 61 -61 q-14 -14 -30 -26 q-22 -13 -46 -17 q-2 6 -7 9 q-11 4 -21 5 q-17 9 -30 21 q9 12 21 21 q14 21 24 42 q5 18 8 36 q-5 6 -4 9 q10 -6 20 -13 q8 -2 17 1 q3 5 3 11 q-23 21 -52 32 q-20 5 -39 7 q1 -13 18 -25 q11 -4 18 -9 q-14 1 -26 4 q-7 -21 -11 -44 q-10 -21 -25 -41 q-9 10 -16 20 q-19 8 -39 8 q10 -25 36 -47 q-23 -22 -51 -37 q-29 -6 -50 -7 q10 -10 22 -21 q10 -3 22 -3 q16 3 32 7 q27 16 53 35 q26 -21 58 -32 q11 -2 18 5 q7 -10 18 -18 q27 0 51 16 q19 13 38 28 q32 -23 69 -37 l11 0 q5 5 6 11 q-3 6 -7 9 q-20 6 -38 14 q-13 9 -25 18 q15 18 25 38 q7 22 13 45 q1 18 -3 31 q-6 7 -13 10 q-17 1 -27 4 q37 2 74 0 q10 5 7 15 q-16 10 -34 11 q-45 -4 -91 -1 q-5 10 -3 22 q6 38 15 75 q-3 5 -6 8 q-21 8 -40 7 Z" /><glyph glyph-name="" unicode="&#x656c;" d="M106 165 q-9 -10 -11 -25 l0 -25 q2 -8 8 -16 q14 -17 34 -27 q16 -3 34 0 q20 10 34 27 q7 14 13 27 q3 14 -3 24 q-26 14 -55 21 q-15 2 -30 2 q-13 -2 -24 -8 ZM175 143 q2 -2 2 -7 q-5 -13 -14 -24 q-11 -9 -23 -14 q-7 11 -2 24 q3 9 10 16 q12 5 27 5 ZM214 390 q-3 -26 -5 -54 q-38 -5 -77 -6 q0 13 -6 22 q-19 9 -40 9 q-3 -17 -3 -34 q-16 0 -31 -5 q3 -13 17 -24 q7 -5 17 -6 q1 -10 1 -23 q10 -14 26 -24 q-28 -26 -52 -53 q14 -18 35 -26 q10 7 20 18 q10 -3 22 0 q19 9 40 15 q20 4 42 3 q6 -13 11 -27 q3 -19 3 -40 q-4 -9 -5 -20 q-12 -25 -32 -47 q-14 -11 -29 -18 q-23 -4 -46 -1 q-2 -2 -1 -5 q11 -16 29 -24 q24 1 47 7 q26 14 45 37 q6 -7 15 -12 q29 1 55 11 q24 12 48 27 q30 -19 62 -38 q10 -3 22 -3 q8 5 6 14 q-37 18 -71 41 q10 13 21 26 q11 21 19 45 q3 26 3 53 q-3 13 -7 23 q-7 7 -14 11 q25 9 54 8 q5 4 4 10 q-4 7 -11 9 q-12 3 -23 4 q-59 -12 -119 -17 q3 26 12 49 q13 23 22 46 q-5 10 -15 13 q-15 1 -29 3 q-4 -2 -7 -6 q-16 -35 -22 -75 l0 -25 q15 -19 35 -30 q34 -2 68 4 q10 -17 10 -40 q0 -26 -7 -50 q-8 -18 -19 -33 q-12 10 -22 26 q-19 8 -40 8 q16 -29 42 -54 q-22 -16 -45 -26 q-18 -5 -37 -9 q6 12 13 25 q4 21 5 42 q-2 33 -16 59 q-12 13 -26 18 q-29 9 -60 7 q1 9 -5 16 q-15 8 -32 7 q-6 22 -2 46 q36 6 73 10 q-1 -8 -3 -18 q11 -13 25 -23 q7 -1 15 1 q5 22 10 43 q6 3 10 8 q0 8 -5 12 q5 23 6 47 q-9 11 -23 12 q-13 2 -23 1 Z" /><glyph glyph-name="" unicode="&#x6570;" d="M84 340 q1 -7 4 -14 q9 -15 26 -30 q9 -7 21 -3 q3 5 4 10 q-5 16 -15 29 q-19 9 -40 8 ZM151 399 q8 -55 7 -116 q-46 -7 -92 -9 l-7 -6 q9 -14 24 -26 q6 -2 15 -2 q-10 -11 -22 -24 q-6 -10 -9 -21 q8 -11 20 -22 q8 -6 21 -5 q8 13 14 27 q13 19 32 31 q-1 -22 0 -45 q-6 -1 -11 -1 q-4 -23 -9 -47 q-25 -5 -50 -6 q-6 -1 -5 -6 q10 -12 23 -23 q13 -5 27 -1 q7 -18 26 -32 q21 -11 48 -10 q-1 -10 -2 -22 q7 -6 14 -15 q8 -6 19 -7 q5 4 7 10 q-2 18 3 33 q21 0 32 10 q8 -6 15 -15 q7 -4 16 -4 q15 5 28 13 q24 19 46 41 q22 -12 41 -34 q6 -4 15 -5 q7 2 9 9 q-20 29 -51 47 q9 18 18 36 q11 35 10 74 q-8 10 -15 14 q17 4 36 4 q7 2 9 9 q-1 4 -2 7 q-16 8 -33 10 q-43 -10 -87 -18 q-2 29 4 56 q7 26 13 52 q-5 9 -14 12 q-17 3 -32 3 q-13 -38 -12 -84 q-27 6 -57 2 q12 11 17 29 q1 17 -5 30 q-21 11 -43 9 q5 -18 -2 -34 q-1 29 -3 57 q-3 5 -6 8 q-21 8 -40 7 ZM207 110 q0 -16 -3 -32 q-16 1 -32 2 q-5 14 5 27 q16 5 30 3 ZM290 271 q-1 -7 3 -14 l19 -20 q9 -6 20 -10 q23 -1 44 3 q1 -17 1 -36 q-4 -27 -16 -52 q-17 13 -33 27 q-19 6 -39 7 q5 -12 19 -24 q21 -15 41 -31 q-11 -16 -26 -30 q-15 -11 -31 -19 q-22 4 -43 9 q0 17 3 34 q13 2 28 1 q6 4 5 12 q-14 11 -32 13 q2 8 2 16 q-6 11 -19 14 q-15 2 -27 1 q-4 -16 -1 -32 q-11 -1 -21 -2 q3 24 -2 46 q1 30 7 57 q21 -18 44 -46 q7 -4 15 -6 q12 2 11 14 q-24 34 -54 58 q40 12 82 10 ZM200 305 q4 -6 11 -11 l18 0 q-12 -4 -30 -6 q-2 9 1 17 Z" /><glyph glyph-name="" unicode="&#x6587;" d="M74 294 q9 -18 30 -29 q102 17 208 24 q0 -40 -12 -77 q-10 -21 -22 -40 q-12 -13 -23 -25 q-24 25 -47 46 q-19 6 -39 7 q31 -37 69 -68 q-16 -9 -30 -19 q-32 -14 -66 -21 q-26 0 -42 -4 q8 -8 19 -18 q15 -3 32 -1 q19 6 40 10 q36 13 69 34 q42 -30 89 -51 q28 -8 58 -13 q4 2 6 6 q0 8 -4 12 q-27 9 -55 12 q-41 17 -75 46 q18 17 36 35 q15 23 28 47 q14 40 16 84 q37 3 76 1 q4 5 3 11 q-13 10 -30 10 q-170 -2 -334 -19 ZM192 356 q11 -18 32 -28 q40 4 82 3 q6 5 5 13 q-3 5 -7 8 q-17 3 -33 6 q-41 4 -79 -2 Z" /><glyph glyph-name="" unicode="&#x65b0;" d="M100 137 q-20 -5 -35 -20 q8 -10 20 -22 q8 -6 21 -5 q22 16 46 25 q1 6 -1 11 q-6 6 -12 8 q-20 5 -39 3 ZM271 335 q-6 -5 -10 -8 q-13 2 -24 5 q-99 -11 -198 -21 q7 -19 29 -30 q9 0 18 1 q0 -13 5 -26 l11 -11 q-35 -2 -66 -14 q11 -18 31 -28 q42 11 87 16 q2 -17 4 -35 q-48 -5 -94 -11 q6 -17 26 -29 q36 1 71 9 q5 -24 4 -52 q-4 -12 -12 -22 q-13 -8 -30 -7 q6 -18 27 -28 q18 0 33 7 q9 8 15 17 q6 31 5 63 q27 -23 58 -47 q-5 -11 -9 -24 q8 -7 17 -16 q9 -6 17 1 q12 42 23 83 q6 44 8 89 q26 5 55 10 q6 -15 8 -32 q5 -63 3 -125 q7 -9 18 -19 q6 -4 15 -3 l6 6 q0 94 -4 178 q25 1 52 -1 q3 3 6 6 q0 7 -3 12 q-18 7 -36 9 q-61 1 -119 -6 q-5 28 -7 54 q33 8 68 13 q36 4 75 3 q3 4 6 6 q1 9 -6 13 q-15 5 -30 6 q-79 0 -153 -12 ZM280 227 q1 -37 0 -74 q-3 -22 -10 -44 q-14 12 -29 21 q-19 5 -37 6 q-2 11 -1 23 q34 6 68 12 q0 7 -3 12 q-16 7 -33 8 q-18 -1 -33 -3 q-2 12 -2 23 q-13 11 -24 13 q52 9 104 3 ZM192 300 q0 -22 -10 -43 q4 -3 4 -7 q-27 0 -51 -3 q-4 23 -7 42 q31 7 64 11 ZM266 307 q9 -29 12 -63 q-22 8 -47 8 q9 25 8 53 q12 3 27 2 ZM137 340 l60 0 q6 4 6 11 q-3 9 -11 12 q-40 9 -82 6 q5 -19 27 -29 Z" /><glyph glyph-name="" unicode="&#x65f6;" d="M243 211 q4 -14 20 -26 q34 -4 73 -2 q2 2 5 5 q2 11 -7 17 q-18 6 -36 7 q-28 1 -55 -1 ZM46 274 q-8 -42 -6 -88 q3 -21 7 -42 q10 -21 31 -39 q13 -9 29 -13 q25 -2 45 7 q14 12 28 26 q12 18 21 38 q9 38 8 79 q-3 19 -8 36 q-9 19 -26 33 q-8 5 -16 8 q-45 7 -89 11 q-19 -24 -24 -56 ZM176 214 q1 -11 -2 -24 q-8 -20 -19 -40 q-10 -10 -20 -20 q-18 -13 -39 -15 l-12 12 q-9 16 -10 34 q-1 22 2 43 q49 5 100 10 ZM111 302 q23 -4 50 -6 q8 -13 14 -28 q4 -16 4 -35 q-20 6 -43 7 q-26 -2 -52 -3 q2 13 6 26 q8 21 21 39 ZM372 286 q-75 2 -148 -8 q-3 -2 -2 -6 q11 -17 30 -26 q60 13 125 16 q9 -49 10 -98 q-2 -11 -4 -23 q-8 -17 -21 -31 q-17 -12 -36 -19 q-19 -3 -39 -4 q-18 11 -37 9 q7 -15 23 -27 q7 -3 16 -7 q36 -1 69 7 q22 10 41 29 q14 22 18 47 q5 59 -1 117 q25 1 53 -1 q4 2 6 6 q0 8 -5 13 q-27 9 -57 6 q-6 26 -13 50 q-19 13 -43 12 q5 -31 15 -62 Z" /><glyph glyph-name="" unicode="&#x660e;" d="M123 296 q-13 2 -26 2 q-6 -8 -10 -18 q-8 -26 -12 -55 q-2 -30 0 -59 q4 -14 8 -29 q11 -18 29 -34 q20 -15 48 -15 q20 3 38 14 q15 14 26 29 q11 21 18 44 q7 37 5 77 q-3 24 -19 41 q-9 6 -18 10 q-24 7 -50 6 q-21 -2 -37 -13 ZM206 285 q10 -14 13 -35 q1 -37 -7 -71 q-9 -21 -23 -40 q-13 -15 -30 -23 q-12 -4 -24 -6 q-13 8 -19 20 q-9 27 -2 53 q39 3 79 5 q3 2 6 5 q1 10 -5 15 q-37 10 -75 7 q5 23 14 44 q16 10 32 20 q18 8 41 6 ZM305 364 q-15 -3 -25 -15 q-18 -41 -23 -87 q-9 -72 -12 -149 q12 -15 29 -26 q11 -2 17 6 l0 48 q55 8 114 6 q-2 -42 -15 -80 q8 -8 18 -18 q9 -5 19 -1 q5 24 10 50 q2 69 0 139 q-5 37 -10 73 q-6 13 -12 24 q-8 9 -17 16 q-27 13 -58 15 q-18 1 -35 -1 ZM403 225 q2 -29 0 -57 q-16 6 -33 7 l-79 0 q-4 25 -1 51 q54 5 113 -1 ZM338 340 q22 2 42 -4 q15 -40 20 -85 q-53 5 -108 5 q-1 21 4 40 q4 22 21 38 q9 5 21 6 Z" /><glyph glyph-name="" unicode="&#x661f;" d="M174 369 q-23 -10 -42 -25 q-17 -14 -29 -31 q-5 -10 -8 -21 q-3 -15 3 -29 q13 -18 33 -32 q14 -7 30 -12 q34 -6 72 -6 q8 -19 11 -41 q-38 -4 -76 -6 q1 14 9 26 q0 7 -3 11 q-20 11 -43 11 q-11 -22 -12 -48 q10 -10 22 -22 q8 -5 18 -8 q44 2 86 9 q2 -11 2 -23 q-51 -2 -101 -2 l-6 -5 q8 -13 23 -25 q39 -1 82 3 q-1 -15 5 -26 q-85 1 -166 -1 q6 -19 28 -30 q153 8 309 4 q8 3 8 12 q-7 14 -22 15 q-59 2 -120 0 q-3 14 -2 29 q44 6 91 2 q8 5 6 15 q-16 10 -35 11 q-34 -2 -62 -1 l0 26 q46 6 95 3 q3 3 5 5 q0 7 -5 11 q-14 5 -27 7 q-34 -1 -68 -2 q-4 24 -10 45 q28 7 55 20 q22 14 36 37 q3 13 1 26 q-4 6 -6 12 q-15 15 -32 25 q-45 19 -92 32 q-16 3 -31 4 q-17 0 -32 -5 ZM277 283 q26 2 51 -3 q-11 -13 -25 -25 q-14 -6 -28 -13 q-29 -9 -60 -11 q-20 2 -41 3 q-15 4 -28 10 q-12 8 -15 20 q73 10 146 19 ZM262 343 q35 -8 66 -26 q5 -6 5 -14 q-63 5 -128 1 q-30 -4 -61 -6 q8 13 24 22 q18 10 38 19 q26 8 56 4 Z" /><glyph glyph-name="" unicode="&#x66ae;" d="M325 367 q-60 -2 -121 -4 q-2 11 -7 20 q-21 11 -43 10 q3 -14 7 -29 q-43 -2 -87 -9 q-8 -1 -10 -8 q11 -14 26 -25 q39 8 82 14 q8 -8 17 -18 q-22 -8 -42 -19 q-10 -6 -17 -16 q-8 -11 -3 -24 q11 -12 23 -23 q22 -12 50 -14 q-2 -6 -9 -13 l-76 0 q-11 -1 -19 -6 q10 -16 27 -27 q18 0 38 4 q-17 -17 -35 -34 q12 -20 34 -25 q16 16 35 31 q-2 -22 -3 -45 q1 -26 13 -51 q14 -17 31 -31 q18 -10 42 -9 q14 4 28 10 q20 15 34 34 q8 17 13 34 q1 13 2 25 q-2 14 -9 23 q-16 14 -35 18 q-47 3 -90 12 q6 6 13 12 q37 4 76 5 q18 -22 42 -42 q26 -11 54 -23 q8 -1 14 5 q1 10 -4 15 q-25 10 -48 21 q-11 15 -22 24 q41 2 83 -3 q4 2 7 6 q0 8 -6 12 q-16 4 -31 6 q-70 -1 -139 0 q-2 5 2 7 l48 0 q35 5 67 17 q10 6 21 14 q9 12 9 27 q-3 10 -11 17 q-32 17 -68 20 q-2 6 -5 10 q-22 10 -46 11 q-32 1 -60 -9 q-7 6 -8 14 q54 7 110 9 q1 -4 0 -10 q7 -11 19 -23 q11 -3 21 3 q2 17 11 30 q37 2 71 -7 q7 5 5 13 q-14 11 -30 13 q-13 2 -26 2 q0 6 1 13 q-3 5 -7 8 q-19 7 -39 7 q-15 -12 -20 -29 ZM249 142 q31 -4 67 -5 q7 -19 1 -38 q-6 -13 -13 -25 q-15 -17 -34 -28 q-11 -3 -21 -5 q-9 8 -12 17 q-2 9 -2 17 q27 8 57 8 q8 5 7 15 q-8 9 -18 11 q-21 4 -42 3 q-1 17 10 30 ZM276 301 q9 -5 20 -9 q35 1 68 -7 q6 -1 5 -9 q-6 -8 -14 -16 q-30 -17 -65 -23 q-49 -1 -95 5 q-14 3 -22 8 q47 9 97 10 q31 2 61 -3 q4 2 7 6 q1 8 -4 12 q-16 6 -32 8 q-50 3 -99 3 q31 13 73 15 Z" /><glyph glyph-name="" unicode="&#x66f4;" d="M99 365 q6 -18 28 -30 q58 1 115 8 q3 -13 2 -30 q-19 -3 -40 2 q-17 -5 -34 -11 q-17 -8 -32 -22 q-11 -11 -20 -24 q-12 -19 -15 -43 q0 -11 2 -23 q10 -20 30 -37 q27 -17 57 -25 q-5 -5 -8 -10 q-17 13 -36 18 q-18 5 -30 1 q8 -10 19 -21 q15 -6 31 -16 q-33 -28 -68 -47 q9 -10 21 -19 q12 -1 24 6 q27 21 52 46 q41 -15 86 -24 q56 -8 114 -16 q6 4 5 11 q-5 7 -11 9 q-63 7 -123 18 q-30 8 -56 21 q8 12 17 23 l27 0 q31 6 60 16 q35 15 64 41 q12 16 18 33 q2 17 -3 32 q-12 20 -31 32 q-23 13 -47 20 q-15 1 -28 4 q1 22 -3 41 q60 9 120 0 q4 2 7 6 q0 9 -7 14 q-20 6 -39 7 q-135 -10 -268 -11 ZM139 207 q7 -9 18 -13 q34 2 67 7 q-5 -28 -21 -53 q-13 1 -24 3 q-20 6 -33 21 q-5 9 -8 17 q-1 10 1 18 ZM358 212 q-2 -9 -10 -17 q-29 -23 -62 -37 q-23 -7 -46 -9 q14 29 27 58 q44 8 91 5 ZM243 284 q-2 -28 -10 -53 q-43 -2 -84 -6 q8 19 29 34 q18 13 39 20 q13 4 26 5 ZM287 289 q22 0 43 -7 q14 -5 28 -16 q9 -14 9 -32 q-45 4 -91 -1 q4 27 11 56 Z" /><glyph glyph-name="" unicode="&#x6700;" d="M234 261 q-82 -6 -161 -12 q11 -17 30 -27 q12 0 25 1 q11 -57 9 -119 q5 -4 9 -10 q-20 -5 -40 -12 q6 -20 30 -31 q52 16 105 31 q1 -22 0 -43 q9 -11 20 -21 q5 -2 13 -3 q4 2 7 6 q-5 34 -4 69 q12 -9 28 -18 q17 0 33 4 q20 10 39 24 q18 -12 38 -24 q8 -1 14 6 q2 7 -2 12 q-16 11 -32 21 q21 22 32 48 q3 16 -2 30 q-8 8 -15 12 q-20 3 -38 6 q-37 0 -70 -8 q-6 -4 -10 -9 q7 -11 19 -22 q8 -7 21 -6 q24 16 54 17 q0 -6 -2 -14 q-9 -16 -21 -31 q-23 14 -51 15 q7 -21 32 -32 q-21 -18 -49 -22 q-4 13 -17 15 q7 55 8 114 q-3 7 -9 12 q76 11 154 0 q4 1 8 5 q1 7 -3 11 q-15 5 -29 8 q-87 0 -173 -3 ZM177 138 q6 -6 15 -10 q22 8 49 8 q1 -10 1 -22 q-33 -7 -66 -15 q-3 20 1 39 ZM211 177 l30 0 q1 -9 1 -20 q-31 9 -65 6 q-2 5 -1 10 q6 -2 17 -3 q8 5 18 7 ZM238 236 q5 -16 4 -36 q-32 10 -66 5 q-5 10 -3 21 q32 6 65 10 ZM252 395 q-19 -3 -37 -7 q-33 -11 -62 -31 q-13 -9 -20 -21 q-7 -10 -6 -23 q10 -17 28 -29 q11 -4 23 -8 q88 -2 176 0 q12 5 25 11 q13 11 20 25 q2 11 3 22 q-3 15 -10 27 q-14 16 -30 28 q-19 7 -40 7 q-35 -1 -70 -1 ZM337 367 q12 -3 24 -9 q2 -10 3 -22 q-1 -9 -6 -19 q-13 -13 -29 -20 q-74 -5 -148 0 q-11 1 -16 8 q1 6 4 10 q84 10 172 10 q3 2 6 5 q1 8 -3 13 q-15 6 -31 8 q-55 -1 -109 -4 q16 12 40 17 q45 7 93 3 Z" /><glyph glyph-name="" unicode="&#x6708;" d="M239 370 q-17 -6 -31 -18 q-31 -30 -49 -67 q-14 -28 -22 -58 q-7 -37 -6 -74 q9 -14 24 -29 q8 -7 21 -7 q4 2 7 6 q-6 26 -7 53 q6 -1 14 -4 q58 7 116 9 q3 3 6 6 q1 9 -6 14 q-16 5 -32 7 q-50 -1 -97 -6 q1 28 11 46 q8 -10 20 -15 q42 13 88 20 q12 0 24 -1 q7 5 5 14 q-18 13 -40 13 q-48 -1 -91 -9 q5 15 13 28 q10 15 23 27 q14 12 31 20 q26 4 53 1 q9 -16 17 -34 q4 -18 9 -37 q2 -85 -2 -171 q-5 -18 -18 -34 q-18 9 -38 8 l0 -8 q12 -15 27 -28 q8 -4 19 -7 q17 0 33 6 q17 19 22 42 q0 100 -6 198 q-8 28 -19 53 q-6 9 -14 18 q-12 9 -24 14 q-20 4 -38 7 q-23 2 -43 -3 Z" /><glyph glyph-name="" unicode="&#x6709;" d="M230 325 q-75 -1 -144 -5 q8 -18 28 -29 q46 1 94 6 q-42 -45 -80 -92 q6 -7 14 -15 q6 -4 16 -4 q8 14 20 26 q-10 -34 -11 -74 q-2 -36 2 -72 q9 -12 22 -25 q8 -6 20 -6 q4 2 7 6 q-7 26 -8 53 q82 13 171 15 q0 -39 -2 -77 q8 -8 15 -17 q8 -7 20 -7 q4 2 6 6 q-3 99 -4 196 q-5 20 -17 35 q-13 12 -28 18 q-37 12 -79 11 q-35 -3 -66 -12 q21 21 44 43 q74 5 150 0 q6 3 6 10 q-2 4 -5 7 q-14 6 -29 7 q-51 -2 -102 -2 q17 27 39 52 q1 11 -8 16 q-18 4 -36 7 q-27 -38 -55 -77 ZM376 172 q3 -1 6 -4 q2 -20 -1 -37 q-85 0 -172 -3 q-5 18 -3 37 q7 -4 16 -9 q74 15 154 16 ZM352 250 q9 -3 18 -8 q10 -22 11 -49 q-83 5 -169 -2 q3 14 13 27 q8 10 19 16 q23 12 51 16 q28 3 57 0 Z" /><glyph glyph-name="" unicode="&#x671f;" d="M338 350 q-9 -5 -16 -14 q-8 -11 -13 -25 q-5 -18 -8 -38 q-10 -93 -6 -190 q9 -9 19 -20 q8 -7 21 -6 q4 3 6 7 q-7 36 -6 74 q43 3 86 3 q2 -33 -7 -64 q12 -15 29 -22 q9 3 12 12 q-3 105 -1 211 q-3 20 -6 38 q-7 15 -19 26 q-26 14 -55 16 q-20 0 -36 -8 ZM333 218 q40 0 85 -3 q3 -1 5 -5 q2 -26 -3 -50 q-41 11 -86 10 q-4 24 -1 48 ZM406 329 q6 -14 11 -31 q3 -29 5 -60 q-43 8 -90 10 q0 18 4 36 q7 22 27 38 q8 6 18 8 q13 3 25 -1 ZM200 370 q0 -31 3 -63 q-35 -1 -69 -2 q1 18 -9 30 q-19 7 -39 7 q0 -20 4 -39 q-17 -3 -31 -9 q7 -16 24 -27 q4 -2 10 -2 q5 -49 5 -103 q6 -6 14 -15 q-25 -3 -48 -2 q-4 -3 -7 -7 q9 -18 29 -28 q25 6 53 7 q-17 -25 -42 -49 q10 -19 30 -29 q7 0 13 2 q21 27 43 55 q14 -17 32 -35 q7 -4 17 -4 q7 4 8 12 q-20 26 -39 52 q9 3 20 4 q8 -9 21 -8 q3 6 7 10 q14 1 29 -1 q6 3 7 10 q-3 8 -11 11 q-17 2 -30 8 l0 126 q9 2 20 1 q5 5 4 12 q-9 11 -23 12 q-1 23 1 45 q-2 7 -7 12 q-20 8 -39 7 ZM210 187 q3 -21 -4 -39 q-34 0 -68 -2 q-6 14 -6 29 q8 -1 19 -2 q29 8 59 14 ZM209 229 q2 -15 2 -33 q-5 4 -12 9 q-32 6 -64 3 q-4 6 -2 12 q35 12 76 9 ZM205 281 q2 -13 3 -27 q-36 3 -73 3 q-2 8 -1 16 q34 8 71 8 Z" /><glyph glyph-name="" unicode="&#x672c;" d="M219 365 q2 -49 8 -96 q-66 -4 -130 -7 q-11 -2 -21 -7 q8 -15 25 -26 q42 1 86 8 q-19 -13 -39 -30 q-34 -33 -60 -71 q-7 -12 -6 -27 q8 -14 24 -28 q7 -4 17 -4 q4 2 7 6 q-3 13 0 25 q12 24 27 45 q8 -10 20 -14 q30 5 59 7 q-3 -39 -4 -79 q8 -7 18 -17 q8 -4 17 0 q-1 50 -2 100 q51 5 97 10 q11 -13 22 -27 q9 -15 9 -36 q10 -10 22 -22 q7 -3 16 -3 q5 4 6 9 q-5 27 -19 49 q-42 48 -87 94 q-18 15 -36 25 q47 6 97 0 q7 4 6 12 q-15 11 -33 12 q-49 -2 -97 -3 q-5 40 -3 82 l-7 7 q-20 6 -39 6 ZM231 221 q3 -21 4 -44 q-34 -3 -63 -3 q14 18 32 32 q13 9 27 15 ZM268 231 q8 1 17 -1 q32 -20 60 -52 q-39 4 -78 -1 q-2 27 1 54 Z" /><glyph glyph-name="" unicode="&#x6743;" d="M323 321 q-32 -4 -61 -17 q-8 -5 -9 -13 q7 -11 19 -22 q7 -6 19 -6 q11 16 30 22 q22 9 47 10 q7 -40 4 -83 q-5 -34 -22 -62 q-13 18 -29 37 q-18 7 -37 8 q14 -34 50 -66 q-10 -10 -21 -21 q-26 -17 -54 -25 q-15 5 -23 -2 q7 -8 17 -18 q7 -5 18 -5 q23 3 43 14 q23 16 44 36 q36 -21 77 -35 q5 3 7 8 q0 6 -2 9 q-34 18 -67 35 q19 30 30 62 q9 46 8 95 q-3 14 -11 25 q-21 13 -45 14 q-16 1 -32 0 ZM165 379 q2 -66 7 -130 q-51 0 -101 1 q6 -18 28 -30 q37 0 74 2 q-40 -36 -78 -80 q-9 -10 -8 -25 q10 -12 23 -23 q7 -3 16 -3 q17 39 47 73 q-1 -58 -12 -113 q7 -7 15 -15 q6 -4 15 -4 l5 5 q3 77 11 151 q19 -22 42 -47 q7 -5 18 -5 q8 5 7 14 q-21 31 -48 55 q-9 7 -17 11 q-1 3 0 7 q20 4 42 3 q6 6 3 15 q-20 12 -43 9 q-2 58 -1 115 q-2 4 -5 6 q-20 8 -40 8 Z" /><glyph glyph-name="" unicode="&#x6761;" d="M102 73 q12 -16 29 -28 q53 10 102 32 q0 7 -2 12 q-19 11 -43 10 q-44 -13 -86 -26 ZM318 101 q11 -17 30 -28 q27 0 54 -5 q11 -4 22 -10 q8 -1 13 5 q2 8 -2 13 q-24 15 -51 20 q-35 8 -66 5 ZM243 207 q9 -26 9 -54 q-63 -3 -127 -3 q8 -14 23 -26 q6 -2 14 -4 q47 2 94 8 q3 -23 3 -47 q-1 -13 -7 -27 q-9 -10 -20 -14 q-16 3 -30 5 q-4 -1 -3 -5 q10 -9 21 -21 q16 -9 38 -7 q10 4 20 9 q14 15 17 34 q1 38 2 76 q27 4 55 1 q14 -3 28 -11 q6 -1 10 3 q2 8 -2 13 q-15 10 -32 13 q-29 5 -60 4 q-3 22 -7 42 q-7 7 -15 10 q-18 5 -31 1 ZM175 398 q-37 -60 -83 -117 q4 -12 17 -22 q7 -4 17 -4 q21 34 53 65 q9 -9 23 -9 q50 31 103 55 q13 4 27 4 q1 -8 -1 -17 q-7 -12 -15 -24 q-21 -22 -43 -42 q-15 -11 -30 -20 q-21 12 -45 16 q-14 1 -23 0 q8 -10 19 -21 q13 -6 23 -11 q-25 -12 -50 -23 q-48 -14 -93 -28 q10 -14 26 -22 q27 8 55 17 q49 19 97 43 q39 -20 80 -37 q47 -13 93 -31 q4 2 6 6 q1 10 -7 15 q-44 17 -88 28 q-31 15 -60 31 q45 31 86 72 q11 18 10 39 q-4 14 -15 23 q-12 6 -24 8 q-25 4 -48 0 q-35 -9 -67 -24 q2 7 3 16 q-2 4 -5 7 q-20 9 -41 7 Z" /><glyph glyph-name="" unicode="&#x6765;" d="M229 383 q3 -30 5 -62 q-60 -1 -121 -1 q-23 -2 -44 -6 q9 -20 30 -29 q26 3 52 6 q4 -28 11 -56 q7 -10 18 -19 q-63 0 -128 1 q4 -19 28 -31 q50 3 102 4 q-60 -39 -114 -92 q8 -14 23 -26 q6 -3 15 -3 q36 33 70 71 q24 21 53 31 q8 3 15 -1 q1 -61 1 -125 q10 -10 23 -18 q8 -1 12 5 q-11 67 -8 136 q14 1 30 -2 q27 -7 53 -19 q41 -33 83 -66 q7 0 13 5 q2 4 2 8 q-37 41 -82 69 q-45 22 -94 31 q67 7 136 4 q19 -2 37 -11 q6 0 10 4 q0 8 -6 13 q-26 10 -54 13 l-40 0 q9 15 18 32 q3 14 3 28 q-4 11 -14 14 q-18 4 -33 3 q1 -9 1 -19 q-8 -27 -27 -50 q1 -5 2 -10 q-18 0 -35 -1 q1 41 1 84 q31 6 66 4 q35 -1 71 -5 q5 4 5 12 q-16 13 -37 13 q-53 0 -104 -2 q-2 23 -1 46 q-3 6 -7 10 q-20 9 -40 7 ZM235 297 q4 -39 6 -82 q-17 -1 -34 -1 q-7 31 -9 65 q-12 13 -25 15 q31 2 62 3 Z" /><glyph glyph-name="" unicode="&#x679c;" d="M213 386 q-27 -12 -48 -34 q-24 -24 -35 -57 q-5 -19 -1 -38 q3 -6 7 -14 q21 -27 50 -43 q33 -11 68 -17 l0 -14 q-51 -1 -101 -1 q-30 3 -59 6 q3 -13 18 -24 q8 -5 18 -8 q28 -1 58 -1 q-32 -27 -64 -60 q11 -17 29 -29 l11 0 q28 31 60 65 q14 9 31 8 q-1 -42 -3 -86 q8 -7 18 -17 q8 -3 15 2 q-1 49 -2 96 q34 -12 69 -29 q25 -20 50 -39 q7 0 12 4 q4 9 -2 17 q-23 20 -47 34 q-42 21 -82 40 q30 5 61 9 q32 2 63 -3 q5 4 4 12 q-17 11 -37 12 q-46 -1 -89 -6 q-3 9 2 16 q14 3 28 5 q28 9 53 25 q16 13 29 29 q11 17 14 37 q0 19 -2 35 q-11 23 -32 37 q-22 13 -46 19 q-43 9 -85 18 q-17 -2 -33 -6 ZM161 270 q3 -4 10 -7 q39 1 77 5 q4 -31 5 -64 q-21 -1 -42 2 q-25 9 -43 29 q-11 16 -7 35 ZM375 279 q-3 -14 -12 -27 q-11 -11 -21 -21 q-26 -17 -56 -24 q-1 31 1 63 q43 7 88 9 ZM240 354 q4 -27 7 -55 q-38 -3 -76 -4 q10 20 32 37 q17 13 37 22 ZM325 356 q27 -4 47 -23 q7 -14 8 -31 q-44 0 -91 -3 q-1 28 -4 51 q18 8 40 6 Z" /><glyph glyph-name="" unicode="&#x67b6;" d="M163 338 q-30 -4 -58 -13 q-25 -7 -43 -25 q6 -11 18 -22 q8 -7 21 -6 q22 20 49 27 q-16 -28 -32 -55 q10 -13 25 -21 q5 0 11 1 q26 45 51 91 q21 5 41 -3 q2 -7 4 -16 q0 -19 -7 -38 q-12 -14 -26 -26 q-25 -13 -47 -17 q10 -10 22 -21 q7 -4 18 -3 q11 5 23 11 q3 -17 3 -34 q-78 -1 -150 -11 q10 -16 27 -27 q12 -1 25 0 q-16 -22 -20 -51 q10 -9 21 -21 q8 -5 19 -4 q11 26 22 52 q5 9 14 16 q11 4 21 9 q1 5 0 9 q10 3 21 3 q5 -47 3 -97 q7 -9 17 -18 q6 -4 16 -3 q3 3 5 6 q-3 59 3 116 q5 3 13 3 q7 -8 17 -18 q22 -8 44 -18 q21 -16 39 -40 q8 -6 20 -5 q5 4 6 10 q-3 8 -6 14 q-23 25 -50 42 q-19 10 -38 17 q50 11 105 7 q5 -4 13 -6 q8 4 6 14 q-14 12 -32 12 q-69 -2 -136 -8 q1 20 -9 34 q-14 4 -22 8 q11 9 20 19 q12 22 18 43 q-1 -11 5 -20 q12 -11 24 -23 q19 -9 45 -7 q29 7 53 28 q19 17 27 37 q1 14 0 28 q-5 9 -12 16 q-10 7 -20 11 q-43 10 -85 14 q-11 -2 -20 -8 q-10 -13 -15 -28 q-3 -15 -3 -32 q-5 11 -13 25 q-14 13 -30 17 q-15 4 -30 4 q2 17 7 34 q-3 5 -6 8 q-19 7 -39 8 q-8 -24 -13 -49 ZM381 328 q11 1 22 -2 q4 -8 3 -20 q-7 -21 -26 -37 q-17 -11 -36 -19 q-8 1 -14 -1 q-8 11 -5 25 q3 15 7 30 q5 12 16 21 q12 2 27 -2 q3 2 6 5 Z" /><glyph glyph-name="" unicode="&#x67e5;" d="M100 52 q-7 0 -8 -6 q13 -17 31 -26 q73 10 148 16 q74 3 148 -2 q7 4 7 12 q-5 9 -14 11 q-13 2 -24 4 q-145 -1 -288 -9 ZM238 387 q3 -23 4 -48 q-89 -7 -177 -4 q6 -21 30 -31 q46 2 90 4 q-41 -28 -77 -64 q-4 -5 -5 -11 q10 -11 22 -22 q7 -4 17 -4 q23 27 51 55 q24 21 51 37 q7 -42 3 -88 q-43 -1 -81 -10 q-21 -10 -36 -28 q-10 -11 -14 -27 q-5 -20 2 -40 q13 -14 29 -28 q24 -12 53 -16 l54 0 q43 5 85 14 q20 9 40 20 q14 12 19 28 q1 20 -8 34 q-10 12 -21 22 q-22 16 -45 25 q-21 2 -40 7 q-5 42 1 83 q25 -7 47 -26 q16 -20 37 -41 q7 -5 17 -5 q9 4 7 14 q-21 27 -47 49 q-31 23 -60 33 q24 3 49 5 q54 2 105 -6 q8 8 0 16 q-16 6 -32 8 q-60 -1 -121 -3 q-4 17 -2 35 q-3 5 -6 8 q-22 9 -41 5 ZM340 176 q13 -7 21 -21 q6 -16 -2 -31 q-21 -21 -47 -31 q-25 -5 -49 -10 q-41 -1 -84 2 q-13 4 -22 13 q-6 12 -5 25 q56 7 115 12 q23 1 46 -1 q3 3 6 6 q0 8 -5 12 q-16 6 -31 8 q-56 -1 -112 -2 q1 6 9 11 q15 11 35 14 q64 4 125 -7 Z" /><glyph glyph-name="" unicode="&#x6807;" d="M232 252 q-5 -1 -4 -7 q12 -16 30 -26 q33 6 69 7 q2 -27 4 -54 q-17 7 -36 8 q-31 -20 -54 -45 q-4 -6 -4 -14 q11 -12 24 -25 q7 -5 18 -4 q8 8 6 18 q19 28 47 42 q1 -26 1 -57 q-6 -11 -15 -21 q-22 8 -46 9 q9 -21 30 -37 q16 -9 37 -8 q16 5 30 17 q6 10 10 20 q1 39 -2 76 q33 -19 66 -46 q6 0 12 3 q2 5 2 11 q-13 19 -32 32 q-22 16 -49 18 q-4 29 -4 60 q42 5 82 -4 q7 3 7 12 q-7 12 -19 15 q-104 5 -210 0 ZM300 334 q-32 -2 -62 -9 q12 -16 30 -27 q42 2 82 10 q38 3 75 -2 q3 3 7 6 q1 9 -5 14 q-18 8 -37 9 q-46 0 -90 -1 ZM123 361 q1 -50 4 -102 q-29 -2 -56 -7 q8 -16 26 -28 q13 -1 26 1 q-21 -22 -41 -48 q-21 -23 -31 -50 q12 -15 30 -26 q7 0 14 3 q14 28 31 54 q-2 -39 -1 -81 q10 -10 23 -23 q7 -3 16 -3 q4 3 7 7 q0 73 -2 141 q12 -13 19 -28 q14 -17 32 -30 l10 0 q7 5 7 13 q-14 26 -32 49 q-24 14 -38 28 q23 3 47 3 q4 3 7 7 q0 8 -4 12 q-23 10 -49 7 q-3 50 4 98 q-6 10 -16 12 q-15 2 -28 4 q-5 -5 -5 -13 Z" /><glyph glyph-name="" unicode="&#x680f;" d="M173 114 q5 -12 18 -23 q9 -6 20 -9 l162 0 q34 -2 69 -6 q4 2 6 6 q1 9 -5 13 q-16 6 -33 8 q-123 0 -237 11 ZM209 203 q12 -16 30 -26 q83 8 173 10 q11 -1 22 -5 q7 1 11 7 q1 8 -4 12 q-19 8 -38 10 l-105 0 q-51 -3 -89 -8 ZM227 353 q-2 -20 5 -39 q9 -11 21 -22 q6 -4 16 -4 q3 3 7 6 q-1 28 -8 51 q-20 9 -41 8 ZM104 359 q1 -43 6 -86 q-33 -4 -68 -4 q4 -14 20 -26 q15 -6 33 -3 q-28 -38 -48 -82 q-3 -9 -4 -19 q11 -12 24 -24 q7 -2 17 -2 q13 44 34 78 q6 -59 0 -119 q7 -6 15 -15 q11 -9 22 -1 q-2 80 -6 160 q11 -14 16 -35 q12 -14 28 -25 l11 0 q6 6 5 14 q-16 33 -29 65 q-6 8 -13 13 q13 2 23 9 q1 9 -5 14 q-18 6 -36 8 q1 33 1 65 q-4 9 -13 12 q-18 3 -33 3 ZM366 317 q-14 -11 -25 -22 q2 -3 2 -9 q-74 -2 -147 -4 q7 -20 30 -31 q80 8 163 11 q36 -5 74 -8 q7 5 6 13 q-3 5 -7 8 q-32 8 -65 8 q9 10 19 23 q7 20 6 42 q-19 13 -43 14 q-3 -23 -13 -45 Z" /><glyph glyph-name="" unicode="&#x6846;" d="M141 380 q-3 -53 3 -107 q-33 -1 -62 -9 q11 -18 32 -28 q10 1 21 3 q-15 -15 -32 -33 q-16 -20 -28 -44 l0 -14 q9 -10 19 -21 q8 -7 21 -6 q4 3 7 6 q-1 8 -1 14 q9 25 25 46 q6 -67 0 -139 q11 -14 29 -19 q3 3 6 6 q-8 90 -1 179 q1 3 5 2 q23 -44 52 -87 q17 -18 39 -33 q16 -8 33 -14 q52 -9 109 -11 q5 2 9 7 q-1 5 -1 9 q-17 10 -36 11 q-37 -3 -74 1 q-19 5 -35 14 q-9 8 -16 15 q10 -2 24 -5 q70 5 144 4 q4 6 3 14 q-5 6 -11 8 q-27 6 -56 4 q-4 18 -1 36 q21 4 45 1 q3 2 6 5 q1 9 -5 14 q-22 7 -45 9 q1 10 1 20 q-2 5 -6 8 q27 4 56 1 q6 3 8 10 q-2 5 -3 8 q-18 9 -38 11 q-52 -1 -102 -7 q17 22 40 38 q21 15 46 23 q19 -1 38 -5 q6 5 5 13 q-8 13 -22 16 q-24 6 -49 6 q-14 -4 -27 -11 q-33 -20 -57 -52 q-24 -38 -37 -81 q-7 11 -16 18 q-13 5 -25 8 q15 8 36 5 q7 5 6 14 q-18 14 -40 14 q-1 47 4 90 q-2 6 -7 9 q-20 7 -39 6 ZM255 203 q11 -13 26 -21 q21 4 44 6 q1 -12 -1 -26 q4 -3 8 -8 q-38 -1 -77 -1 q-9 25 0 50 ZM274 253 q10 -9 22 -18 q14 -1 26 5 q2 -10 2 -23 q-35 -1 -67 -1 q6 20 17 37 Z" /><glyph glyph-name="" unicode="&#x6848;" d="M182 343 q-47 -6 -90 -21 q-11 -5 -20 -12 q-12 -8 -11 -21 q13 -20 34 -35 q11 -2 17 6 q1 10 -4 15 q2 8 10 13 q26 17 56 22 q-6 -22 -5 -48 q-30 1 -53 -8 q10 -13 25 -26 q12 -2 25 1 q2 -13 8 -25 q13 -16 29 -29 q15 -9 34 -13 q1 -18 4 -39 q-84 -3 -159 4 q9 -12 22 -24 q12 -7 28 -8 q-9 -15 -12 -37 q10 -10 22 -22 q7 -4 18 -4 q9 22 19 44 q14 14 30 21 q16 0 33 1 q3 -23 2 -49 q8 -11 20 -22 q7 -4 18 -3 q2 3 5 5 q-5 35 -4 71 q14 4 30 4 q10 -10 21 -21 q13 -8 28 -13 q8 -11 21 -23 q7 -5 18 -5 q4 3 7 7 q0 10 -4 17 q-14 14 -29 24 q-21 9 -37 16 q43 1 86 -1 q3 2 6 5 q0 8 -5 12 q-13 4 -26 6 q-56 -2 -114 -5 q0 20 -6 36 q10 2 23 1 q0 -3 0 -8 q10 -14 27 -22 q5 0 10 2 q4 15 7 30 l19 0 q16 2 30 12 q1 8 -4 13 q-15 7 -31 8 q-7 -5 -15 -8 q-1 27 2 54 q35 -3 72 -1 q3 5 3 10 q-3 5 -7 8 q-16 4 -31 7 q-17 0 -35 -1 q-1 11 0 23 q-5 8 -14 11 q-17 3 -32 4 q-2 -18 0 -36 q-44 -1 -87 -2 q1 15 5 31 q-2 5 -5 8 q-20 8 -36 10 q27 6 57 8 l86 0 q45 -2 86 -15 q10 -13 25 -23 q12 -2 18 7 q-3 18 -19 29 q-17 11 -35 15 q-44 8 -87 12 q-66 2 -129 -3 ZM304 243 q2 -28 3 -57 q-35 -7 -75 -3 q-10 4 -18 11 q-5 8 -7 16 q-1 12 2 23 q45 10 95 10 ZM209 381 q13 -18 32 -27 q26 2 54 1 q3 3 7 6 q1 10 -5 15 q-19 7 -38 9 q-28 3 -50 -4 Z" /><glyph glyph-name="" unicode="&#x6863;" d="M362 265 q1 -6 2 -14 q4 -6 11 -11 l20 0 q12 8 24 20 q15 19 27 38 q1 10 -6 16 q-19 6 -38 8 q-16 -30 -40 -57 ZM136 353 q1 -55 7 -109 q-33 -3 -64 -10 q6 -12 21 -25 q8 -3 15 -6 q-24 -40 -44 -81 q-4 -12 -7 -26 q9 -11 22 -23 q12 -6 23 1 q5 17 8 34 q13 34 30 65 q3 -54 0 -111 q10 -10 22 -19 q6 0 12 1 q0 66 -2 136 q19 -23 27 -57 q13 -16 33 -26 q5 0 10 2 q3 5 3 12 q-11 21 -20 42 q-19 35 -46 63 q17 6 39 4 q7 5 6 14 l-6 6 q-21 8 -43 7 q-1 45 0 90 q-7 11 -20 14 q-14 2 -26 2 ZM316 254 q-22 19 -31 43 q-20 11 -43 11 q-2 -5 2 -12 q24 -34 57 -59 q-31 1 -61 -2 q9 -18 29 -29 q55 3 110 1 q7 -1 14 -6 q7 -19 9 -42 q-71 9 -145 9 q-6 -1 -10 -4 q10 -20 31 -29 q13 2 27 5 q49 3 93 -6 q-9 -12 -21 -22 q-16 -8 -32 -16 q-47 -6 -95 -8 q3 -16 25 -27 q48 1 96 5 q19 6 38 12 q24 15 37 38 q3 16 2 33 q-3 19 -7 37 q-9 18 -25 31 q-29 15 -59 18 q3 61 12 117 q-3 5 -6 8 q-19 7 -39 8 q-5 -55 -8 -114 Z" /><glyph glyph-name="" unicode="&#x6a21;" d="M134 333 q9 -38 9 -79 q-36 -1 -72 -1 q-5 0 -4 -5 q12 -15 29 -26 q15 0 31 2 q-35 -49 -65 -100 q11 -15 26 -25 q6 -1 14 -1 q21 37 44 74 q5 -57 0 -116 q8 -8 18 -18 q6 -2 14 -1 q-1 70 4 138 q17 -28 42 -52 q8 -5 19 -4 q5 5 4 12 q-32 45 -65 87 q1 4 1 7 q19 4 41 1 q4 2 7 6 q1 8 -4 13 q-20 8 -42 8 q-1 28 1 54 q-6 11 -13 20 q-20 7 -39 6 ZM368 327 q-36 -5 -73 -9 q-1 5 0 11 q-5 9 -14 11 q-16 3 -31 5 q-6 -13 -2 -30 q-14 -1 -28 -3 q3 -13 18 -25 q6 -5 15 -6 q1 -15 13 -26 q-13 -8 -24 -21 q-10 -14 -14 -32 q-1 -12 -1 -25 q3 -9 7 -19 q21 -23 48 -38 q0 -4 -3 -9 l-85 0 q-5 0 -4 -5 q12 -15 29 -26 q21 1 43 3 q-10 -17 -30 -28 q7 -10 19 -21 q7 -4 18 -4 q19 13 37 31 q9 12 17 23 q17 2 36 3 q25 -29 57 -56 q8 -5 19 -4 q7 5 6 13 q-26 21 -43 47 q17 2 34 1 q4 5 3 11 q-14 13 -34 12 q-37 0 -72 -1 l-4 6 q20 5 41 11 q28 15 52 39 q6 12 10 25 l0 25 q-11 23 -28 40 q7 23 8 47 q6 7 17 4 q6 -4 13 -6 q8 0 12 7 l0 8 q-5 9 -14 11 q-13 1 -23 4 q3 20 8 38 q-4 5 -7 8 q-19 6 -38 7 q-10 -26 -8 -57 ZM362 241 q9 -9 23 -8 q8 -16 3 -36 q-5 -10 -12 -20 q-24 -23 -52 -32 q-20 -4 -39 -3 q-14 7 -19 20 q-1 11 0 20 q17 5 36 7 q28 2 54 -3 q3 2 6 5 q2 8 -2 13 q-6 4 -12 7 q-32 7 -66 6 q4 8 14 13 q13 6 27 10 q19 2 39 1 ZM366 299 q-1 -18 6 -32 q-38 7 -76 0 q-4 9 -3 19 q36 7 73 13 Z" /><glyph glyph-name="" unicode="&#x6b21;" d="M70 84 q11 -11 24 -23 q7 -3 16 -3 q32 29 65 57 q1 9 -4 14 q-17 7 -35 8 q-37 -24 -66 -53 ZM64 237 q6 -18 28 -30 q37 2 72 0 q5 2 9 5 q2 10 -4 15 q-23 9 -47 10 q-30 2 -58 0 ZM188 345 q-5 -36 -10 -74 q13 -18 32 -29 q15 -1 29 3 q5 -28 -2 -55 q-16 -37 -40 -71 q-16 -17 -29 -32 q9 -10 19 -19 q5 -2 12 -2 q41 46 74 100 q72 -53 151 -93 q12 -5 22 4 q2 7 -2 13 q-47 18 -89 45 q-38 28 -73 54 q5 35 1 68 q30 6 62 11 q26 1 52 0 q-5 -18 -22 -32 q6 -8 14 -19 q9 -4 21 -5 q20 15 29 37 q2 13 -2 23 q-4 5 -8 9 q-18 8 -37 10 l-46 0 q-62 -5 -122 -15 q3 29 18 55 q0 9 -6 14 q-19 7 -39 8 q-6 -3 -9 -8 Z" /><glyph glyph-name="" unicode="&#x6b22;" d="M252 361 q-11 -46 -31 -90 q-9 22 -30 32 q-18 6 -37 7 q-26 1 -50 -2 q-22 -4 -35 -19 q10 -9 22 -22 q7 -5 18 -4 q16 10 34 17 q19 6 39 3 q7 -22 5 -49 q-7 -33 -26 -64 q-17 14 -31 29 q-19 9 -40 9 q-3 -2 0 -6 q26 -26 55 -51 q-13 -12 -26 -23 q-19 -11 -40 -18 q-9 2 -17 2 q6 -15 23 -25 q14 -2 27 2 q15 8 30 17 q15 13 28 27 q24 -16 51 -28 q7 0 12 4 l0 11 q-26 13 -48 30 q25 34 36 73 q1 18 1 34 q9 -6 21 -16 q5 -1 12 -1 q11 12 24 23 q6 -39 1 -80 q-8 -31 -23 -59 q-17 -24 -42 -43 q-14 -5 -23 -11 q8 -13 22 -21 q21 2 37 18 q31 31 52 66 q48 -40 101 -70 l9 0 q7 4 7 12 q-3 6 -7 10 q-30 17 -58 35 q-21 21 -43 35 q5 15 9 29 q6 51 5 103 q37 10 78 3 q2 -8 3 -18 q-4 -18 -12 -35 q5 -9 14 -19 q10 -2 22 -2 q13 14 18 32 q1 20 -4 37 q-10 15 -25 22 q-22 6 -43 9 q-47 3 -89 -5 q4 18 9 35 q-2 4 -5 7 q-20 8 -40 8 Z" /><glyph glyph-name="" unicode="&#x6ca1;" d="M154 127 q-18 -18 -38 -35 q-21 -14 -42 -27 q8 -11 21 -23 q8 -5 19 -5 q9 5 18 10 q32 29 62 60 q0 12 -10 17 q-16 3 -30 3 ZM72 219 q-5 -2 -8 -6 q9 -16 27 -28 q41 10 88 6 q9 4 7 16 q-7 7 -15 9 q-50 7 -99 3 ZM294 224 q-35 -5 -64 -21 q5 -12 18 -23 q8 -7 21 -6 q23 14 50 21 q16 4 33 5 q2 -12 2 -27 q-4 -18 -12 -36 q-10 -15 -23 -28 q-18 9 -34 17 q-23 7 -46 8 q6 -20 29 -31 q17 0 31 -10 q-16 -13 -35 -23 q-29 -10 -62 -9 q5 -16 23 -25 q32 1 61 11 q23 12 44 28 q28 -14 58 -26 q19 -5 42 -6 q7 3 7 11 q-3 5 -7 9 q-25 6 -49 9 q-18 8 -33 18 q21 20 34 43 q4 12 8 23 q3 22 0 43 q-6 10 -15 17 q-22 8 -45 10 q-19 0 -36 -2 ZM66 300 q11 -19 31 -28 q42 6 85 4 q5 5 4 14 q-8 8 -18 10 q-53 8 -102 0 ZM219 363 q1 -5 3 -9 q-10 2 -18 1 q6 -50 6 -100 q10 -12 24 -23 q4 -1 10 -2 q7 2 9 9 q-4 46 -1 93 q40 13 85 14 q-2 -20 0 -43 q2 -10 8 -20 q11 -10 22 -21 q10 -7 23 -10 q25 -2 50 0 q8 10 -1 18 q-26 11 -56 7 q-10 12 -8 28 q3 26 13 48 q0 7 -3 11 q-18 10 -38 10 q-66 1 -128 -11 Z" /><glyph glyph-name="" unicode="&#x6cb3;" d="M77 232 q11 -17 30 -27 q30 -2 61 2 q4 4 7 7 q1 9 -5 14 q-19 7 -37 9 q-29 -4 -56 -5 ZM258 289 q-8 -3 -14 -10 q-8 -1 -13 2 q-4 -3 -7 -8 q-16 -66 -29 -130 q-6 7 -13 9 q-13 1 -25 3 q-34 -31 -70 -53 q-12 -4 -21 -9 q9 -16 26 -27 q15 -2 29 5 q37 30 74 59 q-4 -15 -3 -33 q8 -12 21 -23 q11 -6 26 -8 q30 0 59 6 q15 6 28 18 q16 28 21 60 q5 49 5 97 q-6 18 -21 29 q-15 7 -31 11 q-22 4 -42 2 ZM307 260 q9 -23 6 -53 q-6 -34 -12 -67 q-5 -11 -11 -22 q-11 -11 -23 -19 q-16 -5 -34 -5 q-2 16 -1 33 q12 60 38 115 q15 14 37 18 ZM99 284 q38 -7 80 -5 q5 2 8 7 q1 9 -4 14 q-19 7 -39 10 q-32 0 -65 0 q2 -12 20 -26 ZM198 336 q8 -8 18 -19 q8 -5 19 -9 q74 4 147 14 q5 -43 9 -87 q-3 -56 -8 -112 q-7 -7 -13 -14 q-11 -5 -20 -7 q12 -18 31 -29 q18 -1 32 9 q15 14 19 32 q-1 104 -6 207 q11 -1 20 5 q1 10 -6 15 q-15 3 -29 6 q-112 -6 -213 -11 Z" /><glyph glyph-name="" unicode="&#x6ce8;" d="M84 70 q6 -10 18 -21 q8 -7 21 -7 q44 41 91 79 q3 12 -7 17 q-15 4 -31 5 q-46 -36 -92 -73 ZM78 226 q11 -17 31 -28 q31 3 63 4 q4 3 6 6 q1 10 -6 15 q-18 5 -36 8 q-30 -2 -58 -5 ZM191 269 q12 -19 32 -28 q34 5 67 8 q2 -23 5 -45 q-41 -5 -82 -7 q11 -17 30 -28 q27 -1 53 3 q2 -25 0 -53 q5 -3 10 -10 q-51 -9 -105 -14 q10 -19 30 -29 q57 7 113 18 q48 2 96 -5 q4 3 6 7 q1 9 -5 14 q-29 10 -59 11 q-22 -1 -44 -2 q-7 35 0 69 q32 7 67 4 q6 3 6 10 q-2 6 -7 9 q-32 8 -66 4 q-1 23 -5 44 q-5 4 -10 6 q18 7 40 9 l37 0 q9 -6 21 -8 q8 5 6 15 q-21 15 -46 17 q-98 -3 -190 -19 ZM66 322 q6 -19 28 -29 l74 0 q5 5 4 14 q-8 10 -19 11 q-45 6 -87 4 ZM266 356 q11 -15 28 -25 q27 3 53 10 q3 10 -4 17 q-19 7 -37 9 q-25 1 -40 -11 Z" /><glyph glyph-name="" unicode="&#x6d0b;" d="M153 120 q-12 -13 -25 -25 q-27 -12 -51 -31 q5 -12 18 -23 q8 -7 20 -7 q34 23 67 54 q17 29 36 58 q0 8 -5 12 q-16 7 -34 8 q-14 -22 -26 -46 ZM84 229 q10 -18 30 -30 q26 8 55 11 q6 5 5 15 q-9 10 -21 11 q-19 2 -37 2 q-17 -2 -32 -9 ZM79 318 q6 -11 17 -21 q8 -7 21 -8 q6 4 13 9 q24 4 51 5 q5 3 9 7 q0 8 -6 13 q-42 11 -88 7 q-10 -4 -17 -12 ZM360 381 q-7 -16 -8 -37 q-6 -10 -12 -21 q9 -7 14 -18 q-41 0 -79 1 q0 22 -9 41 q-20 9 -40 8 q-2 -13 3 -27 q9 -10 21 -21 q-24 -1 -47 -3 q-3 -2 -2 -6 q10 -12 23 -23 q7 -5 18 -4 q19 8 42 7 q4 -13 5 -29 q-43 -2 -89 -4 q9 -20 30 -30 q29 4 60 4 q1 -13 1 -29 q-49 -1 -94 -7 q10 -14 25 -25 q33 -2 68 2 q0 -50 0 -106 q9 -8 19 -20 q8 -6 19 -7 q6 2 8 7 q1 67 -3 130 q27 5 58 3 q18 -2 37 -6 q3 2 6 5 q1 9 -6 14 q-18 7 -36 9 q-30 2 -60 1 q-2 14 -1 29 q37 5 75 -1 q3 2 7 5 q2 10 -5 16 q-16 6 -33 7 q-22 -1 -43 -1 q-2 17 -1 34 q41 5 84 3 q3 3 5 6 q0 9 -7 13 q-13 4 -26 6 q13 25 19 53 q0 7 -3 12 q-20 11 -43 9 Z" /><glyph glyph-name="" unicode="&#x6d41;" d="M58 85 q-5 -3 -4 -9 q7 -9 17 -19 q8 -7 21 -7 q37 19 75 36 q4 5 3 12 q-5 7 -11 9 q-15 2 -28 4 q-36 -14 -73 -26 ZM58 218 q12 -18 31 -27 q35 9 75 4 q5 5 5 12 q-3 6 -7 9 q-42 11 -88 10 q-11 0 -16 -8 ZM56 301 q-7 -3 -8 -9 q12 -15 30 -26 q38 7 79 7 q8 5 7 15 q-6 8 -15 10 q-46 6 -93 3 ZM181 311 q2 -14 20 -27 q6 -4 15 -4 q-10 -21 -11 -49 q12 -13 26 -27 q-1 -35 -8 -68 q-6 -15 -11 -30 q-10 -17 -25 -31 q5 -11 16 -20 q6 -4 15 -5 q22 20 36 46 q4 16 12 30 q9 34 13 69 l21 0 q3 -41 3 -89 q-3 -16 -6 -33 q6 -8 15 -17 q7 -5 17 -7 q6 2 10 8 q6 69 10 139 q5 1 12 1 q1 -59 17 -114 q12 -13 26 -26 q13 -6 31 -5 q19 9 29 28 q-2 11 -5 21 q-16 6 -32 0 q-7 -8 -15 -16 q-6 9 -6 19 q1 50 0 97 q11 4 22 8 q5 5 8 10 q0 13 -2 23 q-6 10 -13 18 q-17 8 -36 9 q11 -15 15 -34 q-8 -8 -17 -11 q-15 -3 -30 -6 q-54 -1 -105 3 q-1 22 14 39 q18 15 33 27 q35 4 70 9 q37 1 76 0 q3 3 5 7 q-2 10 -11 13 q-13 2 -24 4 q-115 -6 -230 -9 ZM236 360 q-5 -1 -5 -6 q12 -17 31 -26 q35 7 74 5 q5 2 8 7 q0 9 -7 14 q-17 5 -34 7 q-33 1 -67 -1 Z" /><glyph glyph-name="" unicode="&#x6d45;" d="M114 79 q-11 -11 -15 -25 q13 -16 30 -27 q7 0 13 2 q6 11 12 22 q25 35 57 63 q5 10 -3 17 q-16 7 -34 8 q-31 -30 -60 -60 ZM97 232 q-5 -3 -9 -7 q10 -13 25 -26 q32 1 68 6 q3 5 4 9 q-2 7 -7 11 q-18 7 -37 8 q-23 -1 -44 -1 ZM80 314 q9 -17 28 -28 q37 3 76 3 q4 4 7 7 q1 10 -6 14 q-12 6 -25 7 q-41 5 -80 -3 ZM322 355 q6 -12 19 -23 q8 -6 20 -6 q14 10 33 7 q6 5 8 11 q-3 9 -10 12 q-17 5 -34 7 q-21 2 -36 -8 ZM249 306 q-21 1 -39 -3 q5 -13 21 -26 q11 -6 25 -3 q5 -21 11 -43 q-26 -3 -43 -15 q12 -18 31 -27 q11 2 22 6 q12 -29 26 -58 q-34 -16 -59 -40 q8 -9 19 -20 q8 -6 19 -6 q22 15 46 31 q23 -25 50 -42 q21 -11 48 -12 q4 3 6 7 q0 9 -7 13 q-26 4 -47 14 q-19 14 -34 31 q28 23 62 36 q2 12 -7 17 q-16 6 -34 5 q-21 -12 -42 -23 q-14 27 -17 55 q29 8 59 14 q22 1 44 2 q8 6 5 15 q-16 11 -36 11 q-40 -4 -79 -9 q-6 20 -7 41 q56 10 118 9 q6 5 5 13 q-4 7 -11 9 q-56 4 -114 -1 q-3 30 -2 60 q-5 9 -13 11 q-16 4 -32 5 q-2 -39 6 -77 Z" /><glyph glyph-name="" unicode="&#x6d4f;" d="M77 249 q6 -18 27 -29 q27 -1 54 2 q6 5 5 13 q-10 12 -25 13 q-30 2 -61 1 ZM209 292 q-17 -1 -29 -7 q12 -19 32 -28 q34 8 71 9 q7 -29 3 -61 q-5 -12 -11 -24 q-11 8 -20 16 q-22 10 -47 10 q5 -12 18 -23 q18 -7 34 -23 q-8 -12 -21 -21 q-27 -16 -58 -22 q-1 9 -7 15 q-18 7 -38 7 q-38 -5 -65 -23 q8 -10 18 -20 q9 -7 22 -6 q31 15 66 25 q8 -8 18 -19 q8 -6 20 -5 q21 8 41 17 q15 13 31 23 q14 -21 37 -25 q8 5 7 14 q-15 15 -28 28 q9 14 19 28 q10 29 9 62 q9 -13 9 -36 q12 -17 31 -26 q10 0 14 9 q-1 24 -8 45 q-22 16 -46 13 q-3 14 -6 24 q14 1 29 -1 q8 4 7 13 q-4 7 -11 9 q-70 8 -141 3 ZM74 317 q-3 -1 -2 -5 q12 -17 30 -26 q32 7 66 1 q8 6 5 15 q-11 11 -25 12 q-37 7 -74 3 ZM396 330 q8 -63 8 -132 q-6 -45 -25 -87 q-6 -8 -15 -14 q-12 1 -22 0 q5 -11 16 -20 q8 -5 18 -8 q10 0 20 2 q6 5 13 9 q9 18 15 36 q12 51 18 105 q0 51 0 100 q-6 5 -11 8 q-21 8 -35 1 ZM203 333 q9 -10 21 -21 q7 -5 18 -5 q14 9 33 6 q4 3 7 7 q0 7 -3 12 q-10 6 -20 8 q-22 2 -43 2 q-11 0 -13 -9 Z" /><glyph glyph-name="" unicode="&#x6d77;" d="M68 242 q7 -18 28 -30 q38 2 76 3 q8 7 3 17 q-18 9 -37 11 q-35 1 -70 -1 ZM255 295 q-16 -3 -30 -8 q-4 -3 -3 -8 l6 -6 q-14 -12 -23 -27 q-13 -26 -21 -53 q-38 -2 -71 -11 q11 -17 31 -28 q15 1 29 5 q4 -5 0 -12 q-13 1 -23 4 q-38 -34 -80 -68 q9 -19 31 -30 q6 0 12 2 q32 33 65 63 q11 -9 23 -21 q17 -8 36 -13 q44 -10 93 -13 q-8 -17 -17 -35 q8 -7 16 -16 q6 -5 16 -5 q18 24 24 54 q28 4 54 15 q13 9 24 19 q8 12 8 26 q-15 11 -35 11 q-2 -11 -9 -21 q-15 -17 -33 -22 q12 43 28 82 q14 0 28 -3 q3 3 5 5 q0 6 -4 10 q-12 7 -25 7 q0 25 1 54 q-2 17 -10 30 q-8 9 -17 13 q-20 3 -38 7 q-44 -2 -91 -7 ZM366 181 q-11 -46 -28 -91 q-23 0 -44 1 q-42 6 -79 21 q-6 5 -7 11 q0 25 12 44 q14 2 29 4 q10 -13 25 -26 q25 -4 53 -1 q6 2 8 8 q0 8 -5 12 q-26 9 -49 11 q41 5 85 6 ZM367 276 q3 -14 5 -29 q2 -24 -3 -47 q-69 0 -136 -3 q8 25 32 44 q10 -11 25 -22 q22 3 48 4 q9 6 6 16 q-8 9 -19 11 q-21 2 -39 3 q2 5 2 11 q37 13 79 12 ZM58 332 q10 -19 31 -30 q43 2 86 0 q5 2 9 6 l0 9 q-8 10 -20 11 q-53 5 -106 4 ZM201 392 q-8 -19 -4 -42 q9 -12 23 -25 q12 -7 26 -10 q75 0 149 5 q19 5 40 8 q5 5 4 12 q-5 5 -10 8 q-15 4 -30 4 q-16 -4 -30 -9 q-63 -4 -125 -2 q-5 5 -3 12 q6 13 8 26 q-3 5 -6 8 q-21 9 -42 5 Z" /><glyph glyph-name="" unicode="&#x6df1;" d="M78 82 q-6 -6 -4 -13 q10 -11 22 -22 q7 -3 16 -3 q36 41 69 84 l0 8 q-8 9 -16 12 q-12 1 -22 1 q-29 -36 -65 -67 ZM277 190 q-47 -6 -88 -9 q9 -11 21 -22 q9 -3 17 -7 q-13 -11 -26 -21 q-9 -12 -16 -23 q6 -11 19 -22 q8 -7 20 -6 q23 31 56 53 q4 -35 1 -71 q11 -13 27 -20 q7 0 11 5 q-2 46 -1 90 q24 -4 46 -21 q11 -12 22 -22 q6 -4 15 -5 q6 2 10 8 q-1 16 -15 25 q-37 25 -76 41 q34 7 72 7 q19 -1 37 -7 q7 4 6 12 q-6 8 -14 11 q-50 8 -102 5 q-1 21 4 39 q-5 9 -14 12 q-16 4 -31 5 q-8 -26 -1 -57 ZM73 252 q11 -17 29 -27 q31 2 62 0 q8 4 7 14 q-5 8 -12 10 q-44 10 -86 3 ZM335 283 q21 -34 56 -58 q12 -5 20 4 q1 7 -2 12 q-20 16 -33 36 q-22 11 -41 6 ZM67 322 q11 -18 31 -28 l58 0 q8 4 7 13 q-7 10 -17 12 q-42 7 -79 3 ZM238 359 q-23 -7 -43 -21 q-15 -10 -24 -26 q-1 -6 -1 -12 q10 -16 27 -31 q7 -6 17 -6 q-5 -7 -8 -18 l17 -18 q7 -6 19 -5 q23 36 56 68 q1 11 -7 16 q-19 7 -38 8 q-19 -16 -29 -38 q-6 7 -8 14 q6 14 19 24 q19 16 42 23 q42 9 90 6 q17 -2 33 -8 q5 -24 2 -51 q8 -9 19 -20 q7 -5 18 -5 q3 3 7 6 l0 35 q-3 18 -10 33 q-15 16 -32 22 q-32 7 -65 11 q-53 3 -101 -7 Z" /><glyph glyph-name="" unicode="&#x6e38;" d="M59 225 q7 -11 18 -22 q6 -4 14 -7 q29 7 61 5 q8 5 7 15 q-5 8 -13 10 q-16 2 -30 5 q-30 1 -57 -6 ZM48 315 q3 -17 25 -30 q48 4 95 15 q1 6 0 12 q-19 12 -42 12 q-39 -6 -78 -9 ZM202 366 q-4 -3 -5 -8 q12 -16 31 -27 q27 9 59 12 q7 4 7 12 q-3 6 -7 9 q-17 6 -35 8 q-26 -3 -50 -6 ZM332 298 q-16 6 -34 7 q-64 -1 -126 2 q7 -19 30 -31 l0 -66 q-3 -25 -8 -50 q-6 -12 -13 -25 q-18 7 -37 8 q-30 -33 -63 -60 q-12 -7 -24 -14 q5 -12 18 -23 q8 -7 21 -7 q10 7 21 14 q33 35 67 68 q10 -12 25 -15 q10 8 16 21 q13 40 20 82 q20 9 43 15 q4 -30 1 -60 q-5 -15 -13 -30 q-9 -10 -18 -18 q8 -18 28 -26 q5 1 9 3 q15 17 24 37 q5 -3 12 -11 q8 -5 20 -4 q13 10 30 11 q5 -25 3 -51 q-4 -11 -13 -18 q-12 -5 -26 -6 q9 -18 28 -28 q21 0 39 10 q7 8 11 16 q2 41 0 81 q17 2 36 1 q3 3 5 6 q0 8 -5 12 q-19 9 -41 8 q11 23 24 49 q1 13 -5 21 q-31 15 -69 12 q-14 -1 -25 -9 q-4 -4 -1 -9 q11 -15 28 -24 q8 1 15 1 q-8 -7 -14 -17 q0 -12 5 -23 q-27 -1 -51 -6 q2 17 5 32 q1 25 -3 47 q-5 7 -11 13 q-32 12 -66 8 q-2 13 0 25 q42 4 83 2 q9 -9 20 -20 q8 -4 19 -7 q40 4 81 3 q7 5 6 13 q-2 4 -5 7 q-18 7 -36 8 q-24 0 -46 -3 q6 47 22 91 q-3 6 -7 9 q-18 7 -38 7 q-15 -41 -17 -89 Z" /><glyph glyph-name="" unicode="&#x6e90;" d="M230 98 q10 -15 27 -27 q6 -1 13 -1 q20 21 44 31 q5 6 5 13 q-3 6 -8 9 q-18 6 -37 7 q-24 -13 -44 -32 ZM58 108 q8 -14 23 -26 q7 -3 16 -3 q37 16 72 40 q3 5 3 10 q-5 9 -14 11 q-14 1 -26 3 q-36 -21 -74 -35 ZM69 258 q12 -15 29 -26 q35 1 69 3 q7 4 6 13 q-4 6 -10 10 q-18 4 -35 6 q-33 1 -59 -6 ZM60 327 q12 -16 30 -28 q34 2 69 3 q7 5 6 14 q-8 9 -18 11 q-45 7 -87 0 ZM202 357 q-5 -1 -3 -6 q5 -5 12 -13 q-3 -37 -2 -77 q-5 -61 -21 -118 q-10 -22 -24 -42 q-9 -9 -19 -17 q4 -9 14 -18 q6 -4 15 -4 q9 8 18 17 q13 25 25 50 q10 31 20 62 q11 -15 30 -33 q15 -11 34 -16 q9 -1 20 -1 q2 -29 1 -58 q-4 -4 -5 -11 q9 -10 21 -21 q7 -4 18 -4 q8 7 10 17 q-1 25 2 50 q12 -14 31 -22 q24 0 47 -6 q8 5 8 13 q-4 8 -10 12 q-36 10 -75 11 q-1 12 -3 22 q27 7 52 21 q13 12 21 26 q3 14 3 28 q-8 29 -25 53 q-10 12 -22 20 q-17 9 -36 9 q0 12 1 25 q-9 8 -16 11 q49 3 99 0 q7 4 7 12 q-2 4 -5 7 q-16 6 -33 7 q-105 -3 -210 -6 ZM345 279 q6 -3 14 -6 q12 0 24 2 q11 -14 19 -33 q6 -22 -2 -44 q-14 -18 -35 -27 q-34 -10 -68 -8 q-9 5 -16 12 q-5 8 -8 16 q-2 17 3 30 q7 -7 17 -10 q11 3 22 6 q36 1 72 0 q4 3 6 7 q0 8 -5 12 q-10 5 -21 7 q-38 3 -77 3 q2 6 10 12 q20 15 45 21 ZM313 333 q-2 -11 -1 -24 q-34 -13 -60 -38 q2 29 5 57 q28 4 56 5 Z" /><glyph glyph-name="" unicode="&#x707f;" d="M117 219 q-7 -3 -14 -2 q-1 12 3 25 q-2 4 -5 7 q-20 8 -41 8 q-8 -14 -2 -30 q14 -16 31 -29 q10 -3 21 -7 q-7 -37 -23 -70 q-17 -23 -38 -33 q7 -8 17 -17 q5 -3 13 -3 q19 11 32 30 q11 24 24 45 q43 -36 89 -67 l10 0 q6 5 5 13 q-43 33 -85 72 q-5 2 -10 2 q0 15 7 29 q32 7 64 15 q3 6 2 13 q-15 12 -36 11 q-10 -3 -20 -6 q4 40 2 82 q-8 10 -18 12 q-14 1 -27 3 q4 -50 -1 -103 ZM326 341 q3 -45 4 -92 q-2 -72 -7 -145 q7 -4 8 -10 q-28 1 -50 14 q-5 5 -7 9 q2 47 4 94 q-3 9 -11 12 q-18 6 -35 4 q1 -45 1 -93 q1 -7 5 -14 q17 -20 40 -34 q21 -7 45 -11 q47 -5 97 -4 q11 4 22 8 q15 13 19 30 q2 24 -3 46 q-11 26 -19 49 q-7 6 -13 10 q-13 3 -24 1 q6 -25 18 -51 q3 -17 3 -36 q-3 -17 -17 -29 q-20 -9 -44 -7 q-5 45 -1 90 q11 69 12 142 q-3 6 -7 10 q-20 8 -40 7 Z" /><glyph glyph-name="" unicode="&#x70b9;" d="M273 69 q8 -10 19 -21 q20 -9 38 -25 l11 0 q7 5 7 13 q-6 12 -16 22 q-9 6 -18 10 q-24 8 -41 1 ZM184 73 q27 -26 59 -53 q7 -4 17 -4 q9 4 7 15 q-17 22 -40 37 q-23 8 -43 5 ZM353 75 q7 -11 18 -21 q24 -10 47 -26 q7 0 12 4 q2 5 2 10 q-9 15 -24 23 q-13 7 -26 10 q-17 4 -29 0 ZM81 57 l0 -7 q12 -17 30 -27 q8 -1 14 4 q12 20 35 29 l0 9 q-5 8 -13 10 q-17 2 -32 5 q-20 -8 -34 -23 ZM212 394 q4 -63 5 -131 q-29 1 -57 -6 q-13 -5 -24 -12 q-14 -11 -25 -24 q-9 -12 -14 -26 q-4 -14 -3 -30 q8 -25 31 -44 q17 -13 36 -22 q14 -3 29 -7 q34 -1 69 0 q26 6 52 14 q22 10 44 21 q18 12 34 29 q8 15 5 33 q-12 21 -32 32 q-52 22 -107 35 q-1 14 0 28 q45 6 96 5 q3 2 6 5 q2 10 -5 15 q-17 6 -34 8 l-60 0 q0 32 0 64 l-5 6 q-21 8 -41 7 ZM289 227 q36 -6 67 -25 q6 -10 5 -24 q-14 -22 -36 -37 q-25 -13 -51 -23 q-20 -3 -39 -7 q-37 -2 -70 5 q-17 9 -29 23 q-4 7 -6 14 q-2 19 5 34 q8 13 21 24 q16 11 34 18 q48 5 99 -2 Z" /><glyph glyph-name="" unicode="&#x70c2;" d="M256 103 q-9 -1 -12 -8 q10 -12 24 -24 q6 -3 15 -3 q19 9 42 9 l112 0 q10 9 3 19 q-19 10 -40 11 q-73 1 -144 -4 ZM338 184 l-88 0 q6 -19 28 -30 q69 2 136 9 q6 4 6 12 q-3 6 -7 9 q-19 6 -40 6 q-18 -4 -35 -6 ZM64 273 q6 -17 13 -36 q14 -19 37 -28 q10 3 11 13 q-9 20 -17 41 q-6 5 -11 7 q-18 3 -33 3 ZM276 317 q-3 -21 7 -39 q11 -9 22 -21 q6 -4 15 -5 q6 3 9 7 q-5 26 -13 51 q-20 8 -40 7 ZM389 343 q5 -23 -3 -46 q-13 -19 -28 -33 q-2 -7 1 -15 q-54 -2 -105 -8 q-2 8 -7 13 q-22 10 -45 8 q-10 -8 -19 -10 q4 34 -3 64 q-7 7 -15 10 q-16 4 -30 3 q8 -46 6 -98 q-4 -31 -13 -58 q-12 -28 -32 -53 q-11 -12 -24 -21 q9 -9 19 -19 q5 -2 13 -2 q6 4 12 9 q23 36 44 68 q14 -25 30 -50 q12 -12 25 -27 q8 -6 20 -7 q9 4 7 14 q-27 36 -46 74 q-17 5 -33 8 q8 20 15 38 q6 -3 16 -3 q20 17 43 29 q10 -14 26 -22 q58 8 117 15 q31 1 60 -6 q8 4 7 13 q-4 5 -9 10 q-18 5 -33 9 q12 11 22 24 q10 20 10 44 q-2 12 -10 19 q-20 5 -38 6 Z" /><glyph glyph-name="" unicode="&#x7231;" d="M74 343 q-8 -1 -8 -8 q9 -11 21 -22 q8 -5 19 -4 q23 10 50 14 q15 -29 39 -57 q-45 -13 -87 -34 q-15 -8 -27 -21 q-3 -4 -3 -10 q11 -12 24 -24 q6 -3 15 -3 q13 23 40 38 q31 19 66 30 q-4 -24 -13 -49 q-23 -1 -45 -1 q4 -15 21 -27 q7 -2 14 -5 q-12 -26 -24 -53 q-19 -23 -36 -49 q10 -12 24 -21 l8 0 q34 47 62 97 q9 -11 23 -18 q23 6 46 14 q23 4 47 5 q5 -10 1 -23 q-5 -9 -12 -18 q-12 -10 -26 -18 q-33 13 -70 14 q6 -17 26 -29 q-43 -7 -82 -13 q10 -14 25 -21 q57 5 111 19 q37 -15 80 -21 q3 3 7 6 q1 10 -6 15 q-27 7 -49 13 q17 9 30 24 q3 7 7 13 q2 15 0 29 q-5 11 -12 20 q-25 14 -54 16 l-43 0 q-20 -2 -38 -8 q0 8 6 14 q29 5 60 8 q28 1 56 -2 q4 2 8 6 q0 7 -2 12 q-17 8 -35 9 q-38 0 -74 -2 q3 17 8 35 q-11 14 -29 13 q4 3 14 5 q49 5 101 2 q19 -4 37 -14 q14 -15 29 -31 q7 -5 17 -5 q4 3 6 7 q-1 8 -4 13 q-15 18 -33 29 q-18 9 -34 16 q13 17 18 37 l0 39 q-8 11 -20 14 q20 4 43 3 q6 3 6 10 q-5 10 -15 11 q-17 3 -33 2 q-153 -15 -301 -41 ZM346 357 q5 -25 0 -51 q-5 -8 -9 -17 q5 -8 8 -16 q-61 4 -120 -2 q-20 29 -34 60 q31 10 64 15 q3 -19 5 -39 q10 -11 22 -22 q7 -4 17 -4 q3 2 6 5 q-1 29 -6 56 q-7 6 -15 9 q30 5 62 6 Z" /><glyph glyph-name="" unicode="&#x7248;" d="M168 353 q3 -42 1 -82 q-22 -1 -42 -4 q-1 25 -4 48 q-3 5 -6 8 q-18 7 -38 8 q5 -60 7 -129 q-4 -30 -12 -57 q-15 -31 -34 -57 q10 -16 29 -21 q8 6 15 15 q16 31 28 64 q4 17 8 35 q6 -1 16 -1 q27 14 59 17 q2 -20 0 -43 q-9 -33 -16 -67 q9 -10 20 -20 q6 -2 13 -2 q7 5 6 14 q8 -10 25 -15 q13 11 23 25 q12 27 23 54 q7 30 13 60 q8 -6 22 -7 q16 15 36 22 q22 10 49 11 q4 -14 4 -31 q-5 -23 -14 -46 q-10 -15 -23 -29 q-23 16 -46 27 q-17 2 -30 1 q8 -10 19 -21 q19 -10 38 -23 q-17 -12 -36 -20 q-20 -4 -39 -3 q5 -17 25 -26 q22 1 42 6 q20 10 39 23 q26 -19 57 -30 q7 5 6 13 q-21 18 -44 31 q21 26 37 57 q10 28 7 60 q-5 11 -12 20 q-9 6 -17 10 q-26 8 -54 7 q-34 -4 -62 -15 q5 27 -1 51 q51 12 103 20 q19 3 40 2 q7 -4 16 -7 q6 1 9 6 q0 9 -6 14 q-21 8 -43 10 q-82 -3 -164 -16 q4 -12 14 -22 q-8 1 -14 0 q5 -49 1 -101 q-4 -35 -16 -68 q-9 -16 -22 -30 q7 36 14 72 q0 16 -1 30 q-6 12 -16 17 q-18 5 -36 7 q-31 0 -58 -7 q-2 9 -1 18 q42 6 82 3 q3 4 5 8 q19 3 40 2 q4 3 5 7 q0 7 -5 11 q-19 7 -39 8 q-1 29 2 59 q-2 7 -7 12 q-20 8 -40 7 Z" /><glyph glyph-name="" unicode="&#x7279;" d="M230 124 q4 -13 17 -23 q6 -4 14 -7 q39 7 83 5 q6 7 3 15 q-6 5 -11 8 q-53 8 -106 2 ZM124 353 q2 -52 4 -105 q-13 -2 -25 -3 q-4 5 -4 11 q1 31 6 59 q-3 4 -6 7 q-18 7 -38 8 q-8 -30 -3 -63 q2 -8 7 -16 q15 -19 38 -30 q12 -1 26 -1 q1 -16 3 -36 q-41 -13 -84 -21 q7 -19 29 -30 q29 6 56 12 q-3 -43 -5 -87 q9 -7 16 -16 q10 -8 20 0 q-2 56 -2 114 q20 9 40 20 q0 7 -2 11 q-17 8 -36 10 q0 15 1 29 q18 6 39 9 q10 -15 27 -22 q67 13 136 16 q1 -24 7 -48 q-79 -6 -158 -10 q-6 0 -6 -6 q12 -16 30 -26 q67 9 136 17 q6 -34 4 -69 q-5 -11 -13 -21 q-12 -7 -24 -11 q-18 0 -35 -1 q2 -12 17 -23 q6 -3 13 -5 q25 2 49 7 q12 7 21 18 q4 10 7 20 q2 45 2 88 q10 0 20 -1 q7 -4 14 -9 q8 -1 13 4 q1 10 -4 16 q-22 10 -45 13 q1 23 -7 40 q-19 7 -34 9 q42 2 86 1 q5 5 4 12 q-6 7 -13 9 q-111 4 -222 -5 q-3 7 -10 10 q-14 4 -28 4 q-12 -3 -24 -7 q0 41 3 83 q-5 8 -12 12 q-18 4 -34 3 ZM295 381 q5 -23 8 -49 q-47 -1 -94 -5 q-8 -1 -9 -7 q13 -18 33 -27 q35 9 73 11 q2 -13 3 -28 q9 -11 21 -21 q9 -1 16 3 l0 48 q47 4 96 0 q5 5 4 13 q-6 6 -14 8 q-43 5 -87 3 q0 24 -7 43 q-22 11 -43 8 Z" /><glyph glyph-name="" unicode="&#x7528;" d="M208 375 q-24 -10 -44 -29 q-24 -23 -40 -52 q-15 -27 -26 -56 q-7 -34 -10 -70 q-1 -27 1 -54 q13 -17 31 -26 q6 0 12 2 q2 39 -1 78 q60 0 124 4 q-4 -51 -10 -104 q9 -11 22 -21 q5 -1 12 -1 q5 4 6 10 l0 114 q20 6 46 4 q30 -2 60 -7 q3 -28 -4 -55 q-7 -17 -16 -34 q-10 -13 -23 -23 q-11 -1 -18 -7 q9 -14 25 -24 l15 0 q11 5 21 12 q16 20 25 42 q6 23 9 46 q-1 62 -3 122 q-4 28 -10 54 q-12 31 -34 54 q-19 15 -41 24 q-40 9 -83 7 q-24 -3 -46 -10 ZM289 236 q51 2 101 -2 q3 -22 2 -47 q-50 9 -105 8 q-3 21 2 41 ZM139 238 q7 -8 18 -14 q48 3 95 10 q3 -17 3 -38 q-61 1 -123 2 q0 21 7 40 ZM247 358 q3 -49 5 -98 q-55 -1 -107 -6 q7 28 27 53 q15 20 37 35 q17 12 38 16 ZM301 364 q14 1 28 -2 q15 -4 29 -16 q17 -25 26 -54 q3 -19 5 -40 q-14 5 -30 7 q-34 0 -69 -1 q0 44 4 88 q4 3 8 7 q-1 7 -1 11 Z" /><glyph glyph-name="" unicode="&#x7684;" d="M270 194 q4 -12 16 -22 q6 -4 14 -8 q41 3 85 3 q5 5 4 12 q-3 5 -6 8 q-11 5 -22 6 q-46 3 -91 1 ZM133 358 q-10 -39 -21 -78 q-9 0 -17 -4 l-12 -12 q-12 -18 -17 -40 q-9 -49 -7 -103 q2 -15 10 -30 q11 -13 27 -27 q17 -10 37 -15 q17 -1 36 0 q22 6 42 20 q22 19 33 43 q3 20 5 39 q-3 18 -5 35 q-10 28 -27 52 q-13 13 -24 22 q-19 9 -36 14 q13 33 22 69 q-3 5 -7 9 q-20 7 -39 6 ZM154 254 q20 -1 37 -14 q15 -22 24 -48 q2 -17 3 -37 q-3 -13 -5 -27 q-7 -13 -15 -26 q-20 -19 -43 -29 q-15 -4 -31 -4 q-12 5 -22 14 q-11 15 -13 33 q0 19 3 37 q6 -1 13 -5 q51 6 105 5 q7 6 6 14 q-8 8 -18 10 q-52 3 -100 6 q5 18 11 35 q8 19 26 31 q10 -1 19 5 ZM257 295 q-20 -27 -35 -57 q5 -9 16 -19 q7 -5 17 -4 q11 17 23 34 q7 -5 18 -5 q10 12 26 16 q30 7 65 5 q8 -3 17 -5 q12 -14 17 -33 q3 -23 3 -48 q-4 -16 -10 -33 q-10 -18 -23 -36 q-20 -20 -44 -32 q-16 -3 -32 -4 q-15 7 -32 7 q5 -14 22 -25 q21 -7 47 -5 q22 5 41 18 q15 15 30 30 q13 20 24 42 q3 17 7 33 q1 36 -7 66 q-8 16 -21 28 q-15 9 -30 15 q-44 10 -88 7 q10 23 23 47 q2 9 -2 16 q-19 10 -41 10 q-13 -34 -31 -68 Z" /><glyph glyph-name="" unicode="&#x7696;" d="M61 285 q0 -3 4 -5 q-15 -26 -21 -56 q-3 -23 -2 -49 q1 -24 11 -46 q20 -25 46 -39 q18 -4 39 -3 q11 4 23 9 q21 16 34 38 q10 27 9 54 q11 -12 28 -23 q13 1 27 2 q-2 -13 -9 -27 q-21 -31 -42 -63 q8 -16 25 -25 l12 0 q31 50 61 94 q0 -20 5 -39 q15 -26 42 -44 q23 -9 49 -4 q18 11 33 28 q10 18 12 39 q-7 10 -18 12 q-11 1 -22 1 q-3 -18 -12 -34 q-15 -16 -33 -22 q-12 8 -13 22 q0 41 5 75 l92 0 q6 5 5 13 q-3 4 -6 7 q-16 6 -33 8 q-104 -4 -208 -13 q-7 36 -25 64 q-10 13 -22 22 q16 7 33 14 q2 11 -6 16 q-17 5 -33 7 q-47 -12 -90 -33 ZM130 270 q7 -1 14 -5 q12 -17 20 -37 q4 -20 4 -42 q-3 -14 -5 -28 q-13 -22 -36 -38 q-13 -6 -28 -7 q-17 13 -19 31 q-4 25 3 47 q5 -4 12 -8 q33 3 67 5 q5 5 4 12 q-3 5 -5 8 q-37 11 -71 8 q7 26 28 48 q6 3 12 6 ZM258 319 q-33 -5 -60 -23 q-17 -12 -17 -31 q9 -11 20 -22 q8 -6 20 -6 q7 6 10 10 q8 -10 20 -20 q6 -3 15 -3 q43 14 93 13 q23 -1 47 -3 q8 4 8 12 q-8 13 -23 14 q-82 3 -157 2 q14 14 32 21 q13 4 27 7 q34 2 70 1 q29 -3 57 -10 q2 -6 4 -14 q10 -9 19 -20 q7 -5 16 -7 q5 1 9 4 q4 15 -3 28 q-7 13 -18 22 q-10 7 -20 11 q-45 10 -90 15 q-40 1 -79 -1 ZM248 353 q10 -18 29 -27 q34 3 70 2 q4 2 6 6 q1 9 -5 14 q-19 7 -37 9 q-34 2 -63 -4 Z" /><glyph glyph-name="" unicode="&#x76bf;" d="M238 314 q-27 -6 -54 -13 q-21 -7 -40 -19 q-18 -13 -31 -30 q-19 -28 -25 -63 q-2 -20 -1 -42 q6 -9 16 -19 q-24 2 -43 1 q12 -19 33 -29 q123 2 248 -3 q5 -5 13 -8 q12 1 22 7 q33 -3 68 -2 q4 3 7 6 q1 11 -7 16 q-17 7 -35 6 q11 17 19 38 q3 26 0 52 q-4 11 -6 21 q-14 30 -34 55 q-20 20 -43 27 q-19 3 -36 6 q-37 -1 -71 -7 ZM176 262 q4 -10 8 -22 q8 -58 10 -116 q-31 2 -60 2 q-4 29 -2 58 q3 12 5 23 q7 22 22 40 q7 9 17 15 ZM277 294 q2 -56 4 -113 q-4 -25 -17 -46 q1 -7 7 -11 q-21 -2 -41 0 q-2 52 -3 104 q-4 19 -10 36 q-9 8 -15 12 q35 14 75 18 ZM331 297 q16 -1 30 -12 q20 -28 31 -62 q1 -16 3 -33 q-3 -25 -19 -45 q-14 -14 -30 -24 q-22 -2 -39 3 q10 33 13 69 q1 44 4 86 q-3 5 -6 8 q-19 7 -33 8 q22 3 46 2 Z" /><glyph glyph-name="" unicode="&#x76ee;" d="M246 346 q-30 -11 -53 -32 q-23 -21 -42 -43 q-12 -24 -17 -55 q-1 -14 1 -29 q7 -31 27 -59 q15 -16 32 -34 q16 -13 34 -23 q21 -8 46 -7 q14 4 28 11 q14 13 27 27 q24 32 42 67 q9 37 8 77 q-3 21 -11 38 q-19 24 -38 45 q-11 5 -20 10 q-31 9 -64 7 ZM294 319 q18 -7 35 -21 q13 -18 19 -40 q2 -33 -5 -65 q-9 -21 -20 -43 q-22 -32 -52 -55 q-16 -7 -33 -9 q-10 4 -18 9 q-20 17 -33 35 q-11 19 -17 38 q58 1 122 6 l5 5 q0 8 -5 13 q-15 5 -29 7 q-50 1 -96 -2 q-1 25 13 46 q68 4 134 8 q5 4 4 11 q-2 4 -5 7 q-16 6 -33 7 q-37 0 -75 -3 q20 23 50 37 q17 10 39 9 Z" /><glyph glyph-name="" unicode="&#x76f4;" d="M193 337 q-46 -4 -89 -9 q9 -11 22 -23 q18 -6 40 -3 q-1 -3 -3 -8 q4 -4 9 -10 q-11 -4 -22 -9 q-10 2 -18 1 q8 -59 9 -123 q-3 -56 -6 -110 q-35 -4 -69 -8 q8 -20 29 -30 q100 14 201 27 q70 1 142 -1 q8 5 6 14 q-6 10 -17 12 q-26 4 -52 3 q-1 84 -1 166 q-5 19 -14 34 q-11 11 -22 20 q-21 10 -43 12 q-44 -2 -84 -4 q8 12 17 22 q24 4 49 6 q39 1 76 -5 q3 2 6 5 q1 9 -4 14 q-23 7 -47 10 q-29 1 -57 -1 q7 22 21 42 q1 10 -5 16 q-19 7 -38 8 q-19 -32 -36 -68 ZM329 196 q3 -45 3 -93 q-2 -17 -6 -34 q6 -3 6 -9 q-81 -4 -159 -15 q-4 17 -2 35 q6 -1 14 -7 q50 6 100 15 q7 5 7 12 q-15 17 -39 16 q-40 -8 -81 -12 q0 12 2 25 q74 0 149 13 q1 10 -5 16 q-17 5 -33 8 q-53 -6 -107 -8 q-1 12 1 25 q68 9 144 7 q4 2 6 6 ZM318 265 q6 -12 10 -26 q0 -18 2 -37 q-9 11 -24 13 q-62 2 -124 1 q-2 12 -1 24 q14 10 31 15 q50 11 106 10 Z" /><glyph glyph-name="" unicode="&#x77e5;" d="M82 280 q12 -11 23 -24 q9 -5 21 -7 q0 -27 -4 -55 q-33 -3 -66 -6 q-7 -1 -7 -7 q12 -15 27 -25 q20 2 40 5 q-4 -29 -15 -57 q-6 -10 -12 -20 q8 -15 25 -24 q5 0 10 2 q20 43 34 88 q14 -12 31 -29 q30 -23 64 -40 q12 -4 19 5 q1 9 -6 14 q-22 8 -41 22 q-21 17 -37 36 q-12 5 -25 5 q-3 4 2 5 q39 4 78 11 q2 7 5 8 q2 -13 8 -26 q13 -20 35 -40 q14 -9 31 -17 q22 -5 46 -3 q17 5 34 13 q12 10 22 19 q21 25 32 53 q3 22 7 43 q1 28 -11 49 q-13 13 -27 19 q-35 9 -72 7 q-13 -3 -25 -7 q-18 4 -36 5 q-14 -4 -25 -13 q-18 -19 -22 -46 q-3 -26 0 -52 q-18 13 -41 11 q-17 -5 -34 -6 q2 20 3 40 q-11 11 -21 14 q40 7 81 9 q8 4 7 13 q-6 8 -14 9 q-52 2 -102 -3 q7 29 8 59 q-19 14 -45 13 q-6 -34 -5 -70 ZM377 281 l31 0 q13 -1 20 -12 q5 -19 5 -41 q-4 -17 -8 -35 q-10 -20 -24 -38 q-10 -8 -20 -18 q-17 -9 -35 -15 q-11 -1 -21 -1 q-21 8 -33 27 q-9 16 -11 34 q-2 33 10 59 q9 17 26 27 q7 -2 17 -2 q20 11 43 15 Z" /><glyph glyph-name="" unicode="&#x788e;" d="M233 333 q-6 -2 -10 -6 q9 -18 30 -29 q10 1 20 4 q-7 -38 -26 -74 q11 -13 26 -23 l11 0 q9 18 19 34 q9 -9 19 -18 q1 -15 2 -32 q-40 -5 -79 -6 q-3 23 -14 41 q-11 12 -22 19 q-26 9 -52 10 q9 19 13 40 q29 3 57 0 q3 3 5 6 q0 6 -4 10 q-16 6 -32 8 q-60 2 -119 2 q-22 1 -35 -8 q12 -17 31 -26 q21 4 44 7 q-20 -62 -58 -118 q7 -8 17 -18 q6 -4 15 -5 q10 12 18 22 q-1 -24 4 -47 q8 -11 21 -23 q10 -7 23 -11 q26 -2 48 8 q13 9 24 21 q11 20 15 42 q8 -6 20 -12 q30 3 60 8 q3 -56 0 -114 q7 -8 16 -17 q7 -5 18 -5 l5 5 q-4 67 1 134 q35 5 71 1 q10 -6 23 -7 q6 5 5 13 q-8 10 -20 13 q-37 8 -77 6 q-1 14 2 28 q8 -6 21 -7 q7 8 13 17 q10 -5 22 0 q9 -13 24 -19 q8 -1 14 6 q0 5 0 9 q-8 11 -17 19 q-14 9 -29 13 q4 9 9 18 q1 9 -5 14 q-20 9 -41 7 q-9 -19 -17 -38 q-19 14 -43 13 q-4 0 6 36 q72 7 143 7 q3 7 -1 13 q-7 5 -14 7 q-110 3 -220 2 ZM187 227 l11 0 q8 -7 12 -18 q2 -14 3 -29 q-3 -20 -12 -39 q-11 -9 -21 -18 q-13 -6 -28 -7 q-5 18 -3 38 q4 29 9 59 q6 -2 17 -3 q6 8 12 17 ZM307 377 q11 -16 30 -27 q28 3 56 10 q2 11 -5 17 q-30 10 -62 8 q-11 -2 -19 -8 Z" /><glyph glyph-name="" unicode="&#x79bb;" d="M74 348 q7 -21 31 -31 l19 0 q-7 -34 -1 -79 q3 -11 11 -22 l22 -22 q19 -13 40 -23 q20 -4 36 -11 q-34 0 -63 -8 q-21 -8 -37 -25 q-8 -10 -13 -23 q-7 -20 -4 -43 q9 -14 24 -28 q7 -6 18 -6 q9 4 8 14 q-9 21 -4 42 q5 20 22 35 q13 10 30 13 q-5 -16 -5 -37 q15 -21 38 -32 q23 -4 49 -3 q28 2 53 14 q7 8 11 16 q3 12 -5 20 q-18 8 -36 6 q0 -7 -2 -13 q-9 -8 -19 -13 q-22 -3 -44 -3 q-4 5 -2 10 q11 23 30 42 l69 0 q17 -4 34 -13 q7 -7 11 -16 q5 -17 5 -38 q-6 -15 -15 -28 q7 -9 17 -19 q7 -4 16 -5 q11 7 17 20 q4 22 1 44 q-4 13 -8 25 q-11 15 -26 27 q-15 9 -29 15 q-26 8 -54 9 q17 7 41 12 q23 11 46 26 q16 15 25 32 q6 21 7 44 q-1 11 -3 18 q-18 12 -39 12 q2 -26 1 -52 q-9 -24 -28 -41 q-13 -7 -25 -16 q-25 -10 -52 -15 q-30 -2 -58 0 q-14 4 -27 7 q-21 9 -37 24 q-9 19 -6 42 q10 -12 26 -20 q40 3 75 17 q19 -13 40 -22 q13 -5 29 -7 q6 4 7 10 q-2 5 -5 8 q-26 8 -49 21 q15 11 32 21 q18 17 32 35 q-1 8 -1 13 q40 -1 80 -4 q6 5 5 12 q-3 4 -6 7 q-16 5 -32 7 q-162 -5 -323 -2 ZM187 320 q19 -24 44 -46 q-20 -11 -43 -16 q-13 0 -23 0 q-1 22 5 42 q-3 6 -8 10 q-16 6 -33 5 q25 6 58 5 ZM297 325 q-19 -22 -43 -39 q-15 14 -27 30 q-10 3 -13 6 q42 6 83 3 ZM217 386 q11 -15 28 -27 q30 2 61 0 q5 2 8 7 q0 12 -9 16 q-18 3 -34 6 q-29 3 -54 -2 Z" /><glyph glyph-name="" unicode="&#x7ad9;" d="M127 308 q-1 -17 1 -34 q9 -12 22 -23 q6 -3 15 -3 q4 3 7 6 q1 20 1 40 q-2 4 -5 7 q-20 8 -41 7 ZM289 351 q4 -64 5 -125 q-28 -9 -49 -33 q-10 -13 -17 -28 q-7 -21 -5 -47 q-14 2 -28 -1 q10 22 20 47 q5 24 3 48 q6 2 14 1 q5 4 6 10 q-2 5 -5 8 q-15 6 -31 7 q-75 3 -141 -1 q5 -10 16 -20 q7 -7 19 -8 q0 -39 6 -76 q5 -8 9 -15 q-24 3 -46 4 q8 -15 24 -27 q38 -7 80 -7 q34 1 68 4 q14 -15 32 -27 q28 -10 61 -9 q18 4 37 7 q22 9 41 27 q10 13 16 27 q4 14 4 29 q-4 20 -13 37 q-8 10 -18 20 q-23 15 -47 22 q-9 0 -16 1 q-2 12 -1 24 q7 -3 16 -8 q47 3 93 4 q9 3 9 13 q-5 8 -13 11 q-51 7 -103 2 q0 34 0 68 l-5 6 q-22 10 -41 5 ZM335 197 q22 -2 43 -5 q6 -9 12 -20 q5 -19 1 -40 q-10 -21 -29 -37 q-20 -12 -43 -16 q-18 -1 -34 0 q-12 5 -20 14 q-9 15 -7 33 q2 15 8 28 q10 16 25 26 q10 8 22 12 q7 -3 17 -2 q2 4 5 7 ZM146 212 l32 0 q3 -25 -4 -48 q-7 -13 -17 -26 q-8 -7 -16 -12 q-4 44 5 86 Z" /><glyph glyph-name="" unicode="&#x7ae0;" d="M208 241 q-38 -11 -68 -37 q-11 -13 -9 -32 q9 -16 25 -30 q8 -6 18 -11 q22 -7 46 -11 l35 0 q1 -5 1 -13 q-75 -5 -146 -8 l-7 -6 q11 -18 32 -28 q59 10 121 16 q1 -18 0 -38 q10 -15 26 -25 q10 -3 19 4 q-1 32 0 62 q50 6 103 3 q3 2 6 5 q2 8 -5 13 q-14 4 -28 6 q-39 -2 -75 -5 q-2 6 -1 13 q20 6 41 9 q22 8 42 21 q12 11 17 25 q1 11 0 20 q-6 12 -16 21 q-14 8 -28 13 q-45 11 -90 19 q-32 1 -59 -6 ZM303 181 q29 1 56 -3 q-1 -4 -5 -9 q-16 -12 -34 -20 q-18 -5 -36 -8 q-49 -2 -93 5 q-8 4 -15 9 q-5 7 -4 13 q66 6 131 13 ZM257 218 q54 -2 105 -13 q6 -6 2 -15 q-6 8 -13 10 q-15 3 -28 5 q-60 -1 -123 -5 q23 15 57 18 ZM74 344 q12 -18 32 -28 q23 2 48 2 q10 -22 31 -37 q-60 -1 -118 1 q6 -12 19 -23 q8 -6 20 -8 q92 4 184 11 q59 0 118 -3 q7 -1 15 -5 q10 1 11 11 q-2 5 -6 8 q-27 11 -59 9 q3 8 9 16 q4 17 -5 28 q32 1 66 -1 q3 3 6 6 q0 7 -4 10 q-14 5 -28 7 q-170 -5 -339 -4 ZM332 326 q0 -11 -10 -21 q6 -11 17 -22 q-66 -3 -134 -2 q-2 18 -4 38 q65 3 131 7 ZM221 389 q10 -17 29 -28 q36 4 72 4 q5 6 4 13 q-3 4 -6 7 q-18 6 -36 8 q-35 3 -63 -4 Z" /><glyph glyph-name="" unicode="&#x7aef;" d="M259 247 q-19 -1 -35 -8 q7 -17 28 -29 q26 6 53 9 q1 -12 1 -27 q5 -6 11 -13 q-29 -4 -56 -4 q-24 -9 -48 -29 q-10 5 -22 4 q6 23 5 51 q-1 11 -10 18 q-19 8 -39 7 q3 -15 5 -33 q-4 -16 -10 -32 q6 -5 12 -12 q-21 -4 -40 -7 q-2 28 -1 57 q-3 6 -7 10 q-19 7 -39 7 q-2 -27 2 -54 q11 -12 24 -24 q-22 -6 -44 -13 q7 -19 29 -30 q59 18 120 31 q-5 -32 -4 -70 q9 -10 20 -21 q7 -5 18 -5 q5 3 8 7 q-1 32 -1 63 q2 12 9 22 q7 10 17 15 q6 -29 7 -63 q8 -9 19 -20 q6 -3 15 -4 q3 3 7 6 q-3 49 -5 97 q18 5 38 5 q3 -38 3 -77 q7 -11 18 -21 q7 -5 18 -5 q4 2 7 6 q-2 26 -2 51 q0 24 8 42 q9 -3 18 -10 q11 -14 18 -31 q1 -9 0 -18 q-13 -12 -24 -22 q6 -8 14 -17 q9 -7 21 -8 q13 7 24 19 q6 12 5 27 q-4 13 -9 25 q-15 18 -33 36 q-14 11 -29 16 q-24 7 -50 7 q-4 22 2 42 q58 6 117 7 q6 10 -2 17 q-16 5 -33 7 q-89 -7 -178 -4 ZM35 261 q8 -20 30 -30 q70 3 139 8 q6 4 5 13 q-5 7 -11 9 q-79 2 -163 0 ZM72 310 q9 -11 22 -24 q22 -4 47 -2 q4 2 7 6 q1 10 -7 16 q-18 5 -37 7 q-19 2 -32 -3 ZM326 299 q7 -7 16 -17 q-16 -4 -31 -3 q-19 3 -34 11 q-6 5 -10 10 q-9 19 -2 39 q-3 6 -7 9 q-19 7 -39 7 q-5 -9 -3 -22 q3 -15 12 -28 q9 -10 21 -22 q15 -12 34 -20 q34 -9 74 -7 q40 7 79 18 q12 5 23 16 q8 24 6 51 q-3 4 -6 7 q-18 6 -36 7 q1 -19 1 -40 q-3 -6 -9 -12 q-21 -11 -44 -17 q-6 38 2 78 q-5 10 -15 12 q-15 2 -29 4 q-7 -37 -3 -81 Z" /><glyph glyph-name="" unicode="&#x7b7e;" d="M331 97 q-10 -10 -20 -22 q2 -5 2 -13 q-8 -2 -17 -2 q-5 28 -12 54 q-19 7 -39 7 q-3 -20 2 -41 q9 -10 20 -21 q-22 -5 -48 -4 q-1 3 0 7 q-22 30 -51 52 q-15 3 -30 3 q22 -34 51 -64 q-51 2 -96 -4 q11 -16 29 -27 q154 10 314 9 q10 5 8 17 q-11 11 -25 12 q-27 3 -55 2 q15 18 24 40 q-1 7 0 12 q-6 8 -15 10 q-15 2 -29 4 q-6 -15 -13 -31 ZM279 326 q-3 -37 -13 -72 q11 -10 16 -19 q-30 2 -61 -1 q-31 -7 -60 -17 q-50 -21 -95 -54 q6 -12 19 -23 q8 -6 21 -5 q12 8 25 17 q11 -18 31 -29 q52 4 101 14 q47 5 94 -1 q9 6 4 16 q-20 12 -44 11 q-93 0 -182 -10 q17 17 41 31 q33 18 73 22 l69 0 q62 -39 124 -77 q5 3 8 8 q0 6 -2 10 q-17 15 -34 29 q-43 27 -85 51 q-12 5 -25 5 q4 27 13 49 q51 -22 104 -40 q7 0 13 5 q1 6 0 11 q-10 10 -21 13 q-14 3 -26 5 q-28 16 -57 26 q27 16 61 26 q15 3 32 2 q6 3 8 10 q-5 14 -20 16 q-18 2 -34 3 q-29 -5 -55 -16 q-1 17 -7 31 q-6 5 -12 8 q-16 2 -31 4 q4 -26 7 -59 ZM88 387 q1 -24 2 -50 q-3 -21 -7 -41 q-10 -23 -21 -46 q8 -10 18 -19 q6 -3 14 -3 q17 27 30 56 q32 -13 64 -29 q29 -9 61 -15 q7 4 7 12 q-3 5 -6 8 q-24 9 -49 13 q-31 14 -55 29 q40 16 82 27 q4 10 -5 17 q-19 6 -39 7 q-25 -6 -49 -14 q-2 17 -2 35 l-7 7 q-20 7 -38 6 Z" /><glyph glyph-name="" unicode="&#x7b80;" d="M223 190 q-30 -11 -55 -31 q-11 -10 -16 -22 q-3 -8 -2 -17 q11 -21 33 -37 q20 -10 44 -14 q30 -1 62 0 q26 4 49 15 q14 14 19 32 q1 15 1 30 q-8 23 -26 41 q-22 11 -46 13 q-31 0 -63 -10 ZM289 170 l20 0 q5 -4 10 -9 q4 -21 -3 -42 q-6 -9 -15 -17 q-14 -6 -27 -10 q-31 -4 -62 0 q-15 5 -22 17 l0 11 q47 7 100 6 q8 5 6 14 q-4 5 -9 8 q-27 6 -55 5 q24 13 57 17 ZM98 51 q7 -9 17 -18 q6 -4 16 -3 q3 3 6 6 q-2 20 -2 39 q8 56 15 112 q-2 4 -5 7 q-19 8 -40 8 q-8 -72 -7 -151 ZM326 257 q-52 -9 -97 -23 q9 -11 21 -22 q8 -5 19 -4 q50 16 105 23 q8 -6 17 -11 q3 -79 2 -156 q-23 -19 -49 -30 q6 -13 20 -24 q7 -5 17 -5 q21 10 42 21 q9 7 16 16 q-1 80 -2 163 q-3 12 -10 21 q-26 17 -52 28 q-24 6 -49 3 ZM125 256 q12 -18 32 -28 l35 0 q4 3 8 6 q2 7 -2 13 q-6 5 -12 7 q-31 9 -61 2 ZM234 293 q7 -7 15 -16 q10 -10 23 -4 q4 17 4 34 q10 -9 24 -17 q8 1 16 2 q28 -14 61 -20 q5 4 6 10 q-3 5 -5 8 q-42 19 -79 33 q30 11 61 18 l27 0 q4 3 6 7 q1 9 -6 14 q-18 5 -35 8 q-35 -3 -69 -13 q-6 16 -3 35 q-9 9 -20 11 q-13 1 -24 2 q0 -55 -2 -112 ZM91 404 q-5 -64 -18 -125 q10 -12 25 -22 l10 0 q6 20 13 40 q4 -3 10 -7 l23 0 q30 -5 58 -15 q5 0 10 3 q2 5 2 11 q-5 7 -12 9 q-45 13 -86 24 q47 4 93 15 q2 8 -2 13 q-18 10 -38 10 q-23 -1 -45 -4 q-1 17 2 33 q-5 9 -13 11 q-17 4 -32 4 Z" /><glyph glyph-name="" unicode="&#x7c7b;" d="M160 331 q17 -23 41 -38 q10 -1 16 6 l0 8 q-15 19 -28 37 q-18 8 -38 8 q-1 -10 9 -21 ZM228 389 q8 -51 9 -107 q-74 -1 -145 2 q8 -17 28 -30 q33 0 69 0 q-41 -27 -85 -58 q6 -13 21 -25 q8 -5 19 -4 q34 25 68 53 q12 8 26 12 q-2 -29 3 -56 q-8 1 -15 2 q-3 -23 -4 -49 q-77 1 -156 2 q-4 -1 -3 -5 q12 -16 29 -26 q61 3 124 5 q-4 -19 -18 -35 q-25 -18 -51 -25 q10 -12 24 -23 q18 -1 36 6 q19 12 36 31 q8 14 16 29 q19 -19 40 -35 q21 -13 44 -25 q9 -4 21 -5 q4 2 7 6 q1 9 -6 14 q-17 6 -32 14 q-26 19 -48 42 q-13 4 -19 8 q90 0 178 4 q6 8 -1 15 q-14 6 -29 8 q-17 -4 -34 -6 q-56 -2 -110 -1 q1 15 0 30 q2 4 7 7 q-2 34 -4 66 q13 0 27 -6 q57 -27 113 -57 q5 3 8 7 q1 8 -4 13 q-49 28 -97 52 q-24 10 -47 18 q64 10 135 5 q3 3 7 6 q0 8 -6 12 q-36 10 -75 4 q16 14 29 34 q4 19 -4 35 q-8 7 -17 9 q-15 1 -27 1 q4 -10 4 -22 q-9 -21 -28 -34 q2 -16 16 -25 q-18 0 -33 0 q4 46 2 91 q-4 6 -8 10 q-20 7 -40 6 Z" /><glyph glyph-name="" unicode="&#x7cfb;" d="M306 110 q12 -14 28 -26 q11 -2 18 4 q34 -2 67 -11 q4 2 6 6 q0 7 -2 11 q-6 5 -11 8 q-46 11 -92 17 q-11 0 -14 -9 ZM98 102 q7 -13 21 -25 q8 -5 20 -4 q42 22 88 33 q1 10 -6 15 q-21 8 -45 6 q-41 -8 -78 -25 ZM279 373 q-96 -19 -191 -38 q9 -16 27 -28 q23 1 45 7 q-13 -14 -21 -33 l0 -12 q11 -15 28 -29 q22 -7 41 -13 q-20 -17 -37 -36 q-4 -6 -2 -13 q9 -8 19 -18 q13 -6 29 -7 q14 1 29 2 q9 -32 9 -68 q-1 -17 -15 -27 q-19 6 -39 8 q4 -14 20 -26 q12 -6 27 -10 l24 0 q8 4 15 11 q11 37 9 79 q-3 19 -5 36 q20 4 41 1 q9 -11 21 -23 q7 -5 17 -4 q3 3 6 6 q-2 24 -14 42 q-5 6 -11 12 q-20 9 -42 10 q1 -10 13 -21 q-55 1 -112 -3 q25 30 60 47 l11 0 q5 4 5 10 q33 18 65 35 q1 10 -5 15 q-20 8 -41 9 q-36 -18 -69 -44 q-31 -1 -56 9 q0 9 5 16 q13 14 28 23 q21 15 49 16 q8 5 6 15 q-5 7 -11 9 q31 15 71 20 q32 6 62 -2 q7 3 6 11 q-14 11 -31 12 q-45 0 -86 -6 Z" /><glyph glyph-name="" unicode="&#x7d22;" d="M333 75 q12 -16 29 -26 q24 -2 45 -16 q10 -2 16 6 l0 10 q-18 14 -38 21 q-25 7 -50 9 q-3 0 -2 -4 ZM158 60 q9 -9 19 -20 q8 -7 20 -7 q28 16 58 27 q4 11 -4 18 q-19 6 -39 7 q-30 -8 -54 -25 ZM207 255 q-21 -14 -38 -32 q-13 -15 -19 -33 q0 -5 0 -12 q11 -13 25 -26 q19 -10 43 -10 q-6 -8 -11 -20 q11 -15 28 -24 q21 -2 41 3 q3 -26 2 -52 q-3 -5 -7 -10 q-16 -7 -34 -6 q6 -12 21 -25 q5 -2 12 -5 q21 0 39 8 q7 8 11 16 q4 40 -1 80 q6 2 14 1 q6 6 5 14 q12 -18 32 -26 q7 1 12 6 q0 18 -15 31 q-22 14 -49 14 q1 -7 9 -16 q-24 3 -50 3 q26 25 62 44 q1 11 -6 16 q-18 7 -38 8 q-27 -12 -47 -34 q-28 -1 -55 0 q-4 16 10 28 q15 14 32 24 q22 10 43 19 l0 11 q-6 7 -13 9 q-18 5 -37 4 q-11 -2 -21 -8 ZM235 407 q2 -25 4 -54 q-74 -4 -142 -14 q10 -20 31 -29 q54 7 109 15 q-1 -10 -4 -23 q4 -2 8 -7 q-24 -3 -55 -4 q-36 -6 -68 -20 q-23 -10 -43 -27 q-7 -9 -6 -21 q10 -12 24 -24 q6 -3 15 -3 q8 11 12 25 q11 11 24 19 q25 15 54 23 q59 7 122 7 q38 -1 74 -12 q3 -7 3 -16 q10 -12 22 -23 q7 -3 16 -4 q5 2 8 7 q1 21 -7 35 q-13 15 -30 21 q-40 11 -81 15 l-48 0 q0 17 2 35 q32 8 68 9 q41 1 82 -1 q3 2 5 5 q1 8 -5 12 q-14 3 -27 5 q-59 -2 -120 -4 q-2 20 -1 40 l-5 6 q-20 8 -41 7 Z" /><glyph glyph-name="" unicode="&#x7d2b;" d="M333 92 q5 -12 18 -23 q8 -7 21 -7 q5 5 12 7 q18 -9 39 -12 q7 4 7 12 q-2 6 -6 9 q-17 7 -33 14 q-21 4 -42 6 q-9 0 -16 -6 ZM145 79 q-3 -2 -2 -7 q11 -15 27 -25 l13 0 q18 16 41 25 q10 2 20 5 q4 6 3 13 q-7 8 -15 10 q-14 3 -27 4 q-32 -7 -60 -25 ZM99 337 q2 -22 4 -45 q10 -14 24 -25 q9 -2 17 1 q7 29 -1 57 q-5 5 -11 8 q-17 4 -33 4 ZM271 302 q6 -16 21 -29 q-51 2 -100 -2 q-4 15 2 26 q5 -3 12 -6 q29 4 57 13 q2 11 -6 17 q-18 5 -36 8 q-12 -2 -25 -3 q0 22 -2 43 q-4 7 -10 12 q-18 8 -39 7 q5 -15 7 -37 q1 -33 -2 -65 q8 -8 17 -18 q-49 -11 -96 -15 q9 -12 22 -24 q13 -6 31 -5 q43 11 85 19 q-25 -22 -42 -50 q-2 -5 -1 -12 q7 -10 19 -21 q10 -7 24 -8 q-2 -5 -2 -13 q11 -12 25 -23 q21 -5 45 -2 q7 -21 7 -46 q-4 -8 -10 -16 q-8 -5 -18 -5 q8 -19 28 -29 q20 -1 35 13 q3 8 6 15 q3 38 -4 70 l28 0 q5 5 9 9 q7 -7 16 -11 q10 -1 17 4 q2 8 -2 14 q-14 11 -26 23 q-17 5 -35 5 q5 -11 13 -22 q-42 5 -83 1 q37 29 76 52 q1 10 -6 15 q-18 7 -38 8 q-27 -9 -47 -31 q-18 -5 -36 -6 q4 14 19 26 q25 21 51 36 q17 7 38 5 q6 3 6 10 q40 -3 84 -2 q3 2 6 5 q1 10 -6 15 q-18 5 -36 6 q-22 -2 -45 -2 q-8 4 -12 10 q-3 11 -2 22 q60 15 125 19 q4 3 6 6 q0 7 -2 11 q-23 10 -50 8 q-38 -4 -76 -8 q0 17 3 34 q-3 5 -6 8 q-19 6 -39 7 q-9 -45 0 -91 Z" /><glyph glyph-name="" unicode="&#x7e41;" d="M339 77 q12 -16 30 -26 q13 2 26 0 q19 -8 40 -13 q7 6 6 14 q-9 12 -22 17 q-31 9 -62 13 q-13 3 -18 -5 ZM149 64 q6 -20 29 -31 q41 13 81 31 l0 8 q-7 10 -18 12 q-15 1 -27 3 q-33 -11 -65 -23 ZM279 396 q-5 -20 -3 -44 q13 -23 38 -35 q23 -2 47 0 q8 3 17 6 q1 -9 1 -21 q-4 -22 -17 -41 q-20 11 -41 16 q-16 4 -27 0 q10 -10 22 -22 q14 -6 29 -13 q-8 -8 -18 -14 q-14 -6 -30 -7 q-16 4 -31 8 q9 1 17 5 q2 5 2 10 q-11 11 -25 12 q2 7 5 12 q8 2 17 -1 q3 3 7 6 q0 10 -7 14 q-6 2 -10 3 q1 23 -8 41 q-20 10 -42 12 q-48 -5 -94 -3 q-23 -9 -40 -30 q-12 -11 -12 -28 q-10 1 -17 -6 q7 -11 19 -22 q35 -13 74 -24 q23 -1 47 -1 q-5 -11 -13 -21 q6 -3 11 -11 q-18 -8 -36 -16 q-16 -11 -17 -29 q11 -12 24 -24 q17 -9 39 -7 q5 -12 20 -24 q23 -7 49 -3 q7 -22 6 -46 q-4 -6 -10 -11 q-16 -5 -30 -8 q11 -18 30 -27 q22 -1 41 8 q9 8 12 18 q1 38 -5 69 q27 -3 54 1 q3 4 3 8 q5 -3 13 -9 q7 0 15 1 q2 4 4 8 q-4 19 -17 32 q-19 6 -39 8 q-1 4 0 8 q11 5 23 8 q5 10 -3 18 q-20 8 -41 9 q-37 -9 -69 -31 q-36 -4 -71 -9 q3 8 13 12 q35 15 73 24 q14 1 29 -1 q5 3 6 8 q17 4 35 8 q23 11 43 26 q11 -6 24 -12 q8 -1 13 6 l0 9 q-9 11 -22 15 q9 17 17 36 q1 18 2 36 q-7 14 -17 18 q19 5 40 5 q5 5 5 11 q-4 9 -13 11 q-19 4 -37 3 q-40 -11 -80 -20 q-2 18 1 37 q-6 8 -13 11 q-17 4 -32 4 ZM351 145 q7 -15 15 -27 q-43 4 -89 1 q13 11 33 19 q21 1 41 7 ZM247 229 l19 0 q-4 -7 3 -14 q-13 1 -27 -2 q0 9 5 16 ZM170 257 q4 -2 3 -6 q-14 2 -29 2 q9 5 26 4 ZM217 264 q0 -6 -4 -13 l-10 0 q-4 5 -2 10 q7 3 16 3 ZM147 301 q9 -4 8 -15 q-15 -1 -29 -3 q7 10 21 18 ZM229 316 q2 -11 -2 -23 q-14 -3 -27 -4 q-5 10 -5 19 q16 5 34 8 ZM95 406 q-14 -14 -14 -33 q10 -11 23 -23 q9 -5 20 -7 q59 9 121 12 q4 2 6 6 q1 9 -5 13 q-17 7 -34 8 q-38 -2 -75 -7 q4 6 11 12 q1 11 -7 16 q-18 4 -36 7 q-5 -2 -10 -4 Z" /></font>
</defs>
</svg>
