<?xml version="1.0" standalone="no"?><!DOCTYPE svg PUBLIC "-//W3C//DTD SVG 1.1//EN" "http://www.w3.org/Graphics/SVG/1.1/DTD/svg11.dtd" ><svg xmlns="http://www.w3.org/2000/svg"><metadata></metadata><defs><font id="jf-openhuninn-1.0;Regular;1.0;2020-03-14;justfont CO.,LTD." horiz-adv-x="1024"><font-face font-family="jf-openhuninn-1.0" font-weight="400" font-stretch="normal" units-per-em="1024" panose-1="2 15 5 0 0 0 0 0 0 0" ascent="871" descent="-153" x-height="0" bbox="-46 -241 985 823" underline-thickness="50" underline-position="-75" unicode-range="U+0020-ff1a" /><missing-glyph horiz-adv-x="600"  /><glyph glyph-name="A" unicode="A" d="M95 -6 q-20 0 -33 13.5 q-13 13.5 -13 32.5 q0 7 5 20 l255 602 q9 20 24 31 q15 11 35 11 l10 0 q20 0 35 -11 q15 -11 24 -31 l255 -602 q5 -13 5 -20 q0 -19 -13 -32.5 q-13 -13.5 -33 -13.5 q-15 0 -26.5 7.5 q-11.5 7.5 -17.5 21.5 l-65 155 l-338 0 l-65 -155 q-6 -14 -17.5 -21.5 q-11.5 -7.5 -26.5 -7.5 ZM381 566 q-3 7 -8 7 q-5 0 -8 -7 l-126 -303 l268 0 l-126 303 Z" /><glyph glyph-name="B" unicode="B" d="M142 -1 q-19 0 -32.5 13.5 q-13.5 13.5 -13.5 32.5 l0 607 q0 19 13.5 33 q13.5 14 32.5 14 l236 0 q105 0 165 -48.5 q60 -48.5 60 -133.5 q0 -55 -26 -94.5 q-26 -39.5 -70 -59.5 q62 -20 98.5 -62.5 q36.5 -42.5 36.5 -104.5 q0 -97 -65.5 -147 q-65.5 -50 -192.5 -50 l-242 0 ZM354 397 q86 0 123 28.5 q37 28.5 37 84.5 q0 47 -38.5 74.5 q-38.5 27.5 -104.5 27.5 l-170 0 q-12 0 -12 -12 l0 -203 l165 0 ZM375 86 q94 0 135.5 28.5 q41.5 28.5 41.5 85.5 q0 113 -176 113 l-187 0 l0 -215 q0 -12 12 -12 l174 0 Z" /><glyph glyph-name="C" unicode="C" d="M405 -11 q-100 0 -179 44 q-81 44 -126.5 126 q-45.5 82 -45.5 190 q0 109 46 191 q45 81 124.5 125 q79.5 44 180.5 44 q66 0 119 -15 q53 -15 109 -47 q23 -11 23 -39 q0 -15 -11.5 -27 q-11.5 -12 -29.5 -12 q-11 0 -18 4 q-46 24 -88 35.5 q-42 11.5 -95 11.5 q-86 0 -145 -35 q-59 -35 -90.5 -95.5 q-31.5 -60.5 -31.5 -140.5 q0 -80 31 -139 q31 -63 92 -97.5 q61 -34.5 144 -34.5 q53 0 95 11.5 q42 11.5 88 35.5 q7 4 18 4 q18 0 29.5 -11.5 q11.5 -11.5 11.5 -27.5 q0 -27 -23 -39 q-56 -32 -109 -47 q-53 -15 -119 -15 Z" /><glyph glyph-name="D" unicode="D" d="M142 -1 q-19 0 -32.5 13.5 q-13.5 13.5 -13.5 32.5 l0 607 q0 19 13.5 33 q13.5 14 32.5 14 l201 0 q113 0 195 -50 q77 -50 118 -129.5 q41 -79.5 41 -170.5 q0 -89 -40 -168 q-41 -84 -122 -133 q-81 -49 -192 -49 l-201 0 ZM332 86 q82 0 144 34 q62 33 95.5 92 q33.5 59 33.5 137 q0 78 -34 138 q-34 60 -96 92.5 q-62 32.5 -143 32.5 l-131 0 q-12 0 -12 -12 l0 -502 q0 -12 12 -12 l131 0 Z" /><glyph glyph-name="E" unicode="E" d="M142 -1 q-19 0 -32.5 13.5 q-13.5 13.5 -13.5 32.5 l0 607 q0 19 13.5 33 q13.5 14 32.5 14 l401 0 q18 0 31 -13 q13 -13 13 -31 q0 -18 -13 -30.5 q-13 -12.5 -31 -12.5 l-342 0 q-12 0 -12 -12 l0 -207 l318 0 q18 0 31 -13 q13 -13 13 -31 q0 -18 -13 -30.5 q-13 -12.5 -31 -12.5 l-318 0 l0 -208 q0 -12 12 -12 l342 0 q18 0 31 -13 q13 -13 13 -31 q0 -18 -13 -30.5 q-13 -12.5 -31 -12.5 l-401 0 Z" /><glyph glyph-name="F" unicode="F" d="M142 -6 q-19 0 -32.5 13.5 q-13.5 13.5 -13.5 32.5 l0 612 q0 19 13.5 33 q13.5 14 32.5 14 l389 0 q18 0 31 -13 q13 -13 13 -31 q0 -18 -13 -30.5 q-13 -12.5 -31 -12.5 l-330 0 q-12 0 -12 -12 l0 -207 l307 0 q18 0 31 -13 q13 -13 13 -31 q0 -18 -13 -30.5 q-13 -12.5 -31 -12.5 l-307 0 l0 -266 q0 -19 -14 -32.5 q-14 -13.5 -33 -13.5 Z" /><glyph glyph-name="G" unicode="G" d="M406 -11 q-104 0 -183 46 q-81 46 -125 127.5 q-44 81.5 -44 185.5 q0 106 46 188 q46 82 126 127.5 q80 45.5 177 45.5 q74 0 132.5 -18 q58.5 -18 116.5 -54 q9 -4 15 -14.5 q6 -10.5 6 -22.5 q0 -17 -12 -29.5 q-12 -12.5 -31 -12.5 q-9 0 -21 5 q-48 28 -95 42 q-47 14 -101 14 q-73 0 -137 -32 q-62 -33 -95.5 -95 q-33.5 -62 -33.5 -144 q0 -77 33 -139 q33 -63 95 -97.5 q62 -34.5 143 -34.5 q92 0 174 44 l0 167 q0 12 -12 12 l-152 0 q-17 0 -29.5 12.5 q-12.5 12.5 -12.5 29.5 q0 17 12.5 29.5 q12.5 12.5 29.5 12.5 l197 0 q20 0 34.5 -14.5 q14.5 -14.5 14.5 -34.5 l0 -227 q0 -21 -10 -37.5 q-10 -16.5 -29 -25.5 q-114 -56 -229 -56 Z" /><glyph glyph-name="H" unicode="H" d="M142 -6 q-19 0 -32.5 13.5 q-13.5 13.5 -13.5 32.5 l0 617 q0 19 13.5 33 q13.5 14 32.5 14 q19 0 33 -14 q14 -14 14 -33 l0 -265 l377 0 l0 265 q0 19 13.5 33 q13.5 14 32.5 14 q19 0 33 -14 q14 -14 14 -33 l0 -617 q0 -19 -14 -32.5 q-14 -13.5 -33 -13.5 q-19 0 -32.5 13.5 q-13.5 13.5 -13.5 32.5 l0 265 l-377 0 l0 -265 q0 -19 -14 -32.5 q-14 -13.5 -33 -13.5 Z" /><glyph glyph-name="I" unicode="I" d="M142 -6 q-19 0 -32.5 13.5 q-13.5 13.5 -13.5 32.5 l0 617 q0 19 13.5 33 q13.5 14 32.5 14 q19 0 33 -14 q14 -14 14 -33 l0 -617 q0 -19 -14 -32.5 q-14 -13.5 -33 -13.5 Z" /><glyph glyph-name="J" unicode="J" d="M168 -11 q-73 0 -134 34 q-22 14 -22 38 q0 16 11 29 q11 13 28 13 q11 0 18 -4 q45 -22 93 -22 q58 0 89 33 q31 33 31 114 l0 433 q0 19 13.5 33 q13.5 14 32.5 14 q19 0 33 -14 q14 -14 14 -33 l0 -427 q0 -119 -52.5 -180 q-52.5 -61 -154.5 -61 Z" /><glyph glyph-name="L" unicode="L" d="M160 -1 q-26 0 -45 19 q-19 19 -19 45 l0 594 q0 19 13.5 33 q13.5 14 32.5 14 q19 0 33 -14 q14 -14 14 -33 l0 -553 q0 -12 12 -12 l314 0 q19 0 33 -14 q14 -14 14 -33 q0 -19 -14 -32.5 q-14 -13.5 -33 -13.5 l-355 0 Z" /><glyph glyph-name="M" unicode="M" d="M142 -6 q-19 0 -32.5 13.5 q-13.5 13.5 -13.5 32.5 l0 597 q0 27 19.5 47 q19.5 20 46.5 20 l33 0 q19 0 36 -11.5 q17 -11.5 26 -31.5 l218 -544 q3 -7 8 -7 q5 0 8 7 l218 544 q9 20 26 31.5 q17 11.5 36 11.5 l33 0 q27 0 46.5 -20 q19.5 -20 19.5 -47 l0 -597 q0 -19 -13.5 -32.5 q-13.5 -13.5 -32.5 -13.5 q-19 0 -33 13.5 q-14 13.5 -14 32.5 l0 528 q0 9 -6 9 q-4 0 -7 -6 l-216 -534 q-8 -19 -26 -31 q-18 -12 -39 -12 q-21 0 -39 12 q-18 12 -26 31 l-216 534 q-3 6 -7 6 q-6 0 -6 -9 l0 -528 q0 -19 -14 -32.5 q-14 -13.5 -33 -13.5 Z" /><glyph glyph-name="N" unicode="N" d="M142 -6 q-19 0 -32.5 13.5 q-13.5 13.5 -13.5 32.5 l0 597 q0 27 19.5 47 q19.5 20 46.5 20 l13 0 q32 0 56 -30 l369 -533 q5 -6 8 -6 q2 0 4 3 q2 3 2 7 l0 512 q0 19 13.5 33 q13.5 14 32.5 14 q19 0 33 -14 q14 -14 14 -33 l0 -597 q0 -27 -20 -46.5 q-20 -19.5 -47 -19.5 l-12 0 q-16 0 -30.5 7.5 q-14.5 7.5 -23.5 19.5 l-371 536 q-5 6 -8 6 q-2 0 -4 -3 q-2 -3 -2 -7 l0 -513 q0 -19 -14 -32.5 q-14 -13.5 -33 -13.5 Z" /><glyph glyph-name="O" unicode="O" d="M406 -11 q-105 0 -185 46 q-78 46 -121.5 127.5 q-43.5 81.5 -45.5 186.5 q2 105 45 186 q43 82 123 128 q80 46 184 46 q105 0 185 -46 q78 -46 121.5 -128 q43.5 -82 45.5 -186 q-2 -104 -45 -185 q-44 -83 -123.5 -129 q-79.5 -46 -183.5 -46 ZM406 76 q81 0 138 36 q58 35 89.5 96.5 q31.5 61.5 31.5 140.5 q0 78 -31 140 q-32 63 -91 98 q-59 35 -137 35 q-81 0 -138 -36 q-58 -35 -89.5 -96.5 q-31.5 -61.5 -31.5 -140.5 q0 -78 31 -140 q32 -64 90.5 -98.5 q58.5 -34.5 137.5 -34.5 Z" /><glyph glyph-name="P" unicode="P" d="M142 -6 q-19 0 -32.5 13.5 q-13.5 13.5 -13.5 32.5 l0 612 q0 19 13.5 33 q13.5 14 32.5 14 l228 0 q94 0 155 -32 q56 -30 84.5 -78.5 q28.5 -48.5 28.5 -112.5 q0 -59 -26 -108 q-27 -53 -88.5 -84 q-61.5 -31 -153.5 -31 l-181 0 l0 -213 q0 -19 -14 -32.5 q-14 -13.5 -33 -13.5 ZM361 341 q91 0 137.5 34.5 q46.5 34.5 46.5 100.5 q0 66 -46.5 100.5 q-46.5 34.5 -137.5 34.5 l-160 0 q-12 0 -12 -12 l0 -258 l172 0 Z" /><glyph glyph-name="Q" unicode="Q" d="M607 -153 q-19 0 -33 16 l-108 130 q-23 -4 -60 -4 q-105 0 -185 46 q-78 46 -121.5 127.5 q-43.5 81.5 -45.5 186.5 q2 105 45 186 q43 82 123 128 q80 46 184 46 q105 0 185 -46 q78 -46 121.5 -128 q43.5 -82 45.5 -186 q-2 -117 -56.5 -204.5 q-54.5 -87.5 -149.5 -127.5 l87 -96 q12 -14 12 -32 q0 -17 -13.5 -29.5 q-13.5 -12.5 -30.5 -12.5 ZM406 76 q81 0 138 36 q58 35 89.5 96.5 q31.5 61.5 31.5 140.5 q0 78 -31 140 q-32 63 -91 98 q-59 35 -137 35 q-81 0 -138 -36 q-58 -35 -89.5 -96.5 q-31.5 -61.5 -31.5 -140.5 q0 -78 31 -140 q32 -64 90.5 -98.5 q58.5 -34.5 137.5 -34.5 Z" /><glyph glyph-name="R" unicode="R" d="M519 314 q65 -19 94 -83.5 q29 -64.5 29 -144.5 l0 -46 q0 -19 -13.5 -32.5 q-13.5 -13.5 -32.5 -13.5 q-21 0 -34 12.5 q-13 12.5 -13 33.5 l0 30 q0 50 -9 93 q-10 47 -45.5 77.5 q-35.5 30.5 -99.5 30.5 l-206 0 l0 -231 q0 -19 -14 -32.5 q-14 -13.5 -33 -13.5 q-19 0 -32.5 13.5 q-13.5 13.5 -13.5 32.5 l0 612 q0 19 13.5 33 q13.5 14 32.5 14 l233 0 q132 0 202.5 -55.5 q70.5 -55.5 70.5 -148.5 q0 -61 -33.5 -110 q-33.5 -49 -95.5 -71 ZM369 359 q87 0 136.5 34.5 q49.5 34.5 49.5 94.5 q0 62 -44.5 92.5 q-44.5 30.5 -146.5 30.5 l-163 0 q-12 0 -12 -12 l0 -240 l180 0 Z" /><glyph glyph-name="S" unicode="S" d="M317 -11 q-127 0 -238 48 q-12 5 -20.5 17 q-8.5 12 -8.5 25 q0 18 12 30.5 q12 12.5 30 12.5 q11 0 19 -4 q93 -41 197 -41 q174 0 174 114 q0 30 -22 49 q-20 19 -50 30 q-30 11 -99 29 q-79 20 -131 41 q-61 23 -92 64.5 q-31 41.5 -31 98.5 q0 57 30 105 q31 49 91.5 75 q60.5 26 138.5 26 q110 0 199 -33 q29 -11 29 -41 q0 -16 -12 -29.5 q-12 -13.5 -29 -13.5 q-7 0 -16 4 q-78 27 -161 27 q-80 0 -128.5 -30 q-48.5 -30 -48.5 -83 q0 -36 24 -57 q22 -21 55 -34 q33 -13 99 -28 q84 -20 128 -38 q53 -20 85.5 -62 q32.5 -42 32.5 -106 q0 -55 -32 -101 q-33 -46 -91.5 -70.5 q-58.5 -24.5 -133.5 -24.5 Z" /><glyph glyph-name="T" unicode="T" d="M304 -6 q-19 0 -32.5 13.5 q-13.5 13.5 -13.5 32.5 l0 572 l-203 0 q-18 0 -30.5 12.5 q-12.5 12.5 -12.5 30.5 q0 18 12.5 31 q12.5 13 30.5 13 l498 0 q18 0 31 -13 q13 -13 13 -31 q0 -18 -13 -30.5 q-13 -12.5 -31 -12.5 l-202 0 l0 -572 q0 -19 -14 -32.5 q-14 -13.5 -33 -13.5 Z" /><glyph glyph-name="U" unicode="U" d="M379 -11 q-72 0 -137 30 q-69 31 -110 94 q-41 63 -41 149 l0 395 q0 19 13.5 33 q13.5 14 32.5 14 q19 0 33 -14 q14 -14 14 -33 l0 -398 q0 -61 28 -101 q26 -41 70.5 -62.5 q44.5 -21.5 96.5 -21.5 q51 0 96 21 q47 22 73 64.5 q26 42.5 26 99.5 l0 398 q0 19 13.5 33 q13.5 14 32.5 14 q19 0 33 -14 q14 -14 14 -33 l0 -395 q0 -88 -42 -151 q-41 -60 -106.5 -91 q-65.5 -31 -139.5 -31 Z" /><glyph glyph-name="W" unicode="W" d="M286 -6 q-21 0 -36.5 12 q-15.5 12 -23.5 34 l-196 602 q-3 12 -3 19 q0 18 13 30.5 q13 12.5 32 12.5 q16 0 28.5 -10 q12.5 -10 17.5 -27 l160 -525 q3 -8 7 -8 q4 0 7 8 l161 523 q5 18 20 28.5 q15 10.5 33 10.5 q18 0 33 -10.5 q15 -10.5 20 -28.5 l161 -523 q3 -8 7 -8 q4 0 7 8 l160 525 q5 17 17.5 27 q12.5 10 28.5 10 q19 0 32 -12.5 q13 -12.5 13 -30.5 q0 -7 -3 -19 l-196 -602 q-8 -22 -23.5 -34 q-15.5 -12 -36.5 -12 q-21 0 -37.5 13 q-16.5 13 -22.5 33 l-153 484 q-3 8 -7 8 q-4 0 -7 -8 l-153 -484 q-6 -20 -22.5 -33 q-16.5 -13 -37.5 -13 Z" /><glyph glyph-name="X" unicode="X" d="M86 -6 q-17 0 -30 13 q-13 13 -13 30 q0 16 9 29 l231 283 l-229 281 q-9 14 -9 29 q0 19 13 32 q13 13 32 13 q11 0 21 -5 q10 -5 17 -13 l210 -267 l210 269 q12 16 34 16 q18 0 31.5 -13 q13.5 -13 13.5 -31 q0 -15 -8 -26 l-231 -284 l231 -283 q9 -10 9 -27 q0 -19 -13 -32.5 q-13 -13.5 -33 -13.5 q-23 0 -37 19 l-213 268 l-210 -269 q-16 -18 -36 -18 Z" /><glyph glyph-name="Y" unicode="Y" d="M320 -6 q-19 0 -33 13.5 q-14 13.5 -14 32.5 l0 255 l-239 334 q-8 16 -8 28 q0 19 13 33 q13 14 32 14 q26 0 41 -23 l208 -303 l208 303 q15 23 41 23 q18 0 31.5 -13.5 q13.5 -13.5 13.5 -31.5 q0 -12 -8 -30 l-240 -334 l0 -255 q0 -19 -13.5 -32.5 q-13.5 -13.5 -32.5 -13.5 Z" /><glyph glyph-name="Z" unicode="Z" d="M105 -1 q-24 0 -41.5 17.5 q-17.5 17.5 -17.5 41.5 q0 22 12 38 l405 500 q4 4 4 7 q0 7 -10 7 l-365 0 q-18 0 -31 13 q-13 13 -13 31 q0 18 13 31.5 q13 13.5 31 13.5 l434 0 q27 0 44.5 -18 q17.5 -18 17.5 -45 q0 -20 -16 -41 l-400 -495 q-4 -4 -4 -7 q0 -7 10 -7 l372 0 q18 0 31 -13 q13 -13 13 -31 q0 -18 -13 -30.5 q-13 -12.5 -31 -12.5 l-445 0 Z" /><glyph glyph-name="a" unicode="a" d="M209 -11 q-43 0 -81 18 q-39 18 -61 53 q-22 35 -22 80 q0 78 60.5 120.5 q60.5 42.5 170.5 42.5 l120 0 l0 7 q0 64 -31.5 93.5 q-31.5 29.5 -101.5 29.5 q-36 0 -65 -5.5 q-29 -5.5 -68 -18.5 l-13 -2 q-15 0 -26.5 11.5 q-11.5 11.5 -11.5 27.5 q0 28 27 39 q84 36 173 36 q69 0 118 -28 q46 -27 69 -71.5 q23 -44.5 23 -98.5 l0 -283 q0 -19 -14 -32.5 q-14 -13.5 -33 -13.5 q-19 0 -32.5 13.5 q-13.5 13.5 -13.5 32.5 l0 24 q-72 -75 -187 -75 ZM243 71 q43 0 83.5 20.5 q40.5 20.5 69.5 53.5 l0 83 l-108 0 q-150 0 -150 -78 q0 -79 105 -79 Z" /><glyph glyph-name="b" unicode="b" d="M341 -11 q-98 0 -170 75 l0 -24 q0 -19 -14 -32.5 q-14 -13.5 -33 -13.5 q-19 0 -32.5 13.5 q-13.5 13.5 -13.5 32.5 l0 649 q0 19 13.5 33 q13.5 14 32.5 14 q20 0 33.5 -13.5 q13.5 -13.5 13.5 -33.5 l0 -243 q72 75 170 75 q65 0 118 -31 q58 -32 91.5 -94 q33.5 -62 33.5 -141 q0 -82 -34 -141 q-34 -60 -89.5 -92.5 q-55.5 -32.5 -119.5 -32.5 ZM328 76 q76 0 119.5 47.5 q43.5 47.5 43.5 131.5 q0 84 -43.5 131.5 q-43.5 47.5 -119.5 47.5 q-44 0 -84.5 -20 q-40.5 -20 -72.5 -54 l0 -210 q32 -34 72.5 -54 q40.5 -20 84.5 -20 Z" /><glyph glyph-name="c" unicode="c" d="M315 -11 q-71 0 -133 32 q-63 33 -99 94 q-36 61 -36 140 q0 81 37 142 q36 59 96.5 91.5 q60.5 32.5 134.5 32.5 q50 0 88 -12.5 q38 -12.5 76 -35.5 q20 -14 20 -36 q0 -15 -12 -28 q-12 -13 -27 -13 q-10 0 -22 6 q-35 18 -58 25 q-23 7 -57 7 q-84 0 -133.5 -48.5 q-49.5 -48.5 -49.5 -130.5 q0 -82 49.5 -130.5 q49.5 -48.5 133.5 -48.5 q34 0 57 7 q23 7 58 25 q12 6 22 6 q15 0 27 -13 q12 -13 12 -28 q0 -22 -20 -36 q-38 -23 -76 -35.5 q-38 -12.5 -88 -12.5 Z" /><glyph glyph-name="d" unicode="d" d="M290 -11 q-61 0 -117 32 q-58 32 -92 93.5 q-34 61.5 -34 140.5 q0 81 35 142 q34 60 89 92 q55 32 119 32 q98 0 170 -75 l0 243 q0 20 14 33.5 q14 13.5 33 13.5 q19 0 32.5 -14 q13.5 -14 13.5 -33 l0 -649 q0 -19 -13.5 -32.5 q-13.5 -13.5 -32.5 -13.5 q-19 0 -33 13.5 q-14 13.5 -14 32.5 l0 24 q-72 -75 -170 -75 ZM303 76 q44 0 84.5 20 q40.5 20 72.5 54 l0 210 q-32 34 -72.5 54 q-40.5 20 -84.5 20 q-76 0 -119.5 -47.5 q-43.5 -47.5 -43.5 -131.5 q0 -84 43.5 -131.5 q43.5 -47.5 119.5 -47.5 Z" /><glyph glyph-name="e" unicode="e" d="M307 -11 q-123 0 -191.5 70 q-68.5 70 -68.5 196 q0 68 26 131 q27 63 82 99 q55 36 132 36 q74 0 129 -34 q52 -34 81 -91.5 q29 -57.5 29 -127.5 q0 -19 -13 -32.5 q-13 -13.5 -34 -13.5 l-338 0 q9 -71 53.5 -108.5 q44.5 -37.5 120.5 -37.5 q40 0 71.5 7.5 q31.5 7.5 63.5 23.5 q7 4 18 4 q16 0 28.5 -11.5 q12.5 -11.5 12.5 -28.5 q0 -23 -27 -38 q-42 -23 -80 -33.5 q-38 -10.5 -95 -10.5 ZM421 298 q13 0 12 13 q-4 40 -24 67 q-22 32 -54.5 48 q-32.5 16 -67.5 16 q-32 0 -67 -15 q-35 -17 -55.5 -50.5 q-20.5 -33.5 -23.5 -78.5 l280 0 Z" /><glyph glyph-name="f" unicode="f" d="M162 -6 q-19 0 -32.5 13.5 q-13.5 13.5 -13.5 32.5 l0 391 l-58 0 q-16 0 -28 12 q-12 12 -12 28 q0 17 12 28.5 q12 11.5 28 11.5 l58 0 l0 57 q0 61 22 99 q20 37 54.5 55.5 q34.5 18.5 74.5 18.5 q45 0 87 -20 q24 -14 24 -36 q0 -15 -11.5 -27 q-11.5 -12 -26.5 -12 q-11 0 -23 3 l-27 3 q-44 0 -62.5 -20 q-18.5 -20 -18.5 -67 l0 -54 l124 0 q17 0 28.5 -11.5 q11.5 -11.5 11.5 -28.5 q0 -16 -11.5 -28 q-11.5 -12 -28.5 -12 l-124 0 l0 -391 q0 -19 -14 -32.5 q-14 -13.5 -33 -13.5 Z" /><glyph glyph-name="g" unicode="g" d="M317 -241 q-56 0 -115.5 15 q-59.5 15 -98.5 37 q-19 12 -19 36 q0 16 12 29 q12 13 29 13 q8 0 18 -4 q78 -38 165 -38 q152 0 152 162 l0 64 q-69 -74 -170 -74 q-60 0 -114 30 q-59 31 -94 90.5 q-35 59.5 -35 140.5 q0 84 36 144 q35 57 90.5 87 q55.5 30 116.5 30 q101 0 170 -74 l0 22 q0 19 13.5 33 q13.5 14 32.5 14 q19 0 33 -14 q14 -14 14 -33 l0 -447 q0 -126 -61 -194.5 q-61 -68.5 -175 -68.5 ZM309 84 q44 0 79.5 18.5 q35.5 18.5 71.5 54.5 l0 206 q-36 36 -71.5 54.5 q-35.5 18.5 -79.5 18.5 q-77 0 -123 -46 q-46 -46 -46 -130 q0 -84 46 -130 q46 -46 123 -46 Z" /><glyph glyph-name="h" unicode="h" d="M124 -6 q-19 0 -32.5 13.5 q-13.5 13.5 -13.5 32.5 l0 649 q0 19 13.5 33 q13.5 14 32.5 14 q19 0 33 -14 q14 -14 14 -33 l0 -258 q41 44 85 67 q44 23 100 23 q55 0 97 -26 q40 -26 61.5 -71 q21.5 -45 21.5 -100 l0 -284 q0 -19 -14 -32.5 q-14 -13.5 -33 -13.5 q-19 0 -32.5 13.5 q-13.5 13.5 -13.5 32.5 l0 274 q0 121 -109 121 q-48 0 -86.5 -24 q-38.5 -24 -76.5 -71 l0 -300 q0 -19 -14 -32.5 q-14 -13.5 -33 -13.5 Z" /><glyph glyph-name="i" unicode="i" d="M122 613 q-21 0 -36.5 15.5 q-15.5 15.5 -15.5 36.5 l0 4 q0 21 15.5 36.5 q15.5 15.5 36.5 15.5 l6 0 q21 0 36.5 -15.5 q15.5 -15.5 15.5 -36.5 l0 -4 q0 -21 -15.5 -36.5 q-15.5 -15.5 -36.5 -15.5 l-6 0 ZM124 -6 q-19 0 -32.5 13.5 q-13.5 13.5 -13.5 32.5 l0 429 q0 19 13.5 33 q13.5 14 32.5 14 q20 0 33.5 -13.5 q13.5 -13.5 13.5 -33.5 l0 -429 q0 -19 -14 -32.5 q-14 -13.5 -33 -13.5 Z" /><glyph glyph-name="j" unicode="j" d="M127 613 q-21 0 -36.5 15.5 q-15.5 15.5 -15.5 36.5 l0 4 q0 21 15.5 36.5 q15.5 15.5 36.5 15.5 l6 0 q21 0 36.5 -15.5 q15.5 -15.5 15.5 -36.5 l0 -4 q0 -21 -15.5 -36.5 q-15.5 -15.5 -36.5 -15.5 l-6 0 ZM44 -241 q-36 0 -63 9 q-13 4 -20 14 q-7 10 -7 23 q0 15 11.5 27 q11.5 12 27.5 12 l12 -2 l3 0 q6 -1 15 -1 q33 0 46.5 12 q13.5 12 13.5 46 l0 569 q0 19 13.5 33 q13.5 14 32.5 14 q20 0 33.5 -13.5 q13.5 -13.5 13.5 -33.5 l0 -571 q0 -67 -33.5 -102.5 q-33.5 -35.5 -98.5 -35.5 Z" /><glyph glyph-name="k" unicode="k" d="M124 -6 q-19 0 -32.5 13.5 q-13.5 13.5 -13.5 32.5 l0 649 q0 19 13.5 33 q13.5 14 32.5 14 q19 0 33 -14 q14 -14 14 -33 l0 -407 l236 219 q16 13 31 13 q22 0 33.5 -12 q11.5 -12 11.5 -33 q0 -16 -17 -35 l-144 -128 l181 -239 q10 -15 10 -28 q0 -20 -13.5 -32.5 q-13.5 -12.5 -33.5 -12.5 q-10 0 -20.5 5 q-10.5 5 -17.5 14 l-171 234 l-86 -78 l0 -129 q0 -19 -14 -32.5 q-14 -13.5 -33 -13.5 Z" /><glyph glyph-name="l" unicode="l" d="M124 -6 q-19 0 -32.5 13.5 q-13.5 13.5 -13.5 32.5 l0 649 q0 19 13.5 33 q13.5 14 32.5 14 q20 0 33.5 -13.5 q13.5 -13.5 13.5 -33.5 l0 -649 q0 -19 -14 -32.5 q-14 -13.5 -33 -13.5 Z" /><glyph glyph-name="m" unicode="m" d="M772 493 q36 -27 54.5 -71 q18.5 -44 18.5 -94 l0 -288 q0 -19 -14 -32.5 q-14 -13.5 -33 -13.5 q-19 0 -32.5 13.5 q-13.5 13.5 -13.5 32.5 l0 270 q0 67 -23.5 96 q-23.5 29 -77.5 29 q-48 0 -81 -24.5 q-33 -24.5 -62 -70.5 l0 -300 q0 -19 -14 -32.5 q-14 -13.5 -33 -13.5 q-19 0 -32.5 13.5 q-13.5 13.5 -13.5 32.5 l0 270 q0 67 -23.5 96 q-23.5 29 -77.5 29 q-48 0 -81 -24.5 q-33 -24.5 -62 -70.5 l0 -300 q0 -19 -14 -32.5 q-14 -13.5 -33 -13.5 q-19 0 -32.5 13.5 q-13.5 13.5 -13.5 32.5 l0 429 q0 19 13.5 33 q13.5 14 32.5 14 q19 0 33 -14 q14 -14 14 -33 l0 -37 q31 42 71 65.5 q40 23.5 98 23.5 q54 0 94.5 -28.5 q40.5 -28.5 58.5 -73.5 q62 102 184 102 q58 0 95 -28 Z" /><glyph glyph-name="n" unicode="n" d="M124 -6 q-19 0 -32.5 13.5 q-13.5 13.5 -13.5 32.5 l0 429 q0 19 13.5 33 q13.5 14 32.5 14 q19 0 33 -14 q14 -14 14 -33 l0 -38 q41 44 85 67 q44 23 100 23 q55 0 97 -26 q40 -26 61.5 -71 q21.5 -45 21.5 -100 l0 -284 q0 -19 -14 -32.5 q-14 -13.5 -33 -13.5 q-19 0 -32.5 13.5 q-13.5 13.5 -13.5 32.5 l0 274 q0 121 -109 121 q-48 0 -86.5 -24 q-38.5 -24 -76.5 -71 l0 -300 q0 -19 -14 -32.5 q-14 -13.5 -33 -13.5 Z" /><glyph glyph-name="o" unicode="o" d="M304 -11 q-77 0 -135 33 q-58 34 -90 95 q-32 61 -32 138 q0 78 32 139 q32 61 90.5 94 q58.5 33 134.5 33 q76 0 134 -33 q59 -34 91 -94.5 q32 -60.5 32 -138.5 q0 -78 -32 -138 q-33 -62 -91.5 -95 q-58.5 -33 -133.5 -33 ZM304 74 q41 0 79 19 q39 20 62 61.5 q23 41.5 23 101.5 q0 63 -24 102 q-22 38 -58.5 58 q-36.5 20 -81.5 20 q-41 0 -79 -18 q-39 -20 -62 -61 q-23 -41 -23 -101 q0 -64 24 -103 q22 -39 58.5 -59 q36.5 -20 81.5 -20 Z" /><glyph glyph-name="p" unicode="p" d="M124 -236 q-19 0 -32.5 14 q-13.5 14 -13.5 33 l0 659 q0 19 13.5 32.5 q13.5 13.5 32.5 13.5 q19 0 33 -13.5 q14 -13.5 14 -32.5 l0 -24 q72 75 170 75 q65 0 118 -31 q58 -32 91.5 -94 q33.5 -62 33.5 -141 q0 -82 -34 -141 q-34 -60 -89.5 -92.5 q-55.5 -32.5 -119.5 -32.5 q-98 0 -170 75 l0 -253 q0 -20 -13.5 -33.5 q-13.5 -13.5 -33.5 -13.5 ZM328 76 q76 0 119.5 47.5 q43.5 47.5 43.5 131.5 q0 84 -43.5 131.5 q-43.5 47.5 -119.5 47.5 q-44 0 -84.5 -20 q-40.5 -20 -72.5 -54 l0 -210 q32 -34 72.5 -54 q40.5 -20 84.5 -20 Z" /><glyph glyph-name="q" unicode="q" d="M507 -236 q-19 0 -33 13.5 q-14 13.5 -14 33.5 l0 253 q-72 -75 -170 -75 q-61 0 -117 32 q-58 32 -92 93.5 q-34 61.5 -34 140.5 q0 81 35 142 q34 60 89 92 q55 32 119 32 q98 0 170 -75 l0 24 q0 19 14 32.5 q14 13.5 33 13.5 q19 0 32.5 -13.5 q13.5 -13.5 13.5 -32.5 l0 -659 q0 -19 -13.5 -33 q-13.5 -14 -32.5 -14 ZM303 76 q44 0 84.5 20 q40.5 20 72.5 54 l0 210 q-32 34 -72.5 54 q-40.5 20 -84.5 20 q-76 0 -119.5 -47.5 q-43.5 -47.5 -43.5 -131.5 q0 -84 43.5 -131.5 q43.5 -47.5 119.5 -47.5 Z" /><glyph glyph-name="r" unicode="r" d="M124 -6 q-19 0 -32.5 13.5 q-13.5 13.5 -13.5 32.5 l0 429 q0 19 13.5 33 q13.5 14 32.5 14 q19 0 33 -14 q14 -14 14 -33 l0 -40 q69 92 156 92 l5 0 q19 0 32 -13.5 q13 -13.5 13 -32.5 q0 -19 -13.5 -31.5 q-13.5 -12.5 -33.5 -12.5 l-5 0 q-47 0 -86.5 -22.5 q-39.5 -22.5 -67.5 -64.5 l0 -304 q0 -19 -14 -32.5 q-14 -13.5 -33 -13.5 Z" /><glyph glyph-name="s" unicode="s" d="M244 -11 q-99 0 -183 45 q-17 12 -17 34 q0 16 11.5 28.5 q11.5 12.5 28.5 12.5 q10 0 18 -4 q34 -15 66 -22.5 q32 -7.5 70 -7.5 q110 0 110 70 q0 22 -24 34 q-25 12 -84 27 q-58 13 -97 29 q-43 16 -69 48 q-26 32 -26 79 q0 71 52 115 q52 44 144 44 q80 0 145 -25 q14 -4 22 -15 q8 -11 8 -24 q0 -16 -12 -28.5 q-12 -12.5 -29 -12.5 l-13 2 q-60 18 -114 18 q-52 0 -83 -19 q-31 -19 -31 -50 q0 -29 27 -43 q29 -13 87 -27 q54 -14 96 -29 q41 -16 66 -48.5 q25 -32.5 25 -81.5 q0 -65 -52 -107 q-52 -42 -142 -42 Z" /><glyph glyph-name="t" unicode="t" d="M325 80 q15 0 26 -11 q11 -11 11 -26 q0 -23 -24 -36 q-39 -18 -83 -18 q-147 0 -147 133 l0 304 l-50 0 q-19 0 -29.5 10.5 q-10.5 10.5 -10.5 29.5 q0 19 10.5 29.5 q10.5 10.5 29.5 10.5 l50 0 l0 71 q0 23 12.5 35 q12.5 12 34.5 12 q22 0 34 -12.5 q12 -12.5 12 -34.5 l0 -71 l112 0 q17 0 28.5 -11.5 q11.5 -11.5 11.5 -28.5 q0 -16 -11.5 -28 q-11.5 -12 -28.5 -12 l-112 0 l0 -296 q0 -35 16 -47 q16 -12 48 -12 q21 0 40 6 q2 0 3 1 q10 2 17 2 Z" /><glyph glyph-name="u" unicode="u" d="M253 -11 q-54 0 -96 26 q-40 26 -62 71 q-22 45 -22 100 l0 284 q0 19 14 32.5 q14 13.5 33 13.5 q19 0 32.5 -13.5 q13.5 -13.5 13.5 -32.5 l0 -274 q0 -121 109 -121 q48 0 86.5 24 q38.5 24 76.5 71 l0 300 q0 19 14 32.5 q14 13.5 33 13.5 q19 0 32.5 -13.5 q13.5 -13.5 13.5 -32.5 l0 -429 q0 -19 -13.5 -33 q-13.5 -14 -32.5 -14 q-19 0 -33 14 q-14 14 -14 33 l0 38 q-41 -44 -85 -67 q-44 -23 -100 -23 Z" /><glyph glyph-name="v" unicode="v" d="M260 -6 q-18 0 -33.5 10.5 q-15.5 10.5 -22.5 27.5 l-174 416 q-5 13 -5 21 q0 19 13.5 33 q13.5 14 32.5 14 q13 0 25 -7.5 q12 -7.5 17 -19.5 l144 -366 q3 -7 8 -7 q5 0 8 7 l144 366 q5 12 17 19.5 q12 7.5 25 7.5 q19 0 32.5 -14 q13.5 -14 13.5 -33 q0 -8 -5 -21 l-174 -416 q-7 -17 -22.5 -27.5 q-15.5 -10.5 -33.5 -10.5 l-10 0 Z" /><glyph glyph-name="w" unicode="w" d="M231 -6 q-20 0 -36.5 12 q-16.5 12 -22.5 31 l-142 416 q-3 9 -3 17 q0 19 13.5 32.5 q13.5 13.5 32.5 13.5 q15 0 26.5 -7.5 q11.5 -7.5 15.5 -20.5 l109 -358 q3 -8 7 -8 q4 0 7 8 l108 349 q5 17 19 27 q14 10 31 10 q17 0 31 -10 q14 -10 19 -27 l108 -349 q3 -8 7 -8 q4 0 7 8 l109 358 q4 13 15.5 20.5 q11.5 7.5 26.5 7.5 q19 0 32.5 -13.5 q13.5 -13.5 13.5 -32.5 q0 -8 -3 -17 l-142 -416 q-6 -19 -22.5 -31 q-16.5 -12 -36.5 -12 q-20 0 -36.5 12 q-16.5 12 -23.5 32 l-98 305 q-3 8 -7 8 q-4 0 -7 -8 l-98 -305 q-7 -20 -23.5 -32 q-16.5 -12 -36.5 -12 Z" /><glyph glyph-name="x" unicode="x" d="M94 -6 q-21 0 -32.5 13 q-11.5 13 -11.5 34 q0 14 10 29 l155 182 l-155 188 q-11 14 -11 30 q0 20 13.5 33 q13.5 13 32.5 13 q24 0 37 -17 l139 -172 l138 172 q14 17 36 17 q20 0 33.5 -12.5 q13.5 -12.5 13.5 -31.5 q0 -14 -10 -29 l-158 -185 l156 -187 q11 -13 11 -30 q0 -19 -13 -33 q-13 -14 -34 -14 q-22 0 -36 18 l-141 169 l-133 -167 q-15 -20 -40 -20 Z" /><glyph glyph-name="y" unicode="y" d="M193 -236 q-18 0 -31 13.5 q-13 13.5 -13 31.5 q0 8 3 16 l65 167 l-188 458 q-4 10 -4 19 q0 19 13.5 33 q13.5 14 32.5 14 q14 0 26 -8 q12 -8 17 -21 l153 -379 l156 377 q14 31 43 31 q19 0 32.5 -14 q13.5 -14 13.5 -33 q0 -9 -3 -17 l-273 -656 q-14 -32 -43 -32 Z" /><glyph glyph-name="z" unicode="z" d="M103 -1 q-28 0 -46 15 q-18 15 -18 39 q0 23 16 42 l274 315 q3 5 3 8 q0 6 -9 6 l-232 0 q-18 0 -30.5 12.5 q-12.5 12.5 -12.5 30.5 q0 18 12.5 31 q12.5 13 30.5 13 l303 0 q26 0 42.5 -16.5 q16.5 -16.5 16.5 -41.5 q0 -22 -14 -41 l-266 -312 q-3 -4 -3 -8 q0 -6 9 -6 l236 0 q18 0 31 -13 q13 -13 13 -31 q0 -18 -13 -30.5 q-13 -12.5 -31 -12.5 l-312 0 Z" /><glyph glyph-name="uni4E00" unicode="&#x4e00;" d="M117 324 q-56 0 -56 46 q0 46 56 46 l791 0 q56 0 56 -47 q0 -45 -56 -45 l-791 0 Z" /><glyph glyph-name="uni4E0A" unicode="&#x4e0a;" d="M106 -37 q-46 0 -46 41 q0 40 46 40 l326 0 l0 718 q0 49 43 49 q41 0 41 -49 l0 -232 l310 0 q47 0 47 -40 q0 -41 -47 -41 l-310 0 l0 -405 l400 0 q48 0 48 -40 q0 -41 -48 -41 l-810 0 Z" /><glyph glyph-name="uni4E0D" unicode="&#x4e0d;" d="M598 676 q-17 -38 -44 -88 l0 -638 q0 -48 -42 -48 q-42 0 -42 48 l0 512 q-73 -97 -162.5 -176 q-89.5 -79 -181.5 -131 q-13 -7 -26 -7 q-11 0 -20 6 q-9 6 -14 17 q-5 12 -5 20 q0 21 25 36 q135 83 245 197.5 q110 114.5 177 251.5 l-396 0 q-23 0 -33.5 9.5 q-10.5 9.5 -10.5 30.5 q0 39 44 39 l800 0 q45 0 45 -39 q0 -40 -45 -40 l-314 0 ZM949 219 q15 -16 15 -33 q0 -15 -12 -29 q-13 -15 -30 -15 q-18 0 -35 17 q-136 138 -243 229 q-19 16 -19 33 q0 12 9 22 q12 13 26 13 q13 0 30 -12 q58 -43 134 -107.5 q76 -64.5 125 -117.5 Z" /><glyph glyph-name="uni4E2A" unicode="&#x4e2a;" d="M96 317 q-15 0 -28 15 q-13 15 -13 30 q0 32 50 61 q213 125 354 353 q27 42 53 42 q21 0 32.5 -10.5 q11.5 -10.5 11.5 -25.5 q0 -6 -9 -24 l1 -7 q137 -184 364 -307 q57 -31 57 -62 q0 -51 -45 -51 q-22 0 -67.5 28 q-45.5 28 -120.5 88 q-135 108 -232 245 q-107 -151 -235 -264 q-61 -54 -106 -82.5 q-45 -28.5 -67 -28.5 ZM509 -100 q-44 0 -44 48 l0 501 q0 47 44 47 q43 0 43 -47 l0 -501 q0 -48 -43 -48 Z" /><glyph glyph-name="uni4E2D" unicode="&#x4e2d;" d="M819 635 q115 7 109 -110 l0 -223 q0 -59 -26 -86 q-26 -27 -83 -23 l-263 0 l0 -242 q0 -49 -44 -49 q-44 0 -44 49 l0 242 l-253 0 q-115 -7 -109 109 l0 223 q0 60 25.5 87 q25.5 27 83.5 23 l253 0 l0 131 q0 50 44 50 q44 0 44 -50 l0 -131 l263 0 ZM468 273 l0 282 l-218 0 q-34 0 -45.5 -11.5 q-11.5 -11.5 -11.5 -46.5 l0 -167 q0 -34 11.5 -45.5 q11.5 -11.5 45.5 -11.5 l218 0 ZM840 497 q0 35 -11.5 46.5 q-11.5 11.5 -45.5 11.5 l-227 0 l0 -282 l227 0 q34 0 45.5 11.5 q11.5 11.5 11.5 45.5 l0 167 Z" /><glyph glyph-name="uni4E3B" unicode="&#x4e3b;" d="M421 737 q-16 8 -24 16 q-8 8 -8 18 q0 41 44 41 q8 0 33.5 -11 q25.5 -11 62.5 -32 q80 -44 80 -69 q0 -42 -46 -42 q-12 0 -52 25 q-7 5 -31.5 20.5 q-24.5 15.5 -58.5 33.5 ZM916 34 q51 0 51 -41 q0 -41 -51 -41 l-809 0 q-50 0 -50 41 q0 41 50 41 l357 0 l0 237 l-264 0 q-49 0 -49 41 q0 41 49 41 l264 0 l0 206 l-322 0 q-49 0 -49 41 q0 41 49 41 l739 0 q51 0 51 -41 q0 -41 -51 -41 l-330 0 l0 -206 l269 0 q51 0 51 -41 q0 -41 -51 -41 l-269 0 l0 -237 l365 0 Z" /><glyph glyph-name="uni4E86" unicode="&#x4e86;" d="M354 -83 q-55 0 -55 44 q0 43 55 43 l65 0 q50 0 49 49 l0 396 q0 36 15 53 q13 16 83 50 l27 13 q93 47 112 57 l43 26 q11 7 11 13 q0 6 -4 9.5 q-4 3.5 -10 3.5 l-599 0 q-26 0 -38 9.5 q-12 9.5 -12 29.5 q0 20 12 29.5 q12 9.5 38 9.5 l706 0 q37 0 54.5 -12 q17.5 -12 17.5 -38 q0 -10 -28 -33 q-28 -23 -79 -55 q-125 -79 -218 -124 q-49 -23 -49 -55 l0 -407 q4 -61 -23 -88.5 q-27 -27.5 -86 -22.5 l-87 0 Z" /><glyph glyph-name="uni4E8C" unicode="&#x4e8c;" d="M221 630 q-54 0 -54 45 q0 43 54 43 l582 0 q28 0 41 -10.5 q13 -10.5 13 -33.5 q0 -44 -54 -44 l-582 0 ZM113 -12 q-28 0 -41 10.5 q-13 10.5 -13 33.5 q0 23 13 33.5 q13 10.5 41 10.5 l797 0 q55 0 55 -44 q0 -44 -55 -44 l-797 0 Z" /><glyph glyph-name="uni4E8E" unicode="&#x4e8e;" d="M363 -88 q-26 0 -39 10.5 q-13 10.5 -13 32.5 q0 22 13 32.5 q13 10.5 39 10.5 l61 0 q49 0 51 50 l0 297 l-362 0 q-49 0 -49 39 q0 38 49 38 l362 0 l0 264 l-297 0 q-49 0 -49 38 q0 39 49 39 l668 0 q48 0 48 -39 q0 -38 -48 -38 l-290 0 l0 -264 l355 0 q49 0 49 -39 q0 -38 -49 -38 l-355 0 l0 -327 q4 -57 -23 -83 q-27 -26 -85 -23 l-85 0 Z" /><glyph glyph-name="uni4E92" unicode="&#x4e92;" d="M106 -44 q-47 0 -47 39 q0 39 47 39 l557 0 l15 150 l-377 0 q-89 0 -89 61 q0 23 9 57 q56 217 78 366 l3 15 l-165 0 q-47 0 -47 38 q0 39 47 39 l749 0 q48 0 48 -39 q0 -38 -48 -38 l-499 0 l-3 -18 l-25 -119 l346 0 q36 0 62 -21 q23 -20 20 -46 l-43 -445 l173 0 q48 0 48 -39 q0 -39 -48 -39 l-811 0 ZM702 433 q4 38 -42 38 l-316 0 l-34 -141 q-2 -9 -6 -23 q-4 -14 -4 -22 q0 -26 33 -26 l351 0 l18 174 Z" /><glyph glyph-name="uni4EBA" unicode="&#x4eba;" d="M938 16 q37 -16 37 -46 q0 -11 -4 -22 q-12 -31 -43 -31 q-14 0 -31 6 q-84 32 -160.5 109 q-76.5 77 -133 181.5 q-56.5 104.5 -84.5 215.5 q-35 -179 -139.5 -312.5 q-104.5 -133.5 -257.5 -203.5 q-12 -5 -22 -5 q-18 0 -30.5 12 q-12.5 12 -12.5 33 q0 24 30 41 q343 186 373 585 q5 68 5 122 l-1 54 q0 21 12 34 q12 13 33 13 q21 0 33.5 -12 q12.5 -12 12.5 -32 q0 -59 -4 -127 q-1 -9 -2.5 -21.5 q-1.5 -12.5 -1.5 -19.5 q0 -5 2 -15 q24 -119 77 -229 q53 -110 132.5 -197 q79.5 -87 179.5 -133 Z" /><glyph glyph-name="uni4F53" unicode="&#x4f53;" d="M225 -98 q-40 0 -40 49 l0 470 q-68 -125 -94 -125 q-36 0 -36 46 q0 18 22 50 q106 152 165 345 q19 59 29 68 q10 10 30 10 q43 0 43 -35 q0 -30 -78 -199 l0 -630 q0 -49 -41 -49 ZM614 -98 q-39 0 -39 49 l0 126 l-102 0 q-43 0 -43 38 q0 39 43 39 l102 0 l0 299 q-43 -128 -129 -253 q-44 -64 -73 -95 q-29 -31 -46 -31 q-41 0 -41 44 q0 20 37 61 q162 179 222 360 l-185 0 q-48 0 -48 41 q0 40 48 40 l215 0 l0 144 q0 51 39 51 q40 0 40 -51 l0 -144 l247 0 q49 0 49 -40 q0 -41 -49 -41 l-225 0 q75 -194 262 -368 q31 -28 31 -49 q0 -48 -44 -48 q-34 0 -126 122 q-97 129 -145 254 l0 -296 l114 0 q41 0 41 -39 q0 -38 -41 -38 l-114 0 l0 -126 q0 -49 -40 -49 Z" /><glyph glyph-name="uni4F5C" unicode="&#x4f5c;" d="M348 776 q0 -26 -76 -187 l0 -637 q0 -50 -43 -50 q-40 0 -40 50 l0 471 q-33 -63 -58 -96 q-25 -33 -39 -33 q-37 0 -37 45 q0 19 35 71 q97 149 164 355 q8 25 19.5 37.5 q11.5 12.5 27.5 12.5 q47 0 47 -39 ZM666 592 l0 -147 l202 0 q47 0 47 -39 q0 -39 -47 -39 l-202 0 l0 -148 l236 0 q48 0 48 -39 q0 -39 -48 -39 l-236 0 l0 -188 q0 -51 -42 -51 q-42 0 -42 51 l0 639 l-84 0 q-48 -92 -85 -139 q-37 -47 -61 -47 q-39 0 -39 44 q0 16 22 43 q44 54 83 126.5 q39 72.5 69 152.5 q15 39 45 39 q44 0 44 -35 q0 -20 -39 -106 l381 0 q23 0 35.5 -10 q12.5 -10 12.5 -29 q0 -19 -12.5 -29 q-12.5 -10 -35.5 -10 l-252 0 Z" /><glyph glyph-name="uni4F60" unicode="&#x4f60;" d="M226 -97 q-41 0 -41 47 l0 473 q-33 -61 -58.5 -91 q-25.5 -30 -39.5 -30 q-18 0 -26.5 8 q-8.5 8 -8.5 30 q0 16 32 68 q95 152 165 357 q17 49 47 49 q47 0 47 -38 q0 -13 -23 -73 q-14 -35 -55 -116 l0 -637 q0 -47 -39 -47 ZM539 -99 q-48 0 -48 40 q0 41 43 41 l45 0 q41 0 41 41 l0 560 l-120 0 q-15 -41 -35.5 -79.5 q-20.5 -38.5 -35.5 -61.5 q-24 -36 -45 -36 q-40 0 -40 40 q0 11 17 40 q79 135 120 281 q13 47 50 47 q39 0 39 -35 q0 -11 -10 -38 q-10 -27 -34 -83 l361 0 q33 0 51 -13.5 q18 -13.5 18 -35.5 q0 -7 -1 -11 q-8 -37 -40 -102 q-21 -45 -36 -65.5 q-15 -20.5 -31 -20.5 q-14 0 -26 10 q-12 10 -12 24 q0 8 4 15 q24 47 46 102 q2 6 2 9 q0 13 -16 13 l-144 0 l0 -576 q0 -57 -27 -81 q-26 -25 -82 -25 l-54 0 ZM383 32 q-17 0 -25.5 9 q-8.5 9 -8.5 24 q0 10 4.5 20 q4.5 10 15.5 29 q60 102 92 224 q10 38 40 38 q36 0 36 -34 q0 -20 -12 -62 q-12 -42 -36 -99 q-51 -118 -71 -137 q-13 -12 -35 -12 ZM902 24 q-16 0 -28 14 q-12 14 -20 43 q-51 181 -68 224 q-9 24 -8 39 q1 12 12.5 20 q11.5 8 25.5 8 q22 0 33 -20 q6 -14 20 -49.5 q14 -35.5 30 -81.5 q27 -76 36.5 -108.5 q9.5 -32.5 9.5 -47.5 q0 -19 -11.5 -30 q-11.5 -11 -31.5 -11 Z" /><glyph glyph-name="uni50CF" unicode="&#x50cf;" d="M917 70 q53 -26 53 -55 q0 -43 -42 -43 q-38 0 -98 54 q-55 49 -104 122 q6 -31 6 -65 q0 -93 -35 -139 q-33 -43 -125 -43 q-49 0 -49 44 q0 35 47 40 q41 4 62 14 q29 14 29 89 l-4 33 q-66 -60 -174 -122 q-114 -66 -157 -66 q-37 0 -37 38 q0 23 57 45 q173 64 295 168 l-21 44 q-64 -49 -179 -108 q-63 -32 -85 -32 q-34 0 -34 35 q0 26 42 40 q121 41 226 114 l-29 37 q-182 -101 -231 -101 q-17 0 -26.5 9.5 q-9.5 9.5 -9.5 26.5 q0 23 54 42 q114 39 213 99 l-127 0 q-41 0 -61 19 q-20 19 -20 58 l0 74 q0 28 8 45 q-29 -22 -46 -22 q-32 0 -32 34 q0 21 48 55 q75 56 136 134 q22 29 45 29 q39 0 39 -26 q0 -13 -21 -37 l197 0 q68 0 68 -42 q0 -17 -76 -92 l128 0 q41 0 61.5 -18.5 q20.5 -18.5 20.5 -57.5 l0 -76 q0 -80 -82 -77 l-180 0 l-48 -38 q48 -48 80 -117 q42 29 122 111 q22 22 40 22 q44 0 44 -38 q0 -37 -148 -127 q74 -91 160 -133 ZM314 756 l-63 -175 l0 -632 q0 -47 -39 -47 q-39 0 -39 47 l0 458 q-58 -114 -83 -114 q-35 0 -35 40 q0 18 21 52 q95 152 155 377 q15 53 48 53 q39 0 39 -38 l-4 -21 ZM423 619 l213 0 l47 47 q10 10 10 14 q0 8 -13 8 l-206 0 q-40 -43 -76 -73 l25 4 ZM428 485 q0 -29 32 -31 l140 0 l0 101 l-150 0 q-22 0 -22 -22 l0 -48 ZM672 555 l0 -101 l150 0 q31 0 31 31 l0 38 q0 30 -31 32 l-150 0 Z" /><glyph glyph-name="uni5165" unicode="&#x5165;" d="M98 -75 q-38 0 -38 45 q0 16 14 31 l65 48 q252 186 353 548 l-2 45 q-2 26 -11.5 39 q-9.5 13 -30.5 14 l-131 0 q-50 0 -50 42 q0 41 50 41 l164 0 q44 0 64.5 -25 q20.5 -25 21.5 -79 q3 -211 99 -372 q106 -178 265 -278 q33 -21 33 -48 q0 -47 -42 -47 q-38 0 -149 100 q-175 160 -251 418 q-27 -62 -62.5 -130 q-35.5 -68 -53.5 -97 q-62 -100 -164 -197 q-103 -98 -144 -98 Z" /><glyph glyph-name="uni516C" unicode="&#x516c;" d="M925 281 q-28 0 -66.5 29.5 q-38.5 29.5 -89.5 90.5 q-101 121 -127 250 q-9 48 -41 49 l-103 0 q-46 0 -46 40 q0 39 46 39 l126 0 q72 0 85 -75 q39 -212 207 -320 q49 -31 49 -58 q0 -45 -40 -45 ZM98 274 q-39 0 -39 46 q0 16 63 84 q81 87 146 249 q12 29 24 43.5 q12 14.5 28 14.5 q39 0 39 -35 q0 -21 -18 -65 q-18 -44 -53 -106 q-76 -136 -150 -208 q-13 -12 -22 -17.5 q-9 -5.5 -18 -5.5 ZM866 -85 q-26 0 -51 42 l-29 50 l-16 -2 l-37 -5 q-18 -2 -102 -12.5 q-84 -10.5 -192 -20.5 l-282 -24 q-24 -2 -36.5 10 q-12.5 12 -12.5 35 q0 22 15 33 q17 11 84 11 l34 1 q86 161 150 366 q11 37 46 37 q13 0 32 -12 q12 -15 12 -27 q0 -5 -3 -12.5 q-3 -7.5 -4 -10.5 q-72 -212 -150 -338 l422 32 q-62 86 -96 124 q-35 38 -35 54 q0 33 38 33 q29 0 101 -89 q68 -82 118 -152 q40 -55 40 -82 q0 -41 -46 -41 Z" /><glyph glyph-name="uni5185" unicode="&#x5185;" d="M915 18 q4 -56 -22 -82 q-26 -26 -82 -22 l-92 0 q-46 0 -46 42 q0 22 11 32.5 q11 10.5 35 10.5 l70 0 q20 0 31.5 11 q11.5 11 11.5 31 l0 495 q0 23 -12.5 36 q-12.5 13 -35.5 13 l-250 0 q-6 -85 -17 -130 q7 4 15 4 q16 0 126 -104 q57 -54 86 -87.5 q29 -33.5 29 -49.5 q0 -20 -13.5 -32.5 q-13.5 -12.5 -32.5 -12.5 q-8 0 -19 6 q-11 6 -17 13 l-53 69 q-28 38 -122 132 q-6 6 -12 14 q-33 -88 -106 -165 q-75 -80 -122 -80 q-38 0 -38 42 q0 25 38 47 q169 99 179 334 l-219 0 q-23 0 -35.5 -13 q-12.5 -13 -12.5 -36 l0 -580 q0 -24 -10.5 -37 q-10.5 -13 -30.5 -13 q-20 0 -31 13 q-11 13 -11 37 l0 602 q0 53 25 81 q30 24 80 24 l249 0 l0 108 q0 20 10.5 31 q10.5 11 30.5 11 q20 0 30.5 -11.5 q10.5 -11.5 10.5 -30.5 l-2 -108 l271 0 q52 0 81 -25 q24 -28 24 -80 l0 -540 Z" /><glyph glyph-name="uni51FA" unicode="&#x51fa;" d="M889 324 q41 0 41 -52 l0 -213 q0 -54 -26 -81 q-27 -27 -81 -26 l-620 0 q-54 0 -80 26 q-27 27 -27 81 l0 213 q0 51 41 51 q42 0 42 -50 l0 -195 q0 -44 45 -44 l243 0 l0 356 l-228 0 q-54 0 -78.5 23 q-24.5 23 -20.5 75 l0 196 q0 50 42 50 q20 0 30.5 -12 q10.5 -12 10.5 -35 l0 -171 q0 -44 43 -44 l201 0 l0 288 q0 55 43 55 q42 0 42 -55 l0 -288 l208 0 q44 0 44 44 l0 170 q0 48 41 48 q42 0 42 -51 l0 -195 q7 -105 -99 -98 l-236 0 l0 -356 l251 0 q42 0 44 44 l0 195 q0 51 42 51 Z" /><glyph glyph-name="uni5206" unicode="&#x5206;" d="M923 320 q-17 0 -45.5 18 q-28.5 18 -62.5 52 q-73 71 -118 150 q-45 78 -51 124 q-6 44 -36 45 l-114 0 q-47 0 -47 41 q0 21 11 31 q11 10 36 10 l122 0 q43 0 66 -17 q17 -14 38 -84 q50 -168 199 -267 q21 -14 33 -29 q12 -15 12 -29 q0 -45 -43 -45 ZM97 311 q-39 0 -39 45 q0 18 41 56 q45 41 96 121 q30 48 47 78.5 q17 30.5 26 56.5 q17 51 51 51 q22 0 32 -9 q10 -9 10 -29 q0 -46 -105 -211 q-50 -79 -91.5 -119 q-41.5 -40 -67.5 -40 ZM574 -86 q-47 0 -47 45 q0 40 52 43 q89 5 106 23 q17 18 28 118 q11 102 11 130 q0 47 -44 47 l-237 0 q-15 -160 -63 -242 q-43 -73 -135 -122 q-78 -41 -122 -41 q-40 0 -40 44 q0 15 13.5 25.5 q13.5 10.5 42.5 18.5 q105 31 157 100 q56 73 65 217 l-104 0 q-51 0 -51 40 q0 40 51 40 l454 0 q97 0 97 -80 q0 -90 -15 -217 q-16 -137 -69 -163 q-54 -26 -150 -26 Z" /><glyph glyph-name="uni5207" unicode="&#x5207;" d="M438 141 q-17 -46 -53 -57 q-37 -11 -95 -11 q-79 0 -107 17 q-24 15 -24 69 l0 287 l-50 -9 l-15 -1 q-18 -1 -28 9 q-10 10 -10 29 q0 34 39 40 l64 11 l0 227 q0 45 39 45 q39 0 39 -45 l0 -215 l181 30 l11 1 q20 2 31 -8 q11 -10 11 -29 q0 -17 -11.5 -27.5 q-11.5 -10.5 -32.5 -12.5 l-190 -32 l0 -261 q0 -28 17 -36 q18 -9 50 -9 q54 0 64 21 q11 24 12 72 q1 24 10 35.5 q9 11.5 28 11.5 q38 0 38 -40 q0 -65 -18 -112 ZM821 739 q105 0 105 -96 l-10 -333 q-4 -122 -15 -219 q-11 -97 -26 -124 q-28 -54 -165 -54 q-52 0 -52 47 q0 46 67 46 q72 0 83 23 q13 27 22 154 q8 111 11 344 l2 90 q1 42 -41 42 l-147 0 q-4 -293 -44 -443 q-39 -143 -148 -246 q-29 -27 -52.5 -40.5 q-23.5 -13.5 -39.5 -13.5 q-21 0 -32 12 q-11 12 -11 33 q0 25 48 53 q105 60 152 196 q45 129 45 391 l0 58 l-123 0 q-51 0 -51 40 q0 40 51 40 l371 0 Z" /><glyph glyph-name="uni5230" unicode="&#x5230;" d="M882 805 q42 0 42 -46 l0 -749 q0 -49 -24 -75 q-24 -26 -73 -26 l-92 0 q-49 0 -49 41 q0 41 49 41 l64 0 q22 0 32 10 q10 10 10 32 l0 726 q0 46 41 46 ZM476 429 q-21 -3 -45.5 -7 q-24.5 -4 -52.5 -7 l0 -142 l146 0 q47 0 47 -37 q0 -37 -47 -37 l-146 0 l0 -159 l190 21 q41 4 41 -35 q0 -13 -8 -22.5 q-8 -9.5 -23 -11.5 q-188 -30 -466 -60 l-11 -1 q-40 0 -40 38 q0 17 8.5 27.5 q8.5 10.5 29.5 12.5 l196 22 l0 168 l-158 0 q-46 0 -46 38 q0 36 46 36 l158 0 l0 131 q-111 -14 -180 -19 q-27 -2 -39.5 8.5 q-12.5 10.5 -12.5 34.5 q0 18 10.5 27.5 q10.5 9.5 34.5 10.5 q20 1 69 5 q47 131 66 208 l-126 0 q-22 0 -34 9.5 q-12 9.5 -12 28.5 q0 19 12 28.5 q12 9.5 34 9.5 l432 0 q48 0 48 -38 q0 -38 -48 -38 l-217 0 q-38 -114 -77 -202 q127 10 214 21 l-18 30 q-8 14 -13.5 25 q-5.5 11 -5.5 19 q0 32 36 32 q25 0 86 -90 q59 -89 59 -114 q0 -37 -42 -37 q-12 0 -22 9 q-10 9 -22 29 l-20 33 l-31 -5 ZM735 143 q0 -43 -40 -43 q-39 0 -39 43 l0 532 q0 46 39 46 q40 0 40 -46 l0 -532 Z" /><glyph glyph-name="uni5236" unicode="&#x5236;" d="M542 506 q46 0 46 -37 q0 -36 -46 -36 l-177 0 l0 -89 l111 0 q101 8 93 -93 l0 -172 q0 -50 -22.5 -73 q-22.5 -23 -72.5 -21 l-36 0 q-41 0 -41 39 q0 39 41 39 l25 0 q32 0 31 31 l0 136 q0 39 -39 38 l-90 0 l0 -324 q0 -22 -9.5 -32 q-9.5 -10 -29.5 -10 q-37 0 -37 42 l0 324 l-75 0 q-40 0 -39 -38 l0 -208 q0 -41 -38 -41 q-37 0 -37 41 l0 229 q0 51 22 74 q22 23 71 19 l96 0 l0 89 l-186 0 q-45 0 -45 36 q0 37 45 37 l186 0 l0 98 l-129 0 q-19 -42 -32.5 -58.5 q-13.5 -16.5 -29.5 -16.5 q-38 0 -38 35 q0 12 27 63 q28 55 50 123 q9 29 38 29 q37 0 37 -33 q0 -12 -10 -39 l-12 -30 l99 0 l0 96 q0 41 37 41 q39 0 39 -41 l0 -96 l157 0 q44 0 44 -37 q0 -36 -44 -36 l-157 0 l0 -98 l177 0 ZM881 804 q41 0 41 -46 l0 -748 q0 -53 -24 -76 q-26 -25 -73 -25 l-69 0 q-50 0 -50 44 q0 43 50 43 l41 0 q43 0 43 42 l0 720 q0 46 41 46 ZM724 150 q0 -45 -42 -45 q-40 0 -40 45 l0 553 q0 49 41 49 q41 0 41 -49 l0 -553 Z" /><glyph glyph-name="uni524D" unicode="&#x524d;" d="M103 596 q-48 0 -48 40 q0 40 48 40 l193 0 l-24 54 l-10 22 q-12 27 -12 30 q0 32 43 32 q36 0 64 -64 l32 -74 l224 0 l39 105 q13 35 49 35 q47 0 47 -38 q0 -21 -27 -69 l-18 -33 l217 0 q49 0 49 -40 q0 -40 -49 -40 l-817 0 ZM727 -91 q-47 0 -47 44 q0 43 47 43 l47 0 q39 0 40 42 l0 452 q0 46 42 46 q41 0 41 -46 l0 -477 q0 -56 -25 -81.5 q-25 -25.5 -79 -22.5 l-66 0 ZM157 -99 q-42 0 -42 46 l0 496 q0 44 19.5 64 q19.5 20 63.5 18 l213 0 q45 0 65.5 -19.5 q20.5 -19.5 17.5 -62.5 l0 -434 q7 -104 -96 -100 l-48 0 q-48 0 -48 41 q0 41 41 41 l35 0 q32 0 34 35 l0 108 l-216 0 l0 -183 q0 -50 -39 -50 ZM636 74 q-41 0 -41 40 l0 350 q0 42 41 42 q41 0 41 -42 l0 -350 q0 -40 -41 -40 ZM412 419 q0 29 -30 31 l-156 0 q-28 0 -30 -31 l0 -57 l216 0 l0 57 ZM412 205 l0 85 l-216 0 l0 -85 l216 0 Z" /><glyph glyph-name="uni529F" unicode="&#x529f;" d="M707 -89 q-58 0 -58 49 q0 47 45 47 l49 -1 q40 -1 61 24 q18 21 32 158 q12 120 12 263 q0 57 -48 57 l-142 0 q-12 -207 -62 -329 q-49 -119 -179 -214 q-70 -51 -102 -51 q-44 0 -44 46 q0 22 56 54 q164 91 214 249 q26 82 34 245 l-120 0 q-51 0 -51 42 q0 41 51 41 l121 0 q3 93 3 161 q0 63 42 63 q45 0 45 -55 q0 -59 -5 -169 l174 0 q101 0 101 -103 q0 -299 -34 -450 q-29 -127 -195 -127 ZM101 58 q-46 0 -46 48 q0 19 10 29 q12 12 78 28 l26 6 l26 8 l0 448 l-92 0 q-49 0 -49 40 q0 40 49 40 l274 0 q49 0 49 -40 q0 -40 -49 -40 l-98 0 l0 -425 q66 19 102 33 q19 8 32 8 q36 0 36 -38 q0 -27 -36 -42 q-10 -5 -37.5 -14.5 q-27.5 -9.5 -44.5 -15.5 l-85 -29 q-126 -44 -145 -44 Z" /><glyph glyph-name="uni52A0" unicode="&#x52a0;" d="M306 -77 q-55 0 -55 48 q0 44 45 44 l30 0 q48 0 60 34 q15 41 21 153 l9 176 q7 140 8 159 q2 32 -40 32 l-89 0 q-7 -165 -25.5 -280 q-18.5 -115 -51.5 -197 q-66 -162 -125 -162 q-43 0 -43 46 q0 19 23 45 q62 69 98 198 q33 120 40 350 l-104 0 q-51 0 -51 44 q0 42 53 42 l104 0 l1 37 q2 48 2 73 q0 49 43 49 q44 0 44 -42 q0 -24 -2 -70 q-2 -32 -2 -47 l110 0 q50 0 75.5 -22.5 q25.5 -22.5 23.5 -66.5 l-8 -176 q-2 -56 -8 -176 q-4 -87 -13 -146.5 q-9 -59.5 -20 -85.5 q-24 -59 -153 -59 ZM656 -42 q-49 0 -71.5 21.5 q-22.5 21.5 -19.5 68.5 l0 551 q0 49 22 71 q22 22 69 19 l181 0 q49 0 71 -21.5 q22 -21.5 19 -69.5 l0 -549 q0 -49 -21.5 -71.5 q-21.5 -22.5 -68.5 -19.5 l-181 0 ZM807 44 q35 0 36 36 l0 488 q0 35 -36 36 l-123 0 q-34 0 -36 -36 l0 -488 q0 -34 36 -36 l123 0 Z" /><glyph glyph-name="uni535A" unicode="&#x535a;" d="M364 646 q-40 0 -40 36 q0 36 40 36 l244 0 l0 61 q0 39 38 39 q38 0 38 -39 l0 -61 l137 0 l-4 2 l-39 35 q-16 14 -16 27 q0 31 35 31 q16 0 48 -26 q31 -25 31 -42 q0 -19 -15 -27 l60 0 q42 0 42 -36 q0 -36 -42 -36 l-237 0 l0 -46 l156 0 q78 0 78 -75 l0 -263 q0 -38 -36 -38 q-36 0 -36 38 l0 53 l-163 0 l0 -57 q0 -35 -37 -35 q-36 0 -36 35 l0 57 l-165 0 l0 -53 q0 -38 -35 -38 q-35 0 -35 38 l0 263 q0 75 77 75 l156 0 l0 46 l-244 0 ZM357 524 q0 -38 -43 -38 l-56 0 l0 -540 q0 -44 -40 -44 q-39 0 -39 44 l0 540 l-73 0 q-51 0 -51 38 q0 39 51 39 l73 0 l0 208 q0 44 39 44 q40 0 40 -44 l0 -208 l56 0 q43 0 43 -39 ZM610 538 l-134 0 q-14 0 -22.5 -7 q-8.5 -7 -8.5 -18 l0 -24 l165 0 l0 49 ZM683 538 l0 -49 l163 0 l0 24 q0 24 -26 25 l-137 0 ZM610 377 l0 51 l-165 0 l0 -51 l165 0 ZM846 377 l0 51 l-163 0 l0 -51 l163 0 ZM929 195 q40 0 40 -35 q0 -35 -40 -35 l-96 0 l0 -128 q0 -47 -21.5 -70 q-21.5 -23 -67.5 -23 l-89 0 q-36 0 -36 37 q0 39 32 39 l70 0 q37 0 37 37 l0 108 l-425 0 q-40 0 -40 35 q0 35 40 35 l425 0 l0 12 q0 37 38 37 q37 0 37 -37 l0 -12 l96 0 ZM462 103 q20 0 60 -40 q40 -40 40 -58 q0 -39 -39 -39 q-21 0 -46 34 l-35 38 q-18 19 -18 32 q0 33 38 33 Z" /><glyph glyph-name="uni5374" unicode="&#x5374;" d="M98 -18 q-43 0 -43 46 q0 39 65 46 l26 3 q52 140 79 267 l-120 0 q-50 0 -50 41 q0 41 50 41 l159 0 l0 153 l-137 0 q-52 0 -52 41 q0 41 52 41 l137 0 l0 102 q0 52 42 52 q42 0 42 -52 l0 -102 l131 0 q50 0 50 -41 q0 -41 -50 -41 l-131 0 l0 -153 l152 0 q50 0 50 -41 q0 -41 -50 -41 l-190 0 q-32 -115 -82 -253 q105 16 202 40 l-27 57 q-18 36 -18 49 q0 28 34 28 q26 0 65 -74 q42 -82 55 -113 q16 -42 16 -51 q0 -38 -40 -38 q-26 0 -46 49 l-5 13 l-6 13 q-295 -82 -360 -82 ZM620 -98 q-40 0 -40 49 l0 722 q0 47 20.5 68.5 q20.5 21.5 66.5 18.5 l165 0 q45 0 71 -23 q24 -21 22 -70 l0 -556 q0 -51 -23.5 -75.5 q-23.5 -24.5 -73.5 -25.5 l-67 0 q-51 0 -51 45 q0 44 50 44 l44 0 q35 0 36 36 l0 510 q0 31 -33 33 l-113 0 q-30 0 -32 -33 l0 -694 q0 -49 -42 -49 Z" /><glyph glyph-name="uni53BB" unicode="&#x53bb;" d="M465 319 q-80 -186 -137 -282 q249 9 427 29 l-53 65 q-7 10 -15 18 q-7 9 -22.5 28.5 q-15.5 19.5 -22 29 q-6.5 9.5 -6.5 14.5 q0 37 40 37 q22 0 143 -130 q119 -128 119 -169 q0 -43 -46 -43 q-24 0 -52 40 q-34 48 -36 48 q-138 -23 -381 -44 q-96 -8 -288 -22 q-49 -3 -49 44 q0 24 23 35.5 q23 11.5 70 13.5 l67 2 q69 132 126 286 l-247 0 q-50 0 -50 39 q0 38 50 38 l339 0 l0 181 l-273 0 q-49 0 -49 39 q0 38 49 38 l273 0 l0 116 q0 52 42 52 q42 0 42 -52 l0 -116 l286 0 q25 0 36.5 -9 q11.5 -9 11.5 -29 q0 -20 -11.5 -29.5 q-11.5 -9.5 -36.5 -9.5 l-286 0 l0 -181 l353 0 q25 0 36.5 -9 q11.5 -9 11.5 -29 q0 -20 -11.5 -29.5 q-11.5 -9.5 -36.5 -9.5 l-436 0 Z" /><glyph glyph-name="uni53CC" unicode="&#x53cc;" d="M400 -85 q-39 0 -39 45 q0 29 55 52 q124 52 220 156 q-58 87 -91 199 q-34 114 -34 201 q0 40 38 40 q20 0 30.5 -12.5 q10.5 -12.5 12.5 -39.5 q15 -183 98 -321 q60 90 98 217 q39 132 39 186 q0 28 -36 28 l-268 0 q-51 0 -51 41 q0 42 51 42 l314 0 q83 0 83 -59 q0 -9 -10 -59 q-57 -304 -173 -462 q57 -63 201 -155 q29 -19 29 -45 q0 -49 -45 -49 q-32 0 -107 62 q-84 69 -132 123 q-63 -70 -157 -132 q-89 -58 -126 -58 ZM96 -55 q-39 0 -39 44 q0 20 27 43 q145 119 206 276 q-78 100 -153 171 q-28 25 -28 45 q0 35 37 35 q33 0 173 -161 q39 144 39 238 q0 29 -33 29 l-206 0 q-52 0 -52 41 q0 42 52 42 l252 0 q75 0 75 -57 q0 -92 -42 -266 l-26 -97 q120 -151 120 -182 q0 -40 -45 -40 q-21 0 -44 37 q-34 53 -65 94 q-54 -110 -131 -200 q-40 -46 -68.5 -69 q-28.5 -23 -48.5 -23 Z" /><glyph glyph-name="uni53EF" unicode="&#x53ef;" d="M595 -91 q-25 0 -37 10.5 q-12 10.5 -12 33.5 q0 45 49 45 l90 0 q46 0 48 47 l0 630 l-628 0 q-24 0 -35 10 q-11 10 -11 31 q0 20 11 30 q11 10 35 10 l814 0 q48 0 48 -40 q0 -21 -11.5 -31 q-11.5 -10 -36.5 -10 l-101 0 l0 -653 q4 -61 -24 -89 q-28 -28 -89 -24 l-110 0 ZM243 151 q-49 0 -70.5 20.5 q-21.5 20.5 -17.5 67.5 l0 215 q0 49 20.5 70.5 q20.5 21.5 67.5 17.5 l241 0 q49 0 71 -20.5 q22 -20.5 18 -67.5 l0 -215 q0 -49 -21 -70.5 q-21 -21.5 -68 -17.5 l-241 0 ZM451 228 q40 0 42 42 l0 153 q0 40 -42 42 l-174 0 q-41 0 -43 -42 l0 -153 q0 -40 43 -42 l174 0 Z" /><glyph glyph-name="uni53F7" unicode="&#x53f7;" d="M282 490 q-97 -7 -90 90 l0 109 q-4 49 18.5 71.5 q22.5 22.5 71.5 19.5 l460 0 q50 0 72 -21.5 q22 -21.5 18 -69.5 l0 -109 q7 -97 -90 -90 l-460 0 ZM710 557 q43 0 41 42 l0 70 q0 43 -41 42 l-396 0 q-21 0 -32 -10.5 q-11 -10.5 -10 -31.5 l0 -70 q0 -21 10.5 -32 q10.5 -11 31.5 -10 l396 0 ZM576 -95 q-52 -1 -52 45 q0 43 55 43 q129 0 150 24 q11 11 23 58 q12 47 12 66 q0 31 -34 31 l-430 0 q-70 0 -70 54 l2 11 l31 107 l-160 0 q-45 0 -45 37 q0 36 45 36 l817 0 q46 0 46 -36 q0 -37 -46 -37 l-577 0 l-11 -40 q-8 -28 -8 -35 q0 -24 31 -24 l418 0 q40 0 59.5 -16 q19.5 -16 19.5 -48 q0 -47 -19 -132 q-20 -87 -57 -113 q-37 -26 -141 -29 l-59 -2 Z" /><glyph glyph-name="uni540E" unicode="&#x540e;" d="M99 -73 q-22 0 -32.5 10.5 q-10.5 10.5 -10.5 33.5 q0 6 5.5 23.5 q5.5 17.5 16.5 41.5 q69 150 72 454 l0 150 q0 62 28 84 q26 20 204 34 q173 13 254 24 q106 14 188 30 l25 2 q22 1 33.5 -9.5 q11.5 -10.5 11.5 -31.5 q0 -20 -23 -33.5 q-23 -13.5 -68 -19.5 q-245 -32 -480 -43 q-47 -3 -70 -10 q-22 -7 -22 -40 l2 -83 l685 0 q50 0 50 -41 q0 -40 -50 -40 l-687 0 l-2 -46 q-9 -222 -49 -355 q-41 -135 -81 -135 ZM399 -66 q-110 -7 -103 103 l0 191 q-7 109 103 102 l386 0 q112 7 104 -102 l0 -191 q8 -110 -104 -103 l-386 0 ZM759 11 q47 0 47 48 l0 147 q0 48 -47 48 l-336 0 q-46 0 -46 -48 l0 -147 q0 -48 46 -48 l336 0 Z" /><glyph glyph-name="uni544A" unicode="&#x544a;" d="M105 367 q-48 0 -48 40 q0 40 48 40 l370 0 l0 153 l-233 0 q-57 -112 -94 -112 q-42 0 -42 40 q0 6 5.5 16 q5.5 10 13.5 21 q52 73 95 188 q7 18 16.5 26.5 q9.5 8.5 24.5 8.5 q23 0 34 -8 q11 -8 11 -26 q0 -13 -26 -74 l195 0 l0 81 q0 53 42 53 q42 0 42 -53 l0 -81 l270 0 q49 0 49 -40 q0 -40 -49 -40 l-270 0 l0 -153 l359 0 q49 0 49 -40 q0 -40 -49 -40 l-813 0 ZM267 -62 q-54 0 -78.5 23 q-24.5 23 -20.5 74 l0 148 q-7 104 99 97 l490 0 q53 0 77.5 -23 q24.5 -23 20.5 -74 l0 -148 q7 -105 -98 -97 l-490 0 ZM723 13 q46 0 46 46 l0 100 q0 45 -46 45 l-423 0 q-45 0 -45 -45 l0 -100 q0 -46 45 -46 l423 0 Z" /><glyph glyph-name="uni548C" unicode="&#x548c;" d="M350 466 l0 -114 q8 20 29 20 q7 0 26.5 -17.5 q19.5 -17.5 47.5 -50.5 q32 -37 46.5 -58 q14.5 -21 14.5 -32 q0 -37 -38 -37 q-22 0 -45 40 q-21 37 -61 83 q-10 11 -20 31 l0 -381 q0 -48 -40 -48 q-39 0 -39 48 l0 379 q-37 -104 -94 -188 q-57 -83 -81 -83 q-41 0 -41 43 q0 15 26 46 q125 148 183 319 l-162 0 q-43 0 -43 40 q0 39 43 39 l169 0 l0 146 q-81 -9 -162 -15 q-18 -1 -27.5 8.5 q-9.5 9.5 -9.5 29.5 q0 34 52 37 q184 12 298 48 l44 12 q42 0 42 -42 q0 -29 -30 -40 q-37 -13 -128 -27 l0 -157 l122 0 q44 0 44 -40 q0 -39 -44 -39 l-122 0 ZM829 704 q110 8 102 -102 l0 -534 q0 -56 -24.5 -81 q-24.5 -25 -77.5 -21 l-188 0 q-55 0 -80 24.5 q-25 24.5 -22 77.5 l0 534 q-7 110 102 102 l188 0 ZM847 577 q0 44 -44 44 l-136 0 q-46 0 -45 -44 l0 -484 q0 -45 45 -45 l136 0 q44 0 44 45 l0 484 Z" /><glyph glyph-name="uni54E6" unicode="&#x54e6;" d="M896 -90 q-71 0 -137 151 q-99 -115 -137 -115 q-36 0 -36 41 q0 19 32 42 q46 34 110 111 q-34 111 -44 319 l-127 0 l0 -144 l54 20 l12 2 q17 3 25 -8 q8 -11 8 -32 q0 -25 -99 -60 l0 -233 q0 -49 -22.5 -71.5 q-22.5 -22.5 -72.5 -20.5 l-57 0 q-36 0 -36 40 q0 40 36 40 l42 0 q32 0 34 33 l0 188 l-33 -11 q-43 -14 -59 -14 q-34 0 -34 41 q0 30 49 42 l77 21 l0 167 l-86 0 q-41 0 -41 37 q0 37 41 37 l86 0 l0 150 l-53 -10 l-37 -5 q-15 -2 -23.5 9 q-8.5 11 -8.5 31 q0 30 62 39 l27 4 q54 8 68 11 q32 7 56 15 q18 6 29 6 q38 0 38 -41 q0 -14 -20 -25 q-20 -11 -62 -21 l0 -163 l125 0 q0 17 -2 51 q-1 27 -2 79 q-1 52 -1 93 q0 56 41 56 q40 0 40 -55 l0 -224 l165 0 q45 0 45 -37 q0 -37 -45 -37 l-163 0 q9 -171 24 -238 q40 70 64 143 q12 34 40 34 q43 0 43 -33 q0 -19 -36 -91 q-37 -72 -86 -145 q18 -50 41 -86 q25 -40 39 -40 q15 0 19 61 q5 60 30 60 q36 0 36 -35 q0 -179 -78 -179 ZM904 590 q-18 0 -41 33 l-16 30 q-2 4 -14 25 q-13 26 -13 30 q0 34 40 34 q20 0 53 -50 q32 -48 32 -65 q0 -37 -41 -37 ZM180 112 q-46 0 -66.5 20 q-20.5 20 -17.5 64 l0 448 q0 44 20 64.5 q20 20.5 64 18.5 l75 0 q46 0 67 -20 q21 -20 18 -63 l0 -448 q0 -46 -20 -66 q-20 -20 -65 -18 l-75 0 ZM236 190 q30 0 32 32 l0 396 q0 30 -32 32 l-37 0 q-15 0 -23 -8.5 q-8 -8.5 -9 -23.5 l0 -396 q0 -32 32 -32 l37 0 Z" /><glyph glyph-name="uni54E8" unicode="&#x54e8;" d="M462 -97 q-40 0 -40 48 l0 512 q0 48 21.5 70 q21.5 22 68.5 20 l112 0 l0 210 q0 52 43 52 q43 0 43 -52 l0 -210 l123 0 q48 0 70 -21.5 q22 -21.5 19 -68.5 l0 -452 q4 -56 -22.5 -83 q-26.5 -27 -83.5 -23 l-64 0 q-50 0 -50 43 q0 44 50 44 l50 0 q36 0 38 38 l0 107 l-338 0 l0 -186 q0 -48 -40 -48 ZM834 584 q-42 0 -42 36 q0 9 14 39 q26 56 34 74 q13 32 43 32 q44 0 44 -38 q0 -22 -51 -109 q-20 -34 -42 -34 ZM505 585 q-17 0 -27 10 q-9 9 -35 60 l-15 29 q-17 32 -17 39 q0 36 41 36 q13 0 29 -15 q16 -15 32 -44 q35 -62 35 -80 q0 -35 -43 -35 ZM184 109 q-46 0 -68 21 q-22 21 -20 66 l0 447 q0 46 21.5 67 q21.5 21 66.5 19 l93 0 q47 0 68.5 -20.5 q21.5 -20.5 18.5 -65.5 l0 -447 q0 -46 -21 -67.5 q-21 -21.5 -66 -19.5 l-93 0 ZM259 192 q14 0 20.5 6.5 q6.5 6.5 7.5 20.5 l0 401 q0 26 -28 27 l-58 0 q-25 0 -27 -27 l0 -401 q0 -14 6.5 -20 q6.5 -6 20.5 -7 l58 0 ZM840 445 q0 31 -33 33 l-272 0 q-31 0 -33 -33 l0 -68 l338 0 l0 68 ZM840 207 l0 100 l-338 0 l0 -100 l338 0 Z" /><glyph glyph-name="uni5546" unicode="&#x5546;" d="M141 -94 q-41 0 -41 48 l0 498 q0 50 22 72.5 q22 22.5 70 19.5 l99 0 l-19 111 l-171 0 q-45 0 -45 37 q0 38 45 38 l360 0 l0 45 q0 39 46 39 q44 0 44 -39 l0 -45 l371 0 q46 0 46 -38 q0 -37 -46 -37 l-178 0 l-27 -111 l115 0 q49 0 71.5 -21.5 q22.5 -21.5 19.5 -70.5 l0 -442 q8 -109 -102 -101 l-66 0 q-43 0 -43 42 q0 42 43 42 l49 0 q37 0 38 39 l0 405 q0 34 -35 36 l-198 0 l0 -88 q0 -34 52 -34 q44 0 64 8 q13 5 15 31 q1 18 9 26.5 q8 8.5 24 8.5 q33 0 33 -31 q0 -48 -21 -80 q-18 -27 -112 -27 l-32 0 q-62 0 -82 13 q-18 12 -20 44 l0 129 l-96 0 q-10 -116 -104 -176 q-58 -38 -81 -38 q-19 0 -28 9 q-9 9 -9 28 q0 22 37 38 q94 41 111 139 l-152 0 q-34 0 -36 -36 l0 -483 q0 -48 -40 -48 ZM638 544 q19 67 26 111 l-312 0 q12 -54 19 -111 l267 0 ZM364 -9 q-41 0 -59.5 19 q-18.5 19 -16.5 60 l0 96 q0 41 18 60.5 q18 19.5 58 17.5 l291 0 q42 0 60.5 -19 q18.5 -19 16.5 -59 l0 -96 q0 -42 -18.5 -61.5 q-18.5 -19.5 -58.5 -17.5 l-291 0 ZM628 58 q27 0 27 27 l0 65 q0 26 -27 27 l-237 0 q-27 0 -27 -27 l0 -65 q0 -26 27 -27 l237 0 Z" /><glyph glyph-name="uni5668" unicode="&#x5668;" d="M202 507 q-43 0 -63.5 20 q-20.5 20 -20.5 62 l0 105 q0 86 84 82 l182 0 q43 0 63.5 -20 q20.5 -20 18.5 -62 l0 -105 q0 -44 -20 -64 q-20 -20 -62 -18 l-182 0 ZM636 511 q-43 0 -62.5 19.5 q-19.5 19.5 -19.5 62.5 l0 101 q0 43 20 63.5 q20 20.5 62 18.5 l182 0 q43 0 63.5 -20 q20.5 -20 18.5 -62 l0 -101 q0 -44 -20 -64 q-20 -20 -62 -18 l-182 0 ZM197 606 q0 -31 30 -31 l132 0 q30 0 30 31 l0 72 q0 14 -8 22 q-8 8 -22 8 l-132 0 q-14 0 -22 -8 q-8 -8 -8 -22 l0 -72 ZM631 610 q0 -31 30 -31 l132 0 q30 0 30 31 l0 68 q0 14 -8 22 q-8 8 -22 8 l-132 0 q-14 0 -22 -8 q-8 -8 -8 -22 l0 -68 ZM928 265 q37 -4 37 -37 q0 -39 -39 -39 q-17 0 -53 4 q19 -18 19 -54 l0 -138 q0 -36 -19.5 -55.5 q-19.5 -19.5 -55.5 -19.5 l-190 0 q-36 0 -55.5 19.5 q-19.5 19.5 -19.5 55.5 l0 138 q0 36 19.5 55.5 q19.5 19.5 55.5 19.5 l170 0 q-62 22 -121 60 q-59 38 -105 81 l-119 0 q-44 -43 -96.5 -76 q-52.5 -33 -93.5 -47 l-52 -18 l187 0 q36 0 55.5 -19.5 q19.5 -19.5 19.5 -55.5 l0 -138 q0 -36 -19.5 -55.5 q-19.5 -19.5 -55.5 -19.5 l-190 0 q-36 0 -55.5 19.5 q-19.5 19.5 -19.5 55.5 l0 138 q0 36 20 56 q-42 -11 -53 -11 q-39 0 -39 42 q0 13 8.5 22 q8.5 9 28.5 13 q135 31 227 94 l-219 0 q-43 0 -43 36 q0 36 43 36 l300 0 q34 39 56 84 q13 25 39 25 q18 0 30 -10 q12 -10 12 -27 q0 -11 -4 -20 q-12 -30 -26 -52 l222 0 l-19 21 q-12 14 -12 26 q0 13 12 22 q9 6 21 6 q14 0 28 -9 q23 -17 39.5 -35.5 q16.5 -18.5 23.5 -30.5 l91 0 q22 0 33.5 -9.5 q11.5 -9.5 11.5 -26.5 q0 -17 -11.5 -26.5 q-11.5 -9.5 -33.5 -9.5 l-244 0 q61 -36 126.5 -60 q65.5 -24 127.5 -30 ZM238 146 q-30 0 -30 -30 l0 -92 q0 -30 30 -30 l127 0 q31 0 31 30 l0 101 q0 21 -21 21 l-137 0 ZM816 125 q0 21 -21 21 l-137 0 q-30 0 -30 -30 l0 -92 q0 -30 30 -30 l127 0 q31 0 31 30 l0 101 Z" /><glyph glyph-name="uni56DE" unicode="&#x56de;" d="M209 -74 q-62 0 -90 27.5 q-28 27.5 -28 90.5 l0 605 q0 62 27.5 90 q27.5 28 90.5 28 l606 0 q62 0 90 -27.5 q28 -27.5 28 -90.5 l0 -605 q0 -62 -27.5 -90 q-27.5 -28 -90.5 -28 l-606 0 ZM790 9 q59 0 59 59 l0 558 q0 59 -59 59 l-556 0 q-59 0 -59 -59 l0 -558 q0 -59 59 -59 l556 0 ZM395 141 q-55 0 -80.5 24.5 q-25.5 24.5 -22.5 77.5 l0 218 q0 54 24.5 79.5 q24.5 25.5 78.5 22.5 l231 0 q55 0 80.5 -24.5 q25.5 -24.5 22.5 -77.5 l0 -222 q0 -103 -103 -98 l-231 0 ZM604 219 q45 0 45 45 l0 176 q0 45 -45 45 l-186 0 q-45 0 -45 -45 l0 -176 q0 -45 45 -45 l186 0 Z" /><glyph glyph-name="uni5728" unicode="&#x5728;" d="M406 608 q-39 -105 -107 -214 l0 -438 q0 -26 -10 -38 q-10 -12 -31 -12 q-20 0 -30 12 q-10 12 -10 38 l0 321 q-93 -117 -123 -117 q-20 0 -30 10.5 q-10 10.5 -10 32.5 q0 9 5.5 17.5 q5.5 8.5 17.5 20.5 q88 87 140 166 q38 59 62 103 l43 98 l-210 0 q-49 0 -49 40 q0 40 49 40 l239 0 l23 86 q11 43 45 43 q43 0 43 -36 q0 -17 -24 -83 l-3 -10 l476 0 q50 0 50 -40 q0 -40 -50 -40 l-506 0 ZM920 16 q48 0 48 -39 q0 -39 -48 -39 l-533 0 q-46 0 -46 39 q0 39 46 39 l237 0 l0 254 l-187 0 q-48 0 -48 39 q0 38 48 38 l187 0 l0 159 q0 49 41 49 q41 0 41 -49 l0 -159 l175 0 q49 0 49 -38 q0 -39 -49 -39 l-175 0 l0 -254 l214 0 Z" /><glyph glyph-name="uni5730" unicode="&#x5730;" d="M680 -69 q-123 0 -176 8 q-80 12 -80 90 l0 355 q-73 -30 -85 -30 q-16 0 -24 9 q-8 9 -8 30 q0 29 33 41 l84 33 l0 221 q0 44 38 44 q39 0 39 -44 l0 -190 l124 49 l0 224 q0 43 38 43 q39 0 39 -43 l0 -193 l110 43 q32 12 50 12 q64 0 64 -82 l0 -229 q0 -151 -147 -151 q-39 0 -39 46 q0 31 43 40 q47 9 54 24 q7 15 8 40 l0 186 q0 31 -25 31 l-15 -3 l-103 -41 l0 -363 q0 -44 -38 -44 q-39 0 -39 44 l0 332 l-124 -48 l0 -360 q0 -26 26 -37 q23 -10 183 -10 q123 0 145 16 q23 16 25 53 q1 37 14 51 q12 14 30 14 q44 0 44 -46 q0 -118 -57 -144 q-45 -21 -231 -21 ZM98 35 q-43 0 -43 40 q0 20 10.5 31.5 q10.5 11.5 32.5 16.5 l85 20 l0 353 l-82 0 q-42 0 -42 39 q0 38 42 38 l82 0 l0 193 q0 43 39 43 q38 0 38 -43 l0 -193 l70 0 q43 0 43 -38 q0 -39 -43 -39 l-70 0 l0 -332 q15 4 62 17 q12 3 20 3 q14 0 21.5 -7.5 q7.5 -7.5 10.5 -23.5 q1 -4 1 -11 q0 -16 -10 -25.5 q-10 -9.5 -33 -17.5 q-195 -64 -234 -64 Z" /><glyph glyph-name="uni5747" unicode="&#x5747;" d="M851 668 q104 0 102 -93 q-3 -140 -11 -280 q-7 -134 -15.5 -205.5 q-8.5 -71.5 -21.5 -102.5 q-17 -38 -56 -55.5 q-39 -17.5 -114 -17.5 q-24 0 -37 1 q-25 2 -37 11.5 q-12 9.5 -12 30.5 q0 22 14.5 32.5 q14.5 10.5 46.5 10.5 q53 0 79 6 q26 6 36 20 q7 11 14.5 47 q7.5 36 10.5 95 q13 209 17 376 q1 25 -10.5 35.5 q-11.5 10.5 -34.5 10.5 l-294 0 q-42 -91 -75.5 -138.5 q-33.5 -47.5 -56.5 -47.5 q-38 0 -38 37 q0 13 16 34 q83 112 122 266 l11 44 q7 29 40 29 q41 0 41 -35 q0 -28 -30 -111 l293 0 ZM355 201 q33 0 33 -35 q0 -30 -59 -48 q-182 -56 -227 -56 q-22 0 -31.5 8 q-9.5 8 -9.5 29 q0 22 12 32 q6 5 30.5 11.5 q24.5 6.5 57.5 13.5 l23 6 l0 334 l-78 0 q-48 0 -48 39 q0 40 48 40 l78 0 l0 186 q0 25 10 36 q10 11 31 11 q21 0 31 -11 q10 -11 10 -36 l0 -186 l62 0 q49 0 49 -40 q0 -39 -49 -39 l-62 0 l0 -315 l62 15 q20 5 27 5 ZM512 358 q-47 0 -47 37 q0 39 47 39 l215 0 q47 0 47 -39 q0 -37 -47 -37 l-215 0 ZM790 214 q3 -31 -40 -43 q-170 -48 -268 -61 q-22 -3 -32.5 8.5 q-10.5 11.5 -10.5 30.5 q0 16 11 26 q11 10 39 16 l192 41 l65 13 q5 1 13 1 q26 0 31 -32 Z" /><glyph glyph-name="uni58F0" unicode="&#x58f0;" d="M182 487 q-45 0 -45 36 q0 37 45 37 l283 0 l0 87 l-362 0 q-45 0 -45 37 q0 36 45 36 l362 0 l0 54 q0 41 43 41 q43 0 43 -41 l0 -54 l369 0 q46 0 46 -36 q0 -37 -46 -37 l-369 0 l0 -87 l290 0 q45 0 45 -37 q0 -36 -45 -36 l-659 0 ZM96 -95 q-41 0 -41 46 q0 20 22 47 q77 90 73 299 l0 37 q0 92 97 85 l552 0 q97 8 89 -90 l0 -112 q8 -97 -89 -89 l-573 0 q-14 -89 -54 -156 q-40 -67 -76 -67 ZM768 200 q36 0 35 35 l0 76 q0 36 -35 35 l-214 0 l0 -146 l214 0 ZM472 346 l-195 0 q-42 0 -40 -61 l-5 -85 l240 0 l0 146 Z" /><glyph glyph-name="uni590D" unicode="&#x590d;" d="M143 586 q-3 -1 -9 -1 q-15 0 -24 9 q-9 9 -9 22 q0 20 27 39 q33 23 64 54.5 q31 31.5 75 86.5 q18 21 41 21 q22 0 33.5 -9.5 q11.5 -9.5 11.5 -22.5 q0 -13 -7 -23 q-7 -10 -23 -26 l552 0 q22 0 34 -8.5 q12 -8.5 12 -24.5 q0 -35 -46 -35 l-618 0 q-37 -37 -67.5 -57.5 q-30.5 -20.5 -46.5 -24.5 ZM925 -6 q43 -3 43 -39 q0 -19 -14 -29 q-14 -10 -35 -9 q-104 5 -206.5 26.5 q-102.5 21.5 -193.5 60.5 q-87 -40 -204 -68 q-113 -27 -200 -27 q-21 0 -29.5 9 q-8.5 9 -8.5 31 q0 17 10.5 27 q10.5 10 28.5 11 q174 9 318 58 q-96 55 -159 125 q-106 -75 -155 -75 q-13 0 -21 9.5 q-8 9.5 -8 25.5 q0 24 26 34 q148 59 242 161 l-75 0 q-36 0 -55.5 19.5 q-19.5 19.5 -19.5 55.5 l0 136 q0 36 19.5 55.5 q19.5 19.5 55.5 19.5 l488 0 q36 0 55.5 -19.5 q19.5 -19.5 19.5 -55.5 l0 -136 q0 -36 -19.5 -55.5 q-19.5 -19.5 -55.5 -19.5 l-332 0 l-54 -61 l389 0 q52 0 52 -39 q0 -24 -59 -72 q-69 -56 -135 -92 l-26 -15 q127 -37 318 -52 ZM292 498 l470 0 l0 23 q0 14 -8 22 q-8 8 -22 8 l-410 0 q-14 0 -22 -8 q-8 -8 -8 -22 l0 -23 ZM292 415 q0 -14 8 -22 q8 -8 22 -8 l410 0 q14 0 22 8 q8 8 8 22 l0 25 l-470 0 l0 -25 ZM321 204 q87 -80 196 -125 q101 43 186 112 q5 3 5 7 q0 7 -10 7 l-375 0 l-2 -1 Z" /><glyph glyph-name="uni5916" unicode="&#x5916;" d="M952 325 q16 -16 16 -34 q0 -14 -10 -25 q-14 -14 -30 -14 q-18 0 -35 17 q-97 97 -159 151 l0 -462 q0 -22 -11 -34 q-11 -12 -31 -12 q-42 0 -42 46 l0 808 q0 48 42 48 q42 0 42 -48 l0 -264 q127 -85 218 -177 ZM461 663 q36 0 56.5 -19 q20.5 -19 19.5 -55 q-3 -143 -54 -274.5 q-51 -131.5 -143 -235 q-92 -103.5 -213 -163.5 q-13 -7 -27 -7 q-22 0 -33 21 q-4 8 -4 18 q0 23 28 39 q180 100 271 262 q-70 58 -140 104 q-18 12 -18 29 q0 11 7 19 q11 15 27 15 q11 0 25 -8 q64 -37 133 -89 q44 108 55 240 q1 14 -6.5 22 q-7.5 8 -22.5 8 l-151 0 q-27 -67 -62.5 -133.5 q-35.5 -66.5 -74.5 -118.5 q-15 -21 -35 -21 q-12 0 -25 10 q-14 11 -14 27 q0 16 13 33 q114 162 169 395 q8 32 37 32 q22 0 33.5 -12 q11.5 -12 8.5 -36 q-6 -45 -24 -102 l164 0 Z" /><glyph glyph-name="uni5929" unicode="&#x5929;" d="M100 -95 q-42 0 -42 49 q0 26 35 42 q293 134 342 384 l-307 0 q-51 0 -51 39 q0 21 12.5 31 q12.5 10 38.5 10 l320 0 q7 91 7 207 l-250 0 q-26 0 -38.5 10 q-12.5 10 -12.5 31 q0 40 51 40 l617 0 q51 0 51 -40 q0 -21 -12.5 -31 q-12.5 -10 -38.5 -10 l-281 0 l0 -29 q0 -103 -8 -178 l366 0 q50 0 50 -41 q0 -39 -50 -39 l-355 0 q48 -119 159 -225 q110 -105 235 -156 q28 -12 28 -40 q0 -25 -11.5 -36.5 q-11.5 -11.5 -36.5 -11.5 q-62 0 -202 116 q-142 117 -214 288 q-55 -172 -200 -291 q-143 -119 -202 -119 Z" /><glyph glyph-name="uni597D" unicode="&#x597d;" d="M93 -76 q-39 0 -39 44 q0 21 42 47 q87 52 135 120 l-90 68 q-39 30 -39 63 q0 18 12 71 q7 32 27 155 l7 43 l-54 -1 q-40 -1 -40 40 q0 38 47 40 l59 0 l17 156 q2 20 13 30.5 q11 10.5 29 10.5 q39 0 39 -41 l-19 -154 l91 1 q78 1 78 -77 q0 -63 -20 -203 q-16 -107 -58 -187 q95 -86 95 -118 q0 -44 -43 -44 q-20 0 -67 59 l-27 32 q-57 -74 -106 -111 q-58 -44 -89 -44 ZM550 -91 q-53 0 -53 43 q0 42 53 42 l57 0 q41 0 43 44 l0 278 l-187 0 q-48 0 -48 39 q0 39 48 39 l187 0 l0 105 q0 31 14 48 q15 18 82 64 q69 47 69 61 q0 5 -4 8 q-4 3 -9 3 l-324 0 q-48 0 -48 37 q0 20 11.5 29.5 q11.5 9.5 36.5 9.5 l385 0 q81 0 81 -49 q0 -41 -168 -160 q-43 -32 -45 -63 l0 -93 l186 0 q49 0 49 -39 q0 -39 -49 -39 l-186 0 l0 -299 q0 -57 -28 -81 q-31 -27 -81 -27 l-72 0 ZM270 203 q37 85 52 218 l9 91 q3 26 -32 26 l-72 -2 q-13 -86 -32 -176 q-13 -63 -13 -73 q0 -22 43 -52 l45 -32 Z" /><glyph glyph-name="uni5982" unicode="&#x5982;" d="M397 138 q54 -41 80 -66 q26 -25 27 -40 q2 -20 -9.5 -32.5 q-11.5 -12.5 -30.5 -12.5 q-10 0 -19.5 5.5 q-9.5 5.5 -21 15 q-11.5 9.5 -18.5 14.5 l-56 44 q-30 -37 -69 -72 q-41 -36 -88.5 -57 q-47.5 -21 -76.5 -21 q-40 0 -40 41 q0 26 40 44 q48 22 78 37.5 q30 15.5 50 34.5 q25 23 43 47 q-37 27 -132 83 q-19 11 -30 27 q-11 16 -11 35 q0 17 14 69 q22 84 47 204 l-79 0 q-21 0 -30.5 9.5 q-9.5 9.5 -9.5 29.5 q0 18 11.5 28.5 q11.5 10.5 34.5 10.5 l87 0 q16 91 23 152 q2 18 14 30 q12 12 28 12 q22 0 32 -11.5 q10 -11.5 10 -37.5 q0 -26 -24 -146 l133 0 q38 0 60.5 -18.5 q22.5 -18.5 21.5 -54.5 q-5 -132 -26 -230 q-21 -98 -63 -174 ZM925 74 q4 -59 -23 -85.5 q-27 -26.5 -84 -21.5 l-166 0 l-16 -1 q-98 0 -91 108 l0 526 q-7 115 107 106 l166 0 l16 1 q98 0 91 -107 l0 -526 ZM842 575 q0 51 -47 51 l-118 0 q-51 0 -50 -51 l0 -478 q0 -50 48 -50 l118 0 q25 0 37 11.5 q12 11.5 12 36.5 l0 480 ZM328 188 q61 124 71 322 q1 14 -7 21 q-8 7 -22 7 l-115 0 q-15 -75 -30 -142.5 q-15 -67.5 -22 -89.5 q-4 -13 -4 -23 q0 -9 5 -15.5 q5 -6.5 18 -14.5 l106 -65 Z" /><glyph glyph-name="uni5B57" unicode="&#x5b57;" d="M118 459 q-21 0 -31 11.5 q-10 11.5 -10 36.5 l0 96 q-4 54 20 78 q24 24 77 20 l293 0 l0 61 q0 51 45 51 q23 0 33.5 -12.5 q10.5 -12.5 10.5 -38.5 l0 -61 l293 0 q53 4 77 -20 q24 -24 20 -78 l0 -96 q0 -25 -10 -36.5 q-10 -11.5 -31 -11.5 q-21 0 -30.5 11.5 q-9.5 11.5 -9.5 36.5 l0 69 q0 24 -13 36.5 q-13 12.5 -37 12.5 l-607 0 q-49 0 -49 -49 l0 -69 q0 -25 -10 -36.5 q-10 -11.5 -31 -11.5 ZM380 -92 q-24 0 -35.5 10.5 q-11.5 10.5 -11.5 31.5 q0 43 47 43 l61 0 q19 0 29 10.5 q10 10.5 10 28.5 l0 163 l-364 0 q-48 0 -48 37 q0 20 11.5 29 q11.5 9 36.5 9 l364 0 l0 43 q0 40 21 61 q4 4 11 7.5 q7 3.5 10 5.5 l133 59 q3 1 9 3.5 q6 2.5 8 4.5 q2 2 2 4 q0 5 -7 5 l-427 0 q-21 0 -30.5 9 q-9.5 9 -9.5 27 q0 18 9.5 27 q9.5 9 30.5 9 l511 0 q36 0 54 -10.5 q18 -10.5 18 -29.5 q0 -17 -6.5 -26.5 q-6.5 -9.5 -27.5 -19.5 l-59 -30 q-90 -48 -140 -67 q-18 -7 -23 -15.5 q-5 -8.5 -5 -22.5 l0 -44 l346 0 q25 0 36.5 -9 q11.5 -9 11.5 -29 q0 -37 -48 -37 l-346 0 l0 -174 q0 -61 -25.5 -87 q-25.5 -26 -86.5 -26 l-70 0 Z" /><glyph glyph-name="uni5BA2" unicode="&#x5ba2;" d="M116 502 q-43 0 -43 51 l0 67 q0 56 25 80 q28 26 81 25 l281 0 l0 47 q0 43 46 43 q46 0 46 -43 l0 -47 l292 0 q55 0 81 -25 q25 -24 25 -76 l0 -71 q0 -51 -43 -51 q-42 0 -42 51 l0 60 q0 39 -39 39 l-629 0 q-38 0 -37 -39 l0 -60 q0 -51 -44 -51 ZM98 163 q-42 0 -42 41 q0 31 59 43 q199 40 323 96 q-86 58 -141 135 q-148 -134 -194 -134 q-37 0 -37 38 q0 19 59 55 q129 78 207 185 q17 23 37 23 q22 0 33 -8 q11 -8 11 -22 q0 -15 -31 -50 l376 0 q63 0 63 -41 q0 -11 -17.5 -29 q-17.5 -18 -54.5 -48 q-60 -48 -159 -104 q132 -54 331 -85 q47 -7 47 -45 q0 -42 -43 -42 q-36 0 -177 39 q-142 39 -239 90 q-109 -52 -245 -94 q-141 -43 -166 -43 ZM516 378 q166 81 166 110 q0 9 -10 9 l-307 0 q54 -66 151 -119 ZM263 -82 q-40 0 -61.5 21 q-21.5 21 -21.5 62 l0 105 q0 41 21.5 62 q21.5 21 61.5 21 l497 0 q41 0 62 -21 q21 -21 21 -62 l0 -105 q0 -41 -21 -62 q-21 -21 -62 -21 l-497 0 ZM724 -10 q18 0 27 8.5 q9 8.5 9 27.5 l0 55 q0 36 -36 36 l-425 0 q-36 0 -36 -36 l0 -55 q0 -19 8.5 -27.5 q8.5 -8.5 27.5 -8.5 l425 0 Z" /><glyph glyph-name="uni5BB9" unicode="&#x5bb9;" d="M116 510 q-43 0 -43 50 l0 60 q0 55 25 79 q29 27 81 25 l281 0 l0 48 q0 43 46 43 q46 0 46 -43 l0 -48 l296 0 q49 0 77 -25 q25 -22 25 -76 l0 -63 q0 -50 -43 -50 q-42 0 -42 50 l0 52 q0 41 -39 39 l-629 0 q-38 0 -37 -39 l0 -52 q0 -50 -44 -50 ZM850 402 q-27 0 -141 77 q-112 76 -112 99 q0 34 39 34 q13 0 50 -27 q100 -72 175 -104 q29 -12 29 -38 q0 -41 -40 -41 ZM166 412 q-38 0 -38 39 q0 22 57 48 q77 35 151 93 q23 18 39 18 q37 0 37 -37 q0 -24 -106 -93 q-105 -68 -140 -68 ZM94 169 q-39 0 -39 43 q0 28 41 44 q111 41 212 112 q105 73 154 142 q14 19 25 27.5 q11 8.5 24 8.5 q17 0 28.5 -9.5 q11.5 -9.5 11.5 -24.5 q0 -12 -8 -24 q160 -150 354 -210 q72 -21 72 -50 q0 -46 -40 -46 q-45 0 -185 75 q-134 71 -242 181 q-90 -97 -231 -183 q-142 -86 -177 -86 ZM297 -66 q-50 0 -73 22 q-23 22 -20 71 l0 117 q-8 96 105 94 l403 0 q116 0 107 -94 l0 -117 q0 -51 -22 -74 q-22 -23 -71 -19 l-429 0 ZM699 8 q37 0 39 38 l0 84 q0 17 -9 26 q-9 9 -26 9 l-382 0 q-33 0 -35 -35 l0 -84 q0 -36 38 -38 l375 0 Z" /><glyph glyph-name="uni5C0F" unicode="&#x5c0f;" d="M368 -85 q-28 0 -40.5 11 q-12.5 11 -12.5 34 q0 46 53 46 l51 0 q52 0 52 50 l0 702 q0 26 10.5 38.5 q10.5 12.5 32.5 12.5 q43 0 43 -51 l0 -720 q0 -65 -29 -93 q-35 -31 -93 -30 l-67 0 ZM908 86 q-30 0 -42 45 q-60 229 -149 426 q-15 35 -15 45 q0 34 39 34 q12 0 24 -10.5 q12 -10.5 22 -29.5 q56 -111 113 -269 q59 -162 59 -194 q0 -15 -16 -31 q-16 -16 -35 -16 ZM107 84 q-43 0 -43 42 q0 11 29 74 q71 149 107 329 q15 74 24 89 q11 16 32 16 q38 0 38 -41 q0 -82 -57 -258 q-56 -170 -88 -220 q-20 -31 -42 -31 Z" /><glyph glyph-name="uni5C1A" unicode="&#x5c1a;" d="M137 -94 q-42 0 -42 53 l0 492 q0 59 29 88 q29 29 88 29 l254 0 l0 192 q0 56 45 56 q43 0 43 -56 l0 -192 l260 0 q118 0 118 -117 l0 -422 q0 -62 -28 -89 q-32 -29 -89 -28 l-91 0 q-49 0 -49 45 q0 46 49 46 l76 0 q24 0 35 11 q11 11 11 35 l0 390 q0 47 -47 47 l-573 0 q-47 0 -46 -47 l0 -480 q0 -53 -43 -53 ZM710 603 q-15 12 -15 31 q0 17 10 28 q43 52 86 119 q11 19 35 19 q13 0 27 -9 q20 -14 20 -34 q0 -8 -5 -20 q-10 -20 -38.5 -61.5 q-28.5 -41.5 -52.5 -65.5 q-19 -19 -38 -19 q-14 0 -29 12 ZM242 619 q-60 76 -83 109 q-9 12 -9 25 q0 16 15 29 q13 12 30 12 q18 0 31 -12 q19 -18 50.5 -57 q31.5 -39 40.5 -59 q6 -13 6 -25 q0 -20 -16 -31 q-14 -10 -30 -10 q-21 0 -35 19 ZM404 49 q-48 0 -77 24 q-24 29 -24 73 l0 140 q0 47 25 77 q21 24 73 24 l219 0 q55 4 80 -21 q25 -25 21 -80 l0 -136 q0 -48 -24 -77 q-21 -24 -73 -24 l-220 0 ZM602 127 q40 0 39 39 l0 105 q0 40 -39 38 l-181 0 q-39 0 -38 -38 l0 -105 q0 -40 38 -39 l181 0 Z" /><glyph glyph-name="uni5DF2" unicode="&#x5df2;" d="M916 182 q45 0 45 -55 q0 -72 -15.5 -114 q-15.5 -42 -47.5 -58 q-33 -16 -119.5 -22 q-86.5 -6 -215.5 -6 l-57 0 q-202 1 -282 9 q-44 5 -64.5 28 q-20.5 23 -20.5 70 l0 505 q0 47 42 47 q21 0 31 -11 q10 -11 10 -36 l0 -105 l504 0 q58 0 58 58 l0 139 q0 58 -58 58 l-561 0 q-25 0 -37 10 q-12 10 -12 30 q0 39 49 39 l592 0 q59 4 86.5 -23 q27.5 -27 23.5 -88 l0 -191 q4 -60 -23.5 -87 q-27.5 -27 -86.5 -24 l-535 0 l0 -293 q0 -45 46 -49 q38 -3 112.5 -5.5 q74.5 -2.5 153.5 -2.5 q117 0 203 5 q86 5 105 15 q25 14 31 95 q4 62 43 62 Z" /><glyph glyph-name="uni5F0F" unicode="&#x5f0f;" d="M927 168 q38 0 38 -41 q0 -78 -27 -146 q-26 -66 -67 -66 q-55 0 -129 100 q-75 103 -114 237 q-43 147 -52 320 l-465 0 q-48 0 -48 40 q0 39 48 39 l461 0 l-3 114 q-1 47 42 47 q41 0 41 -60 l0 -101 l255 0 q51 0 51 -40 q0 -39 -51 -39 l-250 0 q11 -183 55 -316 q44 -134 114 -211 q19 -22 30 -22 q12 0 20 26.5 q8 26.5 13 84.5 q1 18 10.5 26 q9.5 8 27.5 8 ZM831 677 q-18 0 -54 44 q-30 37 -30 46 q0 35 41 35 q18 0 52 -38 q32 -35 32 -52 q0 -35 -41 -35 ZM544 117 q18 3 27.5 -7.5 q9.5 -10.5 9.5 -31.5 q0 -16 -14 -27 q-12 -9 -63 -18 l-150 -29 l-226 -34 l-28 -3 q-20 -2 -30.5 9.5 q-10.5 11.5 -10.5 34.5 q0 25 15 34 q12 7 54 12 q39 4 144 18 l0 266 l-133 0 q-48 0 -48 39 q0 39 48 39 l347 0 q48 0 48 -39 q0 -39 -48 -39 l-134 0 l0 -255 l192 31 Z" /><glyph glyph-name="uni5F85" unicode="&#x5f85;" d="M97 583 q-40 0 -40 42 q0 24 46 52 q72 43 122 90 q24 22 41.5 34.5 q17.5 12.5 25.5 12.5 q40 0 40 -41 q0 -31 -104 -111 q-102 -79 -131 -79 ZM915 316 q45 0 45 -37 q0 -37 -45 -37 l-91 0 l0 -229 q0 -55 -26 -81 q-27 -26 -82 -26 l-82 0 q-50 0 -50 39 q0 42 45 42 l78 0 q38 0 37 37 l0 218 l-363 0 q-46 0 -46 37 q0 37 46 37 l363 0 l0 110 l-363 0 q-46 0 -46 36 q0 38 46 38 l225 0 l0 118 l-186 0 q-24 0 -34.5 8.5 q-10.5 8.5 -10.5 27.5 q0 20 10.5 29 q10.5 9 34.5 9 l186 0 l0 73 q0 49 40 49 q40 0 40 -49 l0 -73 l182 0 q24 0 34.5 -9 q10.5 -9 10.5 -29 q0 -19 -10.5 -27.5 q-10.5 -8.5 -34.5 -8.5 l-182 0 l0 -118 l230 0 q46 0 46 -38 q0 -36 -46 -36 l-92 0 l0 -110 l91 0 ZM339 553 q0 -26 -77 -123 l1 -1 l0 -477 q0 -50 -40 -50 q-42 0 -42 50 l0 377 q-67 -76 -90 -76 q-18 0 -26.5 10 q-8.5 10 -8.5 32 q0 19 22 41 q105 105 171 207 q29 45 51 45 q39 0 39 -35 ZM594 64 q0 -15 -10.5 -25 q-10.5 -10 -28.5 -10 q-14 0 -27.5 11 q-13.5 11 -35.5 38 l-52 62 q-7 8 -9.5 14 q-2.5 6 -2.5 16 q0 14 9.5 23 q9.5 9 27.5 9 q28 0 74 -51 q30 -33 42.5 -52.5 q12.5 -19.5 12.5 -34.5 Z" /><glyph glyph-name="uni5F97" unicode="&#x5f97;" d="M97 582 q-41 0 -41 43 q0 25 46 53 q71 42 123 90 q27 25 43.5 35.5 q16.5 10.5 28.5 10.5 q16 0 26 -10.5 q10 -10.5 10 -30.5 q0 -16 -25.5 -43.5 q-25.5 -27.5 -78.5 -68.5 q-101 -79 -132 -79 ZM485 438 q-46 0 -67.5 20.5 q-21.5 20.5 -17.5 64.5 l0 179 q-8 87 85 84 l331 0 q46 0 67 -20.5 q21 -20.5 18 -63.5 l0 -179 q0 -45 -20 -65.5 q-20 -20.5 -65 -19.5 l-331 0 ZM479 646 l341 0 l0 44 q0 30 -32 32 l-277 0 q-30 0 -32 -32 l0 -44 ZM300 589 q40 0 40 -36 q0 -26 -84 -133 l0 -475 q0 -43 -40 -43 q-39 0 -39 43 l0 380 q-63 -73 -86 -73 q-36 0 -36 43 q0 20 22 42 q105 105 171 207 q29 45 52 45 ZM479 534 q0 -30 32 -32 l277 0 q15 0 23 8.5 q8 8.5 9 23.5 l0 52 l-341 0 l0 -52 ZM928 232 q41 0 41 -36 q0 -36 -41 -36 l-104 0 l0 -160 q0 -52 -23 -75.5 q-23 -23.5 -74 -19.5 l-62 0 q-47 0 -47 40 q0 21 11.5 31 q11.5 10 35.5 10 l43 0 q34 0 36 37 l0 137 l-399 0 q-42 0 -42 36 q0 36 42 36 l399 0 l0 77 l-357 0 q-41 0 -41 35 q0 35 41 35 l513 0 q40 0 40 -35 q0 -35 -40 -35 l-76 0 l0 -77 l104 0 ZM529 82 q47 -44 47 -66 q0 -40 -41 -40 q-19 0 -59 50 l-33 34 q-19 21 -19 33 q0 35 38 35 q10 0 26 -11 q16 -11 41 -35 Z" /><glyph glyph-name="uni5FF5" unicode="&#x5ff5;" d="M491 713 q-109 -92 -234 -160 q-128 -69 -163 -69 q-39 0 -39 40 q0 17 15 30.5 q15 13.5 47 26.5 q211 83 334 211 q26 28 53 28 q17 0 31 -10.5 q14 -10.5 14 -24.5 q0 -12 -7 -22 q167 -137 355 -175 q35 -7 53.5 -20 q18.5 -13 18.5 -30 q0 -47 -47 -47 q-23 0 -99 26 q-101 34 -167 73.5 q-66 39.5 -165 122.5 ZM696 540 q0 -36 -42 -36 l-320 0 q-43 0 -43 36 q0 37 43 37 l320 0 q17 0 29.5 -10.5 q12.5 -10.5 12.5 -26.5 ZM685 191 q-19 0 -29 7.5 q-10 7.5 -10 20.5 q0 9 7 22.5 q7 13.5 24 41.5 q26 42 30 55 q1 2 1 6 q0 10 -16 10 l-497 0 q-23 0 -33.5 9.5 q-10.5 9.5 -10.5 29.5 q0 38 44 38 l540 0 q74 0 74 -47 q0 -17 -9 -38 q-8 -19 -36 -70 q-25 -44 -43.5 -64.5 q-18.5 -20.5 -35.5 -20.5 ZM554 105 q-26 0 -60 58 l-23 36 q-8 14 -8 22 q0 38 40 38 q25 0 60 -46 q34 -44 34 -64 q0 -44 -43 -44 ZM514 -71 q-81 0 -151 8 q-65 8 -65 65 l0 191 q0 48 42 48 q41 0 41 -48 l0 -156 q0 -28 63 -28 l71 -2 q92 -3 121 9 q16 6 24 58 q4 25 14.5 37.5 q10.5 12.5 29.5 12.5 q43 0 43 -43 q0 -91 -33 -121 q-34 -31 -200 -31 ZM910 -32 q-30 0 -48 37 q-43 86 -78 134 q-13 19 -13 31 q0 39 40 39 q23 0 43 -29 l23 -33 q42 -60 60.5 -90.5 q18.5 -30.5 18.5 -43.5 q0 -45 -46 -45 ZM114 -45 q-43 0 -43 42 q0 12 14 37 q31 57 50 132 q9 36 41 36 q41 0 41 -40 q0 -54 -58 -170 q-18 -37 -45 -37 Z" /><glyph glyph-name="uni60A8" unicode="&#x60a8;" d="M591 215 q-27 0 -37.5 8.5 q-10.5 8.5 -10.5 28.5 q0 20 10 29 q10 9 32 9 q41 0 39 15 l0 340 l-137 0 q-41 -63 -59 -80 q-15 -14 -25 -20 q-10 -6 -20 -6 q-21 0 -31.5 8.5 q-10.5 8.5 -10.5 27.5 q0 15 17 34 q42 44 71 84.5 q29 40.5 49 87.5 q17 40 51 40 q19 0 29 -8 q10 -8 10 -23 q0 -15 -34 -73 l359 0 q30 0 45 -10.5 q15 -10.5 15 -30.5 q0 -25 -26 -65 q-18 -27 -38.5 -44.5 q-20.5 -17.5 -33.5 -17.5 q-37 0 -34 34 q1 16 24 46 q3 5 3 8 q0 8 -11 8 l-131 0 l0 -350 q0 -21 -7 -37.5 q-7 -16.5 -20 -24.5 q-17 -10 -36.5 -14 q-19.5 -4 -51.5 -4 ZM230 212 q-41 0 -41 50 l0 292 q-76 -88 -97 -88 q-37 0 -37 41 q0 11 8 22.5 q8 11.5 25 28.5 q52 53 88 104 q36 51 67 112 q23 46 54 46 q19 0 30 -9 q11 -9 11 -27 q0 -28 -67 -123 l0 -399 q0 -23 -10.5 -36.5 q-10.5 -13.5 -30.5 -13.5 ZM873 280 q-17 0 -29 12 q-12 12 -21 37 q-31 84 -72 151 q-7 12 -7 22 q0 14 10 24 q10 10 29 10 q20 0 36.5 -21 q16.5 -21 42.5 -68 l10 -19 q44 -80 44 -105 q0 -43 -43 -43 ZM401 283 q-18 0 -29 9.5 q-11 9.5 -11 26.5 q0 13 21 36 q57 63 93 144 q8 19 17 27.5 q9 8.5 24 8.5 q37 0 37 -38 q0 -41 -48 -112 q-24 -36 -43.5 -60.5 q-19.5 -24.5 -28.5 -30.5 q-9 -6 -16 -8.5 q-7 -2.5 -16 -2.5 ZM547 81 q-20 0 -49 51 l-27 49 q-1 22 8.5 31.5 q9.5 9.5 29.5 9.5 q20 0 51 -42 q32 -43 32 -60 q0 -39 -45 -39 ZM517 -77 q-149 0 -183 17 q-33 17 -35 56 l0 153 q0 49 40 49 q39 0 39 -49 l0 -120 q0 -19 23 -24 q27 -5 133 -5 q86 0 110 12 q13 7 18 53 q2 22 12.5 32.5 q10.5 10.5 30.5 10.5 q46 0 46 -44 q0 -93 -49 -121 q-34 -20 -185 -20 ZM912 -41 q-21 0 -66 67 q-27 41 -52 76 q-18 24 -18 35 q0 37 42 37 q27 0 82 -76 q57 -78 57 -98 q0 -41 -45 -41 ZM110 -59 q-21 0 -32 10 q-11 10 -11 29 q0 10 24 60 q27 55 39 96 q4 15 15 23 q11 8 25 8 q41 0 41 -39 q0 -32 -55 -148 q-19 -39 -46 -39 Z" /><glyph glyph-name="uni60F3" unicode="&#x60f3;" d="M322 263 q0 -45 -39 -45 q-38 0 -38 45 l0 224 q-32 -77 -78 -134 q-52 -65 -73 -65 q-19 0 -28 9.5 q-9 9.5 -9 31.5 q0 19 26 45 q100 100 151 225 l-123 0 q-46 0 -46 39 q0 38 46 38 l134 0 l0 91 q0 47 39 47 q38 0 38 -47 l0 -91 l91 0 q23 0 34.5 -10.5 q11.5 -10.5 11.5 -28.5 q0 -38 -46 -38 l-91 0 l0 -74 q9 12 26 12 q16 0 63 -54 q25 -30 35.5 -45 q10.5 -15 10.5 -23 q0 -36 -39 -36 q-15 0 -38 32 l-58 80 l0 -228 ZM565 232 q-47 0 -69 21 q-22 21 -20 68 l0 361 q0 48 21.5 70 q21.5 22 67.5 19 l247 0 q47 0 69 -21 q22 -21 21 -68 l0 -361 q0 -48 -22 -70 q-22 -22 -68 -19 l-247 0 ZM554 614 l266 0 l0 54 q0 29 -29 30 l-208 0 q-27 0 -29 -30 l0 -54 ZM554 544 l0 -80 l266 0 l0 80 l-266 0 ZM554 333 q0 -27 29 -29 l208 0 q27 0 29 29 l0 61 l-266 0 l0 -61 ZM505 117 q-27 47 -33 53 q-7 7 -7 21 q0 35 37 35 q9 0 21.5 -11 q12.5 -11 32.5 -34 q36 -43 36 -63 q0 -22 -10 -32 q-10 -10 -31 -10 q-23 0 -46 41 ZM709 107 q23 0 33 -10 q10 -10 10 -33 q0 -91 -45 -118 q-38 -23 -211 -23 q-133 0 -166 15 q-31 14 -33 57 l0 163 q0 48 40 48 q40 0 40 -48 l0 -128 q0 -21 26 -26 q27 -5 81 -5 q137 0 161 11 q17 9 22 55 q2 22 12 32 q10 10 30 10 ZM173 187 q39 0 39 -39 q0 -53 -57 -165 q-19 -39 -47 -39 q-42 0 -42 44 q0 12 8 26 q40 70 58 137 q11 36 41 36 ZM898 103 q29 -36 43 -61 q14 -25 14 -33 q0 -22 -10.5 -32.5 q-10.5 -10.5 -33.5 -10.5 q-21 0 -34 15 l-57 95 l-26 37 q-8 12 -13.5 21.5 q-5.5 9.5 -5.5 15.5 q0 37 39 37 q15 0 26 -11 l58 -73 Z" /><glyph glyph-name="uni6210" unicode="&#x6210;" d="M876 -88 q-42 0 -92 50 q-58 58 -99 126 q-69 -69 -165 -124 q-88 -51 -127 -51 q-39 0 -39 42 q0 18 10 27 q8 6 71 30 q113 41 211 149 q-76 159 -95 407 l-309 0 q-24 0 -31 -13 q-6 -12 -6 -123 l199 0 q82 0 82 -86 q0 -189 -25 -234 q-33 -58 -156 -58 q-41 0 -41 43 q0 41 41 41 l37 0 q54 0 61 54 q8 53 8 130 q0 16 -9.5 24.5 q-9.5 8.5 -26.5 8.5 l-170 0 q0 -192 -26 -302 q-16 -67 -36 -101 q-20 -34 -44 -34 q-42 0 -42 46 q0 14 22 59 q21 44 34 134 q11 78 11 208 l-2 193 q-2 92 90 92 l335 0 l-2 121 q0 43 41 43 q42 0 42 -48 l0 -116 l281 0 q50 0 50 -41 q0 -41 -50 -41 l-276 0 q13 -196 67 -336 l10 12 q62 95 86 173 q17 52 48 52 q40 0 40 -35 q0 -22 -45 -115 q-43 -89 -98 -168 q23 -40 59 -84 q38 -47 56 -47 q24 0 29 67 q5 63 39 63 q43 0 43 -43 q0 -65 -27 -131 q-26 -64 -64 -64 ZM806 675 q-24 0 -72 70 q-11 16 -11 21 q0 37 44 37 q17 0 53 -39 q15 -16 23 -30 q8 -14 8 -21 q0 -38 -45 -38 Z" /><glyph glyph-name="uni6240" unicode="&#x6240;" d="M821 -94 q-41 0 -41 49 l0 454 l-163 0 q-6 -192 -36 -275 q-30 -81 -90 -147 q-60 -65 -92 -65 q-43 0 -43 47 q0 19 34 44 q113 84 137 237 q14 86 14 220 l0 118 q0 113 16 132 q9 10 27.5 17 q18.5 7 51.5 13 q173 32 215 48 q20 8 37 8 q45 0 45 -45 q0 -28 -40 -39 q-94 -27 -217 -42 q-25 -3 -38.5 -13.5 q-13.5 -10.5 -15.5 -25.5 l-3 -153 l315 0 q34 0 34 -40 q0 -39 -34 -39 l-72 0 l0 -454 q0 -49 -41 -49 ZM116 691 q-40 0 -40 40 q0 39 40 39 l351 0 q40 0 40 -40 q0 -39 -40 -39 l-351 0 ZM97 -73 q-40 0 -40 38 q0 13 15 46 q45 95 45 406 l-1 68 q-1 46 19.5 70 q20.5 24 61.5 24 l200 0 q44 0 64.5 -19.5 q20.5 -19.5 17.5 -62.5 l0 -165 q0 -44 -19.5 -63.5 q-19.5 -19.5 -62.5 -16.5 l-200 0 q-4 -125 -37 -233 q-28 -92 -63 -92 ZM365 326 q32 0 34 34 l0 111 q0 32 -34 34 l-132 0 q-35 0 -35 -40 l0 -139 l167 0 Z" /><glyph glyph-name="uni627E" unicode="&#x627e;" d="M276 11 q4 -53 -20.5 -77 q-24.5 -24 -79.5 -22 l-50 0 q-21 0 -31 10 q-10 10 -10 32 q0 22 10 32 q10 10 31 10 l32 0 q37 0 38 39 l0 210 q-89 -26 -101 -26 q-39 0 -39 41 q0 33 42 43 l98 24 l0 219 l-89 0 q-25 0 -36 9 q-11 9 -11 29 q0 38 47 38 l89 0 l0 144 q0 49 40 49 q40 0 40 -49 l0 -144 l58 0 q48 0 48 -38 q0 -20 -11.5 -29 q-11.5 -9 -36.5 -9 l-58 0 l0 -196 l49 16 l27 6 q35 0 35 -39 q0 -30 -35 -41 l-76 -23 l0 -258 ZM930 156 q38 0 38 -43 q0 -89 -25 -143 q-26 -56 -67 -56 q-52 0 -114 55 q-63 56 -117 154 q-70 -58 -159 -107 q-89 -50 -112 -50 q-43 0 -43 44 q0 16 21 32.5 q21 16.5 64 35.5 q95 42 194 121 l-8 20 q-23 58 -35.5 121.5 q-12.5 63.5 -21.5 157.5 l-58 -7 l-71 -7 q-21 -2 -32 8 q-11 10 -11 31 q0 34 42 38 l35 4 q10 2 34 4 l54 6 q-7 96 -7 184 q0 54 43 54 q42 0 42 -48 l0 -35 q0 -53 4 -145 l142 16 l157 18 q17 2 26 -8 q9 -10 9 -30 q0 -36 -44 -41 l-150 -17 l-134 -15 q8 -85 19.5 -146.5 q11.5 -61.5 30.5 -107.5 q57 55 122 154 q14 21 25.5 30.5 q11.5 9.5 25.5 9.5 q17 0 28.5 -10.5 q11.5 -10.5 11.5 -25.5 q0 -14 -13 -35.5 q-13 -21.5 -44 -61.5 q-55 -72 -123 -138 q35 -63 79 -113 q44 -49 71 -49 q23 0 30 100 q3 41 41 41 ZM748 690 q-41 44 -41 58 q0 19 9.5 28 q9.5 9 30.5 9 q18 0 62 -41 q44 -41 44 -65 q0 -41 -40 -41 q-20 0 -50 36 l-15 16 Z" /><glyph glyph-name="uni6301" unicode="&#x6301;" d="M340 382 q16 3 25 -7 q9 -10 9 -29 q0 -26 -32 -38 l-73 -27 l0 -269 q0 -54 -29 -82 q-24 -23 -74 -23 l-50 0 q-39 0 -39 42 q0 41 39 41 l37 0 q35 0 37 38 l0 228 q-81 -25 -98 -25 q-37 0 -37 39 q0 31 29 41 l106 27 l0 207 l-86 0 q-45 0 -45 39 q0 39 45 39 l86 0 l0 149 q0 46 40 46 q39 0 39 -46 l0 -149 l59 0 q46 0 46 -39 q0 -39 -46 -39 l-59 0 l0 -185 l53 19 l18 3 ZM828 425 l0 -111 l74 0 q46 0 46 -38 q0 -38 -46 -38 l-74 0 l0 -232 q0 -47 -28 -76 q-24 -26 -73 -24 l-60 0 q-53 0 -53 42 q0 43 48 43 l46 0 q36 0 38 39 l0 208 l-320 0 q-46 0 -46 38 q0 38 46 38 l320 0 l0 111 l-339 0 q-47 0 -47 37 q0 38 47 38 l197 0 l0 117 l-166 0 q-46 0 -46 37 q0 38 46 38 l166 0 l0 82 q0 21 9.5 30.5 q9.5 9.5 31.5 9.5 q21 0 30.5 -9.5 q9.5 -9.5 9.5 -30.5 l0 -82 l183 0 q24 0 35 -9 q11 -9 11 -29 q0 -19 -11 -28 q-11 -9 -35 -9 l-183 0 l0 -117 l237 0 q46 0 46 -38 q0 -37 -47 -37 l-93 0 ZM500 196 q20 0 61 -50 q40 -49 40 -69 q0 -40 -43 -40 q-24 0 -41 29 l-34 51 q-3 5 -10.5 15.5 q-7.5 10.5 -10.5 17 q-3 6.5 -3 11.5 q0 35 41 35 Z" /><glyph glyph-name="uni636E" unicode="&#x636e;" d="M118 -91 q-39 0 -39 42 q0 41 39 41 l36 0 q35 0 37 37 l0 216 l-18 -5 l-16 -6 l-61 -16 q-41 0 -41 42 q0 33 47 45 l89 23 l0 218 l-87 0 q-23 0 -33.5 9.5 q-10.5 9.5 -10.5 29.5 q0 38 44 38 l87 0 l0 152 q0 40 38 40 q40 0 40 -40 l0 -152 l49 0 q44 0 44 -39 q0 -38 -44 -38 l-49 0 l0 -194 l26 7 q33 9 34 9 q35 0 35 -37 q0 -29 -31 -39 l-64 -22 l0 -263 q0 -49 -28 -74 q-25 -24 -71 -24 l-52 0 ZM336 -66 q-42 0 -42 41 q0 8 14 33 q74 128 80 355 l4 313 q0 44 15 65 q27 35 81 33 l355 0 q47 0 69 -19.5 q22 -19.5 20 -61.5 l0 -109 q0 -43 -21.5 -62.5 q-21.5 -19.5 -67.5 -17.5 l-111 0 l0 -101 l197 0 q40 0 40 -36 q0 -36 -40 -36 l-197 0 l0 -105 l102 0 q48 0 69.5 -19 q21.5 -19 19.5 -61 l0 -131 q0 -44 -21 -64 q-21 -20 -68 -17 l-276 0 q-47 0 -68.5 19 q-21.5 19 -19.5 61 l0 133 q0 42 21 61.5 q21 19.5 67 17.5 l95 0 l0 105 l-190 0 q-11 -180 -49 -288 q-19 -53 -39.5 -81 q-20.5 -28 -38.5 -28 ZM820 574 q15 0 23 8.5 q8 8.5 9 23.5 l0 63 q0 15 -8.5 23 q-8.5 8 -23.5 9 l-321 0 q-31 0 -30 -31 l-1 -96 l352 0 ZM653 403 l0 101 l-185 0 l-2 -101 l187 0 ZM812 6 q30 0 32 32 l0 84 q0 33 -38 35 l-229 0 q-28 0 -30 -27 l0 -93 q0 -31 31 -31 l234 0 Z" /><glyph glyph-name="uni6388" unicode="&#x6388;" d="M128 -91 q-46 0 -46 43 q0 39 45 39 l28 0 q18 0 27.5 10 q9.5 10 10.5 28 l0 222 q-82 -29 -99 -29 q-39 0 -39 43 q0 32 54 45 l84 21 l0 214 l-87 0 q-24 0 -35.5 9.5 q-11.5 9.5 -11.5 29.5 q0 39 47 39 l87 0 l0 144 q0 47 38 47 q20 0 29.5 -11.5 q9.5 -11.5 9.5 -35.5 l0 -144 l50 0 q47 0 47 -39 q0 -20 -11.5 -29.5 q-11.5 -9.5 -35.5 -9.5 l-50 0 l0 -190 q42 15 51 15 q34 0 34 -35 q0 -27 -76 -54 l-9 -3 l0 -268 q0 -53 -23.5 -78 q-23.5 -25 -75.5 -23 l-43 0 ZM394 685 q-41 0 -41 38 q0 20 19.5 29 q19.5 9 59.5 7 q78 -3 296 24 l92 15 l34 9 l23 4 q47 0 47 -42 q0 -31 -71 -44 q-43 -8 -167 -22 q-94 -10 -217 -15 l-51 -3 l-24 0 ZM404 274 q-37 0 -37 47 l0 85 q0 46 20 67 q20 21 64 19 l287 0 l72 165 q15 33 44 33 q19 0 29.5 -7.5 q10.5 -7.5 10.5 -18.5 q0 -18 -15 -47 l-65 -125 l46 0 q46 0 67 -20.5 q21 -20.5 19 -65.5 l0 -81 q0 -48 -39 -48 q-38 0 -38 48 l0 61 q0 31 -34 33 l-360 0 q-32 0 -34 -33 l0 -67 q0 -45 -37 -45 ZM649 506 q-26 0 -40 41 q-15 47 -28 74 q-8 18 -8 26 q0 29 36 29 q13 0 26.5 -15.5 q13.5 -15.5 25.5 -44.5 q25 -60 25 -75 q0 -35 -37 -35 ZM472 502 q-27 0 -41 39 l-17 45 q-5 14 -12.5 29.5 q-7.5 15.5 -7.5 17.5 q0 29 35 29 q26 0 43 -36 q37 -76 37 -89 q0 -35 -37 -35 ZM367 -91 q-40 0 -40 40 q0 19 15.5 30.5 q15.5 11.5 45.5 13.5 q91 8 195 72 q-32 31 -63 77 q-30 46 -30 67 q0 12 10.5 20.5 q10.5 8.5 25.5 8.5 q26 0 46 -36 q31 -55 74 -93 q44 37 81 87 q35 46 35 58 q0 11 -14 11 l-257 0 q-42 0 -42 38 q0 37 42 37 l296 0 q35 0 54.5 -14 q19.5 -14 19.5 -40 q0 -17 -13 -45 q-12 -25 -36 -60 q-51 -76 -100 -119 q79 -44 221 -66 q36 -6 36 -40 q0 -45 -44 -45 q-59 0 -139 31 q-84 33 -138 69 q-49 -34 -142 -70 q-82 -32 -139 -32 Z" /><glyph glyph-name="uni63A5" unicode="&#x63a5;" d="M904 -98 q-10 0 -26 7.5 q-16 7.5 -47 28.5 q-38 25 -126 68 q-51 -39 -148 -67 q-96 -27 -187 -27 q-45 0 -45 40 q0 39 57 39 q151 0 245 49 q-67 27 -154 52 q-49 14 -49 48 q0 15 31 69 l20 34 l-88 0 q-42 0 -42 37 q0 36 42 36 l124 0 q21 44 47 103 l-171 0 q-22 0 -32 8.5 q-10 8.5 -10 27.5 q0 36 42 36 l97 0 q-10 51 -32 153 l-41 0 q-39 0 -39 36 q0 37 39 37 l191 0 l0 56 q0 43 42 43 q40 0 40 -43 l0 -56 l204 0 q43 0 43 -37 q0 -36 -43 -36 l-56 0 q-23 -102 -40 -153 l135 0 q42 0 42 -36 q0 -36 -42 -36 l-286 0 l-31 -68 l-16 -35 l329 0 q43 0 43 -37 q0 -36 -43 -36 l-87 0 q-12 -58 -29.5 -101 q-17.5 -43 -44.5 -77 q180 -80 180 -119 q0 -20 -11 -32 q-11 -12 -27 -12 ZM118 -91 q-39 0 -39 42 q0 41 39 41 l38 0 q36 0 35 35 l0 240 l-27 -7 q-16 -4 -26.5 -7 q-10.5 -3 -16.5 -5 q-24 -8 -31 -8 q-35 0 -35 40 q0 37 62 49 l71 18 l3 1 l0 198 l-87 0 q-44 0 -44 38 q0 39 44 39 l87 0 l0 147 q0 45 38 45 q40 0 40 -45 l0 -147 l57 0 q46 0 46 -39 q0 -38 -46 -38 l-57 0 l0 -176 l41 14 q17 6 24 6 q34 0 34 -36 q0 -30 -48 -45 l-51 -17 l0 -278 q8 -111 -105 -105 l-46 0 ZM715 491 q23 81 39 153 l-225 0 q-4 15 20 -91 l13 -62 l153 0 ZM690 94 q47 60 67 149 l-196 0 q-18 -40 -39 -74 q-3 -6 -3 -11 q0 -13 18 -17 l153 -47 Z" /><glyph glyph-name="uni641C" unicode="&#x641c;" d="M342 -93 q-39 0 -39 39 q0 36 61 45 q122 17 201 53 q-99 77 -99 118 q0 31 39 31 q18 0 52 -39 q36 -41 89 -73 q38 20 98 67 q54 42 54 55 q0 10 -14 10 l-390 0 q-39 0 -39 35 q0 35 39 35 l214 0 l0 70 l-141 0 q-80 0 -80 78 l0 214 q0 37 15 54 q12 12 53 32 q10 3 47 27 q18 12 28 12 q38 0 38 -37 q0 -31 -71 -57 q-34 -12 -34 -41 l0 -52 l82 0 q34 0 34 -32 q0 -35 -34 -35 l-82 0 l0 -64 q0 -27 28 -29 l117 0 l0 353 q0 40 37 40 q36 0 36 -40 l0 -353 l130 0 q29 0 30 30 l0 63 l-96 0 q-35 0 -35 34 q0 34 35 34 l96 0 l0 61 q0 30 -30 30 l-64 0 q-36 0 -36 35 q0 35 37 35 l88 0 q43 0 63 -19.5 q20 -19.5 18 -61.5 l0 -230 q0 -44 -19.5 -64 q-19.5 -20 -61.5 -17 l-155 0 l0 -70 l150 0 q77 0 77 -53 q0 -26 -62 -88 q-60 -60 -123 -101 q77 -31 198 -44 q48 -6 48 -44 q0 -44 -44 -44 q-52 0 -136 26 q-82 26 -147 60 q-69 -33 -165 -61 q-92 -27 -135 -27 ZM116 -91 q-39 0 -39 42 q0 41 39 41 l36 0 q35 0 37 37 l0 221 q-85 -25 -98 -25 q-36 0 -36 42 q0 37 79 52 l55 13 l0 214 l-92 0 q-20 0 -29 9.5 q-9 9.5 -9 29.5 q0 38 38 38 l92 0 l0 152 q0 40 38 40 q40 0 40 -40 l0 -152 l60 0 q39 0 39 -39 q0 -20 -9.5 -29 q-9.5 -9 -29.5 -9 l-60 0 l0 -190 q60 18 68 18 q30 0 30 -37 q0 -22 -28 -36 q-20 -10 -70 -26 l0 -268 q8 -103 -99 -98 l-52 0 Z" /><glyph glyph-name="uni652F" unicode="&#x652f;" d="M110 -89 q-47 0 -47 39 q0 23 10 32 q10 9 35 13 q197 29 334 108 q-38 25 -96 79 q-58 54 -97 103 q-13 16 -13 31 q0 15 13 27 q11 9 22 9 q19 0 36 -19 q37 -43 99.5 -97.5 q62.5 -54.5 108.5 -86.5 q90 68 139 126 q33 38 62 90 q3 5 3 10 q0 6 -5 9.5 q-5 3.5 -13 3.5 l-482 0 q-50 0 -50 40 q0 41 50 41 l247 0 l0 124 l-331 0 q-51 0 -51 42 q0 40 51 40 l331 0 l0 98 q0 41 44 41 q43 0 43 -41 l0 -98 l333 0 q52 0 52 -41 q0 -41 -52 -41 l-333 0 l0 -124 l196 0 q83 0 83 -55 q0 -49 -67 -139 q-66 -89 -177 -172 q174 -86 329 -102 q46 -5 46 -44 q0 -49 -50 -49 q-33 0 -78.5 12 q-45.5 12 -113.5 35 q-124 43 -206 94 q-96 -59 -225 -101 q-112 -37 -180 -37 Z" /><glyph glyph-name="uni6548" unicode="&#x6548;" d="M110 593 q-42 0 -42 39 q0 38 42 38 l160 0 l0 96 q0 50 41 50 q42 0 42 -50 l0 -96 l157 0 q41 0 41 -39 q0 -38 -41 -38 l-400 0 ZM512 -92 q-39 0 -39 40 q0 30 38 44 q103 37 180 122 q-75 130 -91 371 q-32 -54 -54 -54 q-36 0 -36 36 q0 16 15 32 q30 34 73 131 q42 96 52 141 q4 22 16 32.5 q12 10.5 29 10.5 q41 0 41 -35 q0 -14 -15 -51.5 q-15 -37.5 -47 -108.5 l255 0 q39 0 39 -41 q0 -40 -39 -40 l-38 0 q-18 -281 -102 -421 q50 -56 136 -105 q43 -24 43 -52 q0 -21 -19 -35 q-7 -5 -14 -9 q-7 -4 -13 -4 q-58 0 -184 137 q-43 -44 -118 -93 q-74 -48 -108 -48 ZM93 320 q-39 0 -39 41 q0 16 61 73 q20 18 79 92 q18 21 36 21 q39 0 39 -38 q0 -23 -75 -107 q-74 -82 -101 -82 ZM740 184 q65 116 71 354 l-147 0 q11 -245 76 -354 ZM505 342 q-14 0 -41 28 q-16 17 -30.5 31.5 q-14.5 14.5 -25.5 26.5 q-37 37 -37 37 q-22 22 -22 37 q0 34 38 34 q13 0 36 -16.5 q23 -16.5 55 -49.5 q66 -69 66 -88 q0 -40 -39 -40 ZM95 -62 q-40 0 -40 42 q0 27 48 54 q104 59 176 152 q-46 43 -97 82 q-17 14 -17 27 q0 37 41 37 q21 0 79 -51 l38 -33 l33 61 q13 25 25 37.5 q12 12.5 24 12.5 q38 0 38 -35 q0 -31 -61 -127 q51 -49 78 -72 q43 -37 43 -62 q0 -42 -44 -42 q-9 0 -26.5 13.5 q-17.5 13.5 -41.5 39.5 q-8 8 -18 20 q-23 26 -37 38 q-46 -61 -130 -130 q-79 -64 -111 -64 Z" /><glyph glyph-name="uni656C" unicode="&#x656c;" d="M925 10 q43 -22 43 -51 q0 -19 -14 -33 q-15 -15 -26 -15 q-24 0 -82 44 q-57 42 -98 88 q-128 -134 -194 -134 q-20 0 -30 9.5 q-10 9.5 -10 31.5 q0 24 30 40 q104 53 159 117 q-32 57 -55.5 146.5 q-23.5 89.5 -33.5 202.5 q-37 -66 -57 -66 q-25 0 -32 22 l0 -8 l-4 -131 q-1 -9 -1 -21.5 q0 -12.5 -1 -25.5 l-1 -47 q-6 -155 -24 -208 q-22 -67 -147 -67 q-54 0 -54 43 q0 42 42 42 l35 0 q47 0 55 34 q11 42 15 161 l4 134 l1 50 q0 40 -34 40 l-223 0 q-70 -122 -99 -122 q-37 0 -37 45 q0 22 17 43 q55 67 87 152 q11 30 35 30 q44 0 44 -34 q0 -9 -10 -36 l215 0 q69 0 82 -54 l0 1 q0 6 7 19.5 q7 13.5 17 31.5 q68 118 107 285 q10 46 42 46 q45 0 45 -36 q0 -21 -52 -159 l241 0 q40 0 40 -42 q0 -41 -40 -41 l-33 0 q-12 -292 -99 -430 q57 -60 128 -97 ZM102 639 q-45 0 -45 38 q0 39 45 39 l106 0 l0 59 q0 40 38 40 q41 0 41 -40 l0 -186 q0 -45 -40 -45 q-39 0 -39 45 l0 50 l-106 0 ZM399 528 q-40 0 -40 41 l0 206 q0 40 41 40 q38 0 38 -40 l0 -59 l109 0 q45 0 45 -39 q0 -38 -45 -38 l-109 0 l0 -70 q0 -41 -39 -41 ZM748 175 q66 124 70 362 l-141 0 q23 -272 71 -362 ZM382 132 q0 -75 -74 -75 l-101 0 q-75 0 -75 75 l0 133 q0 75 75 75 l101 0 q74 0 74 -75 l0 -133 ZM287 125 q25 0 26 26 l0 95 q0 26 -26 26 l-62 0 q-13 0 -19.5 -6 q-6.5 -6 -7.5 -20 l0 -95 q0 -26 27 -26 l62 0 Z" /><glyph glyph-name="uni6570" unicode="&#x6570;" d="M927 10 q42 -21 42 -51 q0 -18 -14 -34 q-14 -15 -27 -15 q-30 0 -92 51 q-65 55 -93 89 q-49 -53 -111 -96 q-67 -46 -97 -46 q-43 0 -43 44 q0 14 9 26 q-9 -6 -24 -6 q-16 0 -47 20 q-18 11 -35 19 q-17 8 -22 10 q-57 -50 -129 -75 q-76 -26 -128 -26 q-42 0 -42 39 q0 16 15 26 q15 10 43 13 q107 12 169 54 q-49 20 -101 35 q-56 16 -56 52 q0 7 6 19.5 q6 12.5 8 16.5 q5 10 23 44 l-86 0 q-40 0 -40 35 q0 34 40 34 l117 0 q31 78 58 78 q40 0 40 -32 q0 -15 -16 -46 l248 0 q38 0 38 -34 q0 -35 -38 -35 l-60 0 q-20 -75 -62 -143 q95 -39 95 -66 q0 -15 -6 -24 q6 4 15 9 q116 54 172 122 q-64 119 -78 347 q-23 -39 -38.5 -57.5 q-15.5 -18.5 -26.5 -18.5 q-27 0 -36 29 q-6 -27 -32 -27 q-14 0 -42 25 l-81 60 l-7 10 l0 -84 q0 -39 -38 -39 q-37 0 -37 39 l0 111 q-131 -150 -185 -150 q-33 0 -33 37 q0 22 39 44 q94 53 158 131 l-161 0 q-34 0 -34 34 q0 35 34 35 l182 0 l0 132 q0 40 38 40 q37 0 37 -40 l0 -132 l164 0 q35 0 35 -35 q0 -34 -35 -34 l-164 0 l0 -68 q7 18 28 18 q11 0 57 -30 l26 -16 q46 -28 50 -41 q1 5 10 19 q9 14 15 23 q72 119 114 289 q12 47 44 47 q44 0 44 -38 q0 -18 -52 -157 l237 0 q41 0 41 -41 q0 -42 -41 -42 l-38 0 q-12 -285 -99 -423 q53 -62 136 -104 ZM462 661 q-38 0 -38 32 q0 9 17 38 l14 26 q9 17 18 25 q9 8 20 8 q36 0 36 -35 q0 -21 -24 -56 q-26 -38 -43 -38 ZM117 726 q-3 6 -8.5 15.5 q-5.5 9.5 -5.5 13.5 q0 32 37 32 q22 0 47 -37 q23 -34 23 -48 q0 -36 -39 -36 q-20 0 -43 40 l-11 20 ZM743 188 q62 116 67 349 l-130 0 q20 -261 63 -349 ZM354 103 q36 46 49 116 l-141 0 l-28 -53 q-5 -9 -5 -17 q0 -8 21 -13 l104 -33 Z" /><glyph glyph-name="uni6587" unicode="&#x6587;" d="M101 -88 q-43 0 -43 47 q0 17 14.5 28.5 q14.5 11.5 45.5 18.5 q196 41 331 145 l0 2 q-99 92 -150 202 q-52 113 -52 147 q0 35 43 35 q16 0 28 -10.5 q12 -10.5 18 -30.5 q50 -167 175 -288 l2 0 q135 145 171 373 l-563 0 q-52 0 -52 40 q0 41 52 41 l342 0 l0 96 q0 56 44 56 q23 0 33.5 -13.5 q10.5 -13.5 10.5 -42.5 l0 -96 l352 0 q51 0 51 -41 q0 -40 -51 -40 l-127 0 q-56 -267 -201 -421 l0 -2 q139 -101 336 -144 q55 -12 55 -48 q0 -50 -44 -50 q-7 0 -19 3 q-12 3 -18 5 q-228 62 -372 176 l-2 0 q-88 -77 -217 -133 q-126 -55 -193 -55 Z" /><glyph glyph-name="uni65B0" unicode="&#x65b0;" d="M303 -98 q-39 0 -39 47 l0 218 q-37 -70 -96 -129 q-58 -58 -77 -58 q-36 0 -36 43 q0 11 10.5 23.5 q10.5 12.5 33.5 30.5 q110 87 154 173 l-140 0 q-45 0 -45 37 q0 36 45 36 l151 0 l0 94 l-164 0 q-23 0 -33.5 8.5 q-10.5 8.5 -10.5 27.5 q0 37 44 37 l64 0 q-5 53 -24 137 l-1 8 l-35 0 q-36 0 -36 37 q0 36 36 36 l157 0 l0 57 q0 51 42 51 q42 0 42 -51 l0 -57 l156 0 q35 0 35 -36 q0 -37 -35 -37 l-45 0 l-28 -145 l77 0 q44 0 44 -37 q0 -19 -10.5 -27.5 q-10.5 -8.5 -33.5 -8.5 l-163 0 l0 -94 l150 0 q45 0 45 -37 q0 -36 -45 -36 l-150 0 l0 -73 q11 20 35 20 q17 0 67 -38 q50 -38 50 -58 q0 -37 -36 -37 q-15 0 -39 21 l-77 67 l0 -203 q0 -47 -39 -47 ZM823 -96 q-41 0 -41 49 l0 456 l-133 0 l-2 -70 q-6 -211 -58 -317 q-51 -104 -91 -104 q-43 0 -43 44 q0 15 32 53 q34 40 53 97 q21 63 28 142 q7 81 9 212 l-1 190 q0 43 17 65 q17 21 79 32 q68 12 107 22 q29 7 33 8 q-7 -2 43 11 q27 8 32 8 q45 0 45 -48 q0 -25 -37 -34 q-127 -31 -200 -42 q-44 -6 -44 -69 l0 -121 l280 0 q37 0 37 -40 q0 -39 -37 -39 l-67 0 l0 -456 q0 -49 -41 -49 ZM384 630 l0 5 l-175 0 q12 -50 25 -143 l0 -2 l124 0 l26 140 Z" /><glyph glyph-name="uni660E" unicode="&#x660e;" d="M928 13 q4 -54 -20.5 -78.5 q-24.5 -24.5 -77.5 -20.5 l-79 0 q-46 0 -46 42 q0 41 46 41 l57 0 q21 0 31.5 11 q10.5 11 10.5 30 l0 200 l-260 0 q-22 -164 -88 -237 q-81 -89 -130 -89 q-39 0 -39 44 q0 12 12 23.5 q12 11.5 36 26.5 q83 48 112 137 q31 93 31 392 l0 156 q0 44 21 65.5 q21 21.5 66 21.5 l229 0 q48 0 70 -21.5 q22 -21.5 18 -66.5 l0 -677 ZM427 156 q0 -46 -20 -67 q-20 -21 -66 -19 l-149 0 q-48 0 -69.5 20.5 q-21.5 20.5 -18.5 65.5 l0 513 q0 47 20.5 67.5 q20.5 20.5 67.5 18.5 l149 0 q47 0 68 -20.5 q21 -20.5 18 -65.5 l0 -513 ZM850 661 q0 20 -11 32 q-11 12 -32 12 l-163 0 q-17 0 -29.5 -13.5 q-12.5 -13.5 -12.5 -36.5 l0 -106 l248 0 l0 112 ZM179 461 l173 0 l0 182 q0 37 -39 39 l-95 0 q-37 0 -39 -39 l0 -182 ZM850 476 l-248 0 l0 -33 q0 -65 -5 -132 l253 0 l0 165 ZM313 143 q37 0 39 39 l0 207 l-173 0 l0 -207 q0 -37 39 -39 l95 0 Z" /><glyph glyph-name="uni661F" unicode="&#x661f;" d="M917 6 q44 0 44 -34 q0 -35 -44 -35 l-811 0 q-43 0 -43 35 q0 34 43 34 l372 0 l0 105 l-261 0 q-38 0 -38 34 q0 34 38 34 l261 0 l0 94 l-252 0 q-47 -65 -79 -96 q-32 -31 -52 -31 q-38 0 -38 40 q0 17 35 52 q78 80 121 158 q7 13 15 19 q8 6 20 6 q43 0 43 -32 q0 -12 -22 -47 l209 0 l0 88 l-240 0 q-96 0 -89 93 l0 166 q-7 93 89 93 l543 0 q100 0 93 -93 l0 -166 q7 -93 -89 -93 l-228 0 l0 -88 l320 0 q39 0 39 -35 q0 -34 -39 -34 l-320 0 l0 -94 l267 0 q39 0 39 -34 q0 -34 -39 -34 l-267 0 l0 -105 l360 0 ZM268 716 q-38 0 -36 -35 l0 -41 l559 0 l0 41 q0 36 -36 35 l-487 0 ZM232 532 q0 -37 36 -36 l487 0 q37 0 36 36 l0 44 l-559 0 l0 -44 Z" /><glyph glyph-name="uni66AE" unicode="&#x66ae;" d="M921 184 q48 -15 48 -38 q0 -38 -36 -38 q-38 0 -127 50 l1 -152 q0 -42 -21.5 -61.5 q-21.5 -19.5 -68.5 -17.5 l-411 0 q-49 0 -71 19 q-22 19 -18 60 l0 130 l0 26 q-98 -59 -127 -59 q-35 0 -35 36 q0 28 41 41 q82 28 164 88 l-165 0 q-37 0 -37 33 q0 33 37 33 l239 0 l35 45 l-115 0 q-47 0 -68.5 18.5 q-21.5 18.5 -18.5 58.5 l0 101 q0 41 20.5 60 q20.5 19 66.5 17 l60 0 l0 46 l-216 0 q-36 0 -36 33 q0 33 36 33 l216 0 l0 34 q0 35 40 35 q38 0 38 -35 l0 -34 l231 0 l0 34 q0 35 39 35 q40 0 40 -35 l0 -34 l222 0 q38 0 38 -33 q0 -33 -38 -33 l-222 0 l0 -46 l68 0 q47 0 68 -18.5 q21 -18.5 18 -58.5 l0 -101 q0 -39 -20 -58 q-20 -19 -63 -19 l-321 0 l-33 -45 l510 0 q38 0 38 -33 q0 -33 -38 -33 l-178 0 q73 -53 170 -84 ZM392 680 l0 -46 l231 0 l0 46 l-231 0 ZM250 535 l524 0 l0 17 q0 23 -26 25 l-473 0 q-25 0 -25 -25 l0 -17 ZM250 462 q0 -25 25 -26 l473 0 q26 0 26 26 l0 19 l-524 0 l0 -19 ZM359 268 q-32 -32 -63 -55 l427 0 q-29 24 -58 55 l-306 0 ZM724 135 q0 18 -19 20 l-386 0 q-20 0 -20 -20 l0 -32 l425 0 l0 32 ZM724 45 l-425 0 l0 -30 q0 -27 27 -28 l371 0 q25 0 27 28 l0 30 Z" /><glyph glyph-name="uni66F4" unicode="&#x66f4;" d="M97 -90 q-40 0 -40 43 q0 32 44 38 q181 22 265 79 q-116 80 -116 125 q0 28 38 28 q20 0 55 -35 q39 -40 76 -66 q36 51 44 122 l-224 0 q-94 -8 -87 87 l0 203 q-8 95 87 87 l232 0 l-1 78 l-362 0 q-45 0 -45 37 q0 38 45 38 l806 0 q47 0 47 -38 q0 -37 -47 -37 l-365 0 l0 -78 l244 0 q94 8 87 -87 l0 -203 q7 -94 -87 -87 l-254 0 q-13 -96 -58 -159 q77 -38 201 -60 q132 -24 227 -25 q58 -2 58 -42 q0 -45 -49 -45 q-69 0 -226 28 q-146 26 -264 89 q-59 -49 -160 -86 q-91 -34 -171 -34 ZM471 556 l-207 0 q-38 0 -37 -37 l0 -52 l244 0 l0 89 ZM802 519 q0 37 -37 37 l-216 0 l0 -89 l253 0 l0 52 ZM470 405 l-243 0 l0 -58 q0 -38 37 -37 l204 0 l2 95 ZM765 310 q38 0 37 37 l0 58 l-254 0 l-3 -95 l220 0 Z" /><glyph glyph-name="uni6700" unicode="&#x6700;" d="M247 506 q-43 0 -63 19.5 q-20 19.5 -18 62.5 l0 119 q0 43 19.5 62.5 q19.5 19.5 61.5 17.5 l528 0 q45 0 65 -19 q20 -19 17 -61 l0 -119 q0 -44 -19.5 -64 q-19.5 -20 -62.5 -18 l-528 0 ZM775 698 q0 29 -30 30 l-470 0 q-28 0 -30 -30 l0 -22 l530 0 l0 22 ZM745 565 q30 0 30 31 l0 24 l-530 0 l0 -24 q0 -29 30 -31 l470 0 ZM444 -98 q-37 0 -37 45 l0 68 l-11 -3 q-239 -78 -294 -78 q-38 0 -38 40 q0 30 30 37 l53 12 l0 368 l-53 0 q-20 0 -29.5 8.5 q-9.5 8.5 -9.5 26.5 q0 33 39 33 l835 0 q40 0 40 -34 q0 -34 -40 -34 l-448 0 l0 -444 q0 -45 -37 -45 ZM407 328 l0 63 l-186 0 l0 -63 l186 0 ZM543 -95 q-39 0 -39 39 q0 13 9 23 q9 10 28 18 q72 31 122 69 q-95 95 -95 158 q0 31 38 31 q26 0 41 -36 q21 -54 69 -102 l2 -2 q48 48 77 102 l19 36 q1 3 4.5 9 q3.5 6 3.5 10 q0 11 -14 11 l-243 0 q-42 0 -42 34 q0 34 42 34 l288 0 q32 0 48 -10 q16 -10 16 -32 q0 -21 -26 -70 q-30 -56 -53 -91 q-21 -31 -64 -78 q56 -38 147 -62 q48 -12 48 -44 q0 -43 -42 -43 q-32 0 -99 33 q-77 38 -109 63 q-118 -100 -176 -100 ZM407 200 l0 68 l-186 0 l0 -68 l186 0 ZM221 38 q100 20 186 43 l0 59 l-186 0 l0 -102 Z" /><glyph glyph-name="uni6708" unicode="&#x6708;" d="M805 754 q29 -29 28 -79 l0 -650 q0 -57 -29 -88 q-29 -30 -89 -29 l-103 0 q-26 0 -38.5 10.5 q-12.5 10.5 -12.5 33.5 q0 45 51 45 l87 0 q49 0 49 49 l0 181 l-464 0 q-12 -79 -31 -130 q-19 -51 -51 -100 q-58 -89 -93 -89 q-23 0 -35 10.5 q-12 10.5 -12 30.5 q0 15 8.5 29 q8.5 14 23.5 31.5 q15 17.5 21 24.5 q60 73 78 166 q1 6 7 30 q9 44 12.5 96 q3.5 52 4.5 232 q0 28 1 42 q2 35 0 69 q-6 118 105 112 l404 0 q51 0 78 -27 ZM352 697 q-24 0 -37 -13 q-13 -13 -13 -37 l0 -96 l446 0 l0 89 q0 27 -14 42 q-14 15 -41 15 l-341 0 ZM748 311 l0 156 l-446 0 q0 -83 -7 -156 l453 0 Z" /><glyph glyph-name="uni6709" unicode="&#x6709;" d="M918 709 q48 0 48 -39 q0 -38 -48 -38 l-529 0 l-48 -103 l407 0 q53 0 77 -23 q24 -23 21 -75 l0 -416 q8 -112 -104 -106 l-87 0 q-47 0 -47 42 q0 43 47 43 l63 0 q23 0 35 12.5 q12 12.5 12 37.5 l0 72 l-423 0 l0 -159 q0 -49 -41 -49 q-41 0 -41 49 l0 440 l-3 1 q-119 -160 -161 -160 q-39 0 -39 44 q0 22 28 47 q148 131 222 303 l-189 0 q-48 0 -48 39 q0 38 48 38 l218 0 l16 59 q12 46 45 46 q47 0 47 -40 q0 -13 -4.5 -27 q-4.5 -14 -14.5 -38 l493 0 ZM342 360 l423 0 l0 52 q0 20 -11 31.5 q-11 11.5 -32 11.5 l-355 0 q-25 0 -25 -26 l0 -69 ZM342 286 l0 -96 l423 0 l0 96 l-423 0 Z" /><glyph glyph-name="uni671F" unicode="&#x671f;" d="M95 145 q-41 0 -41 38 q0 37 41 37 l53 0 l0 398 l-41 0 q-39 0 -39 37 q0 37 39 37 l40 0 l0 78 q0 47 40 47 q19 0 28.5 -12 q9.5 -12 9.5 -35 l0 -78 l193 0 l0 77 q0 48 38 48 q39 0 39 -48 l0 -77 l36 0 q41 0 41 -37 q0 -37 -41 -37 l-35 0 l0 -398 l39 0 q39 0 39 -37 q0 -38 -39 -38 l-440 0 ZM511 -88 q-42 0 -42 42 q0 22 28 46 q62 51 84 138 q22 87 22 382 l-1 170 q0 46 22 69 q22 23 70 23 l149 0 q51 0 72 -21.5 q21 -21.5 21 -70.5 l0 -673 q0 -54 -23.5 -79.5 q-23.5 -25.5 -74.5 -23.5 l-56 0 q-45 0 -45 43 q0 42 45 42 l45 0 q28 0 29 29 l0 207 l-184 0 q-9 -122 -39 -188 q-31 -69 -60 -102 q-28 -33 -62 -33 ZM856 670 q0 33 -35 35 l-113 0 q-13 0 -21.5 -8 q-8.5 -8 -8.5 -21 l1 -94 l0 -35 l177 0 l0 123 ZM419 533 l0 85 l-194 0 l0 -85 l194 0 ZM856 311 l0 160 l-178 0 l-3 -160 l181 0 ZM419 379 l0 86 l-194 0 l0 -86 l194 0 ZM419 220 l0 91 l-194 0 l0 -91 l194 0 ZM459 -6 q-19 0 -54 44 l-19 20 q-11 12 -16 19.5 q-5 7.5 -5 15.5 q0 36 38 36 q18 0 58 -37 q39 -36 39 -58 q0 -40 -41 -40 ZM94 -59 q-39 0 -39 42 q0 23 33 45 q34 22 90 76 q23 21 40 21 q37 0 37 -38 q0 -29 -67 -87 q-68 -59 -94 -59 Z" /><glyph glyph-name="uni672C" unicode="&#x672c;" d="M929 164 q38 -22 38 -50 q0 -48 -45 -48 q-43 0 -164 122 q-59 59 -109 124.5 q-50 65.5 -100 157.5 l0 -324 l159 0 q22 0 32 -9.5 q10 -9.5 10 -30.5 q0 -38 -42 -38 l-159 0 l0 -114 q0 -50 -42 -50 q-41 0 -41 50 l0 114 l-151 0 q-43 0 -43 39 q0 39 43 39 l151 0 l0 328 q-95 -162 -206 -282 q-120 -131 -159 -131 q-44 0 -44 46 q0 27 31 48 q107 74 202 188 q98 118 140 209 l-312 0 q-48 0 -48 39 q0 39 48 39 l348 0 l0 131 q0 53 42 53 q41 0 41 -53 l0 -131 l360 0 q48 0 48 -39 q0 -39 -48 -39 l-332 0 q52 -115 149 -219 q106 -112 203 -169 Z" /><glyph glyph-name="uni6761" unicode="&#x6761;" d="M100 315 q-36 0 -36 39 q0 31 49 40 q190 35 326 93 q-46 31 -77.5 67.5 q-31.5 36.5 -55.5 82.5 q-72 -62 -125 -97 q-53 -35 -73 -35 q-36 0 -36 39 q0 23 40 45 q149 83 234 187 q32 38 59 38 q42 0 42 -28 q0 -15 -36 -53 l362 0 q67 0 67 -46 q0 -26 -73 -87 q-76 -62 -167 -114 l-4 -3 q142 -60 298 -71 q68 -4 68 -44 q0 -41 -43 -41 q-71 0 -191 35 q-134 39 -214 79 q-96 -45 -239 -86 q-140 -40 -175 -40 ZM516 521 q75 37 138 80 q27 19 41.5 33 q14.5 14 14.5 20 q0 8 -10 8 l-332 0 q62 -97 148 -141 ZM510 -97 q-40 0 -40 48 l0 196 q-96 -89 -216 -147 q-119 -59 -160 -59 q-20 0 -29 9.5 q-9 9.5 -9 30.5 q0 30 40 43 q201 61 347 179 l-308 0 q-44 0 -44 37 q0 38 44 38 l335 0 l0 70 q0 36 41 36 q39 0 39 -36 l0 -70 l338 0 q45 0 45 -38 q0 -37 -45 -37 l-311 0 q110 -113 332 -167 q59 -15 59 -49 q0 -43 -41 -43 q-51 0 -177 63 q-122 62 -200 138 l0 -194 q0 -48 -40 -48 Z" /><glyph glyph-name="uni6765" unicode="&#x6765;" d="M508 -96 q-41 0 -41 50 l0 285 q-88 -103 -213 -193 q-116 -84 -157 -84 q-40 0 -40 44 q0 14 7 26 q4 6 52 31 q200 103 318 236 l-317 0 q-49 0 -49 40 q0 39 49 39 l350 0 l0 241 l-324 0 q-48 0 -48 38 q0 21 11.5 30.5 q11.5 9.5 36.5 9.5 l324 0 l0 79 q0 38 42 38 q40 0 40 -38 l0 -79 l332 0 q24 0 36 -9.5 q12 -9.5 12 -30.5 q0 -38 -48 -38 l-332 0 l0 -241 l358 0 q48 0 48 -39 q0 -40 -48 -40 l-326 0 q54 -70 155 -139 q106 -72 189 -99 q42 -14 42 -47 q0 -45 -42 -45 q-49 0 -173 84 q-126 86 -203 185 l0 -284 q0 -50 -41 -50 ZM730 409 q-40 0 -40 38 q0 11 13 34 q17 29 29 65 q16 46 46 46 q43 0 43 -42 q0 -18 -52 -116 q-14 -25 -39 -25 ZM281 410 q-27 0 -38 27 q-14 36 -28 60 q-25 44 -25 57 q0 37 39 37 q26 0 60 -61 q34 -60 34 -78 q0 -42 -42 -42 Z" /><glyph glyph-name="uni679C" unicode="&#x679c;" d="M506 -98 q-40 0 -40 50 l0 219 q-61 -73 -192 -151 q-128 -76 -179 -76 q-39 0 -39 43 q0 29 50 47 q204 72 329 189 l-330 0 q-24 0 -35 9 q-11 9 -11 29 q0 36 46 36 l361 0 l0 75 l-236 0 q-48 0 -71 24 q-25 26 -25 73 l0 213 q0 50 25 75 q25 25 71 25 l554 0 q48 0 76 -25 q24 -21 24 -72 l0 -212 q0 -48 -24 -77 q-21 -24 -72 -24 l-242 0 l0 -75 l371 0 q48 0 48 -37 q0 -37 -48 -37 l-341 0 q153 -137 325 -181 q67 -16 67 -50 q0 -45 -44 -45 q-19 0 -64 18 q-202 78 -314 211 l0 -224 q0 -50 -40 -50 ZM466 709 l-207 0 q-27 0 -36 -9 q-9 -9 -8 -35 l0 -48 l251 0 l0 92 ZM803 665 q0 26 -8.5 35 q-8.5 9 -34.5 9 l-214 0 l0 -92 l257 0 l0 48 ZM466 544 l-251 0 l0 -55 q0 -26 9 -35 q9 -9 35 -9 l207 0 l0 99 ZM760 445 q26 0 34.5 9 q8.5 9 8.5 35 l0 55 l-257 0 l0 -99 l214 0 Z" /><glyph glyph-name="uni67B6" unicode="&#x67b6;" d="M98 347 q-40 0 -40 41 q0 24 26 37 q136 67 150 228 l-124 0 q-41 0 -41 36 q0 37 41 37 l128 0 l0 26 l-1 21 q-1 21 9.5 31.5 q10.5 10.5 30.5 10.5 q36 0 39 -33 l2 -43 l0 -13 l113 0 q83 0 83 -70 q0 -49 -5 -114 q-6 -95 -21 -124 q-28 -55 -134 -55 q-24 0 -38 10.5 q-14 10.5 -14 31.5 q0 20 11 32 q9 11 26 8 q28 -4 52 -4 q9 0 17 5.5 q8 5.5 12 14.5 q9 19 13 89 l3 72 q1 31 -28 31 l-94 0 q-9 -90 -39 -153 q-31 -66 -88 -108 q-60 -45 -89 -45 ZM653 378 q-45 0 -66 20 q-21 20 -19 64 l0 191 q0 46 20.5 66.5 q20.5 20.5 64.5 18.5 l190 0 q45 0 66 -20 q21 -20 19 -65 l0 -191 q0 -44 -20.5 -65 q-20.5 -21 -64.5 -19 l-190 0 ZM814 455 q17 0 25 8.5 q8 8.5 9 25.5 l0 138 q0 17 -8.5 25 q-8.5 8 -25.5 9 l-133 0 q-33 0 -34 -34 l0 -138 q0 -32 34 -34 l133 0 ZM509 -97 q-39 0 -39 39 l0 217 q-139 -136 -326 -205 q-36 -13 -46 -13 q-41 0 -41 42 q0 16 12 26.5 q12 10.5 37 18.5 q191 59 343 190 l-335 0 q-45 0 -45 36 q0 35 45 35 l356 0 l0 58 q0 39 40 39 q39 0 39 -39 l0 -58 l360 0 q45 0 45 -35 q0 -36 -45 -36 l-339 0 q119 -120 328 -178 q69 -19 69 -52 q0 -42 -41 -42 q-15 0 -76 23 q-193 70 -301 190 l0 -217 q0 -39 -40 -39 Z" /><glyph glyph-name="uni67E5" unicode="&#x67e5;" d="M118 351 q-43 0 -43 44 q0 27 38 42 q97 37 181 89 q84 52 140 108 l-282 0 q-47 0 -47 38 q0 20 11 29 q11 9 36 9 l330 0 l0 63 q0 43 42 43 q43 0 43 -43 l0 -63 l324 0 q48 0 48 -38 q0 -38 -48 -38 l-272 0 q71 -57 151 -104.5 q80 -47.5 160 -76.5 q46 -17 46 -46 q0 -45 -43 -45 q-36 0 -150 65 q-58 33 -115 76.5 q-57 43.5 -101 89.5 l0 -150 q0 -44 -43 -44 q-42 0 -42 44 l0 143 q-71 -67 -120 -106 q-49 -39 -92 -63 q-117 -66 -152 -66 ZM329 52 q-89 0 -89 78 l0 179 q0 78 89 78 l397 0 q89 0 89 -78 l0 -179 q0 -78 -89 -78 l-397 0 ZM732 285 q0 34 -34 34 l-344 0 q-34 0 -34 -34 l0 -31 l412 0 l0 31 ZM320 154 q0 -34 34 -34 l344 0 q34 0 34 34 l0 35 l-412 0 l0 -35 ZM128 -73 q-27 0 -38.5 9 q-11.5 9 -11.5 29 q0 20 11.5 29 q11.5 9 38.5 9 l776 0 q25 0 36.5 -9 q11.5 -9 11.5 -29 q0 -20 -11.5 -29 q-11.5 -9 -36.5 -9 l-776 0 Z" /><glyph glyph-name="uni6846" unicode="&#x6846;" d="M289 438 q18 0 58 -72 q40 -71 40 -90 q0 -35 -36 -35 q-21 0 -32 34 l-50 110 l0 -431 q0 -48 -40 -48 q-39 0 -39 48 l0 377 q-23 -74 -50.5 -126 q-27.5 -52 -48.5 -54 q-17 -1 -26.5 7.5 q-9.5 8.5 -9.5 23.5 q0 17 12 35 q35 53 72 149 q29 76 47 164 l-81 0 q-45 0 -45 38 q0 37 45 37 l85 0 l0 160 q0 47 39 47 q40 0 40 -47 l0 -160 l66 0 q46 0 46 -37 q0 -38 -46 -38 l-66 0 l0 -101 q9 9 20 9 ZM924 6 q45 0 45 -37 q0 -37 -45 -37 l-436 0 q-51 0 -74 22.5 q-23 22.5 -19 72.5 l0 649 q-7 101 93 93 l423 0 q45 0 45 -37 q0 -37 -45 -37 l-400 0 q-19 0 -27.5 -9 q-8.5 -9 -9.5 -28 l0 -615 q0 -36 37 -37 l413 0 ZM672 186 l0 141 l-104 0 q-39 0 -39 35 q0 33 39 33 l104 0 l0 133 l-126 0 q-42 0 -42 36 q0 36 42 36 l323 0 q41 0 41 -36 q0 -36 -41 -36 l-121 0 l0 -133 l105 0 q40 0 40 -34 q0 -34 -40 -34 l-105 0 l0 -141 l132 0 q45 0 45 -36 q0 -36 -45 -36 l-334 0 q-44 0 -44 36 q0 36 44 36 l126 0 Z" /><glyph glyph-name="uni6848" unicode="&#x6848;" d="M113 527 q-39 0 -39 41 l0 71 q-7 103 92 95 l295 0 l0 42 q0 38 45 38 q44 0 44 -38 l0 -42 l307 0 q99 8 92 -95 l0 -71 q0 -41 -39 -41 q-38 0 -38 41 l0 60 q0 41 -40 40 l-640 0 q-41 0 -40 -40 l0 -60 q0 -41 -39 -41 ZM858 271 q-5 0 -66 21 q-1 1 -21 8 q-67 24 -192 59 q-110 -66 -369 -78 q-13 -1 -38 -1 l-37 -1 q-37 0 -37 35 q0 36 45 36 l75 0 q160 0 252 30 l0 2 l-181 32 q-20 4 -29.5 12.5 q-9.5 8.5 -9.5 23.5 q0 17 26 42 l27 31 l-99 0 q-37 0 -37 32 q0 32 37 32 l156 0 l43 56 q16 22 37 22 q40 0 40 -26 q0 -10 -24 -39 l-9 -13 l372 0 q38 0 38 -32 q0 -32 -38 -32 l-88 0 q-39 -72 -86 -116 q118 -29 191 -51 q66 -20 66 -45 q0 -40 -44 -40 ZM385 513 l-28 -30 q-7 -7 -7 -14 q0 -7 20 -10 l194 -33 l1 0 q27 22 46.5 44.5 q19.5 22.5 36.5 52.5 l-255 0 l-8 -10 ZM509 -97 q-41 0 -41 44 l0 174 q-75 -69 -202 -132 q-122 -61 -170 -61 q-21 0 -30.5 10 q-9.5 10 -9.5 31 q0 14 11.5 24 q11.5 10 36.5 17 q162 41 315 146 l0 2 l-304 0 q-41 0 -41 35 q0 35 41 35 l353 0 l0 37 q0 44 41 44 q40 0 40 -44 l0 -37 l359 0 q41 0 41 -35 q0 -18 -9.5 -26.5 q-9.5 -8.5 -31.5 -8.5 l-319 0 q114 -87 308 -133 q44 -10 57 -19 q14 -9 14 -29 q0 -43 -45 -43 q-49 0 -174 56 q-125 57 -200 127 l0 -170 q0 -44 -40 -44 Z" /><glyph glyph-name="uni6863" unicode="&#x6863;" d="M241 -98 q-39 0 -39 46 l0 414 q-61 -216 -111 -216 q-36 0 -36 41 q0 12 16 38 q90 142 124 308 l-88 0 q-47 0 -47 39 q0 38 47 38 l95 0 l0 159 q0 46 39 46 q39 0 39 -46 l0 -159 l62 0 q53 0 53 -38 q0 -39 -53 -39 l-62 0 l0 -119 q10 13 27 13 q13 0 36 -33 q59 -86 59 -111 q0 -33 -33 -33 q-21 0 -36 30 l-47 91 l-6 11 l0 -434 q0 -46 -39 -46 ZM444 -59 q-50 0 -50 40 q0 40 50 40 l366 0 q40 0 42 42 l0 134 l-400 0 q-47 0 -47 39 q0 40 47 40 l400 0 l0 118 q0 42 -42 43 l-363 0 q-48 0 -48 40 q0 40 48 40 l170 0 l0 251 q0 46 42 46 q42 0 42 -46 l0 -251 l129 0 q112 7 106 -103 l0 -372 q0 -54 -25.5 -79.5 q-25.5 -25.5 -80.5 -21.5 l-386 0 ZM833 568 q-42 0 -42 36 q0 11 46 118 q17 39 43 39 q22 0 32 -9 q10 -9 10 -29 q0 -17 -46 -116 q-18 -39 -43 -39 ZM494 571 q-25 0 -40 33 l-37 81 q-12 26 -12 38 q0 33 40 33 q24 0 46 -43 q44 -86 44 -102 q0 -40 -41 -40 Z" /><glyph glyph-name="uni6A21" unicode="&#x6a21;" d="M363 240 q-9 0 -18.5 9 q-9.5 9 -22.5 33 l-28 52 l-16 34 l0 -426 q0 -40 -39 -40 q-38 0 -38 40 l0 440 q-25 -106 -55.5 -171 q-30.5 -65 -54.5 -65 q-36 0 -36 41 q0 14 15 38 q86 132 121 308 l-84 0 q-47 0 -47 39 q0 38 47 38 l94 0 l0 164 q0 41 39 41 q38 0 38 -41 l0 -164 l72 0 q47 0 47 -38 q0 -39 -47 -39 l-72 0 l0 -113 q8 7 20 7 q8 0 21 -17 q13 -17 36 -54 q41 -64 41 -84 q0 -15 -9 -23.5 q-9 -8.5 -24 -8.5 ZM392 653 q-38 0 -38 34 q0 35 38 35 l117 0 l0 58 q0 35 37 35 q37 0 37 -35 l0 -58 l146 0 l0 57 q0 36 39 36 q38 0 38 -36 l0 -57 l114 0 q39 0 39 -35 q0 -34 -39 -34 l-114 0 l0 -40 q0 -34 -39 -34 q-38 0 -38 34 l0 40 l-146 0 l0 -41 q0 -33 -38 -33 q-36 0 -36 33 l0 41 l-117 0 ZM933 -7 q36 -9 36 -41 q0 -41 -40 -41 q-54 0 -141 51 q-93 54 -142 126 q-35 -68 -95 -111 q-60 -43 -151 -65 l-25 -3 q-37 -4 -37 38 q0 14 11.5 23.5 q11.5 9.5 36.5 15.5 q81 19 132 54.5 q51 35.5 70 85.5 l-213 0 q-20 0 -29 8.5 q-9 8.5 -9 25.5 q0 33 38 33 l230 0 l6 64 l-120 0 q-47 0 -68.5 21 q-21.5 21 -17.5 65 l0 132 q-8 89 86 86 l331 0 q48 0 69.5 -21 q21.5 -21 17.5 -65 l0 -132 q4 -44 -17.5 -65 q-21.5 -21 -69.5 -21 l-138 0 l-6 -64 l247 0 q38 0 38 -33 q0 -17 -9 -25.5 q-9 -8.5 -29 -8.5 l-237 0 q78 -93 245 -133 ZM483 439 l349 0 l0 30 q0 14 -8 22 q-8 8 -22 8 l-289 0 q-14 0 -22 -8 q-8 -8 -8 -22 l0 -30 ZM483 349 q0 -14 8 -22 q8 -8 22 -8 l289 0 q14 0 22 8 q8 8 8 22 l0 32 l-349 0 l0 -32 Z" /><glyph glyph-name="uni6B21" unicode="&#x6b21;" d="M814 345 q-41 0 -41 39 q0 13 12 33 q17 27 55 118 q4 9 4 18 q0 15 -19 15 l-385 0 q-70 -161 -112 -161 q-43 0 -43 44 q0 14 16 39 q96 149 122 281 q4 21 16 32 q12 11 29 11 q47 0 47 -33 l-18 -64 l-26 -70 l400 0 q74 0 74 -53 q0 -31 -56 -148 l-29 -60 q-20 -41 -46 -41 ZM231 577 q-9 0 -20.5 8.5 q-11.5 8.5 -28.5 25.5 l-69 72 q-18 20 -18 38 q0 41 46 41 q23 0 80 -56 q58 -58 58 -81 q0 -48 -48 -48 ZM237 -91 q-23 0 -34.5 12 q-11.5 12 -11.5 33 q0 21 16 34 q1 1 24 10 q5 2 13 4.5 q8 2.5 19 6.5 q263 99 284 443 q4 73 9 79 q11 14 33 14 q39 0 39 -42 l-10 -107 q63 -263 302 -382 q48 -25 48 -53 q0 -10 -3.5 -17.5 q-3.5 -7.5 -12.5 -16.5 q-15 -15 -31 -15 q-34 0 -125 70 q-138 106 -199 287 l-2 0 q-57 -229 -262 -326 q-72 -34 -96 -34 ZM111 25 q-44 0 -44 46 q0 18 29 58 q95 127 133 205 q18 35 42 35 q21 0 31 -11 q13 -14 13 -27 q0 -17 -45 -94 q-50 -85 -90 -145 q-45 -67 -69 -67 Z" /><glyph glyph-name="uni6CA1" unicode="&#x6ca1;" d="M258 655 q-13 0 -45 20 l-27 14 q-63 32 -63 60 q0 44 45 44 q19 0 78 -31 q57 -30 57 -60 q0 -47 -45 -47 ZM339 409 q-43 0 -43 44 q0 22 24 35 q50 29 70 65 q21 36 21 139 q0 48 21 70 q21 22 67 20 l179 0 q48 0 69.5 -20.5 q21.5 -20.5 18.5 -66.5 l0 -158 q0 -26 42 -26 q47 0 55 5 q14 9 14 40 l0 33 q0 38 40 38 q42 0 42 -41 q0 -116 -31 -135 q-28 -17 -109 -17 q-57 0 -87 5 q-49 8 -49 53 l0 178 q0 33 -34 34 l-123 0 q-35 0 -35 -53 q0 -64 -13.5 -108.5 q-13.5 -44.5 -40.5 -74.5 q-53 -59 -98 -59 ZM217 405 q-13 0 -45 17 l-23 10 q-75 33 -75 62 q0 45 46 45 q19 0 96 -36 q44 -21 44 -51 q0 -47 -43 -47 ZM292 -91 q-20 -3 -31 11 q-11 14 -11 40 q0 19 13 29 q10 8 57 17 q117 23 208 74 q-44 40 -83 96 q-36 52 -36 76 q0 29 47 29 q27 0 38 -25 q32 -75 105 -131 q55 39 110 97 q54 57 54 71 q0 9 -14 9 l-381 0 q-48 0 -48 40 q0 39 48 39 l429 0 q75 0 75 -53 q0 -33 -63 -113 q-60 -76 -136 -136 q110 -54 242 -72 q54 -8 54 -45 q0 -51 -47 -51 q-50 0 -148 36 q-107 39 -174 81 q-132 -81 -285 -116 l-23 -3 ZM123 -79 q-48 0 -48 43 q0 12 10 35 q51 113 94 243 q8 23 19 34.5 q11 11.5 28 11.5 q44 0 44 -39 q0 -29 -45 -149 q-48 -128 -62 -153 q-15 -26 -40 -26 Z" /><glyph glyph-name="uni6CB3" unicode="&#x6cb3;" d="M258 655 q-13 0 -45 20 l-27 14 q-63 32 -63 60 q0 44 45 44 q19 0 78 -31 q57 -30 57 -60 q0 -47 -45 -47 ZM693 -90 q-47 0 -47 44 q0 45 47 45 l66 0 q39 0 41 40 l0 635 l-425 0 q-52 0 -52 41 q0 41 52 41 l544 0 q50 0 50 -41 q0 -41 -50 -41 l-34 0 l0 -655 q7 -115 -110 -109 l-82 0 ZM441 163 q-44 0 -64.5 20 q-20.5 20 -18.5 64 l0 221 q0 45 20 66 q20 21 63 18 l170 0 q45 0 65 -20 q20 -20 17 -64 l0 -221 q0 -46 -19.5 -66.5 q-19.5 -20.5 -62.5 -17.5 l-170 0 ZM217 405 q-13 0 -45 17 l-28 12 q-70 30 -70 60 q0 45 46 45 q19 0 96 -36 q44 -21 44 -51 q0 -47 -43 -47 ZM586 241 q30 0 32 32 l0 168 q0 30 -32 32 l-121 0 q-15 0 -23 -8.5 q-8 -8.5 -9 -23.5 l0 -168 q0 -15 8.5 -23 q8.5 -8 23.5 -9 l121 0 ZM121 -79 q-46 0 -46 41 q0 11 10 34 q51 116 94 245 q8 23 18.5 33.5 q10.5 10.5 27.5 10.5 q41 0 41 -37 q0 -25 -47 -155 q-42 -115 -59 -147 q-13 -25 -39 -25 Z" /><glyph glyph-name="uni6CE8" unicode="&#x6ce8;" d="M683 639 q-19 0 -40 21 q-34 32 -73 64 q-32 24 -32 42 q0 39 41 39 q22 0 85 -51 q63 -51 63 -74 q0 -41 -44 -41 ZM281 647 q-12 0 -32 13 l-42 24 q-39 23 -56.5 37.5 q-17.5 14.5 -17.5 26.5 q0 42 46 42 q19 0 103 -45 q43 -23 43 -52 q0 -46 -44 -46 ZM345 -59 q-48 0 -48 38 q0 39 48 39 l256 0 l0 237 l-186 0 q-48 0 -48 39 q0 38 48 38 l186 0 l0 201 l-218 0 q-49 0 -49 39 q0 39 49 39 l513 0 q47 0 47 -39 q0 -39 -47 -39 l-214 0 l0 -201 l183 0 q47 0 47 -38 q0 -20 -11.5 -29.5 q-11.5 -9.5 -35.5 -9.5 l-183 0 l0 -237 l237 0 q49 0 49 -39 q0 -38 -49 -38 l-574 0 ZM231 394 q-12 0 -55 25 l-32 16 q-63 31 -63 56 q0 44 46 44 q17 0 83 -33 q65 -32 65 -61 q0 -47 -44 -47 ZM122 -80 q-46 0 -46 44 q0 11 45 101 q46 93 81 190 q6 17 16.5 26.5 q10.5 9.5 23.5 9.5 q46 0 46 -38 q0 -9 -52 -144 q-49 -127 -73 -161 q-21 -28 -41 -28 Z" /><glyph glyph-name="uni6D0B" unicode="&#x6d0b;" d="M628 -96 q-41 0 -41 47 l0 202 l-248 0 q-45 0 -45 37 q0 38 45 38 l248 0 l0 126 l-196 0 q-20 0 -30 9 q-10 9 -10 28 q0 35 40 35 l196 0 l0 119 l-225 0 q-45 0 -45 38 q0 37 45 37 l333 0 l64 164 q9 22 37 22 q44 0 44 -35 q0 -19 -67 -151 l128 0 q45 0 45 -38 q0 -19 -11 -28 q-11 -9 -34 -9 l-231 0 l0 -119 l199 0 q40 0 40 -35 q0 -19 -10 -28 q-10 -9 -30 -9 l-199 0 l0 -126 l252 0 q45 0 45 -37 q0 -38 -45 -38 l-252 0 l0 -202 q0 -47 -42 -47 ZM499 641 q-24 0 -41 35 q-36 75 -36 87 q0 33 40 33 q27 0 53 -50 q26 -52 26 -72 q0 -33 -42 -33 ZM258 657 q-12 0 -44 20 l-27 14 q-62 32 -62 58 q0 42 43 42 q21 0 77 -31 q56 -31 56 -58 q0 -45 -43 -45 ZM217 407 q-13 0 -44 17 l-28 13 q-36 17 -52.5 30.5 q-16.5 13.5 -16.5 26.5 q0 43 44 43 q20 0 95 -36 q43 -20 43 -49 q0 -45 -41 -45 ZM123 -77 q-46 0 -46 41 q0 11 10 34 q51 113 94 243 q8 23 18.5 34 q10.5 11 26.5 11 q42 0 42 -37 q0 -22 -45 -148 q-40 -114 -62 -153 q-15 -25 -38 -25 Z" /><glyph glyph-name="uni6D41" unicode="&#x6d41;" d="M914 354 q-19 0 -66 51 l-27 28 l-485 -46 q-22 -2 -34 9 q-12 11 -12 32 q0 39 69 41 l74 4 q46 90 72 155 l-150 0 q-46 0 -46 38 q0 39 46 39 l212 0 l0 66 q0 44 43 44 q43 0 43 -44 l0 -66 l264 0 q47 0 47 -39 q0 -38 -47 -38 l-316 0 l-52 -93 l-18 -29 l-16 -29 l244 16 l-31 29 q-26 24 -26 37 q0 17 8.5 25 q8.5 8 27.5 8 q16 0 91 -63 q74 -63 101 -92 q26 -28 26 -43 q0 -40 -42 -40 ZM258 661 q-19 0 -47 17 l-51 28 q-39 21 -39 44 q0 23 11.5 34 q11.5 11 35.5 11 q14 0 92 -41 q37 -19 37 -49 q0 -44 -39 -44 ZM137 439 q-63 28 -63 55 q0 45 47 45 q20 0 78 -28 q55 -27 55 -58 q0 -45 -41 -45 l-10 2 l-66 29 ZM842 -69 q-67 0 -87 14 q-17 12 -19 46 l0 326 q0 43 39 43 q38 0 38 -43 l0 -279 q0 -28 38 -28 q30 0 36 12 q5 12 8 72 q2 42 37 42 q37 0 37 -41 q0 -114 -34 -145 q-20 -19 -93 -19 ZM286 -86 q-42 0 -42 44 q0 24 29 44 q104 72 104 236 l-2 82 q-1 39 42 39 q41 0 41 -55 q0 -118 -18 -196 q-18 -77 -70 -135 q-51 -59 -84 -59 ZM591 -50 q-39 0 -39 43 l0 323 q0 43 39 43 q39 0 39 -43 l0 -323 q0 -43 -39 -43 ZM123 -79 q-45 0 -45 42 q0 11 23 62 l74 206 q9 25 19.5 36.5 q10.5 11.5 26.5 11.5 q38 0 38 -37 q0 -42 -75 -240 q-16 -42 -30.5 -61.5 q-14.5 -19.5 -30.5 -19.5 Z" /><glyph glyph-name="uni6D45" unicode="&#x6d45;" d="M864 -94 q-44 0 -95 38 q-55 41 -96 100 q-106 -56 -225 -91 q-90 -27 -130 -27 q-42 0 -42 48 q0 19 16 32 q5 4 29.5 8 q24.5 4 33.5 6 q151 27 279 92 q-31 69 -51 147 l-241 -19 q-42 -3 -42 39 q0 35 44 38 l225 17 l-11 90 l-1 3 l-168 -13 q-45 -3 -45 36 q0 33 41 36 l166 12 l-3 88 l-205 -16 q-18 -1 -27 8.5 q-9 9.5 -9 27.5 q0 35 44 40 l195 15 l-1 88 q0 66 42 66 q42 0 42 -47 l-1 -97 l-1 -4 l262 20 q24 2 36 -7 q12 -9 12 -28 q0 -36 -44 -39 l-265 -21 l3 -84 l0 -4 l235 19 l12 0 q34 0 34 -35 q0 -17 -10 -26 q-10 -9 -30 -11 l-235 -18 l11 -93 l270 22 q50 4 50 -38 q0 -34 -45 -39 l-259 -20 q16 -60 42 -112 q49 29 104 79 q26 23 43 23 q40 0 40 -38 q0 -36 -149 -131 q31 -40 61 -63 q37 -29 54 -29 q31 0 35 77 q3 54 39 54 q36 0 36 -44 q0 -74 -31 -124 q-31 -51 -74 -51 ZM806 691 q-20 0 -53 38 l-14 16 q-19 21 -19 34 q0 33 38 33 q24 0 57 -35 q33 -36 33 -51 q0 -35 -42 -35 ZM259 655 q-14 0 -45 19 l-27 15 q-63 35 -63 60 q0 44 45 44 q23 0 79 -31 q56 -31 56 -60 q0 -47 -45 -47 ZM218 405 q-13 0 -45 17 l-23 10 q-75 33 -75 62 q0 45 46 45 q20 0 96 -36 q44 -21 44 -51 q0 -47 -43 -47 ZM124 -79 q-48 0 -48 43 q0 12 10 35 q51 113 94 243 q8 23 19 34.5 q11 11.5 28 11.5 q44 0 44 -39 q0 -27 -45 -146 l-17 -46 q-35 -92 -43 -107 q-15 -29 -42 -29 Z" /><glyph glyph-name="uni6D77" unicode="&#x6d77;" d="M288 487 q-41 0 -41 42 q0 8 5 16 q5 8 16 21 q73 79 121 206 q16 42 50 42 q21 0 30.5 -7.5 q9.5 -7.5 9.5 -23.5 q0 -15 -19 -57 l449 0 q39 0 39 -39 q0 -37 -39 -37 l-486 0 q-16 -31 -31 -54 q-15 -23 -40 -55 q-43 -54 -64 -54 ZM249 658 q-14 0 -34 14 q-16 11 -56 31 q-43 21 -43 46 q0 21 10 31 q10 10 32 10 q22 0 79 -30 q56 -30 56 -58 q0 -44 -44 -44 ZM680 -95 q-34 0 -47.5 8 q-13.5 8 -13.5 31 q0 27 17 36 q7 4 59 5 q50 2 66 10 q10 5 15 44 l-365 0 q-41 0 -63.5 17 q-22.5 17 -22.5 49 q0 22 10 100 l8 68 l-45 0 q-42 0 -42 36 q0 36 42 36 l51 0 l7 78 q2 12 4 41 q5 57 25.5 84 q20.5 27 65.5 27 l341 0 q87 0 87 -78 l-6 -152 l53 0 q42 0 42 -36 q0 -36 -42 -36 l-55 0 q-5 -111 -8 -161 l49 0 q36 0 36 -37 q0 -36 -36 -36 l-54 0 q-10 -77 -43 -105 q-34 -29 -135 -29 ZM204 409 q-8 0 -34 11 l-61 29 q-41 19 -41 45 q0 22 10 32 q10 10 32 10 q23 0 101 -38 q36 -18 36 -45 q0 -44 -43 -44 ZM794 345 q1 25 3 64 q2 39 2 64 q0 28 -32 28 l-297 0 q-15 0 -23 -8 q-8 -8 -9 -25 l-10 -123 l366 0 ZM655 360 q-8 0 -25 10 q-17 10 -32 21 q-16 12 -44 30 q-30 20 -30 36 q0 33 38 33 q16 0 74 -37 q60 -39 60 -59 q0 -34 -41 -34 ZM116 -74 q-23 0 -34 11 q-11 11 -11 35 q0 10 9 27 q43 86 92 230 q17 52 47 52 q41 0 41 -40 q0 -27 -49 -155 q-46 -121 -61 -144 q-11 -16 -34 -16 ZM792 273 l-370 0 q-2 -13 -14 -135 q-2 -12 7 -19 q9 -7 25 -7 l343 0 l9 161 ZM662 126 q-10 0 -28 9 q-18 9 -34 21 l-19 12 q-9 5 -27 17 q-29 20 -29 36 q0 32 37 32 q14 0 73 -37 q60 -37 60 -56 q0 -16 -10 -25 q-10 -9 -23 -9 Z" /><glyph glyph-name="uni6DF1" unicode="&#x6df1;" d="M247 667 q-14 0 -74 30 q-51 26 -51 50 q0 43 45 43 q23 0 72 -26 q50 -26 50 -52 q0 -45 -42 -45 ZM379 387 q-35 0 -35 38 q0 23 36 40 q91 45 106 149 l9 82 l-70 0 q-29 0 -31 -31 l0 -81 q0 -41 -39 -41 q-37 0 -37 41 l0 100 q0 47 21 68 q21 21 66 19 l450 0 q46 0 67.5 -21 q21.5 -21 18.5 -66 l0 -78 q0 -43 -39 -43 q-41 0 -41 43 l0 54 q0 34 -31 36 l-106 0 l0 -184 q0 -20 10 -25 q12 -5 68 -5 q32 0 38 38 q5 32 35 32 q38 0 38 -38 q0 -55 -28 -80 q-24 -23 -120 -23 q-74 0 -94 15 q-21 16 -22 55 l0 215 l-82 0 q-4 -97 -25 -156 q-23 -66 -76 -108 q-55 -45 -87 -45 ZM204 417 q-8 0 -32.5 10 q-24.5 10 -29.5 12 q-65 27 -65 54 q0 44 45 44 q11 0 69 -22 q26 -10 40 -24 q14 -14 14 -30 q0 -44 -41 -44 ZM608 -98 q-39 0 -39 43 l0 235 q-61 -80 -159 -151 q-97 -70 -132 -70 q-39 0 -39 42 q0 25 40 44 q192 88 270 200 l-207 0 q-47 0 -47 39 q0 39 47 39 l227 0 l0 60 q0 44 40 44 q38 0 38 -44 l0 -60 l266 0 q48 0 48 -39 q0 -39 -48 -39 l-240 0 q104 -122 255 -186 q41 -18 41 -45 q0 -43 -41 -43 q-36 0 -123 59 q-89 60 -158 155 l0 -240 q0 -43 -39 -43 ZM124 -79 q-47 0 -47 47 q0 9 8 28 q56 128 88 258 q10 43 44 43 q42 0 42 -43 q0 -27 -46 -165 q-47 -140 -53 -148 q-14 -20 -36 -20 Z" /><glyph glyph-name="uni6E38" unicode="&#x6e38;" d="M402 -91 q-47 0 -47 42 q0 36 47 39 q45 3 57 17 q20 25 32 230 l2 56 q2 34 2 54 q0 27 -28 27 l-60 0 q-11 -149 -32 -229 q-22 -85 -64 -152 q-41 -65 -70 -65 q-40 0 -40 41 q0 13 24 43 q71 90 92 213 q20 120 23 353 l-44 0 q-46 0 -46 39 q0 39 46 39 l90 0 l0 116 q0 44 39 44 q41 0 41 -44 l0 -116 l64 0 q49 0 49 -39 q0 -39 -49 -39 l-118 0 l-1 -125 l76 0 q39 0 59.5 -16.5 q20.5 -16.5 19.5 -48.5 l-2 -48 q-4 -106 -8 -170 q-9 -157 -30 -201 q-27 -60 -124 -60 ZM574 461 q-36 0 -36 37 q0 10 9 25 q57 88 98 227 q19 65 47 65 q39 0 39 -33 q0 -9 -8 -30 l-24 -70 l220 0 q49 0 49 -39 q0 -39 -48 -39 l-252 0 q-63 -143 -94 -143 ZM240 668 q-14 0 -74 30 q-50 26 -50 49 q0 42 45 42 q22 0 71 -26 q49 -26 49 -51 q0 -44 -41 -44 ZM197 418 q-8 0 -62 22 q-64 27 -64 53 q0 43 44 43 q11 0 69 -22 q53 -21 53 -53 q0 -22 -10 -32.5 q-10 -10.5 -30 -10.5 ZM662 -91 q-47 0 -47 39 q0 40 47 40 l36 0 q33 0 35 35 l0 140 l-117 0 q-40 0 -40 37 q0 37 40 37 l117 0 q0 72 5 97 q1 7 11 19.5 q10 12.5 30 28.5 q49 39 49 46 q0 3 -6 3 l-164 0 q-42 0 -42 36 q0 36 42 36 l218 0 q62 0 62 -45 q0 -35 -105 -119 q-23 -18 -25 -43 l0 -59 l121 0 q40 0 40 -37 q0 -37 -40 -37 l-121 0 l0 -157 q0 -52 -23.5 -76.5 q-23.5 -24.5 -74.5 -20.5 l-48 0 ZM117 -78 q-46 0 -46 46 q0 9 8 28 q56 128 88 258 q10 43 43 43 q42 0 42 -43 q0 -26 -47 -165 q-47 -138 -53 -148 q-13 -19 -35 -19 Z" /><glyph glyph-name="uni6E90" unicode="&#x6e90;" d="M235 669 q-10 0 -86 37 q-37 19 -37 43 q0 42 43 42 q25 0 74 -26 q47 -26 47 -52 q0 -44 -41 -44 ZM577 -99 q-49 0 -49 40 q0 41 40 41 l35 0 q16 0 24 9 q8 9 8 25 l0 202 l-103 0 q-44 0 -64 20 q-20 20 -18 62 l0 216 q0 44 20 64 q20 20 62 18 l82 0 l25 92 l-205 0 q-32 0 -37 -26 l-3 -94 l-3 -130 q-2 -136 -7 -190 q-11 -114 -47 -213 q-34 -94 -79 -94 q-42 0 -42 45 q0 16 16 39 q72 104 81 330 l2 307 q0 104 97 104 l510 0 q47 0 47 -39 q0 -39 -47 -39 l-200 0 l-30 -92 l145 0 q44 0 64 -20 q20 -20 18 -62 l0 -216 q0 -43 -20 -63.5 q-20 -20.5 -62 -18.5 l-125 0 l0 -220 q0 -48 -20.5 -72 q-20.5 -24 -65.5 -25 l-49 0 ZM198 416 q-14 0 -72 25 q-57 26 -57 50 q0 42 43 42 q20 0 72 -21 q51 -20 51 -52 q0 -44 -37 -44 ZM841 502 q0 29 -30 30 l-257 0 q-28 0 -30 -30 l0 -59 l317 0 l0 59 ZM811 284 q28 0 30 30 l0 65 l-317 0 l0 -65 q0 -28 30 -30 l257 0 ZM115 -82 q-44 0 -44 43 q0 16 19 60 q10 21 42 120 l20 62 l12 36 q5 17 10 29.5 q5 12.5 8 15.5 q9 9 24 9 q40 0 40 -40 q0 -33 -66 -236 q-31 -99 -65 -99 ZM405 -51 q-38 0 -38 41 q0 14 40 59 q37 42 67 101 q17 34 40 34 q37 0 37 -35 q0 -32 -59 -115 q-60 -85 -87 -85 ZM928 -43 q-29 0 -90 82 q-62 85 -62 109 q0 34 40 34 q26 0 43 -32 q31 -55 76 -96 q17 -15 25.5 -29.5 q8.5 -14.5 8.5 -24.5 q0 -43 -41 -43 Z" /><glyph glyph-name="uni70B9" unicode="&#x70b9;" d="M252 181 q-53 0 -77.5 23 q-24.5 23 -20.5 74 l0 144 q-7 103 98 97 l184 0 l0 258 q0 37 42 37 q40 0 40 -37 l0 -74 l345 0 q47 0 47 -38 q0 -37 -47 -37 l-345 0 l0 -109 l253 0 q53 0 76.5 -23 q23.5 -23 20.5 -74 l0 -144 q0 -53 -23 -77 q-23 -24 -74 -20 l-519 0 ZM738 256 q45 0 45 45 l0 97 q0 46 -45 46 l-454 0 q-46 0 -46 -46 l0 -97 q0 -45 46 -45 l454 0 ZM908 -85 q-14 0 -25.5 8.5 q-11.5 8.5 -18.5 24.5 q-41 91 -73 135 q-13 19 -13 29 q0 38 41 38 q25 0 49 -38 q86 -132 86 -150 q0 -47 -46 -47 ZM112 -89 q-43 0 -43 44 q0 11 30 63 q29 50 38 91 q9 36 41 36 q41 0 41 -41 q0 -46 -62 -159 q-18 -34 -45 -34 ZM647 -70 q-33 0 -46 40 q-16 48 -33 82 q-20 40 -20 53 q0 36 39 36 q26 0 46 -38 q59 -113 59 -130 q0 -22 -11 -32.5 q-11 -10.5 -34 -10.5 ZM415 -75 q-35 0 -46 40 l-36 135 q0 35 38 35 q29 0 43 -35 q43 -104 43 -133 q0 -42 -42 -42 Z" /><glyph glyph-name="uni7248" unicode="&#x7248;" d="M349 -89 q-19 0 -28 11 q-9 11 -9 35 l0 294 q0 32 -33 34 l-88 0 q-3 -147 -30 -247 q-28 -105 -63 -105 q-41 0 -41 41 q0 9 13 42 q55 145 55 508 l-3 218 q0 24 9 35 q9 11 28 11 q19 0 27.5 -13 q8.5 -13 8.5 -41 l0 -167 l91 0 l0 202 q0 45 36 45 q37 0 37 -45 l0 -202 l61 0 q35 0 35 -37 q0 -36 -35 -36 l-226 0 l-1 -136 l113 0 q42 0 61.5 -19 q19.5 -19 18.5 -60 l0 -322 q0 -46 -37 -46 ZM570 -86 q-39 0 -39 41 q0 22 35 42 q89 50 138 106 q-47 76 -70 152 q-26 88 -26 133 q0 17 9 25.5 q9 8.5 28 8.5 q30 0 36 -38 q24 -138 72 -216 q34 57 64 143 q26 74 26 122 q0 27 -31 27 l-252 0 l0 -18 q0 -115 -12 -206.5 q-12 -91.5 -31 -154.5 q-43 -139 -85 -139 q-38 0 -38 43 q0 13 21 52 q38 68 56 176 q16 92 16 391 l-1 62 q-1 102 87 102 l346 0 q48 0 48 -39 q0 -39 -48 -39 l-324 0 q-35 0 -35 -49 l2 -106 l288 0 q80 0 80 -62 q0 -58 -37 -175 q-36 -113 -91 -194 q39 -39 103 -79 q62 -39 62 -62 q0 -46 -42 -46 q-51 0 -173 124 q-44 -48 -100 -87 q-56 -40 -82 -40 Z" /><glyph glyph-name="uni7279" unicode="&#x7279;" d="M267 -98 q-39 0 -39 46 l0 260 q-110 -40 -133 -40 q-40 0 -40 40 q0 34 52 46 l121 35 l0 232 l-70 0 q-8 -96 -23.5 -143 q-15.5 -47 -39.5 -47 q-37 0 -37 33 l4 22 q26 94 33 262 q3 62 38 62 q36 0 36 -36 l-7 -77 l66 0 l0 173 q0 45 39 45 q39 0 39 -45 l0 -173 l57 0 q38 0 38 -39 q0 -37 -38 -37 l-57 0 l0 -207 q47 18 56 18 q35 0 35 -36 q0 -24 -22 -33 l-69 -28 l0 -287 q0 -46 -39 -46 ZM680 -93 q-52 0 -52 41 q0 42 52 42 l32 0 q47 0 45 45 l0 204 l-295 0 q-45 0 -45 37 q0 37 45 37 l295 0 l0 113 l-323 0 q-47 0 -47 36 q0 37 47 37 l186 0 l0 119 l-158 0 q-23 0 -34 8.5 q-11 8.5 -11 27.5 q0 19 11 28 q11 9 34 9 l158 0 l0 69 q0 50 40 50 q40 0 40 -50 l0 -69 l171 0 q23 0 34 -9 q11 -9 11 -28 q0 -19 -11 -27.5 q-11 -8.5 -34 -8.5 l-171 0 l0 -119 l221 0 q24 0 35 -9 q11 -9 11 -28 q0 -36 -46 -36 l-84 0 l0 -113 l66 0 q45 0 45 -37 q0 -37 -45 -37 l-66 0 l0 -222 q0 -55 -26 -84 q-25 -28 -83 -26 l-48 0 ZM576 36 q-23 0 -42 30 l-30 44 q-12 18 -20 31.5 q-8 13.5 -8 18.5 q0 34 41 34 q22 0 61 -49 q39 -51 39 -71 q0 -38 -41 -38 Z" /><glyph glyph-name="uni7528" unicode="&#x7528;" d="M722 -86 q-41 0 -41 41 q0 41 41 41 l53 0 q21 0 32 11.5 q11 11.5 11 31.5 l0 197 l-266 0 l0 -265 q0 -45 -39 -45 q-40 0 -40 45 l0 265 l-257 0 q-16 -156 -45 -237.5 q-29 -81.5 -69 -81.5 q-42 0 -42 45 q0 9 13 34 q39 70 56 191 q17 122 17 409 l-2 94 q-1 87 102 87 l551 0 q55 4 80 -21 q25 -25 21 -80 l0 -653 q7 -117 -107 -109 l-69 0 ZM473 704 l-201 0 q-24 0 -36 -18.5 q-12 -18.5 -11 -53.5 l0 -86 l248 0 l0 158 ZM818 658 q0 21 -12 33.5 q-12 12.5 -33 12.5 l-221 0 l0 -158 l266 0 l0 112 ZM473 309 l0 164 l-249 0 l-4 -164 l253 0 ZM818 309 l0 164 l-266 0 l0 -164 l266 0 Z" /><glyph glyph-name="uni7684" unicode="&#x7684;" d="M696 -92 q-28 1 -40 11 q-12 10 -12 31 q0 41 46 41 q62 0 87 2.5 q25 2.5 38 11.5 q13 9 21 32 q14 41 22 200 q8 159 8 302 q0 38 -44 38 l-223 0 q-17 -53 -61 -122 q-14 -23 -35 -23 q-11 0 -21 6 q-20 11 -20 31 q0 13 8 27 q42 79 62 133 q25 66 47 148 q5 17 15.5 26.5 q10.5 9.5 25.5 9.5 q4 0 14 -2 q30 -7 30 -36 q0 -10 -3 -22 q-7 -29 -17 -57.5 q-10 -28.5 -19 -44.5 l240 0 q88 0 88 -74 q0 -188 -10 -362.5 q-10 -174.5 -34 -233.5 q-18 -42 -55 -58 q-37 -16 -112 -16 q-30 0 -46 1 ZM161 -76 q-38 0 -57.5 19.5 q-19.5 19.5 -19.5 57.5 l0 569 q0 38 19 58 q19 20 56 20 l51 0 q8 45 19 127 q2 18 13 27 q11 9 29 9 q50 0 43 -51 q-8 -56 -26 -112 l76 0 q76 0 76 -78 l1 -569 q0 -77 -77 -77 l-203 0 ZM359 539 q0 33 -33 33 l-127 0 q-33 0 -33 -33 l0 -200 l193 0 l0 200 ZM689 171 q-16 0 -28 11.5 q-12 11.5 -24 34.5 q-19 34 -56 91 l-14 22 q-5 7 -8.5 17 q-3.5 10 -3.5 17 q0 17 10 26.5 q10 9.5 26 9.5 q16 0 34 -18 q18 -18 46 -59 q58 -87 58 -115 q0 -17 -10.5 -27 q-10.5 -10 -29.5 -10 ZM326 0 q33 0 33 33 l0 232 l-193 0 l0 -232 q0 -33 33 -33 l127 0 Z" /><glyph glyph-name="uni7696" unicode="&#x7696;" d="M441 499 q-38 0 -38 43 l0 78 q0 48 21 69.5 q21 21.5 66 18.5 l129 0 l0 54 q0 54 44 54 q44 0 44 -54 l0 -54 l158 0 q48 0 69.5 -20.5 q21.5 -20.5 18.5 -67.5 l0 -75 q0 -46 -40 -46 q-39 0 -39 46 l0 56 q0 32 -33 33 l-330 0 q-31 0 -33 -33 l0 -59 q0 -43 -37 -43 ZM175 -8 q-42 0 -60.5 18 q-18.5 18 -17.5 59 l0 508 q0 41 18.5 59.5 q18.5 18.5 59.5 16.5 l5 0 l17 103 q9 57 46 57 q42 0 42 -37 q0 -12 -35 -123 l42 0 q42 0 61 -18 q19 -18 17 -58 l0 -508 q0 -42 -18.5 -60.5 q-18.5 -18.5 -59.5 -16.5 l-117 0 ZM295 552 q0 29 -29 29 l-65 0 q-13 0 -20.5 -7.5 q-7.5 -7.5 -8.5 -21.5 l0 -188 l123 0 l0 188 ZM518 448 q-40 0 -40 36 q0 36 40 36 l313 0 q41 0 41 -36 q0 -36 -41 -36 l-313 0 ZM380 -92 q-38 0 -38 40 q0 27 33 42 q97 45 138 142 q15 37 17 140 l-87 0 q-45 0 -45 37 q0 36 45 36 l472 0 q45 0 45 -36 q0 -37 -45 -37 l-141 0 l0 -238 q0 -36 49 -36 q68 0 69 43 q1 38 7 49 q8 15 34 15 q40 0 40 -36 q0 -84 -27 -114 q-28 -31 -107 -31 q-92 0 -118 14 q-24 14 -26 46 l0 288 l-84 0 q-5 -116 -30 -183 q-26 -68 -96 -126 q-67 -55 -105 -55 ZM266 65 q28 0 29 29 l0 199 l-123 0 l0 -199 q0 -29 29 -29 l65 0 Z" /><glyph glyph-name="uni76EE" unicode="&#x76ee;" d="M273 -76 q-60 0 -85 26 q-27 28 -27 86 l0 626 q0 60 27 86 q27 26 85 26 l481 0 q60 0 86 -26 q26 -26 26 -86 l0 -626 q0 -63 -26 -86 q-29 -26 -86 -26 l-481 0 ZM780 638 q0 56 -54 56 l-423 0 q-56 0 -56 -54 l0 -114 l533 0 l0 112 ZM780 267 l0 182 l-533 0 l0 -182 l533 0 ZM724 4 q56 0 56 54 l0 132 l-533 0 l0 -130 q0 -56 54 -56 l423 0 Z" /><glyph glyph-name="uni76F4" unicode="&#x76f4;" d="M368 83 q-48 0 -70 21 q-22 21 -19 68 l0 314 q0 49 21 71 q21 22 68 19 l116 0 l0 77 l-377 0 q-45 0 -45 39 q0 38 45 38 l377 0 l0 48 q0 37 42 37 q43 0 43 -37 l0 -48 l346 0 q48 0 48 -38 q0 -39 -48 -39 l-346 0 l0 -77 l201 0 q49 0 71 -21.5 q22 -21.5 19 -68.5 l0 -314 q0 -48 -21.5 -70 q-21.5 -22 -68.5 -19 l-402 0 ZM209 -62 q-56 0 -82 24 q-26 24 -23 77 l0 446 q0 51 43 51 q43 0 43 -51 l0 -428 q0 -44 45 -43 l688 0 q46 0 46 -39 q0 -37 -46 -37 l-714 0 ZM777 476 q0 29 -32 31 l-356 0 q-30 0 -32 -31 l0 -41 l420 0 l0 41 ZM777 297 l0 72 l-420 0 l0 -72 l420 0 ZM745 152 q30 0 32 31 l0 48 l-420 0 l0 -48 q0 -29 32 -31 l356 0 Z" /><glyph glyph-name="uni77E5" unicode="&#x77e5;" d="M352 353 q-3 -45 -6.5 -75.5 q-3.5 -30.5 -11.5 -63.5 q8 6 18 8.5 q10 2.5 18 1.5 q28 -5 97 -81 q70 -77 70 -107 q0 -40 -42 -40 q-18 0 -36 25 q-5 7 -17.5 25.5 q-12.5 18.5 -25.5 34.5 q-39 49 -80 92 q-3 3 -9 13 q-30 -109 -105 -189 q-73 -78 -124 -78 q-20 0 -30.5 10 q-10.5 10 -10.5 26 q0 29 60 69 q74 49 111 130.5 q37 81.5 42 198.5 l-169 0 q-44 0 -44 38 q0 37 44 37 l173 0 l0 193 l-83 0 q-46 -99 -59 -116 q-15 -21 -35 -21 q-39 0 -39 38 q0 11 15 36 q64 114 92 219 q11 37 42 37 q40 0 40 -34 q0 -13 -27 -84 l255 0 q45 0 45 -38 q0 -37 -45 -37 l-120 0 l0 -193 l138 0 q46 0 46 -37 q0 -38 -46 -38 l-141 0 ZM929 61 q4 -54 -20.5 -78.5 q-24.5 -24.5 -78.5 -20.5 l-166 0 q-54 -4 -78.5 20.5 q-24.5 24.5 -20.5 78.5 l0 563 q0 48 23 76 q19 23 72 23 l170 0 q49 0 75 -23 q24 -21 24 -72 l0 -567 ZM799 41 q49 0 48 49 l0 505 q0 49 -48 49 l-104 0 q-49 0 -49 -49 l0 -505 q0 -49 49 -49 l104 0 Z" /><glyph glyph-name="uni788E" unicode="&#x788e;" d="M434 621 q-47 0 -47 39 q0 38 47 38 l180 0 l0 65 q0 52 43 52 q44 0 44 -52 l0 -65 l203 0 q46 0 46 -39 q0 -38 -46 -38 l-470 0 ZM223 -10 q-78 0 -78 79 l0 230 q-36 -79 -57 -79 q-17 0 -25 10 q-8 10 -8 31 q0 15 19 50 q81 142 107 371 l-73 0 q-47 0 -47 37 q0 40 47 40 l232 0 q47 0 47 -40 q0 -37 -47 -37 l-83 0 q-27 -156 -53 -230 q12 2 90 2 q77 0 78 -76 l0 -22 q2 13 28 44 q73 87 107 182 q9 26 34 26 q39 0 39 -30 q0 -17 -30 -79 q98 -60 98 -89 q0 -41 -38 -41 q-13 0 -30 17 l-61 55 q-71 -122 -111 -122 q-35 0 -36 35 l0 -285 q0 -79 -78 -79 l-71 0 ZM673 321 q-37 0 -37 37 q0 15 23 38 q68 69 103 174 q12 35 41 35 q38 0 38 -29 q0 -22 -32 -89 q147 -83 147 -126 q0 -38 -41 -38 q-17 0 -39 23 q-49 52 -98 85 q-71 -110 -105 -110 ZM274 63 q27 0 28 28 l0 263 q0 27 -28 27 l-41 0 q-18 0 -18 -18 l0 -272 q0 -26 28 -28 l31 0 ZM660 -98 q-41 0 -41 44 l0 206 l-186 0 q-48 0 -48 39 q0 39 48 39 l186 0 l0 45 q0 43 42 43 q41 0 41 -43 l0 -45 l219 0 q48 0 48 -39 q0 -39 -48 -39 l-219 0 l0 -206 q0 -44 -42 -44 Z" /><glyph glyph-name="uni79BB" unicode="&#x79bb;" d="M904 725 q23 0 35 -8 q12 -8 12 -27 q0 -19 -12 -27 q-12 -8 -35 -8 l-793 0 q-23 0 -35 8 q-12 8 -12 27 q0 19 12 27 q12 8 35 8 l356 0 l0 48 q0 41 43 41 q43 0 43 -41 l0 -48 l351 0 ZM278 464 q0 29 44 39 q68 16 99 27 l-50 16 l-27 8 q-31 9 -42.5 15.5 q-11.5 6.5 -11.5 21.5 q0 15 9 23.5 q9 8.5 25 8.5 q24 0 189 -56 l9 0 q44 19 110 58 q6 4 12.5 8 q6.5 4 11 5.5 q4.5 1.5 11.5 1.5 q12 0 21 -10 q9 -10 9 -24 q0 -16 -18.5 -31 q-18.5 -15 -70.5 -40 q66 -20 92.5 -37.5 q26.5 -17.5 26.5 -36.5 q0 -12 -9 -20.5 q-9 -8.5 -22 -8.5 q-9 0 -48 14 l-127 49 q-174 -65 -213 -65 q-11 0 -20.5 10.5 q-9.5 10.5 -9.5 23.5 ZM806 297 q58 0 82 -18 q24 -18 21 -63 l0 -212 q0 -52 -27 -76.5 q-27 -24.5 -88 -25.5 l-82 0 q-23 0 -35 10.5 q-12 10.5 -12 29.5 q0 41 45 41 l69 0 q28 0 39 9 q11 9 11 25 l0 176 q0 15 -16 24 q-16 9 -45 10 l-280 0 l-48 -114 l209 18 l-7 10 q-4 6 -7.5 15 q-3.5 9 -3.5 15 q0 13 8 21 q8 8 21 8 q10 0 19.5 -9.5 q9.5 -9.5 30.5 -36.5 q34 -45 48 -68.5 q14 -23.5 14 -34.5 q0 -17 -9 -26 q-9 -9 -25 -9 q-12 0 -20.5 7 q-8.5 7 -19.5 26 l-10 18 l-18 -2 q-331 -46 -372 -46 q-20 0 -31 12.5 q-11 12.5 -11 33.5 q0 20 15 30.5 q15 10.5 43 10.5 l53 3 l45 118 l-163 0 q-29 0 -44 -9 q-15 -9 -16 -25 l0 -246 q0 -22 -11.5 -35 q-11.5 -13 -29.5 -13 q-18 0 -29 13 q-11 13 -11 35 l0 269 q0 45 24 64 q24 19 80 17 l225 0 l13 50 l-213 0 q-57 0 -80 17.5 q-23 17.5 -19 61.5 l0 155 q0 42 39 42 q38 0 38 -42 l0 -134 q0 -20 12.5 -25 q12.5 -5 44.5 -6 l471 0 q26 0 41 8.5 q15 8.5 17 22.5 l0 134 q0 41 39 41 q37 0 37 -41 l0 -155 q0 -45 -22.5 -63 q-22.5 -18 -76.5 -16 l-253 0 l-16 -50 l297 0 Z" /><glyph glyph-name="uni7AD9" unicode="&#x7ad9;" d="M549 -59 q-48 0 -70 20.5 q-22 20.5 -19 66.5 l0 247 q0 47 21 68.5 q21 21.5 68 18.5 l73 0 l0 410 q0 42 41 42 q41 0 41 -42 l0 -145 l214 0 q49 0 49 -39 q0 -39 -49 -39 l-214 0 l0 -187 l131 0 q48 0 69.5 -20.5 q21.5 -20.5 18.5 -67.5 l0 -245 q0 -48 -20.5 -69.5 q-20.5 -21.5 -67.5 -18.5 l-286 0 ZM102 562 q-45 0 -45 40 q0 39 45 39 l121 0 l0 124 q0 44 41 44 q41 0 41 -44 l0 -124 l114 0 q46 0 46 -40 q0 -39 -46 -39 l-317 0 ZM98 14 q-43 0 -43 47 q0 30 28 40 l186 37 l21 121 l32 235 q4 37 38 37 q43 0 43 -36 l-66 -341 l27 8 q27 8 39 8 q34 0 34 -37 q0 -28 -26 -37 q-26 -10 -164 -46 q-138 -36 -149 -36 ZM165 186 q-34 0 -39 51 q-7 77 -28 235 q-5 41 37 41 q25 0 36 -31 l10 -56 l23 -204 q2 -18 -8 -27 q-10 -9 -31 -9 ZM803 16 q39 0 41 42 l0 187 q0 40 -41 42 l-224 0 q-39 0 -41 -41 l0 -189 q0 -39 41 -41 l224 0 Z" /><glyph glyph-name="uni7AE0" unicode="&#x7ae0;" d="M94 499 q-39 0 -39 35 q0 34 39 34 l204 0 l-20 95 l-131 0 q-39 0 -39 34 q0 34 39 34 l314 0 l0 42 q0 42 46 42 q46 0 46 -42 l0 -42 l323 0 q40 0 40 -34 q0 -34 -40 -34 l-140 0 l-29 -95 l223 0 q39 0 39 -34 q0 -35 -39 -35 l-836 0 ZM625 568 l26 95 l-294 0 l23 -95 l245 0 ZM509 -98 q-41 0 -41 46 l0 74 l-372 0 q-41 0 -41 35 q0 35 41 35 l372 0 l0 56 l-213 0 q-49 0 -72 21.5 q-23 21.5 -20 68.5 l0 121 q0 48 22 70 q22 22 70 20 l514 0 q49 0 72 -21.5 q23 -21.5 19 -68.5 l0 -121 q8 -95 -91 -90 l-219 0 l0 -56 l378 0 q41 0 41 -35 q0 -35 -41 -35 l-378 0 l0 -74 q0 -46 -41 -46 ZM778 360 q0 28 -29 30 l-475 0 q-27 0 -29 -30 l0 -31 l533 0 l0 31 ZM749 207 q27 0 29 30 l0 34 l-533 0 l0 -34 q0 -28 29 -30 l475 0 Z" /><glyph glyph-name="uni7AEF" unicode="&#x7aef;" d="M505 545 q-42 0 -61.5 18.5 q-19.5 18.5 -17.5 59.5 l0 103 q0 46 37 46 q37 0 37 -46 l0 -80 q0 -29 31 -31 l102 0 l0 159 q0 41 37 41 q37 0 37 -41 l0 -159 l102 0 q31 0 31 31 l0 79 q0 47 39 47 q38 0 38 -47 l0 -102 q0 -42 -19 -61 q-19 -19 -60 -17 l-333 0 ZM97 563 q-39 0 -39 38 q0 37 39 37 l98 0 l0 127 q0 44 40 44 q39 0 39 -44 l0 -127 l85 0 q41 0 41 -38 q0 -37 -41 -37 l-262 0 ZM362 162 q15 3 23 -8 q8 -11 8 -31 q0 -23 -31 -32 l-243 -59 l-24 -4 q-20 -3 -30 8.5 q-10 11.5 -10 33.5 q0 29 28 38 l152 28 l3 19 l4 19 l44 291 q5 35 14.5 51.5 q9.5 16.5 25.5 16.5 q39 0 39 -31 l-67 -352 l64 12 ZM163 480 q9 -38 20 -126 l12 -127 q3 -34 -37 -34 q-29 0 -32 24 l-28 240 l-2 26 q-2 29 35 29 q24 0 32 -32 ZM675 401 q-13 -34 -44 -91 l225 0 q81 0 81 -81 l0 -237 q0 -83 -81 -84 l-30 0 q-39 0 -39 38 q0 39 38 39 l15 0 q22 0 24 24 l0 199 q0 30 -31 30 l-62 0 l0 -265 q0 -41 -34 -41 q-18 0 -26 10 q-8 10 -8 31 l0 265 l-77 0 l0 -275 q0 -41 -34 -41 q-34 0 -34 41 l0 275 l-43 0 q-29 0 -31 -30 l0 -263 q0 -40 -35 -40 q-36 0 -36 40 l0 286 q0 79 78 79 l66 0 l34 84 l2 7 l-160 0 q-45 0 -45 36 q0 37 45 37 l491 0 q45 0 45 -37 q0 -36 -45 -36 l-249 0 Z" /><glyph glyph-name="uni7CFB" unicode="&#x7cfb;" d="M844 273 q-148 -14 -305 -24 l0 -297 q0 -47 -41 -47 q-21 0 -31.5 11.5 q-10.5 11.5 -10.5 35.5 l0 291 q-225 -14 -351 -18 q-39 -1 -39 43 q0 26 19 35 q14 7 108 7 q87 0 169 5 l47 47 l6 3 q-126 90 -205 131 q-62 32 -62 54 q0 20 10.5 30 q10.5 10 33.5 10 q14 0 36 -14 l44 -24 l32 -19 l102 144 l-116 -10 l-159 -7 q-40 -1 -40 41 q0 39 61 39 l46 0 q365 14 568 60 q50 12 62 12 q46 0 46 -46 q0 -21 -23 -32 q-11 -5 -42.5 -10.5 q-31.5 -5.5 -72.5 -11.5 q-119 -17 -232 -27 l-145 -189 l13 -7 l95 -66 q76 82 137 160 q58 73 82 73 q46 0 46 -41 q0 -19 -68 -96 q-69 -78 -194 -191 l-12 -12 q181 5 340 16 l-8 8 l-47 52 q-23 25 -23 39 q0 33 31 33 q14 0 42.5 -24 q28.5 -24 78.5 -76 q46 -48 70 -81.5 q24 -33.5 24 -49.5 q0 -37 -43 -37 q-21 0 -49 36 l-30 41 ZM921 29 q36 -19 36 -44 q0 -44 -43 -44 q-43 0 -141 93 q-100 95 -100 124 q0 17 9.5 25.5 q9.5 8.5 30.5 8.5 q19 0 58 -43 q72 -78 150 -120 ZM278 188 q41 0 41 -36 q0 -14 -22.5 -45.5 q-22.5 -31.5 -64.5 -76.5 q-87 -93 -128 -93 q-19 0 -28 9.5 q-9 9.5 -9 30.5 q0 24 34 47 q66 45 119 117 q35 47 58 47 Z" /><glyph glyph-name="uni7D22" unicode="&#x7d22;" d="M117 376 q-41 0 -41 47 l0 82 q0 52 22 74.5 q22 22.5 71 19.5 l295 0 l0 71 l-322 0 q-40 0 -40 36 q0 36 40 36 l322 0 l0 37 q0 35 41 35 q41 0 41 -35 l0 -37 l335 0 q40 0 40 -36 q0 -36 -40 -36 l-335 0 l0 -71 l308 0 q50 0 73 -22.5 q23 -22.5 19 -71.5 l0 -82 q0 -47 -40 -47 q-40 0 -40 47 l0 64 q0 39 -42 41 l-625 0 q-40 0 -42 -41 l0 -64 q0 -47 -40 -47 ZM835 184 q-101 -7 -286 -17 l0 -214 q0 -51 -41 -51 q-42 0 -42 51 l0 210 q-125 -6 -336 -13 q-47 -1 -47 42 q0 40 45 40 l166 -1 q73 0 110 2 l21 19 l9 11 l-175 101 q-41 24 -41 43 q0 39 40 39 q15 0 49 -21 l40 -24 l70 95 q20 27 41 27 q40 0 40 -33 q0 -15 -33 -51 l-27 -33 l-35 -39 l82 -51 q68 68 96 103 q43 53 65 53 q40 0 40 -38 q0 -18 -64 -78 q-4 -3 -16.5 -14 q-12.5 -11 -24.5 -25 l-88 -82 l14 0 l275 10 l-6 8 q-50 50 -50 65 q0 34 37 34 q18 0 99 -82 q83 -83 83 -106 q0 -39 -40 -39 q-23 0 -70 59 ZM925 33 q39 -9 39 -41 q0 -44 -41 -44 q-45 0 -134 45 l-68 33 q-32 17 -32 17 q-20 12 -20 31 q0 40 41 40 q10 0 25 -8 q100 -53 190 -73 ZM314 113 q40 0 40 -42 q0 -26 -111 -77 q-111 -51 -145 -51 q-38 0 -38 44 q0 32 63 50 q40 12 115 45 q68 31 76 31 Z" /><glyph glyph-name="uni7D2B" unicode="&#x7d2b;" d="M95 407 q-19 -2 -28.5 9.5 q-9.5 11.5 -9.5 31.5 q0 18 8.5 28 q8.5 10 29.5 12 l47 5 l0 212 q0 22 10 33 q10 11 28 11 q18 0 28 -11 q10 -11 10 -33 l0 -205 l84 10 l0 266 q0 39 39 39 q18 0 28.5 -10 q10.5 -10 10.5 -29 l0 -66 l99 0 q41 0 41 -34 q0 -35 -41 -35 l-99 0 l0 -118 l130 21 q15 2 23.5 -6.5 q8.5 -8.5 8.5 -25.5 q0 -14 -7.5 -23.5 q-7.5 -9.5 -20.5 -11.5 q-254 -48 -396 -67 l-23 -3 ZM795 414 q-144 0 -174 10 q-44 15 -44 67 l0 281 q0 43 38 43 q39 0 39 -43 l0 -98 q110 41 184 81 q18 9 32 9 q24 0 36 -23 q6 -10 6 -22 q0 -12 -8.5 -22.5 q-8.5 -10.5 -25.5 -17.5 q-125 -51 -224 -75 l0 -79 q0 -24 11 -29 q14 -7 77 -7 q109 0 122 14 q7 9 12 48 q4 37 41 37 q42 0 42 -38 q0 -94 -44 -120 q-28 -16 -120 -16 ZM509 -95 q-44 0 -44 53 l0 167 l-344 -18 q-24 -1 -37 10.5 q-13 11.5 -13 33.5 q0 20 13 31 q13 11 38 11 l319 1 l-13 6 l-192 110 q-23 13 -23 31 q0 18 8.5 27.5 q8.5 9.5 22.5 9.5 q14 0 34.5 -8.5 q20.5 -8.5 55.5 -28.5 l56 69 q29 36 51 36 q41 0 41 -37 q0 -12 -45 -60 l-42 -45 l87 -55 q60 58 101 102 q36 40 59 40 q41 0 41 -36 q0 -32 -162 -158 l14 0 l248 9 l-44 45 q-13 13 -13 23 q0 34 38 34 q12 0 28.5 -11 q16.5 -11 34.5 -31 l37 -35 q85 -80 85 -105 q0 -41 -41 -41 q-17 0 -69 60 l-288 -15 l0 -172 q0 -53 -42 -53 ZM929 -74 q-29 0 -120 38 q-94 39 -119 55 q-16 9 -22.5 17 q-6.5 8 -6.5 18 q0 15 8.5 24 q8.5 9 23.5 9 q10 0 23 -4.5 q13 -4.5 26 -11.5 q85 -42 190 -66 q37 -9 37 -37 q0 -42 -40 -42 ZM93 -71 q-38 -4 -38 37 q0 16 11 27 q7 7 73 24 q45 12 113 43 q24 11 39.5 17.5 q15.5 6.5 25.5 6.5 q13 0 22 -8.5 q9 -8.5 12 -26.5 q2 -12 -4 -23 q-6 -11 -21 -18 q-75 -37 -136 -56 q-61 -19 -97 -23 Z" /><glyph glyph-name="uni7E41" unicode="&#x7e41;" d="M212 700 q-50 -60 -80 -85 q-30 -25 -49 -25 q-34 0 -34 36 q0 17 26 39 q69 57 100 114 q23 43 49 43 q16 0 25 -4.5 q9 -4.5 15 -13.5 q6 -9 6 -19 q0 -10 -7 -22 l282 0 q18 0 27 -8 q9 -8 9 -23 q0 -32 -36 -32 l-333 0 ZM548 598 q0 11 13 27 q51 61 91 158 q7 16 15.5 23.5 q8.5 7.5 20.5 7.5 q35 0 35 -31 q0 -14 -25 -57 l-4 -7 l224 0 q39 0 39 -34 q0 -18 -10 -26 q-10 -8 -29 -8 l-28 0 l-4 -14 q-36 -125 -95 -195 l0 -1 q38 -38 133 -73 q34 -14 34 -39 q0 -45 -38 -45 q-27 0 -84 34 q-51 30 -98 74 l-3 1 q-52 -44 -129 -70 q-12 -4 -24 -4 q-29 0 -29 33 q0 22 33 35 q77 29 110 52 l1 4 q-30 44 -42.5 82.5 q-12.5 38.5 -20.5 97.5 q-36 -57 -56 -57 q-30 0 -30 32 ZM899 168 q83 -79 83 -101 q0 -19 -9.5 -27.5 q-9.5 -8.5 -30.5 -8.5 q-8 0 -17.5 8 q-9.5 8 -25.5 25 l-31 33 l-298 -14 l0 -128 q0 -50 -42 -50 q-41 0 -41 50 l0 124 l-347 -17 q-43 -1 -43 39 q0 37 51 37 l298 0 l16 11 l-181 78 q-21 9 -28.5 18 q-7.5 9 -7.5 20 q0 15 9 23.5 q9 8.5 25 8.5 q13 0 43 -10 q30 -10 68 -29 l44 46 q-32 -10 -64 -10 q-42 0 -42 29 q0 12 9.5 17.5 q9.5 5.5 27.5 7.5 q36 4 51 7.5 q15 3.5 20 9.5 l-240 0 q-36 0 -55.5 16 q-19.5 16 -15.5 44 l8 60 l-36 0 q-33 0 -33 29 q0 28 33 28 l43 0 l6 44 q5 38 23.5 56 q18.5 18 53.5 18 l234 0 q37 0 55.5 -15 q18.5 -15 16.5 -43 l-5 -60 l28 0 q32 0 32 -29 q0 -28 -32 -28 l-33 0 l-5 -65 l22 0 q16 0 24 -5.5 q8 -5.5 8 -19.5 q0 -14 -8.5 -22 q-8.5 -8 -23.5 -8 l-26 0 q-3 -24 -35 -43 q8 -2 13 -6 q13 -9 13 -22 q0 -12 -11 -23 l-40 -42 l61 -35 l124 127 q9 9 22 9 q12 0 25 -9 q5 -4 9 -12 q4 -8 4 -15 q0 -5 -3 -10 q-15 -22 -49 -51 l-110 -93 l288 9 l-45 46 q-11 11 -11 21 q0 31 34 31 q17 0 100 -79 ZM681 651 q12 -102 63 -170 l4 0 q48 63 71 170 l-138 0 ZM209 542 l151 0 l-4 1 l-32 10 q-10 4 -32 10 q-9 2 -14 7.5 q-5 5.5 -5 12.5 q0 2 2 8 q8 14 21 14 q2 0 10 -2 q37 -10 65 -19 q11 -4 16 -11.5 q5 -7.5 1 -16.5 q-6 -12 -17 -14 l85 0 l3 40 q2 23 -24 23 l-195 0 q-23 0 -26 -23 l-5 -40 ZM196 447 q-2 -12 4.5 -19.5 q6.5 -7.5 19.5 -7.5 l226 0 l5 65 l-250 0 l-5 -38 ZM371 463 q11 -4 16 -11.5 q5 -7.5 1 -16.5 q-7 -14 -22 -14 q-7 0 -10 1 q-8 2 -64 20 q-19 6 -19 20 q0 2 2 8 q8 14 21 14 q2 0 10 -2 q37 -10 65 -19 ZM932 -16 q15 -5 21.5 -13 q6.5 -8 6.5 -22 q0 -40 -35 -40 q-42 0 -149 52 q-104 51 -104 74 q0 17 8.5 25 q8.5 8 27.5 8 q3 0 44 -17 q107 -45 180 -67 ZM340 59 q34 0 34 -32 q0 -14 -28.5 -34 q-28.5 -20 -80.5 -40 q-117 -47 -152 -47 q-33 0 -33 37 q0 27 49 40 q85 23 140 47 q66 29 71 29 Z" /><glyph glyph-name="uni7F51" unicode="&#x7f51;" d="M146 -92 q-40 0 -40 48 l0 714 q0 52 23 76 q23 24 73 21 l630 0 q52 0 75.5 -23.5 q23.5 -23.5 20.5 -73.5 l0 -651 q8 -114 -107 -108 l-80 0 q-48 0 -48 42 q0 41 48 41 l65 0 q42 0 42 44 l0 607 q0 45 -45 45 l-572 0 q-45 0 -45 -45 l0 -689 q0 -48 -40 -48 ZM521 4 q-38 0 -38 41 q0 16 15 34 q71 90 131 247 q-43 78 -92 152 q-47 71 -47 82 q0 33 37 33 q27 0 132 -171 l2 1 q20 66 37 183 q6 46 38 46 q38 0 38 -36 q0 -19 -25 -130 q-21 -93 -39 -150 l46 -84 q54 -98 54 -126 q0 -41 -39 -41 q-16 0 -28 15 q-11 14 -33 67 l-35 74 q-97 -237 -154 -237 ZM256 25 q-39 0 -39 43 q0 14 19 46 q66 110 104 225 q-45 87 -81 145 q-42 68 -42 78 q0 17 8.5 24.5 q8.5 7.5 27.5 7.5 q21 0 40 -35 l48 -76 l28 -48 q14 50 21 115 q7 60 16 83 q7 18 30 18 q35 0 35 -36 q0 -31 -19 -118 q-17 -79 -35 -149 l24 -49 l19 -39 q20 -39 33 -68 q13 -29 13 -37 q0 -41 -41 -41 q-26 0 -46 56 q-10 30 -33 78 l-2 0 q-87 -223 -128 -223 Z" /><glyph glyph-name="uni8005" unicode="&#x8005;" d="M920 519 q46 0 46 -37 q0 -36 -46 -36 l-346 0 l-146 -93 l343 0 q52 0 74 -21.5 q22 -21.5 22 -73.5 l0 -233 q0 -51 -22.5 -73 q-22.5 -22 -73.5 -22 l-442 0 q-52 0 -74 22 q-22 22 -22 73 l0 210 q-54 -29 -92 -46 q-38 -17 -49 -17 q-19 0 -28 9.5 q-9 9.5 -9 30.5 q0 27 34 40 q169 64 371 194 l-358 0 q-45 0 -45 37 q0 36 45 36 l301 0 l0 116 l-202 0 q-45 0 -45 36 q0 37 45 37 l202 0 l0 67 q0 41 40 41 q40 0 40 -41 l0 -67 l180 0 q45 0 45 -36 q0 -37 -45 -37 l-180 0 l0 -116 l78 0 q142 107 244 225 q24 28 45 28 q18 0 29 -9 q11 -9 11 -23 q0 -12 -2.5 -19.5 q-2.5 -7.5 -10.5 -16.5 q-76 -84 -207 -185 l250 0 ZM786 239 q0 40 -40 40 l-406 0 q-29 0 -29 -28 l0 -73 l475 0 l0 61 ZM786 108 l-475 0 l0 -63 q0 -19 10.5 -30 q10.5 -11 29.5 -11 l395 0 q19 0 29.5 11 q10.5 11 10.5 30 l0 63 Z" /><glyph glyph-name="uni80E1" unicode="&#x80e1;" d="M188 22 q-49 -4 -71.5 18.5 q-22.5 22.5 -19.5 71.5 l0 179 q0 50 21.5 72 q21.5 22 69.5 18 l60 0 l0 167 l-146 0 q-44 0 -44 37 q0 18 10.5 26.5 q10.5 8.5 33.5 8.5 l146 0 l0 146 q0 25 9.5 36.5 q9.5 11.5 29.5 11.5 q37 0 37 -48 l0 -146 l144 0 q46 0 46 -36 q0 -36 -46 -36 l-144 0 l0 -167 l56 0 q97 7 90 -90 l0 -179 q7 -97 -90 -90 l-192 0 ZM461 -90 q-38 0 -38 42 q0 20 26 44 q81 78 98 204 l10 384 l-2 104 q-1 90 89 90 l192 0 q47 0 68 -21 q21 -21 18 -67 l0 -677 q7 -106 -101 -99 l-62 0 q-45 0 -45 41 q0 40 45 40 l41 0 q22 0 34 12 q12 12 12 34 l0 199 l-221 0 q-10 -146 -67 -239 q-56 -91 -97 -91 ZM846 664 q0 19 -10.5 30 q-10.5 11 -29.5 11 l-134 0 q-40 0 -40 -34 l-1 -121 l215 0 l0 114 ZM846 312 l0 166 l-216 0 l-2 -166 l218 0 ZM354 95 q39 0 39 40 l0 132 q0 41 -39 41 l-140 0 q-19 0 -30 -10.5 q-11 -10.5 -11 -30.5 l0 -132 q0 -19 11 -29.5 q11 -10.5 30 -10.5 l140 0 Z" /><glyph glyph-name="uni80FD" unicode="&#x80fd;" d="M513 491 q-22 0 -52 55 l-352 -29 q-25 -2 -38.5 9 q-13.5 11 -13.5 32 q0 41 84 41 l16 0 l44 136 q9 28 16 47.5 q7 19.5 13 24.5 q12 9 32 9 q44 0 44 -37 q0 -40 -76 -178 l192 9 l-32 45 q-21 30 -21 37 q0 33 39 33 q24 0 84 -84 q60 -85 60 -112 q0 -38 -39 -38 ZM745 391 q-122 0 -146 18 q-27 19 -27 59 l0 292 q0 48 39 48 q38 0 38 -48 l0 -105 l76 27 l118 48 q19 8 31 8 q40 0 40 -39 q0 -23 -24 -36 q-23 -12 -87 -31 q-79 -22 -154 -41 l0 -87 q0 -35 46 -38 l25 -2 l41 -1 q42 -1 85 6 q32 6 37 46 q5 36 40 36 q44 0 44 -38 q0 -85 -61 -110 q-28 -12 -161 -12 ZM161 -97 q-39 0 -39 40 l0 453 q0 43 18.5 62.5 q18.5 19.5 60.5 17.5 l213 0 q43 0 62.5 -19 q19.5 -19 16.5 -61 l0 -396 q0 -51 -23 -74.5 q-23 -23.5 -72 -19.5 l-43 0 q-43 0 -43 38 q0 40 43 40 l26 0 q34 0 36 36 l0 92 l-219 0 l0 -169 q0 -40 -37 -40 ZM417 372 q0 32 -31 32 l-157 0 q-31 0 -31 -32 l0 -45 l219 0 l0 45 ZM745 -72 q-120 0 -146 18 q-27 19 -27 60 l0 311 q0 24 9.5 35.5 q9.5 11.5 29.5 11.5 q38 0 38 -47 l0 -104 q63 20 124.5 45.5 q61.5 25.5 70.5 29.5 q19 8 31 8 q42 0 42 -42 q0 -22 -22 -34 q-17 -8 -94 -33 q-53 -17 -152 -40 l0 -106 q0 -17 12 -26 q12 -9 34 -10 l25 -2 l41 -1 q48 -1 85 5 q32 6 37 45 q5 36 40 36 q44 0 44 -38 q0 -86 -61 -109 q-34 -13 -161 -13 ZM417 182 l0 75 l-219 0 l0 -75 l219 0 Z" /><glyph glyph-name="uni81EA" unicode="&#x81ea;" d="M854 672 q30 -31 30 -94 l0 -528 q0 -63 -31 -94 q-30 -30 -93 -30 l-493 0 q-67 0 -94 30 q-29 32 -29 94 l0 528 q0 61 29 94 q26 30 94 30 l152 0 q10 28 25 84 q11 37 43 37 q23 0 35.5 -11.5 q12.5 -11.5 12.5 -29.5 q0 -8 -3 -19 q-8 -23 -29 -61 l257 0 q65 0 94 -30 ZM802 574 q0 50 -49 50 l-476 0 q-51 0 -51 -48 l0 -102 l576 0 l0 100 ZM802 244 l0 152 l-576 0 l0 -152 l576 0 ZM802 166 l-576 0 l0 -112 q0 -51 49 -51 l476 0 q51 0 51 49 l0 114 Z" /><glyph glyph-name="uni8272" unicode="&#x8272;" d="M414 -67 q-179 0 -221 21 q-39 20 -41 77 l0 415 q-4 57 22.5 83.5 q26.5 26.5 84.5 24.5 l248 0 l75 80 q8 10 8 14 q0 12 -14 12 l-282 0 q-154 -173 -202 -173 q-34 0 -34 39 q0 24 27 42 q126 88 209 220 q15 24 44 24 q45 0 45 -28 q0 -14 -29 -52 l289 0 q74 0 74 -47 q0 -10 -31 -44 q-31 -34 -90 -87 l197 0 q54 0 78.5 -24 q24.5 -24 20.5 -75 l0 -133 q7 -105 -99 -99 l-562 0 l0 -156 q0 -33 35 -47 q13 -5 57.5 -6.5 q44.5 -1.5 140.5 -1.5 l85 0 l96 0 q133 0 164 5 q28 4 46 30.5 q18 26.5 23 67.5 q5 39 42 39 q43 0 43 -36 q0 -51 -24 -109 q-12 -30 -39 -47 q-27 -17 -76 -23 l-88 -5 l-322 -1 ZM482 481 l-209 0 q-19 0 -30 -10.5 q-11 -10.5 -12 -30.5 l0 -144 l251 0 l0 185 ZM768 296 q41 0 43 43 l0 98 q0 20 -11 31.5 q-11 11.5 -32 12.5 l-211 0 l0 -185 l211 0 Z" /><glyph glyph-name="uni82B1" unicode="&#x82b1;" d="M354 546 q-21 0 -30 9.5 q-9 9.5 -9 30.5 l0 54 l-207 0 q-45 0 -45 37 q0 38 45 38 l207 0 l0 58 q0 21 9 31 q9 10 30 10 q38 0 38 -41 l0 -58 l231 0 l0 58 q0 41 39 41 q39 0 39 -41 l0 -58 l214 0 q22 0 34 -9.5 q12 -9.5 12 -28.5 q0 -37 -46 -37 l-214 0 l0 -54 q0 -40 -39 -40 q-39 0 -39 40 l0 54 l-231 0 l0 -54 q0 -21 -9 -30.5 q-9 -9.5 -29 -9.5 ZM276 -92 q-40 0 -40 40 l0 337 q-110 -147 -141 -147 q-37 0 -37 39 q0 21 22 40 q126 117 201 278 q20 43 44 43 q41 0 41 -40 q0 -21 -50 -98 l0 -452 q0 -40 -40 -40 ZM662 -60 q-73 2 -101 17 q-26 15 -28 62 l0 476 q0 43 41 43 q39 0 39 -43 l0 -176 q108 55 205 135 q22 19 42 19 q45 0 45 -43 q0 -51 -202 -146 l-90 -40 l0 -183 q0 -19 11 -30 q14 -12 68 -12 l59 -1 q75 -1 102 12 q19 10 27 67 q7 52 44 52 q43 0 43 -37 l-4 -43 q-5 -51 -23.5 -80.5 q-18.5 -29.5 -52.5 -39.5 q-36 -10 -160 -10 l-65 1 Z" /><glyph glyph-name="uni8457" unicode="&#x8457;" d="M340 595 q-39 0 -39 39 l0 35 l-199 0 q-40 0 -40 35 q0 35 40 35 l199 0 l0 37 q0 38 39 38 q39 0 39 -38 l0 -37 l259 0 l0 37 q0 20 9.5 29 q9.5 9 29.5 9 q38 0 38 -38 l0 -37 l206 0 q41 0 41 -35 q0 -35 -41 -35 l-206 0 l0 -35 q0 -39 -38 -39 q-39 0 -39 39 l0 35 l-259 0 l0 -35 q0 -39 -39 -39 ZM333 -65 q-46 0 -66.5 20 q-20.5 20 -17.5 65 l0 180 q-138 -57 -155 -57 q-20 0 -29 9.5 q-9 9.5 -9 29.5 q0 30 67 46 q145 34 311 112 l-335 0 q-38 0 -38 33 q0 33 38 33 l321 0 l0 79 l-233 0 q-37 0 -37 33 q0 33 37 33 l233 0 l0 44 q0 43 39 43 q38 0 38 -43 l0 -44 l148 0 q38 0 38 -33 q0 -33 -38 -33 l-148 0 l0 -79 l65 0 q118 73 238 182 q20 18 35 18 q39 0 39 -37 q0 -39 -192 -163 l248 0 q38 0 38 -33 q0 -33 -38 -33 l-358 0 l-163 -75 l377 0 q47 0 67.5 -21 q20.5 -21 18.5 -65 l0 -159 q0 -45 -20 -66 q-20 -21 -66 -19 l-453 0 ZM789 173 q0 28 -30 30 l-406 0 q-23 0 -25 -24 l0 -49 l461 0 l0 43 ZM759 -2 q28 0 30 30 l0 44 l-461 0 l0 -44 q0 -28 30 -30 l401 0 Z" /><glyph glyph-name="uni8679" unicode="&#x8679;" d="M918 32 q48 0 48 -38 q0 -39 -48 -39 l-425 0 q-24 0 -35.5 9.5 q-11.5 9.5 -11.5 29.5 q0 13 8 24 l-9 0 q-26 0 -40 42 q-268 -88 -311 -88 q-21 0 -31 10 q-10 10 -10 32 q0 25 18 40 l16 6 l148 29 l0 159 l-56 0 q-83 0 -83 83 l0 231 q0 84 82 84 l55 0 l0 134 q0 35 38 35 q39 0 39 -35 l0 -134 l59 0 q81 0 81 -84 l0 -231 q0 -83 -82 -83 l-60 0 l0 -145 l1 0 l77 19 l-11 29 q-13 36 -13 46 q0 31 33 31 q18 0 39.5 -38.5 q21.5 -38.5 45.5 -109.5 q4 -12 4 -32 q0 -10 -8 -17 l185 1 l0 613 l-159 0 q-23 0 -34 9 q-11 9 -11 29 q0 20 11 29 q11 9 34 9 l392 0 q23 0 33.5 -9 q10.5 -9 10.5 -29 q0 -20 -10.5 -29 q-10.5 -9 -33.5 -9 l-152 0 l0 -613 l176 0 ZM235 573 l-39 0 q-25 0 -27 -27 l0 -198 q0 -25 27 -27 l39 0 l0 252 ZM308 321 l40 0 q27 0 28 27 l0 198 q0 27 -28 27 l-40 0 l0 -252 Z" /><glyph glyph-name="uni884C" unicode="&#x884c;" d="M99 582 q-20 0 -29 10.5 q-9 10.5 -9 32.5 q0 24 49 50 q68 36 156 109 q29 24 43 24 q20 0 31.5 -10.5 q11.5 -10.5 11.5 -30.5 q0 -26 -108 -106 q-106 -79 -145 -79 ZM500 685 q-22 0 -33.5 10.5 q-11.5 10.5 -11.5 30.5 q0 20 11.5 30.5 q11.5 10.5 33.5 10.5 l392 0 q45 0 45 -41 q0 -41 -45 -41 l-392 0 ZM332 588 q44 0 44 -37 q0 -30 -97 -136 l0 -462 q0 -27 -10 -39 q-10 -12 -32 -12 q-22 0 -32 12 q-10 12 -10 39 l0 374 q-40 -41 -64 -59 q-24 -18 -37 -18 q-20 0 -29 11 q-9 11 -9 33 q0 24 38 54 q107 83 196 213 q20 27 42 27 ZM919 493 q50 0 50 -40 q0 -41 -50 -41 l-107 0 l0 -389 q4 -59 -23 -87 q-27 -28 -85 -25 l-84 0 q-52 0 -52 45 q0 44 52 44 l60 0 q25 0 37 11.5 q12 11.5 12 36.5 l0 364 l-269 0 q-48 0 -48 41 q0 40 48 40 l459 0 Z" /><glyph glyph-name="uni8868" unicode="&#x8868;" d="M912 11 q55 -18 55 -48 q0 -47 -45 -47 q-31 0 -122 51 q-209 117 -294 346 l-4 0 q-49 -57 -120 -110 l0 -177 l172 41 l10 1 q17 1 25.5 -9 q8.5 -10 8.5 -30 q0 -20 -21 -31 q-24 -13 -184 -53 q-157 -38 -186 -38 q-18 0 -26.5 9 q-8.5 9 -8.5 28 q0 18 12 28.5 q12 10.5 37 15.5 l83 20 l0 144 q-163 -101 -208 -101 q-39 0 -39 40 q0 28 56 47 q53 18 128 62 q134 79 196 139 l-324 0 q-45 0 -45 36 q0 36 45 36 l353 0 l0 86 l-246 0 q-40 0 -40 35 q0 18 9.5 26.5 q9.5 8.5 30.5 8.5 l246 0 l0 84 l-315 0 q-45 0 -45 35 q0 36 45 36 l315 0 l0 52 q0 21 10 30.5 q10 9.5 31 9.5 q21 0 31 -9.5 q10 -9.5 10 -30.5 l0 -52 l324 0 q45 0 45 -36 q0 -35 -45 -35 l-324 0 l0 -84 l256 0 q21 0 30 -8.5 q9 -8.5 9 -26.5 q0 -18 -9 -26.5 q-9 -8.5 -30 -8.5 l-256 0 l0 -86 l363 0 q44 0 44 -36 q0 -36 -44 -36 l-345 0 q35 -96 100 -170 l3 -1 q59 45 121 104 q32 29 51 29 q22 0 32 -9.5 q10 -9.5 10 -29.5 q0 -35 -165 -134 l-6 -5 q75 -69 200 -112 Z" /><glyph glyph-name="uni8D77" unicode="&#x8d77;" d="M921 16 q48 2 48 -42 q0 -19 -13 -32 q-12 -12 -73 -12 q-67 0 -100 1 q-101 0 -151 1 q-110 2 -193 13 q-83 11 -127 29 q-83 34 -135 120 q-37 -164 -88 -164 q-35 0 -35 40 q0 17 13 42 q26 51 43.5 132.5 q17.5 81.5 19.5 158.5 q2 48 39 48 q34 0 34 -48 q0 -29 -10 -127 q18 -33 36 -53.5 q18 -20.5 51 -42.5 l0 339 l-170 0 q-46 0 -46 37 q0 37 46 37 l168 0 l0 111 l-135 0 q-22 0 -34 9.5 q-12 9.5 -12 28.5 q0 37 46 37 l135 0 l0 90 q0 45 41 45 q39 0 39 -45 l0 -90 l103 0 q22 0 34 -9.5 q12 -9.5 12 -28.5 q0 -37 -46 -37 l-103 0 l0 -111 l126 0 q46 0 46 -37 q0 -19 -11 -28 q-11 -9 -35 -9 l-124 0 l0 -127 l104 0 q22 0 34 -9.5 q12 -9.5 12 -28.5 q0 -37 -46 -37 l-104 0 l0 -180 q86 -24 341 -26 q57 0 128 3 q24 0 92 2 ZM590 103 q-31 18 -32 65 l0 503 q0 38 20 58 q20 20 58 20 l195 0 q48 0 69.5 -21 q21.5 -21 17.5 -67 l0 -148 q0 -47 -20.5 -68.5 q-20.5 -21.5 -66.5 -18.5 l-193 0 l0 -216 q0 -36 17 -44 q10 -4 30.5 -6 q20.5 -2 28.5 -3 q34 -2 65 -2 q31 0 67 2 q14 2 20.5 21 q6.5 19 6.5 61 q0 22 10 33 q10 11 28 11 q22 0 33 -11 q11 -11 11 -35 q0 -93 -27 -124 q-15 -17 -43.5 -23.5 q-28.5 -6.5 -80.5 -6.5 q-104 0 -150.5 5 q-46.5 5 -63.5 15 ZM638 504 l163 0 q18 0 27.5 10 q9.5 10 9.5 28 l0 91 q0 36 -37 38 l-124 0 q-39 0 -39 -39 l0 -128 Z" /><glyph glyph-name="uni8DDD" unicode="&#x8ddd;" d="M444 55 q0 -23 -33 -37 q-42 -16 -211 -59 l-72 -19 l-32 -5 q-20 -3 -30.5 8 q-10.5 11 -10.5 33 q0 34 53 44 l0 334 q0 41 36 41 q36 0 36 -41 l0 -319 l34 6 l32 8 l0 411 l-61 0 q-43 0 -63 19.5 q-20 19.5 -18 61.5 l0 156 q0 43 19.5 63 q19.5 20 61.5 18 l152 0 q42 0 61.5 -19.5 q19.5 -19.5 18.5 -61.5 l0 -156 q0 -43 -19 -62.5 q-19 -19.5 -61 -18.5 l-19 0 l0 -132 l61 0 q46 0 46 -38 q0 -39 -46 -39 l-61 0 l0 -184 l65 16 q8 2 16 4.5 q8 2.5 12 2.5 q33 0 33 -35 ZM921 14 q23 0 34 -9 q11 -9 11 -29 q0 -37 -45 -37 l-475 0 q-40 0 -40 37 q0 38 40 38 l54 0 l0 672 l-20 0 q-41 0 -41 38 q0 38 41 38 l435 0 q23 0 34 -9 q11 -9 11 -29 q0 -38 -45 -38 l-334 0 l0 -163 l266 0 q43 0 63 -20.5 q20 -20.5 18 -64.5 l0 -163 q0 -46 -19.5 -66.5 q-19.5 -20.5 -61.5 -18.5 l-266 0 l0 -176 l340 0 ZM312 533 q28 0 30 30 l0 111 q0 29 -30 31 l-103 0 q-28 0 -30 -31 l0 -111 q0 -28 30 -30 l103 0 ZM581 447 l0 -182 l228 0 q19 0 29 10.5 q10 10.5 10 29.5 l0 102 q0 19 -10 29.5 q-10 10.5 -29 10.5 l-228 0 Z" /><glyph glyph-name="uni8FCE" unicode="&#x8fce;" d="M331 111 q-38 0 -38 40 q0 27 26 36 l42 15 l0 444 q0 38 14 59 q6 9 23.5 19 q17.5 10 48.5 24 q21 9 67 28 l28 12 l25 11 q17 7 20 7 q44 0 44 -42 q0 -17 -35 -37 q-35 -20 -117 -51 q-32 -12 -32 -41 l0 -405 l67 26 l28 11 q33 13 37 13 q32 0 32 -36 q0 -28 -84 -63 q-170 -70 -196 -70 ZM260 663 q-6 0 -21.5 7.5 q-15.5 7.5 -18.5 9.5 l-66 34 q-35 18 -35 42 q0 39 38 39 q13 0 79 -29 q31 -14 47 -29.5 q16 -15.5 16 -31.5 q0 -42 -39 -42 ZM671 34 q-42 0 -42 51 l0 558 q0 45 20 65.5 q20 20.5 64 18.5 l141 0 q45 0 65.5 -20 q20.5 -20 17.5 -64 l0 -394 q8 -101 -94 -96 l-54 0 q-43 0 -43 41 q0 40 43 40 l36 0 q15 0 23.5 8.5 q8.5 8.5 8.5 24.5 l0 352 q0 15 -8.5 23.5 q-8.5 8.5 -23.5 8.5 l-80 0 q-16 0 -24 -8.5 q-8 -8.5 -8 -23.5 l0 -534 q0 -51 -42 -51 ZM220 477 q-12 0 -34 13 l-83 36 q-31 14 -31 39 q0 39 39 39 q16 0 83 -28 q65 -28 65 -58 q0 -41 -39 -41 ZM600 -68 q-184 0 -254 20 q-72 20 -121 69 l-2 0 q-96 -84 -127 -84 q-20 0 -30 11 q-10 11 -10 36 q0 32 45 51 q34 16 77 41 l0 181 q0 14 -8 22 q-8 8 -22 8 l-50 0 q-22 0 -32 9.5 q-10 9.5 -10 30.5 q0 20 10 29 q10 9 32 9 l78 0 q44 0 63.5 -19 q19.5 -19 18.5 -59 l0 -202 l25 -26 q68 -53 291 -53 l355 5 q39 0 39 -38 q0 -42 -59 -42 l-309 1 Z" /><glyph glyph-name="uni9068" unicode="&#x9068;" d="M346 539 q-38 0 -38 33 q0 33 38 33 l79 0 l0 63 l-96 0 q-17 0 -27 8 q-10 8 -10 24 q0 16 10 24 q10 8 27 8 l96 0 l0 48 q0 36 36 36 q36 0 36 -36 l0 -48 l111 0 q17 0 27 -8 q10 -8 10 -24 q0 -16 -10 -24 q-10 -8 -27 -8 l-111 0 l0 -63 l84 0 q37 0 37 -33 q0 -33 -37 -33 l-235 0 ZM642 41 q-35 0 -35 38 q0 11 8 20.5 q8 9.5 26 20.5 q67 41 111 99 q-57 103 -66 304 q-39 -70 -60 -70 q-29 0 -29 31 q0 9 14 31 q76 112 100 237 q12 63 46 63 q39 0 39 -33 l-4 -18 l-45 -121 l185 0 q37 0 37 -35 q0 -35 -37 -35 l-13 0 q-7 -232 -85 -358 q43 -54 100 -83 q35 -17 35 -41 q0 -39 -36 -39 q-24 0 -67 32 q-43 32 -75 73 q-101 -116 -149 -116 ZM241 663 q-6 0 -28 11 l-24 12 l-53 27 q-37 19 -37 43 q0 39 38 39 q19 0 80 -29 q63 -31 63 -61 q0 -42 -39 -42 ZM217 477 q-12 0 -45 18 q-38 21 -75 32 q-14 4 -21 14.5 q-7 10.5 -7 23.5 q0 39 39 39 q16 0 84 -28 q65 -27 65 -58 q0 -41 -40 -41 ZM793 284 q56 116 56 289 l-105 0 q4 -183 49 -289 ZM474 47 q-45 0 -45 37 q0 33 40 33 q38 0 47 6 q9 5 12 17 q10 38 17 105 q1 20 -28 20 l-81 0 q-15 -72 -46 -129 q-34 -63 -63 -63 q-37 0 -37 37 q0 13 14 29 q66 79 75 243 l-63 0 q-37 0 -37 33 q0 32 37 32 l109 0 l0 39 q0 44 37 44 q38 0 38 -44 l0 -39 l105 0 q17 0 27 -8 q10 -8 10 -24 q0 -33 -37 -33 l-157 0 l-4 -53 l103 0 q69 0 69 -57 l-4 -54 q-7 -101 -35 -137 q-26 -34 -103 -34 ZM646 -67 q-105 0 -171 3.5 q-66 3.5 -106 12.5 q-85 19 -140 76 l-2 0 q-101 -87 -131 -87 q-39 0 -39 46 q0 32 45 50 q23 10 80 42 l0 187 q0 15 -8 23 q-8 8 -23 9 l-55 0 q-20 0 -29.5 8.5 q-9.5 8.5 -9.5 26.5 q0 19 9.5 28 q9.5 9 29.5 9 l79 0 q43 0 62.5 -19.5 q19.5 -19.5 18.5 -61.5 l0 -193 l32 -32 q29 -29 100 -42 q71 -13 187 -13 l354 4 q38 0 38 -37 q0 -41 -58 -41 l-263 1 Z" /><glyph glyph-name="uni90E8" unicode="&#x90e8;" d="M100 374 q-44 0 -44 36 q0 36 44 36 l84 0 q-7 76 -23 174 l-47 0 q-37 0 -37 36 q0 36 37 36 l174 0 l0 71 q0 51 41 51 q42 0 42 -51 l0 -71 l173 0 q37 0 37 -36 q0 -36 -37 -36 l-54 0 l-2 -13 q-2 -10 -4 -30 q-12 -83 -22 -131 l86 0 q44 0 44 -36 q0 -36 -44 -36 l-448 0 ZM660 -96 q-41 0 -41 49 l0 726 q0 48 21 69.5 q21 21.5 68 18.5 l162 0 q88 0 88 -61 q0 -16 -32 -91 q-39 -90 -57 -122 q-26 -46 -26 -62 q0 -15 28 -37 q13 -10 27 -29.5 q14 -19.5 34 -53.5 q36 -60 36 -125 q0 -171 -180 -171 q-46 0 -46 46 q0 35 55 42 q20 3 35.5 6 q15.5 3 22.5 8 q30 21 30 77 q0 60 -36 115 q-10 15 -62 69 q-22 22 -22 43 q0 16 23 62 q27 54 50 109 q27 64 27 84 q0 16 -24 16 l-100 0 q-41 0 -41 -40 l0 -699 q0 -49 -40 -49 ZM389 446 q17 89 25 174 l-180 0 l2 -12 q18 -103 22 -162 l131 0 ZM209 -50 q-48 0 -70 21 q-22 21 -19 68 l0 165 q-8 95 89 90 l241 0 q49 0 71.5 -21.5 q22.5 -21.5 18.5 -68.5 l0 -165 q0 -48 -21.5 -70 q-21.5 -22 -68.5 -19 l-241 0 ZM422 22 q20 0 29 9.5 q9 9.5 9 29.5 l0 122 q0 39 -38 39 l-186 0 q-39 0 -39 -39 l0 -122 q0 -39 39 -39 l186 0 Z" /><glyph glyph-name="uni91C7" unicode="&#x91c7;" d="M125 672 q-47 0 -47 38 q0 39 60 39 q85 0 190 4 q105 4 191 12 q112 10 210.5 22 q98.5 12 139.5 19 q3 1 9 1 q18 0 27 -11.5 q9 -11.5 9 -26.5 q0 -32 -38 -40 q-88 -19 -347 -39 q-231 -18 -404 -18 ZM758 441 q-40 0 -40 38 q0 12 16 36 q27 40 59 110 q9 19 20 27.5 q11 8.5 26 8.5 q21 0 31 -9 q10 -9 10 -28 q0 -31 -70 -135 q-17 -25 -29 -36.5 q-12 -11.5 -23 -11.5 ZM527 476 q-27 0 -51 53 l-24 45 q-7 13 -12 23.5 q-5 10.5 -5 15.5 q0 36 41 36 q23 0 59 -59 q36 -58 36 -77 q0 -37 -44 -37 ZM242 445 q-25 0 -54 51 q-12 20 -21 38 l-13 22 q-16 24 -16 36 q0 34 41 34 q14 0 31 -15.5 q17 -15.5 35 -45.5 q39 -63 39 -81 q0 -39 -42 -39 ZM510 -96 q-39 0 -39 43 l0 277 q-109 -115 -226 -185 q-111 -66 -147 -66 q-41 0 -41 42 q0 19 10 29 q8 7 60 27 q151 59 316 215 l-323 0 q-24 0 -35 9 q-11 9 -11 28 q0 37 46 37 l351 0 l0 65 q0 36 39 36 q20 0 29.5 -8.5 q9.5 -8.5 9.5 -27.5 l0 -65 l356 0 q24 0 35 -9 q11 -9 11 -28 q0 -19 -11 -28 q-11 -9 -35 -9 l-329 0 q129 -145 334 -215 q57 -19 57 -48 q0 -44 -42 -44 q-15 0 -45.5 13 q-30.5 13 -86.5 41 q-141 71 -244 191 l0 -277 q0 -43 -39 -43 Z" /><glyph glyph-name="uni91CC" unicode="&#x91cc;" d="M919 24 q46 0 46 -37 q0 -37 -46 -37 l-815 0 q-45 0 -45 37 q0 37 45 37 l360 0 l0 126 l-303 0 q-44 0 -44 37 q0 18 10.5 27 q10.5 9 33.5 9 l303 0 l0 99 l-242 0 q-100 0 -94 99 l0 251 q0 52 23 76 q23 24 74 23 l575 0 q52 0 76 -24.5 q24 -24.5 21 -74.5 l0 -251 q0 -51 -22 -75 q-22 -24 -71 -24 l-262 0 l0 -99 l321 0 q44 0 44 -37 q0 -18 -10.5 -27 q-10.5 -9 -33.5 -9 l-321 0 l0 -126 l377 0 ZM205 584 l259 0 l0 114 l-215 0 q-44 0 -44 -44 l0 -70 ZM542 584 l277 0 l0 70 q0 44 -44 44 l-233 0 l0 -114 ZM464 394 l0 117 l-259 0 l0 -72 q0 -45 44 -45 l215 0 ZM542 394 l233 0 q44 0 44 45 l0 72 l-277 0 l0 -117 Z" /><glyph glyph-name="uni9664" unicode="&#x9664;" d="M369 444 q-36 0 -36 38 q0 21 33 42 q144 96 234 263 q8 14 19 22.5 q11 8.5 23 8.5 q22 0 31.5 -11.5 q9.5 -11.5 7.5 -34.5 l-3 -10 q106 -149 259 -218 q34 -16 34 -43 q0 -44 -38 -44 q-33 0 -126 71 q-96 73 -165 176 q-89 -117 -161 -185 q-79 -75 -112 -75 ZM140 -98 q-37 0 -37 45 l0 741 q0 47 21 69 q21 22 68 20 l125 0 q84 0 84 -54 q0 -18 -20 -68.5 q-20 -50.5 -57 -125.5 q-25 -50 -25 -70 q0 -14 27 -48 q27 -35 41 -74 q13 -38 13 -84 q0 -150 -143 -150 q-40 0 -40 46 q0 25 17 34 q10 5 50 10 q41 5 41 71 q0 78 -46 137 q-31 40 -31 61 q0 17 42 109 q41 91 41 111 q0 10 -7.5 15 q-7.5 5 -21.5 5 l-70 0 q-16 0 -24.5 -8.5 q-8.5 -8.5 -9.5 -24.5 l0 -722 q0 -45 -38 -45 ZM535 -94 q-42 0 -42 40 q0 40 38 40 l39 0 q18 0 28 10.5 q10 10.5 11 29.5 l0 231 l-173 0 q-45 0 -45 37 q0 35 45 35 l173 0 l0 105 l-113 0 q-44 0 -44 36 q0 35 44 35 l311 0 q44 0 44 -35 q0 -36 -44 -36 l-122 0 l0 -105 l208 0 q44 0 44 -36 q0 -36 -44 -36 l-208 0 l0 -250 q0 -55 -24 -79.5 q-24 -24.5 -77 -21.5 l-49 0 ZM343 -33 q-37 0 -37 39 q0 16 23 34 q74 57 120 128 q21 32 43 32 q36 0 36 -32 q0 -35 -75 -117 q-76 -84 -110 -84 ZM930 -17 q-36 0 -105 81 q-37 44 -54 67 q-17 23 -17 34 q0 33 39 33 q9 0 17.5 -6 q8.5 -6 20.5 -20 l18 -20 q11 -13 23 -26 q16 -18 59 -52 q38 -30 38 -49 q0 -42 -39 -42 Z" /><glyph glyph-name="uni968F" unicode="&#x968f;" d="M515 469 q70 67 115 170 l-67 0 q-19 0 -29.5 10 q-10.5 10 -10.5 28 q0 15 11 23 q11 8 29 8 l95 0 l19 64 q7 23 15.5 33.5 q8.5 10.5 22.5 10.5 q38 0 38 -35 q0 -10 -21 -73 l201 0 q38 0 38 -34 q0 -35 -38 -35 l-230 0 q-25 -53 -47 -87 l188 0 q79 0 79 -81 l0 -333 q0 -49 -21 -71.5 q-21 -22.5 -68 -19.5 l-44 0 q-41 0 -41 37 q0 37 39 37 l33 0 q32 0 32 32 l0 68 l-196 0 l0 -138 q0 -39 -35 -39 q-34 0 -34 39 l0 374 l-9 -13 l-20 -24 q-18 -21 -33 -21 q-34 0 -34 34 q0 13 23 36 ZM932 6 q39 2 39 -38 q0 -39 -89 -39 l-68 0 q-183 0 -239 22 q-60 23 -99 71 q-106 -91 -130 -91 q-38 0 -38 44 q0 21 62 55 l69 41 l0 184 q0 27 -27 27 l-22 0 q-24 0 -31 16 q4 -20 4 -46 q0 -136 -135 -136 q-38 0 -38 43 q0 34 36 37 q64 6 64 63 q0 88 -64 168 q-15 19 -15 37 q0 20 25 79 q14 32 34 83 l11 27 l9 34 l1 4 q0 6 -6.5 9.5 q-6.5 3.5 -16.5 3.5 l-68 0 q-29 0 -31 -31 l0 -727 q0 -44 -37 -44 q-36 0 -36 44 l0 744 q0 46 20.5 68 q20.5 22 63.5 20 l126 0 q70 0 70 -50 q0 -10 -37 -110 l-44 -95 q-18 -39 -18 -55 q0 -5 10 -18 q52 -68 68 -134 l0 2 q0 36 42 36 l38 0 q73 0 73 -75 l0 -203 q25 -36 84 -56 q53 -18 192 -18 l148 4 ZM421 693 q-17 15 -24.5 25 q-7.5 10 -7.5 20 q0 31 36 31 q15 0 53 -31 q38 -31 38 -51 q0 -37 -34 -37 q-15 0 -31 17 l-30 26 ZM346 523 q0 34 36 34 q13 0 53 -28 q40 -29 40 -49 q0 -37 -35 -37 q-13 0 -29 14 l-24 19 q-41 32 -41 47 ZM657 415 l196 0 l0 46 q0 27 -27 28 l-146 0 q-21 0 -23 -24 l0 -50 ZM657 356 l0 -76 l196 0 l0 76 l-196 0 Z" /><glyph glyph-name="uni9713" unicode="&#x9713;" d="M109 439 q-39 0 -39 43 l0 109 q0 47 21.5 69 q21.5 22 69.5 22 l309 0 l0 41 l-305 0 q-39 0 -39 36 q0 35 39 35 l693 0 q41 0 41 -36 q0 -18 -11 -28.5 q-11 -10.5 -30 -10.5 l-313 4 l0 -41 l318 0 q48 0 70.5 -22 q22.5 -22 19.5 -69 l0 -109 q0 -20 -10.5 -31.5 q-10.5 -11.5 -29.5 -11.5 q-39 0 -39 43 l0 102 q0 17 -8 25 q-8 8 -26 9 l-295 0 l0 -171 q0 -36 -37 -36 q-18 0 -28 9.5 q-10 9.5 -10 28.5 l0 169 l-287 0 q-33 0 -34 -34 l0 -102 q0 -20 -10.5 -31.5 q-10.5 -11.5 -29.5 -11.5 ZM405 581 q32 0 32 -28 q0 -15 -8.5 -22.5 q-8.5 -7.5 -23.5 -7.5 l-190 0 q-32 0 -32 30 q0 28 32 28 l190 0 ZM808 581 q32 0 32 -28 q0 -30 -32 -30 l-198 0 q-31 0 -31 30 q0 28 31 28 l198 0 ZM405 490 q15 0 23.5 -8 q8.5 -8 8.5 -23 q0 -13 -8.5 -20 q-8.5 -7 -23.5 -7 l-190 0 q-15 0 -23.5 7.5 q-8.5 7.5 -8.5 21.5 q0 29 32 29 l190 0 ZM808 490 q32 0 32 -29 q0 -14 -8.5 -21.5 q-8.5 -7.5 -23.5 -7.5 l-198 0 q-31 0 -31 29 q0 29 31 29 l198 0 ZM924 82 q22 0 32.5 -10.5 q10.5 -10.5 10.5 -32.5 q0 -58 -30 -86 q-28 -27 -145 -27 q-110 0 -153 5 q-62 8 -62 69 l0 94 l-160 0 q-20 -102 -119 -143 q-103 -42 -204 -42 q-37 0 -37 38 q0 34 45 37 q221 16 233 110 l-113 0 q-46 0 -68 21 q-22 21 -20 66 l0 122 q0 36 20 56 q20 20 62 24 q102 11 171 24 l33 6 q39 0 39 -37 q0 -27 -33 -30 l-39 -6 q-150 -15 -163 -22 q-12 -5 -12 -21 l0 -25 l222 0 q35 0 35 -31 q0 -31 -35 -31 l-222 0 l0 -28 q0 -14 7.5 -21.5 q7.5 -7.5 21.5 -7.5 l543 0 q28 0 28 29 l0 28 l-252 0 q-35 0 -35 31 q0 31 35 31 l252 0 l0 22 q0 29 -28 29 l-239 0 q-36 0 -36 32 q0 30 36 30 l259 0 q46 0 67 -21 q21 -21 19 -67 l0 -116 q0 -46 -20.5 -67.5 q-20.5 -21.5 -65.5 -19.5 l-149 0 l0 -56 q0 -25 18 -34 q22 -10 103 -10 q55 0 80 9 q24 7 28 47 q1 16 12 24 q11 8 28 8 Z" /><glyph glyph-name="uni975E" unicode="&#x975e;" d="M397 819 q27 0 35 -20 q5 -12 5 -79 l0 -209 q0 -123 -5.5 -200.5 q-5.5 -77.5 -24 -143 q-18.5 -65.5 -57.5 -117.5 q-41 -54 -125 -95 q-45 -21 -70.5 -31 q-25.5 -10 -40.5 -10 q-41 0 -41 39 q0 32 38 43 q88 27 135.5 66 q47.5 39 71.5 103 l-218 -38 q-4 -1 -10 -1 q-17 0 -25.5 10.5 q-8.5 10.5 -8.5 28.5 q0 15 11.5 26 q11.5 11 32.5 14 l241 37 q10 51 12 137 l-200 0 q-49 0 -49 41 q0 39 49 39 l201 0 l0 146 l-226 0 q-50 0 -50 41 q0 39 50 39 l226 0 l0 77 q0 57 43 57 ZM917 196 q51 0 51 -41 q0 -40 -51 -40 l-246 0 l0 -168 q0 -44 -43 -44 q-41 0 -41 44 l0 822 q0 45 41 45 q43 0 43 -45 l0 -84 l228 0 q49 0 49 -39 q0 -41 -49 -41 l-228 0 l0 -157 l201 0 q49 0 49 -40 q0 -41 -49 -41 l-201 0 l0 -171 l246 0 Z" /><glyph glyph-name="uni9762" unicode="&#x9762;" d="M516 680 l-52 -126 l361 0 q54 0 78.5 -23.5 q24.5 -23.5 20.5 -75.5 l0 -428 q0 -54 -23.5 -78.5 q-23.5 -24.5 -75.5 -20.5 l-627 0 q-53 0 -77 23 q-24 23 -22 76 l0 428 q0 53 23.5 78 q23.5 25 75.5 21 l177 0 l43 126 l-314 0 q-47 0 -47 39 q0 39 47 39 l815 0 q48 0 48 -39 q0 -39 -48 -39 l-403 0 ZM328 479 l-103 0 q-22 0 -32 -10.5 q-10 -10.5 -10 -31.5 l0 -392 q0 -22 10 -32 q10 -10 32 -10 l103 0 l0 476 ZM603 479 l-195 0 l0 -103 l195 0 l0 103 ZM682 3 l117 0 q21 0 31 10.5 q10 10.5 10 31.5 l0 393 q0 41 -41 41 l-117 0 l0 -476 ZM603 194 l0 110 l-195 0 l0 -110 l195 0 ZM603 3 l0 120 l-195 0 l0 -120 l195 0 Z" /><glyph glyph-name="uni9996" unicode="&#x9996;" d="M922 687 q46 0 46 -36 q0 -19 -11 -28 q-11 -9 -35 -9 l-388 0 l-3 -7 l-28 -79 l269 0 q95 0 91 -94 l0 -404 q0 -51 -22 -74 q-22 -23 -71 -20 l-515 0 q-50 0 -73 22 q-23 22 -21 72 l0 404 q0 48 22.5 71 q22.5 23 69.5 23 l166 0 l21 86 l-338 0 q-23 0 -34 9 q-11 9 -11 28 q0 19 11 27.5 q11 8.5 34 8.5 l205 0 l-25 53 q-2 5 -9 19 q-7 14 -7 22 q0 30 41 30 q28 0 52 -50 l33 -67 l4 -7 l218 0 l32 87 q14 40 49 40 q41 0 41 -34 q0 -20 -39 -93 l225 0 ZM286 456 q-43 0 -43 -43 l0 -52 l538 0 l0 52 q0 43 -42 43 l-453 0 ZM781 189 l0 100 l-538 0 l0 -100 l538 0 ZM781 117 l-538 0 l0 -66 q0 -43 43 -43 l453 0 q42 0 42 43 l0 66 Z" /><glyph glyph-name="zero" unicode="0" d="M314 -11 q-131 0 -201.5 96 q-70.5 96 -70.5 264 q0 168 70.5 264 q70.5 96 201.5 96 q129 0 200.5 -95 q71.5 -95 71.5 -265 q0 -170 -71.5 -265 q-71.5 -95 -200.5 -95 ZM314 75 q85 0 132 71.5 q47 71.5 47 202.5 q0 130 -47 201.5 q-47 71.5 -132 71.5 q-85 0 -132 -71.5 q-47 -71.5 -47 -201.5 q0 -131 47 -202.5 q47 -71.5 132 -71.5 Z" /><glyph glyph-name="one" unicode="1" d="M177 -1 q-18 0 -30.5 12.5 q-12.5 12.5 -12.5 30.5 q0 18 12.5 31 q12.5 13 30.5 13 l118 0 l0 489 q0 7 -3.5 9.5 q-3.5 2.5 -10.5 -1.5 l-87 -42 q-13 -6 -23 -6 q-19 0 -31.5 12.5 q-12.5 12.5 -12.5 31.5 q0 29 27 42 l136 71 q11 7 28 7 l21 0 q20 0 34.5 -14.5 q14.5 -14.5 14.5 -34.5 l0 -564 l98 0 q18 0 31 -13 q13 -13 13 -31 q0 -18 -13 -30.5 q-13 -12.5 -31 -12.5 l-309 0 Z" /><glyph glyph-name="two" unicode="2" d="M118 -1 q-24 0 -39 14.5 q-15 14.5 -15 38.5 q0 53 31 97 q28 41 68 73.5 q40 32.5 120 83.5 q58 37 97 66 q84 63 84 126 q0 60 -39.5 91.5 q-39.5 31.5 -117.5 31.5 q-90 0 -171 -36 q-12 -5 -19 -5 q-16 0 -27.5 11.5 q-11.5 11.5 -11.5 28.5 q0 25 23 38 q102 51 222 51 q66 0 117 -25 q54 -26 84 -72.5 q30 -46.5 30 -106.5 q0 -61 -34 -110 q-32 -47 -76.5 -84 q-44.5 -37 -131.5 -93 q-76 -52 -108.5 -78.5 q-32.5 -26.5 -45.5 -53.5 l346 0 q18 0 31 -13 q13 -13 13 -31 q0 -18 -13 -30.5 q-13 -12.5 -31 -12.5 l-386 0 Z" /><glyph glyph-name="three" unicode="3" d="M410 361 q63 -15 103.5 -59 q40.5 -44 40.5 -119 q0 -91 -71.5 -142.5 q-71.5 -51.5 -188.5 -51.5 q-114 0 -209 40 q-27 11 -27 39 q0 18 11.5 30.5 q11.5 12.5 29.5 12.5 q9 0 19 -4 q73 -29 159 -29 q83 0 133.5 27 q50.5 27 50.5 83 q0 125 -220 125 l-16 0 q-17 0 -30 13 q-13 13 -13 30 q0 17 13 30 q13 13 30 13 l6 0 q101 0 153 30.5 q52 30.5 52 89.5 q0 49 -41 76 q-41 27 -116 27 q-85 0 -155 -33 q-10 -4 -18 -4 q-15 0 -26.5 11 q-11.5 11 -11.5 27 q0 23 21 35 q95 51 198 51 q115 0 178.5 -47 q63.5 -47 63.5 -134 q0 -122 -119 -167 Z" /><glyph glyph-name="four" unicode="4" d="M433 -6 q-19 0 -32.5 13.5 q-13.5 13.5 -13.5 32.5 l0 135 l-304 0 q-24 0 -41.5 17 q-17.5 17 -17.5 41 l0 9 q0 21 12 37 l314 401 q9 11 22.5 17.5 q13.5 6.5 28.5 6.5 l20 0 q26 0 42.5 -17 q16.5 -17 16.5 -42 l0 -387 l75 0 q17 0 29.5 -12.5 q12.5 -12.5 12.5 -29.5 q0 -18 -12 -29.5 q-12 -11.5 -30 -11.5 l-75 0 l0 -135 q0 -19 -14 -32.5 q-14 -13.5 -33 -13.5 ZM387 574 q0 4 -2 7 q-2 3 -4 3 q-3 0 -8 -6 l-238 -306 q-4 -4 -4 -7 q0 -7 11 -7 l245 0 l0 316 Z" /><glyph glyph-name="five" unicode="5" d="M297 -11 q-122 0 -214 58 q-10 7 -15 15 q-5 8 -5 22 q0 19 11.5 31.5 q11.5 12.5 29.5 12.5 q9 0 21 -5 q81 -42 160 -42 q98 0 146 32.5 q48 32.5 48 107.5 q0 62 -41 97.5 q-41 35.5 -113 35.5 q-84 0 -153 -43 l-12 -6 q-10 -6 -24 -6 q-29 0 -48 16.5 q-19 16.5 -19 42.5 q0 8 2 24 l45 266 q3 23 17.5 37 q14.5 14 36.5 14 l321 0 q18 0 31 -13 q13 -13 13 -31 q0 -18 -13 -30.5 q-13 -12.5 -31 -12.5 l-270 0 q-19 0 -22 -18 l-29 -191 q77 40 168 40 q72 0 127 -29 q52 -29 79.5 -80 q27.5 -51 27.5 -118 q0 -104 -71 -165.5 q-71 -61.5 -204 -61.5 Z" /><glyph glyph-name="six" unicode="6" d="M471 424 q53 -31 81.5 -84.5 q28.5 -53.5 28.5 -122.5 q0 -62 -30 -115 q-31 -54 -88 -83.5 q-57 -29.5 -130 -29.5 q-275 0 -275 359 q0 85 29 169 q30 87 97 139.5 q67 52.5 165 52.5 q53 0 94.5 -11 q41.5 -11 82.5 -32 q10 -5 16 -15.5 q6 -10.5 6 -21.5 q0 -16 -12 -29 q-12 -13 -30 -13 q-9 0 -17 3 q-63 29 -133 29 q-103 0 -152.5 -70.5 q-49.5 -70.5 -56.5 -180.5 q70 85 204 85 q68 0 120 -29 ZM416 96 q34 19 53 51.5 q19 32.5 19 71.5 q0 70 -39 109.5 q-39 39.5 -109 39.5 q-129 0 -188 -109 q27 -183 182 -183 q45 0 82 20 Z" /><glyph glyph-name="seven" unicode="7" d="M230 -6 q-19 0 -32.5 13.5 q-13.5 13.5 -13.5 32.5 q0 14 6 24 l267 532 q2 6 2 7 q0 7 -10 7 l-346 0 q-18 0 -31 13 q-13 13 -13 31 q0 18 13 31.5 q13 13.5 31 13.5 l408 0 q24 0 40.5 -15 q16.5 -15 16.5 -39 q0 -21 -10 -44 l-284 -581 q-6 -12 -18.5 -19 q-12.5 -7 -25.5 -7 Z" /><glyph glyph-name="eight" unicode="8" d="M314 -11 q-93 0 -153 29 q-58 28 -86.5 72 q-28.5 44 -28.5 95 q0 139 147 189 q-52 19 -83 58 q-31 39 -31 94 q0 45 24 85 q24 45 78 71.5 q54 26.5 133 26.5 q83 0 135 -27 q50 -26 75 -68 q25 -42 25 -88 q0 -55 -31 -94 q-31 -39 -83 -58 q147 -50 147 -189 q0 -50 -27 -94 q-28 -47 -89.5 -74.5 q-61.5 -27.5 -151.5 -27.5 ZM314 413 q70 0 106 30.5 q36 30.5 36 76.5 q0 50 -38 78.5 q-38 28.5 -104 28.5 q-66 0 -104 -28.5 q-38 -28.5 -38 -78.5 q0 -46 36 -76.5 q36 -30.5 106 -30.5 ZM314 71 q62 0 102 21 q36 19 54.5 47 q18.5 28 18.5 56 q0 62 -49.5 98 q-49.5 36 -125.5 36 q-76 0 -125.5 -36 q-49.5 -36 -49.5 -98 q0 -25 18 -54 q19 -31 58.5 -50.5 q39.5 -19.5 98.5 -19.5 Z" /><glyph glyph-name="nine" unicode="9" d="M295 709 q275 0 275 -359 q0 -88 -28 -169 q-30 -87 -97.5 -139.5 q-67.5 -52.5 -165.5 -52.5 q-53 0 -94.5 11 q-41.5 11 -82.5 32 q-10 5 -16 15.5 q-6 10.5 -6 21.5 q0 16 12.5 29 q12.5 13 29.5 13 q9 0 17 -3 q63 -29 133 -29 q103 0 152.5 70.5 q49.5 70.5 56.5 180.5 q-70 -85 -204 -85 q-66 0 -119 29 q-54 31 -82.5 84.5 q-28.5 53.5 -28.5 122.5 q0 63 30 115 q31 54 88 83.5 q57 29.5 130 29.5 ZM288 330 q129 0 188 109 q-27 183 -182 183 q-46 0 -81 -19 q-35 -19 -54 -51.5 q-19 -32.5 -19 -72.5 q0 -70 39 -109.5 q39 -39.5 109 -39.5 Z" /><glyph glyph-name="period" unicode="." d="M125 -4 q-23 0 -40 17 q-17 17 -17 40 l0 6 q0 23 17 40 q17 17 40 17 l10 0 q23 0 40 -17 q17 -17 17 -40 l0 -6 q0 -23 -17 -40 q-17 -17 -40 -17 l-10 0 Z" /><glyph glyph-name="comma" unicode="," d="M92 -152 q-12 0 -21 9.5 q-9 9.5 -9 21.5 q0 16 15 26 q27 16 39 36 q12 20 12 55 l-3 0 q-23 0 -40 17 q-17 17 -17 40 l0 6 q0 23 17 40 q17 17 40 17 l10 0 q22 0 37.5 -16.5 q15.5 -16.5 19.5 -40.5 q2 -10 2 -30 q0 -19 -2 -29 q-8 -54 -26 -89 q-18 -35 -56 -58 q-8 -5 -18 -5 Z" /><glyph glyph-name="colon" unicode=":" d="M125 394 q-23 0 -40 17 q-17 17 -17 40 l0 6 q0 23 17 40 q17 17 40 17 l10 0 q23 0 40 -17 q17 -17 17 -40 l0 -6 q0 -23 -17 -40 q-17 -17 -40 -17 l-10 0 ZM125 -4 q-23 0 -40 17 q-17 17 -17 40 l0 6 q0 23 17 40 q17 17 40 17 l10 0 q23 0 40 -17 q17 -17 17 -40 l0 -6 q0 -23 -17 -40 q-17 -17 -40 -17 l-10 0 Z" /><glyph glyph-name="semicolon" unicode=";" d="M125 394 q-23 0 -40 17 q-17 17 -17 40 l0 6 q0 23 17 40 q17 17 40 17 l10 0 q23 0 40 -17 q17 -17 17 -40 l0 -6 q0 -23 -17 -40 q-17 -17 -40 -17 l-10 0 ZM92 -152 q-12 0 -21 9.5 q-9 9.5 -9 21.5 q0 16 15 26 q27 16 39 36 q12 20 12 55 l-3 0 q-23 0 -40 17 q-17 17 -17 40 l0 6 q0 23 17 40 q17 17 40 17 l10 0 q22 0 37.5 -16.5 q15.5 -16.5 19.5 -40.5 q2 -10 2 -30 q0 -19 -2 -29 q-8 -54 -26 -89 q-18 -35 -56 -58 q-8 -5 -18 -5 Z" /><glyph glyph-name="exclam" unicode="!" d="M141 192 q-15 0 -24.5 8 q-9.5 8 -10.5 22 l-18 330 l0 99 q0 22 15.5 37.5 q15.5 15.5 37.5 15.5 q22 0 37 -15.5 q15 -15.5 15 -37.5 l0 -99 l-18 -330 q-1 -14 -10 -22 q-9 -8 -24 -8 ZM141 -5 q-24 0 -42 18 q-18 18 -18 43 q0 24 18 42 q18 18 42 18 q25 0 43 -18 q18 -18 18 -42 q0 -25 -18 -43 q-18 -18 -43 -18 Z" /><glyph glyph-name="question" unicode="?" d="M221 185 q-18 0 -31.5 11.5 q-13.5 11.5 -13.5 28.5 q0 46 16 79 q15 32 35 54.5 q20 22.5 60 54.5 q41 32 57.5 53.5 q16.5 21.5 16.5 47.5 q0 108 -142 108 q-35 0 -68 -8.5 q-33 -8.5 -59 -24.5 q-14 -8 -26 -8 q-16 0 -28.5 12.5 q-12.5 12.5 -12.5 28.5 q0 23 25 39 q41 26 83 37 q42 11 94 11 q103 0 164.5 -51.5 q61.5 -51.5 61.5 -138.5 q0 -37 -14 -68 q-13 -29 -32 -49 q-19 -20 -55 -49 q-47 -37 -66.5 -64 q-19.5 -27 -19.5 -64 q0 -16 -13.5 -28 q-13.5 -12 -31.5 -12 ZM219 -5 q-24 0 -42 18 q-18 18 -18 43 q0 24 18 42 q18 18 42 18 q25 0 43 -18 q18 -18 18 -42 q0 -25 -18 -43 q-18 -18 -43 -18 Z" /><glyph glyph-name="asterisk" unicode="*" d="M208 383 q-12 0 -21.5 9 q-9.5 9 -9.5 21 q0 7 16 104 l-21 -17 q-59 -48 -62 -49 q-6 -3 -13 -3 q-16 0 -28 15 q-4 8 -4 17 q0 17 15 25 l97 38 l-97 38 q-15 9 -15 26 q0 9 4 17 q10 15 27 15 q6 0 14 -4 q3 -1 62 -49 l21 -17 q-16 97 -16 104 q0 12 9.5 21 q9.5 9 21.5 9 q12 0 21.5 -9 q9.5 -9 9.5 -21 q0 -7 -16 -104 l21 17 l61 49 q5 4 15 4 q17 0 27 -15 q4 -8 4 -16 q0 -17 -15 -27 l-97 -38 l97 -38 q15 -9 15 -26 q0 -8 -4 -16 q-12 -15 -28 -15 q-7 0 -13 3 q-3 1 -62 49 l-21 17 q16 -97 16 -104 q0 -12 -9.5 -21 q-9.5 -9 -21.5 -9 Z" /><glyph glyph-name="numbersign" unicode="#" d="M159 -6 q-15 0 -25.5 10.5 q-10.5 10.5 -10.5 25.5 l24 151 l-76 0 q-14 0 -25 11 q-11 11 -11 25 q0 14 11 25 q11 11 25 11 l87 0 l24 150 l-76 0 q-14 0 -25 11 q-11 11 -11 25 q0 14 11 25 q11 11 25 11 l87 0 l25 157 q2 13 12 21 q10 8 24 8 q16 0 26 -10.5 q10 -10.5 10 -25.5 q0 -9 -24 -150 l125 0 l25 157 q2 13 12 21 q10 8 24 8 q16 0 26 -10.5 q10 -10.5 10 -25.5 q0 -9 -24 -150 l76 0 q14 0 25 -11 q11 -11 11 -25 q0 -14 -11 -25 q-11 -11 -25 -11 l-87 0 l-24 -150 l76 0 q14 0 25 -11 q11 -11 11 -25 q0 -14 -11 -25 q-11 -11 -25 -11 l-87 0 l-25 -157 q-2 -12 -12.5 -21 q-10.5 -9 -23.5 -9 q-15 0 -25.5 10.5 q-10.5 10.5 -10.5 25.5 l24 151 l-125 0 l-25 -157 q-2 -12 -12.5 -21 q-10.5 -9 -23.5 -9 ZM380 403 l-125 0 l-24 -150 l125 0 l24 150 Z" /><glyph glyph-name="slash" unicode="/" d="M89 -96 q-18 0 -30 12 q-12 12 -12 30 q0 6 3 15 l265 775 q4 13 14.5 21 q10.5 8 25.5 8 q18 0 30 -12 q12 -12 12 -30 q0 -6 -3 -15 l-265 -775 q-4 -13 -14.5 -21 q-10.5 -8 -25.5 -8 Z" /><glyph glyph-name="uniFF1A" unicode="&#xff1a;" d="M512 512 q-32 0 -54 23 q-22 25 -22 53 q0 29 23 54 q22 22 55 22 q30 0 52 -22 q22 -24 22 -54 q0 -32 -23 -54 q-22 -22 -53 -22 ZM512 55 q-29 0 -54 23 q-22 25 -22 54 q0 30 23 53 q22 22 55 22 q32 0 52 -23 q22 -22 22 -52 q0 -33 -23 -55 q-24 -22 -53 -22 Z" /><glyph glyph-name="uniFF0C" unicode="&#xff0c;" d="M470 176 q-15 0 -22 7 q-7 7 -7 24 q0 12 19 26 q79 57 79 93 q0 9 -5 9 q-3 0 -7.5 -1 q-4.5 -1 -8.5 -1 q-89 0 -89 84 q0 40 25.5 63 q25.5 23 68.5 23 q96 0 96 -114 q0 -79 -58 -149 q-52 -64 -91 -64 Z" /><glyph glyph-name="uniFF01" unicode="&#xff01;" d="M512 155 q-39 0 -40 42 l-21 512 q0 59 61 59 q60 0 60 -60 l0 -19 l-22 -492 q-1 -42 -38 -42 ZM512 -51 q-29 0 -48 21 q-19 21 -19 47 q0 26 20 48 q20 19 49 19 q25 0 46 -19 q19 -20 19 -48 q0 -31 -20 -48 q-20 -20 -47 -20 Z" /><glyph glyph-name="parenleft" unicode="(" d="M225 -155 q-12 0 -18.5 4 q-6.5 4 -15.5 14 q-68 82 -104.5 197 q-36.5 115 -36.5 247 q0 132 36.5 247 q36.5 115 104.5 197 q9 10 15.5 14 q6.5 4 18.5 4 q16 0 28.5 -11.5 q12.5 -11.5 12.5 -28.5 q0 -9 -6 -23 q-56 -92 -86.5 -193.5 q-30.5 -101.5 -30.5 -205.5 q0 -104 30.5 -205.5 q30.5 -101.5 86.5 -193.5 q6 -14 6 -23 q0 -17 -12.5 -28.5 q-12.5 -11.5 -28.5 -11.5 Z" /><glyph glyph-name="parenright" unicode=")" d="M88 -155 q-16 0 -28.5 11.5 q-12.5 11.5 -12.5 28.5 q0 9 6 23 q56 92 86.5 193.5 q30.5 101.5 30.5 205.5 q0 104 -30.5 205.5 q-30.5 101.5 -86.5 193.5 q-6 14 -6 23 q0 17 12.5 28.5 q12.5 11.5 28.5 11.5 q12 0 18.5 -4 q6.5 -4 15.5 -14 q68 -82 104.5 -197 q36.5 -115 36.5 -247 q0 -132 -36.5 -247 q-36.5 -115 -104.5 -197 q-9 -10 -15.5 -14 q-6.5 -4 -18.5 -4 Z" /><glyph glyph-name="braceleft" unicode="{" d="M269 -146 q-70 0 -105.5 27.5 q-35.5 27.5 -35.5 93.5 l0 211 q0 36 -19.5 53.5 q-19.5 17.5 -71.5 26.5 q-17 3 -26 14 q-9 11 -9 27 q0 16 9 27 q9 11 26 14 q52 9 71.5 26.5 q19.5 17.5 19.5 53.5 l0 211 q0 66 35.5 93.5 q35.5 27.5 105.5 27.5 l12 0 q14 0 25 -11 q11 -11 11 -25 q0 -14 -11 -25 q-11 -11 -25 -11 l-15 0 q-35 0 -46.5 -10.5 q-11.5 -10.5 -11.5 -30.5 l0 -222 q0 -85 -88 -118 q88 -33 88 -118 l0 -222 q0 -20 11.5 -30.5 q11.5 -10.5 46.5 -10.5 l15 0 q14 0 25 -11 q11 -11 11 -25 q0 -14 -11 -25 q-11 -11 -25 -11 l-12 0 Z" /><glyph glyph-name="braceright" unicode="}" d="M63 -146 q-14 0 -25 11 q-11 11 -11 25 q0 14 11 25 q11 11 25 11 l15 0 q35 0 46.5 10.5 q11.5 10.5 11.5 30.5 l0 222 q0 85 88 118 q-88 33 -88 118 l0 222 q0 20 -11.5 30.5 q-11.5 10.5 -46.5 10.5 l-15 0 q-14 0 -25 11 q-11 11 -11 25 q0 14 11 25 q11 11 25 11 l12 0 q70 0 105.5 -27.5 q35.5 -27.5 35.5 -93.5 l0 -211 q0 -36 19.5 -53.5 q19.5 -17.5 71.5 -26.5 q17 -3 26 -14 q9 -11 9 -27 q0 -16 -9 -27 q-9 -11 -26 -14 q-52 -9 -71.5 -26.5 q-19.5 -17.5 -19.5 -53.5 l0 -211 q0 -66 -35.5 -93.5 q-35.5 -27.5 -105.5 -27.5 l-12 0 Z" /><glyph glyph-name="bracketleft" unicode="[" d="M131 -133 q-18 0 -31.5 13.5 q-13.5 13.5 -13.5 31.5 l0 776 q0 18 13.5 31.5 q13.5 13.5 31.5 13.5 l127 0 q15 0 26 -11 q11 -11 11 -26 q0 -15 -11 -26 q-11 -11 -26 -11 l-79 0 q-12 0 -12 -12 l0 -695 q0 -12 12 -12 l79 0 q15 0 26 -11 q11 -11 11 -25 q0 -15 -11 -26 q-11 -11 -26 -11 l-127 0 Z" /><glyph glyph-name="bracketright" unicode="]" d="M64 -133 q-15 0 -26 11 q-11 11 -11 26 q0 14 11 25 q11 11 26 11 l79 0 q12 0 12 12 l0 695 q0 12 -12 12 l-79 0 q-15 0 -26 11 q-11 11 -11 26 q0 15 11 26 q11 11 26 11 l127 0 q18 0 31.5 -13.5 q13.5 -13.5 13.5 -31.5 l0 -776 q0 -18 -13.5 -31.5 q-13.5 -13.5 -31.5 -13.5 l-127 0 Z" /><glyph glyph-name="hyphen" unicode="-" d="M109 239 q-17 0 -29 12 q-12 12 -12 29 q0 18 11.5 30 q11.5 12 29.5 12 l189 0 q17 0 29.5 -12.5 q12.5 -12.5 12.5 -29.5 q0 -18 -12 -29.5 q-12 -11.5 -30 -11.5 l-189 0 Z" /><glyph glyph-name="underscore" unicode="_" d="M85 -148 q-13 0 -23.5 10 q-10.5 10 -10.5 24 q0 13 10.5 23.5 q10.5 10.5 23.5 10.5 l493 0 q14 0 24 -10.5 q10 -10.5 10 -23.5 q0 -14 -10 -24 q-10 -10 -24 -10 l-493 0 Z" /><glyph glyph-name="quotedbl" unicode="&quot;" d="M114 541 q-28 0 -33 33 l-21 146 l-1 9 q0 53 55 53 q23 0 41 -18 q16 -17 14 -34 l-2 -10 l-21 -146 q-5 -33 -32 -33 ZM299 541 q-27 0 -32 33 l-22 146 l-1 10 q0 52 55 52 q55 0 55 -54 l-1 -8 l-21 -146 q-5 -33 -33 -33 Z" /><glyph glyph-name="quotesingle" unicode="&#39;" d="M111 491 q-12 0 -20 7 q-8 7 -10 19 q-22 110 -22 180 q0 21 15.5 36 q15.5 15 36.5 15 q21 0 36.5 -15 q15.5 -15 15.5 -36 q0 -70 -22 -180 q-2 -12 -10 -19 q-8 -7 -20 -7 Z" /><glyph glyph-name="uni3002" unicode="&#x3002;" d="M512 201 q-67 0 -112 46 q-45 46 -45 112 q0 65 46 110 q48 46 114 46 q63 0 108 -47 q46 -47 46 -110 q0 -67 -47 -112 q-46 -45 -110 -45 ZM512 267 q37 0 66 31 q25 27 25 61 q0 37 -27 63 q-29 27 -66 27 q-40 0 -65 -30 q-24 -27 -24 -61 q0 -41 27 -65 q29 -26 64 -26 Z" /><glyph glyph-name="dollar" unicode="$" d="M574 185 q0 -53 -28 -97 q-29 -43 -82 -68.5 q-53 -25.5 -121 -29.5 l0 -70 q0 -13 -9 -22 q-9 -9 -23 -9 q-13 0 -22 8.5 q-9 8.5 -9 22.5 l0 70 q-106 7 -201 47 q-12 5 -20.5 17 q-8.5 12 -8.5 25 q0 18 12 30.5 q12 12.5 30 12.5 q11 0 19 -4 q80 -36 169 -40 l0 228 q-69 18 -113 39 q-54 24 -82 64.5 q-28 40.5 -28 93.5 q0 52 26 97 q27 46 78 74 q51 28 119 34 l0 69 q0 13 9 22.5 q9 9.5 22 9.5 q13 0 22.5 -9.5 q9.5 -9.5 9.5 -22.5 l0 -68 q98 -5 173 -33 q29 -11 29 -41 q0 -16 -12 -29.5 q-12 -13.5 -29 -13.5 q-7 0 -16 4 q-66 24 -145 27 l0 -236 q68 -16 119 -37 q52 -22 82 -62.5 q30 -40.5 30 -102.5 ZM150 510 q0 -42 31 -66 q31 -24 99 -42 l0 218 q-62 -9 -96 -38 q-34 -29 -34 -72 ZM343 78 q139 10 139 113 q0 36 -32.5 58 q-32.5 22 -106.5 42 l0 -213 Z" /><glyph glyph-name="plus" unicode="+" d="M281 103 q-16 0 -28 12 q-12 12 -12 28 l0 163 l-163 0 q-16 0 -27.5 11.5 q-11.5 11.5 -11.5 27.5 q0 17 11.5 28.5 q11.5 11.5 27.5 11.5 l163 0 l0 163 q0 17 12 28.5 q12 11.5 28 11.5 q17 0 28.5 -11.5 q11.5 -11.5 11.5 -28.5 l0 -163 l162 0 q17 0 28.5 -11.5 q11.5 -11.5 11.5 -28.5 q0 -16 -11.5 -27.5 q-11.5 -11.5 -28.5 -11.5 l-162 0 l0 -163 q0 -16 -11.5 -28 q-11.5 -12 -28.5 -12 Z" /><glyph glyph-name="equal" unicode="=" d="M112 403 q-16 0 -28 12 q-12 12 -12 28 q0 17 12 28.5 q12 11.5 28 11.5 l488 0 q17 0 28.5 -11.5 q11.5 -11.5 11.5 -28.5 q0 -16 -11.5 -28 q-11.5 -12 -28.5 -12 l-488 0 ZM112 179 q-16 0 -28 12 q-12 12 -12 28 q0 17 12 28.5 q12 11.5 28 11.5 l488 0 q17 0 28.5 -11.5 q11.5 -11.5 11.5 -28.5 q0 -16 -11.5 -28 q-11.5 -12 -28.5 -12 l-488 0 Z" /><glyph glyph-name="greater" unicode="&gt;" d="M94 57 q-17 0 -29 12 q-12 12 -12 29 q0 12 8 23 q8 11 20 16 l357 159 l-357 159 q-12 5 -20 16 q-8 11 -8 23 q0 17 12 29 q12 12 29 12 q9 0 16 -3 l399 -179 q37 -18 37 -53 l0 -8 q0 -35 -37 -53 l-399 -179 q-7 -3 -16 -3 Z" /><glyph glyph-name="less" unicode="&lt;" d="M486 57 q-8 0 -16 3 l-399 179 q-37 18 -37 53 l0 8 q0 35 37 53 l399 179 q8 3 16 3 q17 0 29 -12 q12 -12 12 -29 q0 -12 -8 -23 q-8 -11 -20 -16 l-358 -159 l358 -159 q12 -5 20 -16 q8 -11 8 -23 q0 -17 -12 -29 q-12 -12 -29 -12 Z" /><glyph glyph-name="asciitilde" unicode="~" d="M440 205 q-35 0 -65 9.5 q-30 9.5 -81 33.5 q-38 19 -58.5 26 q-20.5 7 -41.5 7 q-54 0 -69 -53 q-2 -9 -9 -14.5 q-7 -5.5 -16 -5.5 q-10 0 -18.5 8.5 q-8.5 8.5 -8.5 18.5 q0 32 18 63 q18 31 47.5 50.5 q29.5 19.5 62.5 19.5 q36 0 66 -9.5 q30 -9.5 81 -33.5 q38 -19 58.5 -26 q20.5 -7 41.5 -7 q26 0 37 8 q11 8 24 32 q4 11 9 19 q8 16 25 16 q12 0 20 -9 q8 -9 5 -23 q-12 -62 -45.5 -96 q-33.5 -34 -82.5 -34 Z" /><glyph glyph-name="percent" unicode="%" d="M204 356 q-76 0 -119 50 q-43 50 -43 130 q0 80 43 130 q43 50 119 50 q76 0 119 -50 q43 -50 43 -130 q0 -80 -43 -130 q-43 -50 -119 -50 ZM204 -11 q-13 0 -23.5 10 q-10.5 10 -10.5 24 q0 10 5 18 l407 651 q11 16 29 16 q16 0 25.5 -8.5 q9.5 -8.5 9.5 -22.5 q0 -12 -7 -23 l-404 -647 q-11 -18 -31 -18 ZM204 423 q41 0 65.5 30.5 q24.5 30.5 24.5 82.5 q0 52 -24.5 82.5 q-24.5 30.5 -65.5 30.5 q-41 0 -65.5 -30.5 q-24.5 -30.5 -24.5 -82.5 q0 -52 24.5 -82.5 q24.5 -30.5 65.5 -30.5 ZM610 -19 q-76 0 -119 50 q-43 50 -43 130 q0 80 43 130 q43 50 119 50 q76 0 119 -50 q43 -50 43 -130 q0 -80 -43 -130 q-43 -50 -119 -50 ZM610 48 q41 0 65.5 30.5 q24.5 30.5 24.5 82.5 q0 52 -24.5 82.5 q-24.5 30.5 -65.5 30.5 q-41 0 -65.5 -30.5 q-24.5 -30.5 -24.5 -82.5 q0 -52 24.5 -82.5 q24.5 -30.5 65.5 -30.5 Z" /><glyph glyph-name="at" unicode="@" d="M400 -84 q-103 0 -185 47 q-79 47 -123 127 q-44 80 -44 172 q0 115 58 212 q58 99 156.5 157 q98.5 58 210.5 58 q103 0 191 -44 q89 -46 140 -125.5 q51 -79.5 51 -177.5 q0 -66 -19 -119 q-20 -59 -63 -94 q-43 -35 -105 -35 q-47 0 -76.5 20.5 q-29.5 20.5 -36.5 52.5 q-30 -37 -72.5 -55.5 q-42.5 -18.5 -91.5 -18.5 q-79 0 -125 49 q-46 49 -46 128 q0 75 34 131 q32 54 87 83.5 q55 29.5 117 29.5 q76 0 127 -50 l3 15 q2 14 13 23 q11 9 25 9 q16 0 26.5 -11 q10.5 -11 10.5 -27 l-1 -11 l-33 -190 q-7 -35 -7 -65 q0 -30 13 -47 q13 -17 36 -17 q60 0 94 52.5 q34 52.5 34 146.5 q0 91 -47 158 q-46 65 -120.5 99.5 q-74.5 34.5 -158.5 34.5 q-97 0 -183 -51 q-86 -52 -137 -137.5 q-51 -85.5 -51 -183.5 q0 -72 36 -141 q37 -69 104.5 -110 q67.5 -41 157.5 -41 q58 0 102.5 10.5 q44.5 10.5 106.5 35.5 q8 2 11 2 q11 0 18.5 -7.5 q7.5 -7.5 7.5 -17.5 q0 -7 -4 -14 q-4 -7 -11 -10 q-106 -53 -231 -53 ZM413 164 q121 0 145 139 l16 93 q-43 45 -112 45 q-45 0 -80 -19 q-39 -20 -61 -57 q-22 -37 -22 -85 q0 -55 30.5 -85.5 q30.5 -30.5 83.5 -30.5 Z" /><glyph glyph-name="ampersand" unicode="&amp;" d="M316 -11 q-83 0 -139 30 q-54 28 -80.5 74.5 q-26.5 46.5 -26.5 102.5 q0 63 32.5 112 q32.5 49 80.5 80 q-32 38 -46.5 71 q-14.5 33 -14.5 74 q0 47 23 88 q23 41 66 64.5 q43 23.5 99 23.5 q66 0 134 -44 q7 -4 12.5 -13 q5.5 -9 5.5 -18 q0 -15 -10.5 -25.5 q-10.5 -10.5 -25.5 -10.5 q-6 0 -18 5 q-49 26 -94 26 q-49 0 -77.5 -26.5 q-28.5 -26.5 -28.5 -64.5 q0 -30 10 -51 q9 -20 27 -40.5 q18 -20.5 63 -62.5 l208 -196 q9 13 32 59 q5 12 16 19 q11 7 24 7 q18 0 30.5 -12 q12.5 -12 12.5 -30 q0 -8 -5 -20 q-19 -42 -48 -82 l67 -63 q9 -8 12.5 -15 q3.5 -7 3.5 -18 q0 -18 -12 -30 q-12 -12 -30 -12 q-18 0 -32 12 l-66 64 q-44 -37 -96.5 -57.5 q-52.5 -20.5 -108.5 -20.5 ZM308 68 q84 0 152 55 l-221 208 q-36 -23 -58.5 -58.5 q-22.5 -35.5 -22.5 -79.5 q0 -35 19.5 -63.5 q19.5 -28.5 54 -45 q34.5 -16.5 76.5 -16.5 Z" /><glyph glyph-name="bar" unicode="|" d="M126 -197 q-17 0 -29 12 q-12 12 -12 29 l0 856 q0 18 11.5 30 q11.5 12 29.5 12 q17 0 29.5 -12.5 q12.5 -12.5 12.5 -29.5 l0 -856 q0 -18 -12 -29.5 q-12 -11.5 -30 -11.5 Z" /></font>
</defs>
</svg>
